<svg xmlns="http://www.w3.org/2000/svg" fill="none" viewBox="0 0 190 161"><path d="M100.543 60.347c3.044 2.826 6.112 5.693 9.196 8.54 2.384 2.2 4.808 4.36 7.18 6.568 2.041 1.903 4.07 3.823 6.038 5.803.991.993.718 2.302.269 3.396-.521 1.265-1.519 2.237-2.929 2.554-.726.163-1.422.106-2.062-.537a321.08 321.08 0 0 0-7.84-7.621c-.285-.268-1.088-.382-1.361-.183-.546.407-.065.842.306 1.208 2.534 2.48 5.044 4.982 7.591 7.446 1.133 1.094.75 2.257.33 3.481-.66 1.932-2.555 3.014-4.478 2.457-.318-.094-.599-.383-.847-.627a1430.189 1430.189 0 0 1-8.317-8.105c-.464-.46-.864-.76-1.442-.207-.591.565-.061.874.273 1.212 2.473 2.476 4.951 4.949 7.432 7.422 1.288 1.285 1.031 3.416-.526 4.38-1.405.87-3.903.679-5.109-.489-2.706-2.61-5.367-5.266-8.048-7.901-.179-.175-.354-.484-.541-.496-.46-.029-.93.085-1.394.142.13.398.147.91.412 1.175a486.094 486.094 0 0 0 7.749 7.548c.469.447.608.805.4 1.44-.884 2.7-3.382 3.749-5.86 2.354-.696-.39-1.316-.931-1.951-1.386 1.992-4.95-.184-9.342-4.474-9.687-.795-1.416-1.394-2.794-2.274-3.961-.917-1.22-2.31-1.806-3.969-1.887-.268-1.668-.928-3.213-2.367-4.258-.725-.529-1.552-1.066-2.4-1.224-.807-.15-1.1-.55-1.296-1.168-.729-2.305-2.395-3.773-4.636-4.184-2.462-.452-4.87-.05-6.512 2.281-.912 1.297-1.915 2.542-2.933 3.758-.184.22-.746.366-.999.248-1.332-.61-2.624-1.31-3.924-1.98l8.39-25.076c.428.065.97.19 1.516.223 2.05.118 3.985-.297 5.851-1.167 4.466-2.082 8.931-4.164 13.446-6.128.774-.338 1.817-.212 2.706-.082.88.126 1.72.525 2.848.895-1.467.703-2.722 1.326-3.997 1.903-2.954 1.338-5.917 2.648-8.879 3.973-1.308.586-2.612 1.176-3.924 1.757-.627.277-1.06.639-1.218 1.4-.68 3.293-.668 6.433 2.009 8.93 1.259 1.175 2.828 1.745 4.572 1.89 3.614.302 6.906-.719 10.092-2.272 2.567-1.253 5.159-2.457 7.897-3.758h.004Z" fill="#fff"/><path d="M124.023 52.99c.811 3.335 1.585 6.52 2.355 9.703 1.059 4.364 2.123 8.724 3.141 13.095.045.192-.26.623-.476.688-1.622.467-3.26.882-4.898 1.289-1.21.3-1.911-.598-2.644-1.269-2.502-2.29-4.939-4.644-7.432-6.946-3.423-3.16-6.874-6.291-10.313-9.435-.815-.748-1.61-1.52-2.478-2.208-.244-.191-.778-.269-1.055-.134-2.673 1.28-5.293 2.667-7.974 3.924-2.669 1.248-5.39 2.468-8.402 2.48-1.858.009-3.594-.569-4.885-2.09-.872-1.029-1.365-4.611-.689-5.677.102-.162.318-.272.505-.358 4.548-2.057 9.095-4.111 13.642-6.165 2.901-1.31 5.745-2.786 8.724-3.892 3.944-1.468 7.656-.81 11.03 1.818 1.882 1.468 3.83 2.892 5.9 4.07 1.781 1.018 3.838 1.31 5.949 1.099v.008Zm-58.116-1.533c-.522 1.63-.95 2.993-1.398 4.351a2889.574 2889.574 0 0 1-3.329 10.066 1575.6 1575.6 0 0 1-3.508 10.472c-.359 1.057-1.129 1.419-2.164 1.09-3.044-.973-6.087-1.949-9.127-2.937-.909-.297-1.357-1.2-1.051-2.106 1.577-4.665 3.178-9.321 4.743-13.986 1.067-3.184 2.09-6.389 3.145-9.577.57-1.72 1.076-1.977 2.73-1.416 2.938.997 5.88 1.981 8.793 3.034.457.163.787.671 1.166 1.013v-.004Zm60.092 1.212c-.142-1.078.538-1.566 1.365-1.773 3.028-.76 6.068-1.473 9.111-2.16 1.223-.276 1.826.118 2.139 1.387 1.092 4.36 2.152 8.731 3.223 13.095.791 3.22 1.594 6.434 2.352 9.663.313 1.33-.261 1.996-1.716 2.334-2.803.647-5.594 1.338-8.39 2.017-1.605.39-2.098.187-2.493-1.387-.868-3.448-1.642-6.917-2.469-10.374-.799-3.323-1.618-6.637-2.429-9.956-.232-.947-.46-1.89-.693-2.838v-.008ZM71.273 87.35c-1.284-.19-2.575-.166-3.696-.593-1.837-.696-2.762-3.449-1.727-5.12 1.055-1.708 2.347-3.274 3.565-4.876.709-.932 3.064-1.294 4.539-.562 1.381.688 2.212 1.68 2.119 3.299-.029.532-.004 1.065-.004 1.736 1.841-.362 3.597-.362 4.865 1.155 1.222 1.46 1.271 3.103.379 4.787 2.004-.537 3.948-.879 5.46.968 1.218 1.492 1.238 3.127.248 5.026 1.394-.756 2.604-.85 3.94-.366 2.474.895 3.423 4.144 1.712 6.165-.57.675-1.137 1.359-1.626 2.091-1.01 1.521-2.437 2.127-4.18 1.883-1.573-.22-2.629-1.237-3.069-2.725-.244-.822-.183-1.733-.277-2.786-2.172 1.245-4.193 1.135-5.75-.89-1.046-1.359-1.189-2.904-.244-4.608-1.683.862-3.34 1.004-4.8-.216-1.426-1.191-2.057-2.725-1.446-4.376l-.008.008Zm73.44 66.098c-6.666 4.197-14.461 2.371-17.537-4.234 4.017-2.167 13.633-1.992 17.537 4.234Zm-99.475.069c2.233-5.238 10.619-6.852 17.065-4.502-1.679 5.934-11.116 9.061-17.065 4.502Zm5.352-10.492c-4.397 6.417-12.485 6.45-17.578 1.525 2.49-4.632 12.566-5.039 17.578-1.525Zm105.98 1.72c-5.126 4.042-12.534 5.315-17.57-1.497 4.413-4.181 15.545-2.965 17.57 1.497Zm11.044-10.741c-4.001 3.693-8.165 5.8-13.414 4.275-.969-.281-1.89-.883-2.709-1.505-2.099-1.594-2.123-1.94.212-3.192 4.637-2.497 9.412-3.388 14.306-.602.505.288.982.626 1.609 1.029l-.004-.005Zm-127.705 1.249c-4.747 5.238-13.149 4.498-17.46-1.31 2.89-3.916 12.994-3.314 17.46 1.31Zm136.197-13.66c-3.007 6.364-12.949 8.963-16.754 4.14 2.88-4.4 9.856-7.17 16.754-4.14Zm-162.63.166c4.564-3.204 13.79-.809 17.061 3.982-5.656 4.75-13.214 2.232-17.06-3.982Zm-6.519-13.835c7.693-.7 13.181 1.797 15.793 7.092-6.588 4.218-14.835-1.456-15.793-7.092Zm165.801-4.738c2.522-6.852 10.451-11.192 14.66-8.971-1.67 7.45-8.573 11.261-14.66 8.971ZM2.066 94.072c7.27-.443 12.436 2.705 14.677 8.833-5.003 3.384-11.172-.28-14.677-8.833Zm180.846 14.405c-2.84 6.853-10.427 9.931-15.842 6.698 2.641-6.047 10.065-8.955 15.842-6.698ZM.101 64.271c3.036.269 5.321 1.77 7.273 3.897 2.148 2.338 2.836 5.331 3.55 8.275.069.293-.934 1.204-1.451 1.212-2.555.053-4.568-1.395-6.145-3.127C.786 71.726-.359 68.306.105 64.27H.101Zm176.809 26.3c.603-5.055 6.471-12.42 12.318-11.167 1.422 6.14-5.204 12.151-12.318 11.167Zm12.447-26.235c1.165 8.028-4.694 13.624-10.362 13.21-.684-5.434 4.833-13.372 10.362-13.21ZM.051 79.47c5.965-.484 12.814 5.702 12.492 11.127C4.973 92.23.329 84.959.051 79.469ZM2.72 49.712c4.43.09 9.384 7.523 8.145 14.498-6.254.195-10.63-8.752-8.145-14.498Zm175.888 14.567c-.95-7.556 4.832-15.242 8.695-14.482 1.397 9.452-3.305 13.872-8.695 14.482ZM13.947 51.45c-4.32-.92-6.34-3.352-7.339-6.573-.961-3.11-.688-6.299.632-9.56 3.174 1.085 4.938 3.672 5.696 6.645.746 2.92.68 6.05 1.01 9.483v.004Zm3.35-12.786c-4.748-2.017-6.023-7.381-5.293-11.322.236-1.273.827-2.49 1.307-3.713.502-1.273 1.37-1.887 2.258-.46 1.161 1.867 2.277 3.815 3.01 5.873.91 2.537.03 7.641-1.283 9.622Zm159.298 12.542c-1.797-4.843.024-13.961 5.737-15.759 2.514 6.02 1.198 14.104-5.737 15.759Zm-4.361-12.502c-2.689-7.62-1.764-12.668 2.946-16.283 3.48 2.733 4.173 13.762-2.946 16.283Zm-5.935-11.423c-3.154-4.904-4.127-11.42-1.019-15.702.991-1.366 1.708-1.212 2.413-.118 2.375 3.697 3.581 7.674 1.687 11.92-.62 1.391-1.928 2.48-3.081 3.9ZM31.498 16.45c-3.032-2.578-3.77-6.91-2.27-10.321.84-1.912 2.131-3.636 3.321-5.376.709-1.037 1.418-.985 2.037.244 2.392 4.754 1.076 9.093-1.43 13.298-.46.773-1.1 1.435-1.658 2.155Zm-8.293 10.484c-4.368-3.131-4.73-9.606-1.94-14.063.522-.83 1.284-1.508 1.936-2.257.705.834 1.56 1.586 2.082 2.522 1.817 3.27.827 11.862-2.078 13.798Zm103.304 120.348c-1.935-6.982.114-13.363 4.902-15.49 3.565 5.262 1.809 12.782-4.902 15.49ZM155.98 0c5.435 3.668 7.041 12.981 2.253 16.312-4.062-3.6-6.014-12.806-2.253-16.312ZM62.967 147.287c-6.527-2.266-8.133-11.33-4.563-15.426 5.31 2.741 7.029 10.769 4.563 15.426Zm-9.231-12.286c-.502 1.761-.954 3.538-1.524 5.274-.375 1.147-1.084 1.147-1.977.399-4.12-3.457-5.007-9.891-1.984-14.189.738-1.049 1.112-1.078 2.058-.102 2.347 2.42 3.027 5.332 3.427 8.618Zm84.329 6.141c-3.194-4.543-2.037-10.549.844-14.36 1.141-1.509 1.76-1.488 2.766.183 2.747 4.559 1.781 11.993-3.61 14.177Zm-93.451-15.65c-.856 2.371-1.642 4.645-2.498 6.886-.59 1.541-1.548 1.35-2.343.223-3.5-4.969-3.504-8.8-.016-13.786.884-1.265 1.996-1.216 2.571.163.843 2.037 1.475 4.16 2.286 6.51v.004Zm107.831.094c-.098 2.83-.893 5.335-2.975 7.336-.75.72-1.116.72-1.781-.285-2.778-4.205-2.909-9.849-.158-13.989.594-.895 1.198-.932 1.935-.163 1.919 1.997 2.889 4.372 2.979 7.101Zm-120.45-1.163c-4.092-3.88-3.517-11.46 1.372-15.067 1.365-1.005 1.81.345 2.176 1.366 1.683 4.657.676 10.545-3.549 13.701Zm125.863.09c-4.27-2.977-6.002-10.973-3.227-14.869.216-.301 1.365-.337 1.752-.056 4.437 3.257 5.566 9.752 1.475 14.925Zm7.245-10.517c-5.166-3.762-6.727-8.735-4.808-15.043 6.328 1.773 8.744 10.57 4.808 15.043ZM29.126 98.831c2.975 5.34-.542 13.612-4.783 15.072-3.395-4.767-1.402-12.685 4.783-15.072Zm-10.459 3.664c-2.852-4.64.029-12.619 6.65-14.18 2.51 4.156-.945 11.525-6.65 14.18Zm152.434.082c-5.44-2.392-7.746-7.04-7.172-14.336 3.338.96 5.945 2.595 7.294 5.942 1.149 2.85 1.084 5.583-.122 8.394ZM23.492 77.363c.721 6.116-3.883 12.525-9 12.533-1.508-6.592 3.789-12.883 9-12.533ZM138.141.545c6.992-.43 12.949 4.205 13.825 10.2-4.678 1.09-11.242-3.7-13.825-10.2Zm39.037 76.642c-4.665.891-11.185-5.433-10.908-11.004 5.648-.858 10.998 3.908 10.908 11.004Zm-11.183.248c5.986-.191 9.678 4.782 9.127 12.298-4.592.586-9.766-6.389-9.127-12.298Zm-153.208-.166c-.9-6.222 4.706-12.31 10.838-11.16-1.328 6.707-5.586 11.128-10.838 11.16Zm24.776-66.435C39.99 3.554 45.337-.406 51.294.646 50.81 5.624 41.604 12.2 37.56 10.83l.004.004ZM12.668 64.17c1.222-7.935 8.174-11.094 12.5-9.057-1.95 6.271-6.47 9.581-12.5 9.057Zm164.084-.065c-5.411 1.04-11.78-3.925-12.053-9.399 6.854-1.13 11.98 3.933 12.053 9.399Zm-1.872-12.669c-3.725 2.25-11.483-1.256-13.724-7.198 5.159-2.22 11.609.289 13.724 7.199Zm-4.108-12.123c-4.959 2.534-11.637-.179-14.62-5.38 5.094-3.298 12.359-.334 14.62 5.38ZM14.711 51.62c2.416-6.849 7.147-9.59 13.768-7.454-2.807 6.649-8.997 8.345-13.768 7.454Zm149.898-23.852c-3.712 2.904-11.38 1.956-15.031-2.867 3.162-3.81 11.747-3.026 15.031 2.867ZM33.555 34.124c-2.71 3.961-6.356 5.897-10.916 6.153-.77.045-1.556-.28-2.343-.382-1.28-.163-1.41-.74-.766-1.757 3.272-5.14 8.023-7.23 14.025-4.018v.004Zm14.528-17.642c-3.981 4.201-10.733 4.657-15.427 1.07 3.724-4.966 10.83-5.523 15.427-1.07ZM24.895 27.768c3.495-5.42 10.158-6.836 15.027-3.135-1.65 3.835-10.81 6.706-15.027 3.135ZM141.738 16.7c3.227-5.003 11.947-3.632 15.129.732-3.781 3.745-11.262 3.155-15.129-.732Zm-59.8 128.716h2.758l2.645-.024 2.107-.025c.717-.008 1.438-.016 2.155-.028.118 0 .236-.012.35-.028.029-.005.07-.045.082-.074.106-.313.204-.63.306-.947.09-.281.183-.566.277-.846.154-.484.31-.964.464-1.448.135-.419.277-.838.408-1.257.191-.593.374-1.191.566-1.785.138-.431.285-.858.428-1.289.13-.403.256-.805.387-1.208a1.93 1.93 0 0 1 .045-.126c1.136 3.103 2.265 6.169 3.394 9.248 3.084-.012 6.169-.029 9.249-.041 0 .008 0 .021.004.029-2.62 1.773-5.244 3.55-7.872 5.327l3.203 9.264c-.082-.057-.139-.101-.2-.142-.79-.557-1.581-1.11-2.371-1.667-.827-.586-1.655-1.176-2.482-1.765-.835-.594-1.67-1.184-2.506-1.773a.794.794 0 0 0-.085-.053c-.174-.112-.341-.112-.501 0-.35.244-.697.492-1.048.736-.497.345-.998.691-1.495 1.037-.86.593-1.72 1.183-2.575 1.777-.734.508-1.459 1.017-2.192 1.525-.045.028-.09.061-.155.106.134-.423.265-.814.391-1.208.183-.569.359-1.143.542-1.712.232-.716.469-1.428.7-2.139.241-.736.474-1.468.71-2.205.122-.378.244-.752.362-1.13.013-.033-.008-.098-.036-.118-.95-.712-1.903-1.419-2.856-2.127-.783-.577-1.57-1.155-2.347-1.732-.938-.696-1.87-1.395-2.808-2.095 0 0 0-.004-.016-.049l.012-.008Z" fill="#fff"/></svg>