<svg width="56" height="56" viewBox="0 0 56 56" fill="none" xmlns="http://www.w3.org/2000/svg">
<rect width="56" height="56" rx="4" fill="black"/>
<path d="M27.6493 23.5759C29.6712 23.5759 31.3103 21.9368 31.3103 19.9149C31.3103 17.893 29.6712 16.2539 27.6493 16.2539C25.6274 16.2539 23.9883 17.893 23.9883 19.9149C23.9883 21.9368 25.6274 23.5759 27.6493 23.5759Z" stroke="white" stroke-width="1.4" stroke-linecap="round" stroke-linejoin="round"/>
<path d="M34.0557 29.983C34.0557 28.2838 33.3807 26.6542 32.1792 25.4527C30.9777 24.2512 29.3482 23.5762 27.649 23.5762C25.9498 23.5762 24.3202 24.2512 23.1187 25.4527C21.9172 26.6542 21.2422 28.2838 21.2422 29.983V32.7287H23.988L24.9032 40.0507H30.3947L31.31 32.7287H34.0557V29.983Z" stroke="white" stroke-width="1.4" stroke-linecap="round" stroke-linejoin="round"/>
<circle cx="28.0041" cy="28.0002" r="17.4525" stroke="white" stroke-width="1.4"/>
<circle cx="28.0003" cy="10.2034" r="2.50339" fill="white" stroke="white" stroke-width="1.4"/>
<circle cx="28.0003" cy="45.7971" r="2.50339" fill="white" stroke="white" stroke-width="1.4"/>
<circle cx="10.2034" cy="28.0017" r="2.50339" transform="rotate(-90 10.2034 28.0017)" fill="white" stroke="white" stroke-width="1.4"/>
<circle cx="45.7971" cy="28.0017" r="2.50339" transform="rotate(-90 45.7971 28.0017)" fill="white" stroke="white" stroke-width="1.4"/>
</svg>
