<svg width="48" height="48" viewBox="0 0 48 48" fill="none" xmlns="http://www.w3.org/2000/svg">
<circle cx="24" cy="24" r="24" fill="black"/>
<path d="M19.5226 13.3369H28.4826C31.8959 13.3369 34.6693 16.1102 34.6693 19.5236V28.4836C34.6693 30.1244 34.0175 31.698 32.8572 32.8582C31.697 34.0184 30.1234 34.6702 28.4826 34.6702H19.5226C16.1093 34.6702 13.3359 31.8969 13.3359 28.4836V19.5236C13.3359 17.8828 13.9877 16.3092 15.148 15.1489C16.3082 13.9887 17.8818 13.3369 19.5226 13.3369ZM19.3093 15.4702C18.2908 15.4702 17.3141 15.8748 16.594 16.595C15.8738 17.3151 15.4693 18.2918 15.4693 19.3102V28.6969C15.4693 30.8196 17.1866 32.5369 19.3093 32.5369H28.6959C29.7144 32.5369 30.6911 32.1323 31.4112 31.4122C32.1314 30.6921 32.5359 29.7153 32.5359 28.6969V19.3102C32.5359 17.1876 30.8186 15.4702 28.6959 15.4702H19.3093ZM29.6026 17.0702C29.9562 17.0702 30.2954 17.2107 30.5454 17.4608C30.7955 17.7108 30.9359 18.05 30.9359 18.4036C30.9359 18.7572 30.7955 19.0963 30.5454 19.3464C30.2954 19.5964 29.9562 19.7369 29.6026 19.7369C29.249 19.7369 28.9098 19.5964 28.6598 19.3464C28.4097 19.0963 28.2693 18.7572 28.2693 18.4036C28.2693 18.05 28.4097 17.7108 28.6598 17.4608C28.9098 17.2107 29.249 17.0702 29.6026 17.0702ZM24.0026 18.6702C25.4171 18.6702 26.7736 19.2322 27.7738 20.2323C28.774 21.2325 29.3359 22.5891 29.3359 24.0036C29.3359 25.4181 28.774 26.7746 27.7738 27.7748C26.7736 28.775 25.4171 29.3369 24.0026 29.3369C22.5881 29.3369 21.2316 28.775 20.2314 27.7748C19.2312 26.7746 18.6693 25.4181 18.6693 24.0036C18.6693 22.5891 19.2312 21.2325 20.2314 20.2323C21.2316 19.2322 22.5881 18.6702 24.0026 18.6702ZM24.0026 20.8036C23.1539 20.8036 22.34 21.1407 21.7399 21.7408C21.1397 22.341 20.8026 23.1549 20.8026 24.0036C20.8026 24.8523 21.1397 25.6662 21.7399 26.2663C22.34 26.8664 23.1539 27.2036 24.0026 27.2036C24.8513 27.2036 25.6652 26.8664 26.2653 26.2663C26.8655 25.6662 27.2026 24.8523 27.2026 24.0036C27.2026 23.1549 26.8655 22.341 26.2653 21.7408C25.6652 21.1407 24.8513 20.8036 24.0026 20.8036Z" fill="white"/>
</svg>
