<svg width="48" height="48" viewBox="0 0 48 48" fill="none" xmlns="http://www.w3.org/2000/svg">
<circle cx="24" cy="24" r="24" fill="black"/>
<g clip-path="url(#clip0_1424_2453)">
<rect width="29.3333" height="29.3333" transform="translate(9.32812 9.33398)" fill="black"/>
<circle cx="23.9948" cy="24.0007" r="14.6667" fill="white"/>
<path d="M9.32812 11.435C9.32812 10.2745 10.2925 9.33398 11.4823 9.33398H36.5073C37.6971 9.33398 38.6615 10.2745 38.6615 11.435V36.5663C38.6615 37.7268 37.6971 38.6673 36.5073 38.6673H11.4823C10.2925 38.6673 9.32812 37.7268 9.32812 36.5663V11.435ZM18.3903 33.8897V20.6438H13.9885V33.8897H18.3903ZM16.1903 18.8343C17.7248 18.8343 18.68 17.8187 18.68 16.5463C18.6525 15.2465 17.7266 14.2583 16.2196 14.2583C14.7126 14.2583 13.7281 15.2483 13.7281 16.5463C13.7281 17.8187 14.6833 18.8343 16.161 18.8343H16.1903ZM25.1883 33.8897V26.4922C25.1883 26.0962 25.2176 25.7002 25.335 25.4178C25.6521 24.6277 26.3763 23.8082 27.5936 23.8082C29.1868 23.8082 29.823 25.0218 29.823 26.8038V33.8897H34.2248V26.2923C34.2248 22.2223 32.0541 20.3303 29.1575 20.3303C26.8218 20.3303 25.775 21.6137 25.1883 22.5175V22.5633H25.159C25.1687 22.548 25.1785 22.5327 25.1883 22.5175V20.6438H20.7883C20.8433 21.8868 20.7883 33.8897 20.7883 33.8897H25.1883Z" fill="black"/>
</g>
<defs>
<clipPath id="clip0_1424_2453">
<rect width="29.3333" height="29.3333" fill="white" transform="translate(9.32812 9.33398)"/>
</clipPath>
</defs>
</svg>
