<svg width="48" height="48" viewBox="0 0 48 48" fill="none" xmlns="http://www.w3.org/2000/svg">
<circle cx="24" cy="24" r="24" fill="black"/>
<g clip-path="url(#clip0_1424_2461)">
<path d="M24.0706 16.002H24.1893C25.2853 16.006 30.8386 16.046 32.3359 16.4486C32.7886 16.5715 33.2011 16.811 33.5322 17.1433C33.8632 17.4755 34.1013 17.8889 34.2226 18.342C34.3573 18.8486 34.4519 19.5193 34.5159 20.2113L34.5293 20.35L34.5586 20.6966L34.5693 20.8353C34.6559 22.054 34.6666 23.1953 34.6679 23.4446V23.5446C34.6666 23.8033 34.6546 25.022 34.5586 26.2913L34.5479 26.4313L34.5359 26.57C34.4693 27.3326 34.3706 28.09 34.2226 28.6473C34.1017 29.1006 33.8637 29.5141 33.5326 29.8464C33.2015 30.1787 32.7888 30.4181 32.3359 30.5406C30.7893 30.9566 24.9106 30.9859 24.0959 30.9873H23.9066C23.4946 30.9873 21.7906 30.9793 20.0039 30.9179L19.7773 30.91L19.6613 30.9046L19.4333 30.8953L19.2053 30.886C17.7253 30.8206 16.3159 30.7153 15.6666 30.5393C15.2139 30.4169 14.8014 30.1777 14.4702 29.8456C14.1391 29.5135 13.9011 29.1003 13.7799 28.6473C13.6319 28.0913 13.5333 27.3326 13.4666 26.57L13.4559 26.4299L13.4453 26.2913C13.3795 25.3878 13.343 24.4825 13.3359 23.5766L13.3359 23.4126C13.3386 23.126 13.3493 22.1353 13.4213 21.042L13.4306 20.9046L13.4346 20.8353L13.4453 20.6966L13.4746 20.35L13.4879 20.2113C13.5519 19.5193 13.6466 18.8473 13.7813 18.342C13.9022 17.8887 14.1402 17.4752 14.4713 17.1429C14.8024 16.8106 15.2151 16.5711 15.6679 16.4486C16.3173 16.2753 17.7266 16.1686 19.2066 16.102L19.4333 16.0926L19.6626 16.0846L19.7773 16.0806L20.0053 16.0713C21.2742 16.0305 22.5437 16.0078 23.8133 16.0033H24.0706V16.002ZM21.8693 20.282V26.706L27.4119 23.4953L21.8693 20.282Z" fill="#FFFEFE"/>
</g>
<defs>
<clipPath id="clip0_1424_2461">
<rect width="21.3333" height="21.3333" fill="white" transform="translate(13.3359 13.3369)"/>
</clipPath>
</defs>
</svg>
