<svg width="12" height="11" viewBox="0 0 12 11" fill="none" xmlns="http://www.w3.org/2000/svg">
<path d="M7.08594 8.64844C8.0625 8.46615 8.70703 7.75 9.01953 6.5C9.20182 5.75781 9.26693 5.11328 9.21484 4.56641H7.08594V0.308594H11.2656V4.23438C11.2656 5.78385 10.9466 7.17057 10.3086 8.39453C9.67057 9.60547 8.59635 10.3021 7.08594 10.4844V8.64844ZM0.523438 8.64844C1.5 8.46615 2.15104 7.75 2.47656 6.5C2.65885 5.75781 2.71745 5.11328 2.65234 4.56641H0.523438V0.308594H4.68359V4.23438C4.68359 5.78385 4.36458 7.16406 3.72656 8.375C3.08854 9.57292 2.02083 10.276 0.523438 10.4844V8.64844Z" fill="black"/>
</svg>
