<svg width="18" height="17" viewBox="0 0 18 17" fill="none" xmlns="http://www.w3.org/2000/svg">
<path d="M7.23047 3.27588C5.79297 3.54671 4.78255 4.58838 4.19922 6.40088C3.90755 7.29671 3.76172 8.18213 3.76172 9.05713C3.76172 9.1613 3.76172 9.25505 3.76172 9.33838C3.78255 9.40088 3.80339 9.55713 3.82422 9.80713H7.23047V16.6196H0.574219V10.3384C0.574219 7.25505 1.1888 4.88005 2.41797 3.21338C3.64714 1.54671 5.2513 0.588379 7.23047 0.338379V3.27588ZM17.7617 3.27588C16.6159 3.46338 15.7409 4.10921 15.1367 5.21338C14.5534 6.31755 14.2617 7.58838 14.2617 9.02588C14.2617 9.15088 14.2617 9.27588 14.2617 9.40088C14.2826 9.52588 14.3138 9.6613 14.3555 9.80713H17.7617V16.6196H11.0742V10.3384C11.0742 7.85921 11.5951 5.65088 12.6367 3.71338C13.6784 1.75505 15.3867 0.630046 17.7617 0.338379V3.27588Z" fill="black"/>
</svg>
