<svg width="56" height="56" viewBox="0 0 56 56" fill="none" xmlns="http://www.w3.org/2000/svg">
<rect width="56" height="56" rx="4" fill="black"/>
<path d="M27.1651 32.4501L27.1722 32.1946C27.1763 32.0436 27.1763 31.8927 27.1722 31.7417L27.1651 31.4857L27.3249 31.2855L29.0186 29.1643C29.0391 29.1386 29.0534 29.1083 29.0602 29.0758C29.067 29.0432 29.0661 29.0095 29.0575 28.9775L29.0573 28.9767C28.7955 27.9902 28.4039 27.043 27.8928 26.1602C27.8764 26.1318 27.8537 26.1079 27.8266 26.0901L28.2108 25.505L27.8266 26.0901C27.7998 26.0725 27.7693 26.0614 27.7377 26.0576C27.7374 26.0576 27.7371 26.0575 27.7368 26.0575L25.0467 25.7574L24.792 25.7289L24.6159 25.5428C24.5122 25.4333 24.4074 25.3283 24.3016 25.2278L24.118 25.0534L24.0885 24.8019L23.7706 22.0953L23.7704 22.0943C23.7666 22.0615 23.7552 22.0301 23.7372 22.0026C23.7193 21.9752 23.6953 21.9525 23.6672 21.9362L23.667 21.9361C22.7861 21.4247 21.8414 21.0326 20.8578 20.7699C20.8265 20.7616 20.7937 20.7607 20.762 20.7674C20.7304 20.7741 20.7006 20.7882 20.6751 20.8087L20.6739 20.8096L18.5632 22.4987L18.3715 22.6522H18.1259H17.6354H17.3897L17.1978 22.4986L15.0815 20.8038L15.0813 20.8037C15.0558 20.7832 15.026 20.7692 14.9943 20.7625C14.9627 20.7559 14.9299 20.7567 14.8986 20.7651L14.8982 20.7652C13.9144 21.0281 12.9698 21.4206 12.0889 21.9325L11.7371 21.3273M27.1651 32.4501L14.9034 43.1664C13.9198 42.9037 12.9752 42.5116 12.0942 42.0002L12.094 42.0001C12.066 41.9838 12.042 41.9611 12.024 41.9337C12.006 41.9063 11.9946 41.8749 11.9908 41.842L11.9908 41.8419L11.6763 39.1353L11.6472 38.8846L11.4647 38.7101C11.3585 38.6086 11.2527 38.5025 11.1472 38.3918L10.9713 38.2072L10.718 38.179L8.02783 37.8788C8.02754 37.8788 8.02725 37.8788 8.02696 37.8787C7.99535 37.8749 7.96493 37.8638 7.93808 37.8462C7.91102 37.8284 7.88831 37.8045 7.87187 37.7762C7.36078 36.8933 6.96916 35.9461 6.70736 34.9596L6.70717 34.9589C6.69862 34.9268 6.6977 34.8931 6.7045 34.8606C6.7113 34.8281 6.7256 34.7977 6.74612 34.772L6.74626 34.7718L8.43683 32.6502L8.58938 32.4588V32.214V31.7223V31.4777L8.43697 31.2863L6.75208 29.1704L6.75114 29.1692C6.73058 29.1435 6.71623 29.1132 6.70939 29.0807C6.70254 29.0481 6.70341 29.0144 6.71193 28.9823C6.97406 27.9959 7.36537 27.0486 7.87561 26.1653L7.87574 26.1651C7.89216 26.1366 7.91489 26.1126 7.94198 26.0947C7.96899 26.0769 7.99964 26.0658 8.03149 26.062C8.03158 26.062 8.03168 26.062 8.03178 26.062L10.7306 25.7514L10.9828 25.7224L11.1578 25.5385C11.259 25.432 11.3648 25.3259 11.4753 25.2201L11.6589 25.0443L11.6869 24.7916L11.9863 22.0904C11.9864 22.09 11.9864 22.0897 11.9865 22.0893C11.9904 22.0569 12.0017 22.0259 12.0194 21.9987C12.0374 21.9713 12.0613 21.9486 12.0893 21.9323L11.7371 21.3273M27.1651 32.4501L27.3243 32.6501L29.0092 34.7659L29.0101 34.7671C29.0307 34.7928 29.045 34.8232 29.0519 34.8557C29.0587 34.8882 29.0579 34.9219 29.0493 34.954L29.7259 35.1334M27.1651 32.4501L23.7749 41.8494M11.7371 21.3273C11.6149 21.3985 11.5109 21.4973 11.4334 21.6158C11.356 21.7344 11.3072 21.8694 11.2909 22.0102L15.1383 20.0775C14.9991 20.0482 14.8549 20.0522 14.7175 20.089C13.6738 20.3678 12.6716 20.7843 11.7371 21.3273ZM25.1107 38.8883L27.8106 38.5696C27.9511 38.5532 28.0859 38.5041 28.2042 38.4263M25.1107 38.8883L29.7369 34.7115C29.7663 34.851 29.7625 34.9956 29.7259 35.1334M25.1107 38.8883C25.0017 39.0036 24.8881 39.1175 24.7701 39.2298M25.1107 38.8883L24.7701 39.2298M28.2042 38.4263C28.3224 38.3484 28.4209 38.2439 28.4918 38.1212C29.033 37.1843 29.448 36.1796 29.7259 35.1334M28.2042 38.4263L27.8193 37.8416C27.7922 37.8594 27.7614 37.8706 27.7295 37.8743L27.7285 37.8744L25.0286 38.1931L24.7764 38.2229L24.6019 38.4075C24.5017 38.5136 24.3969 38.6186 24.2876 38.7225L24.1025 38.8986L24.0743 39.1525L23.7749 41.8494M28.2042 38.4263L27.8193 37.8416C27.8464 37.8238 27.8691 37.7997 27.8855 37.7713L27.8857 37.771C28.396 36.8876 28.7873 35.9402 29.0494 34.9537L29.7259 35.1334M23.7749 41.8494L24.4703 41.9295M23.7749 41.8494L24.7701 39.2298M23.7748 41.8502C23.771 41.8827 23.7596 41.9138 23.7418 41.941C23.7239 41.9685 23.6999 41.9912 23.672 42.0075C22.7915 42.5197 21.847 42.9121 20.8634 43.1744L20.8627 43.1746C20.8314 43.183 20.7986 43.1839 20.7669 43.1772C20.7353 43.1706 20.7055 43.1565 20.68 43.1361C20.68 43.1361 20.68 43.1361 20.6799 43.1361L18.564 41.4382L18.3634 41.2773L18.1064 41.2844C17.9559 41.2886 17.8054 41.2886 17.6549 41.2844L17.3984 41.2773L17.198 41.4376L15.0874 43.1267L15.0862 43.1276C15.0607 43.1481 15.0309 43.1622 14.9992 43.1689C14.9676 43.1756 14.935 43.1748 14.9038 43.1665L23.7748 41.8502ZM23.7748 41.8502L23.7746 41.8523L24.4703 41.9295M23.7748 41.8502L24.0241 42.6124C24.1464 42.5413 24.2504 42.4425 24.3278 42.3239C24.4053 42.2054 24.4541 42.0703 24.4703 41.9295M24.4703 41.9295L24.7701 39.2298M10.981 39.2161L11.2955 41.9227C11.3118 42.0636 11.3608 42.1987 11.4385 42.3173C11.5161 42.4358 11.6204 42.5346 11.7428 42.6056C12.6774 43.1481 13.6796 43.5641 14.7232 43.8428C14.8607 43.8795 15.0049 43.8832 15.1441 43.8538L10.981 39.2161ZM10.981 39.2161C10.8667 39.1068 10.7532 38.993 10.6404 38.8746L10.981 39.2161ZM7.26606 38.1269C7.33705 38.2494 7.4356 38.3537 7.55386 38.4313L6.19881 34.3356C6.10999 34.447 6.04851 34.5777 6.01932 34.7173C5.99014 34.8569 5.99406 35.0014 6.03078 35.1391C6.30848 36.1856 6.72389 37.1903 7.26606 38.1269Z" stroke="white" stroke-width="1.4"/>
<path d="M24.4423 42.6414L27.5281 44.7064C28.7945 45.55 30.2773 46 31.8002 46H39.615C41.739 46 43.4622 44.2725 43.4622 42.1432C43.4622 41.8539 43.4302 41.5727 43.3741 41.3076C44.913 40.8094 46.0271 39.3551 46.0271 37.6436C46.0271 36.9124 45.8267 36.2294 45.474 35.6429C47.2454 35.3054 48.5919 33.7386 48.5919 31.8584C48.5919 30.6451 48.0309 29.5604 47.1572 28.8533C48.3916 28.2105 49.2331 26.9169 49.2331 25.4304C49.2331 23.3011 47.5099 21.5736 45.3859 21.5736H33.8441C34.9421 19.7175 35.7276 17.6766 36.1524 15.5313L36.3368 14.6153C36.7536 12.5262 35.399 10.4933 33.3151 10.0755C31.2311 9.65771 29.2033 11.0156 28.7865 13.1047L28.6022 14.0207C28.0732 16.6883 26.6224 19.0828 24.4984 20.7862L23.9053 21.2602" stroke="white" stroke-width="1.4" stroke-linecap="round"/>
<circle cx="17.749" cy="31.7488" r="3.55" stroke="white" stroke-width="1.4"/>
</svg>
