<svg width="56" height="56" viewBox="0 0 56 56" fill="none" xmlns="http://www.w3.org/2000/svg">
<rect width="56" height="56" rx="4" fill="black"/>
<path d="M47.25 11C47.25 9.20507 45.7949 7.75 44 7.75L12 7.75C10.2051 7.75 8.75 9.20508 8.75 11L8.75 39C8.75 40.7949 10.2051 42.25 12 42.25L44 42.25C45.7949 42.25 47.25 40.7949 47.25 39L47.25 11Z" stroke="white" stroke-width="1.5"/>
<path d="M32.6982 49V42.4247M23.9311 49V42.4247" stroke="white" stroke-width="1.5"/>
<path d="M36.9219 48.4521L19.0003 48.4521" stroke="white" stroke-width="1.5" stroke-linecap="round"/>
<circle cx="27.8567" cy="24.8572" r="12.1071" transform="rotate(-180 27.8567 24.8572)" stroke="white" stroke-width="1.5"/>
<path d="M27.8564 37.0002L27.8564 24.1431L15.3564 24.1431" stroke="white" stroke-width="1.5"/>
</svg>
