<svg width="56" height="56" viewBox="0 0 56 56" fill="none" xmlns="http://www.w3.org/2000/svg">
<rect width="56" height="56" rx="4" fill="black"/>
<rect x="17.1123" y="34.4282" width="4.33929" height="11.5714" fill="white"/>
<rect x="25.8984" y="30.5713" width="4.33929" height="15.4286" fill="white"/>
<rect x="35.1035" y="25.4285" width="4.33929" height="20.5714" fill="white"/>
<path d="M10 10V46H46" stroke="white" stroke-width="1.5" stroke-linecap="round"/>
<path d="M38.6699 17.5702C38.6687 17.5676 38.6674 17.565 38.6662 17.5623C38.6418 17.5118 38.6055 17.4386 38.5569 17.3461C38.4597 17.1609 38.3137 16.899 38.1156 16.5857C37.719 15.9581 37.1177 15.1304 36.288 14.3007C36.2879 14.3006 36.2878 14.3005 36.2877 14.3004M38.6699 17.5702L17.2081 17.3396C17.2402 17.2631 18.0257 15.5241 19.7797 13.7701C21.4073 12.1444 24.2036 10.2053 28.2989 10.2053C32.3942 10.2053 35.1905 12.1444 36.8181 13.7701L36.2877 14.3004M38.6699 17.5702C38.6033 17.7093 38.4228 18.0688 38.1158 18.5541C37.7191 19.1812 37.1178 20.0083 36.288 20.8381C34.7517 22.3727 32.1351 24.1826 28.2989 24.1826C24.4629 24.1826 21.8464 22.3729 20.3101 20.8385M38.6699 17.5702L20.3101 20.8385M36.2877 14.3004C34.7513 12.7658 32.1347 10.9553 28.2989 10.9553C24.4631 10.9553 21.8465 12.7658 20.3101 14.3004M36.2877 14.3004H20.3101M20.3101 14.3004L19.7798 13.7702L20.3098 14.3007M20.3101 14.3004L17.8933 17.4953L17.8942 17.4973M20.3101 14.3004C20.31 14.3004 20.31 14.3005 20.31 14.3005M20.3101 14.3004C20.31 14.3004 20.31 14.3005 20.31 14.3005M20.3098 14.3007C19.48 15.1305 18.8787 15.9576 18.4821 16.5848C18.1737 17.0725 17.9933 17.4324 17.9279 17.5693M20.3098 14.3007C20.3098 14.3006 20.3099 14.3006 20.31 14.3005M20.3098 14.3007L20.31 14.3005M17.9279 17.5693C17.9174 17.5476 17.9094 17.5304 17.9038 17.5182L17.8966 17.5026C17.8949 17.4989 17.8942 17.4971 17.8942 17.4973M17.9279 17.5693C17.9291 17.5717 17.9302 17.5742 17.9315 17.5767C17.9559 17.6274 17.9922 17.7005 18.0408 17.793C18.138 17.9781 18.2841 18.24 18.4821 18.5532C18.8789 19.1808 19.4803 20.0087 20.3101 20.8385M17.9279 17.5693C17.9108 17.605 17.9016 17.6256 17.8999 17.6292C17.8997 17.6297 17.8997 17.6299 17.8997 17.6298L17.8966 17.6372L17.8933 17.6446C17.8955 17.6397 17.8975 17.6347 17.8992 17.6296C17.9058 17.6104 17.9092 17.5903 17.9092 17.5699C17.9092 17.5449 17.9041 17.5202 17.8942 17.4973M17.8942 17.4973L20.3101 20.8385" stroke="white" stroke-width="1.5"/>
<circle cx="28.6643" cy="17.6199" r="3.08523" stroke="white" stroke-width="1.5"/>
</svg>
