<svg width="64" height="64" viewBox="0 0 64 64" fill="none" xmlns="http://www.w3.org/2000/svg">
<g filter="url(#filter0_d_335_345)">
<rect x="4" width="56" height="56" rx="4" fill="black"/>
<path d="M43.0918 27.3418C42.6776 27.3418 42.3418 27.6776 42.3418 28.0918C42.3418 28.506 42.6776 28.8418 43.0918 28.8418V27.3418ZM43.0918 28.8418H51.7761V27.3418H43.0918V28.8418Z" fill="white"/>
<path d="M48.8301 31.2776L51.9995 28.0007L48.8301 24.7237" stroke="white" stroke-width="1.5"/>
<path d="M20.9082 28.6597C21.3224 28.6597 21.6582 28.3239 21.6582 27.9097C21.6582 27.4955 21.3224 27.1597 20.9082 27.1597V28.6597ZM20.9082 27.1597L12.2239 27.1597V28.6597L20.9082 28.6597V27.1597Z" fill="white"/>
<path d="M15.1699 24.7229L12.0005 27.9998L15.1699 31.2768" stroke="white" stroke-width="1.5"/>
<path d="M31.3408 16.908C31.3408 17.3222 31.6766 17.658 32.0908 17.658C32.505 17.658 32.8408 17.3222 32.8408 16.908H31.3408ZM32.8408 16.908V8.22369H31.3408V16.908H32.8408Z" fill="white"/>
<path d="M35.2764 11.1697L31.9994 8.00028L28.7225 11.1697" stroke="white" stroke-width="1.5"/>
<path d="M32.6592 39.092C32.6592 38.6778 32.3234 38.342 31.9092 38.342C31.495 38.342 31.1592 38.6778 31.1592 39.092H32.6592ZM31.1592 39.092L31.1592 47.7763H32.6592V39.092H31.1592Z" fill="white"/>
<path d="M28.7227 44.8306L31.9996 48L35.2765 44.8306" stroke="white" stroke-width="1.5"/>
<path d="M28.3548 39.8074C24.3882 38.7864 21.1712 35.8985 19.6963 32.1362M43.3672 32.1362C41.966 35.7105 38.9925 38.4955 35.2977 39.6404M19.4131 23.6644C20.6569 19.731 23.7627 16.6251 27.6962 15.3813M43.6504 23.6644C42.5128 20.0671 39.8178 17.1619 36.3567 15.7403" stroke="white" stroke-width="1.5" stroke-linecap="round" stroke-linejoin="round"/>
</g>
<defs>
<filter id="filter0_d_335_345" x="0" y="0" width="64" height="64" filterUnits="userSpaceOnUse" color-interpolation-filters="sRGB">
<feFlood flood-opacity="0" result="BackgroundImageFix"/>
<feColorMatrix in="SourceAlpha" type="matrix" values="0 0 0 0 0 0 0 0 0 0 0 0 0 0 0 0 0 0 127 0" result="hardAlpha"/>
<feOffset dy="4"/>
<feGaussianBlur stdDeviation="2"/>
<feComposite in2="hardAlpha" operator="out"/>
<feColorMatrix type="matrix" values="0 0 0 0 0 0 0 0 0 0 0 0 0 0 0 0 0 0 0.25 0"/>
<feBlend mode="normal" in2="BackgroundImageFix" result="effect1_dropShadow_335_345"/>
<feBlend mode="normal" in="SourceGraphic" in2="effect1_dropShadow_335_345" result="shape"/>
</filter>
</defs>
</svg>
