<svg width="435" height="245" viewBox="0 0 435 245" fill="none" xmlns="http://www.w3.org/2000/svg">
<rect width="435" height="245" fill="#828999"/>
<rect x="20" y="20" width="90.8133" height="37.0667" rx="8" fill="white" fill-opacity="0.6"/>
<path d="M48.4062 42.5333V46.5333M48.4062 46.5333H44.4062M48.4062 46.5333L42.4062 40.5333M32.4062 34.5333V30.5333M32.4062 30.5333H36.4062M32.4062 30.5333L38.4062 36.5333" stroke="white" stroke-width="2" stroke-linecap="round" stroke-linejoin="round"/>
<path d="M84.4062 31.4745V36.1804M84.4062 36.1804H79.4062M84.4062 36.1804L78.4062 30.5333M97.4062 36.1804V33.3569C97.4062 32.2651 96.5662 31.4745 95.4062 31.4745H88.4062M79.4062 39.9451V41.8274C79.4062 42.8157 80.3563 43.7098 81.4062 43.7098H84.4062" stroke="white" stroke-width="2" stroke-linecap="round" stroke-linejoin="round"/>
<path d="M96.4062 39.9451H90.4062C89.3017 39.9451 88.4062 40.7879 88.4062 41.8275V44.651C88.4062 45.6906 89.3017 46.5333 90.4062 46.5333H96.4062C97.5108 46.5333 98.4062 45.6906 98.4062 44.651V41.8275C98.4062 40.7879 97.5108 39.9451 96.4062 39.9451Z" stroke="white" stroke-width="2" stroke-linecap="round" stroke-linejoin="round"/>
</svg>
