<svg width="168" height="167" viewBox="0 0 168 167" fill="none" xmlns="http://www.w3.org/2000/svg">
<path d="M114.314 0H0.761719V114.126L53.6337 167H167.756V53.4433L114.314 0Z" fill="white"/>
<path d="M112.932 3.49781L164.285 54.8532V163.556H55.0436L4.25941 112.743V3.49781H112.932ZM114.314 0H0.761719V114.126L53.6337 167H167.756V53.4433L114.314 0Z" fill="#515151"/>
<path d="M27.9003 94.0882V100.216H24.4297V83.5134H30.8286C32.3469 83.4321 33.8382 83.9202 35.0041 84.8963C35.8175 85.6555 36.3598 86.6588 36.5767 87.7433C36.7936 88.8279 36.658 89.9668 36.1971 90.97C35.7361 91.9733 34.977 92.8409 34.0009 93.3832C33.0248 93.9255 31.9131 94.1695 30.8014 94.0611H27.8731L27.9003 94.0882ZM27.9003 91.431H30.449C30.8014 91.4852 31.1268 91.431 31.4522 91.3225C31.7775 91.214 32.0758 90.9971 32.2927 90.7531C32.6994 90.1837 32.9163 89.5058 32.9163 88.8008C32.9163 88.0958 32.6994 87.418 32.2927 86.8486C31.7775 86.4147 31.1268 86.1707 30.449 86.1707H27.9274V91.431H27.9003ZM51.1368 100.216L50.0252 96.5014H44.3312L43.2196 100.216H39.505L45.3616 83.5134H49.4015L55.0954 100.216H51.1368ZM45.0091 93.8171H49.1846L47.0969 86.8486L45.0091 93.8171ZM60.0573 100.216V83.5134H66.4561C67.9745 83.4321 69.4658 83.9202 70.6317 84.8963C71.6078 85.8724 72.1771 87.2282 72.1771 88.611C72.1771 89.56 71.8789 90.4819 71.3366 91.2683C70.7672 92.0817 70.008 92.7054 69.1133 93.1121L73.2888 100.325H69.5742L65.8596 93.7899H63.4736V100.189H60.0573V100.216ZM63.5278 91.1598H66.0494C66.3477 91.214 66.6188 91.1598 66.9171 91.1056C67.1882 91.0242 67.4593 90.9158 67.7034 90.726C67.9474 90.5633 68.1372 90.3464 68.2727 90.1023C68.4083 89.8583 68.5168 89.5872 68.571 89.2889V88.611C68.6523 88.0416 68.5168 87.4451 68.1643 86.9841C67.8118 86.5232 67.2966 86.1978 66.7273 86.1165H63.6634V91.2683L63.5821 91.1869L63.5278 91.1598ZM81.7483 100.216V86.4418H76.5967V83.5406H90.3705V86.4418H85.2189V100.216H81.7483ZM99.1554 88.6381V100.189H95.956V83.4863H99.8604L106.666 95.1728V83.4863H109.865V100.189H105.961L99.1283 88.6381H99.1554ZM116.264 100.216V83.5134H127.272V86.3063H119.843V90.2108H125.835V93.0036H119.843V97.4504H127.272V100.243H116.264V100.216ZM133.671 100.216V83.5134H140.07C141.589 83.4321 143.08 83.9202 144.246 84.8963C145.222 85.8724 145.791 87.2282 145.791 88.611C145.791 89.56 145.493 90.4819 144.951 91.2683C144.381 92.0817 143.622 92.7054 142.727 93.1121L146.903 100.325H143.188L139.474 93.7899H137.115V100.189H133.671V100.216ZM137.142 91.1598H139.636C140.206 91.2412 140.802 91.1056 141.263 90.7531C141.724 90.4006 142.049 89.8854 142.131 89.316V88.6381C142.212 88.0687 142.049 87.4722 141.724 87.0112C141.372 86.5503 140.856 86.2249 140.287 86.1436H137.088L137.142 91.1869V91.1598Z" fill="#1A2B3C"/>
<path d="M37.8787 38.2592C37.8245 38.8286 37.933 39.398 38.177 39.9403C38.3125 40.3742 38.5837 40.9165 38.7464 41.3232C38.8006 41.3774 38.8277 41.4588 38.8548 41.513C38.8548 41.5943 38.8819 41.6757 38.8548 41.7299C38.8548 42.0011 38.7192 42.1638 38.421 42.2993L37.1738 43.1399H36.7671C36.7671 43.1399 36.5502 43.1399 36.4417 43.0585C36.3332 43.0043 36.2519 42.9501 36.1977 42.8416C35.9265 42.5976 35.7096 42.3264 35.5198 42.0011C35.3029 41.6486 35.1131 41.269 34.9504 40.8894C34.2726 41.7299 33.4321 42.3807 32.456 42.8416C31.4799 43.3026 30.4495 43.5466 29.365 43.5466C28.6871 43.6008 28.0093 43.4924 27.3586 43.2483C26.7078 43.0043 26.1384 42.6247 25.6504 42.1366C25.1623 41.6486 24.8099 41.052 24.5658 40.4284C24.3218 39.7777 24.2134 39.0998 24.2676 38.4219C24.2676 37.6898 24.376 36.9848 24.6743 36.307C24.9725 35.6291 25.3793 35.0326 25.9215 34.5445C27.2501 33.5413 28.8498 32.999 30.5309 32.999C31.1545 32.999 31.7781 32.999 32.3746 33.1345L34.4624 33.5413V32.1584C34.5437 31.6161 34.4895 31.0738 34.3539 30.5315C34.2184 30.0163 33.9472 29.5011 33.6219 29.0944C33.188 28.769 32.7 28.4979 32.1848 28.3623C31.6697 28.2268 31.1003 28.1725 30.558 28.2539C29.853 28.281 29.1752 28.3894 28.4702 28.525C27.7653 28.6877 27.0603 28.9317 26.3825 29.2029C26.1113 29.3385 25.9486 29.3385 25.6775 29.5011H25.4064C25.1352 29.5011 24.9725 29.3656 24.9725 28.9317V27.9556C24.9725 27.7116 24.9997 27.4675 25.1081 27.2506C25.2708 27.0879 25.4606 26.9524 25.6775 26.8439C26.4096 26.4372 27.1959 26.1389 28.0364 26.0033C28.9854 25.7322 29.9886 25.5966 30.9647 25.5966C32.7271 25.461 34.4895 26.0033 35.8452 27.115C36.3875 27.7387 36.8213 28.4708 37.0653 29.2571C37.3364 30.0434 37.4178 30.884 37.3636 31.7246L37.8245 38.1779L37.8787 38.2592ZM30.2326 41.0521C30.8562 41.0249 31.4799 40.9436 32.0764 40.7809C32.7813 40.4826 33.4049 40.0488 33.9201 39.5065C34.2455 39.154 34.4895 38.7202 34.598 38.2321C34.7064 37.6898 34.7606 37.1475 34.7335 36.5781V35.7376C33.5948 35.4935 32.4289 35.3579 31.2358 35.3308C30.2597 35.2224 29.2565 35.4664 28.4431 36.0358C27.9008 36.5781 27.5755 37.3102 27.5212 38.0694C27.467 38.8286 27.711 39.5879 28.172 40.2115C28.3618 40.5369 28.66 40.7809 29.0125 40.9165C29.365 41.052 29.7446 41.1063 30.1242 41.0249H30.1784L30.2326 41.0521ZM45.3892 43.1399C45.1181 43.1399 44.8199 43.1399 44.7114 43.0043C44.5487 42.7874 44.4132 42.5434 44.3047 42.2993L39.8309 27.6845C39.7496 27.4675 39.6953 27.2235 39.6953 26.9795C39.6953 26.7083 39.8309 26.5456 39.9665 26.5456H41.8102C42.0814 26.5456 42.3796 26.5456 42.4881 26.6812C42.6779 26.8981 42.8134 27.115 42.9219 27.3591L46.1213 39.7505L49.0496 27.3591C49.0496 27.2235 49.0767 27.0879 49.1581 26.9524C49.2394 26.8439 49.3208 26.7354 49.4563 26.6541C49.6732 26.5456 49.9173 26.4914 50.1613 26.5185H51.6797C51.9237 26.4914 52.1677 26.5185 52.3846 26.6541C52.5473 26.871 52.6829 27.0879 52.7913 27.332L55.7196 39.9946L58.9191 27.332C58.9191 27.1964 58.9462 27.0608 59.0275 26.9252C59.1089 26.8168 59.2173 26.7083 59.3258 26.627C59.5427 26.5185 59.7867 26.4643 60.0036 26.4914H61.8474C62.1185 26.4914 62.2812 26.627 62.2812 26.7897V27.1964C62.2812 27.1964 62.1456 27.4675 62.1456 27.6302L57.6989 42.1095C57.6989 42.2451 57.6718 42.3807 57.5905 42.5162C57.5091 42.6247 57.4007 42.7332 57.2651 42.7874C57.1295 43.0585 56.8584 43.0585 56.5873 43.0585H54.9062C54.6351 43.0585 54.3368 43.0585 54.2284 42.923C54.0928 42.7874 53.9572 42.4891 53.7945 42.218L50.8663 30.0977L47.9651 42.218C47.9651 42.3536 47.938 42.5162 47.8566 42.6247C47.7753 42.7603 47.6668 42.8416 47.5312 42.923C47.3686 43.0314 47.1788 43.0857 46.989 43.0585H45.3621L45.3892 43.1399ZM69.5206 43.7093C68.5445 43.7093 67.5684 43.6008 66.6194 43.4382C65.8602 43.2755 65.101 43.0314 64.396 42.7332C64.1791 42.6518 63.9893 42.4891 63.8538 42.2993C63.7182 42.1095 63.664 41.8655 63.6911 41.6215V40.6453C63.6911 40.2386 63.8267 40.0759 64.0978 40.0759H64.3689C64.5045 40.0759 64.6401 40.2115 64.7756 40.2115C65.4535 40.5098 66.1585 40.7267 66.8634 40.8894C67.5955 41.052 68.3276 41.1334 69.0868 41.1605C70.0628 41.2147 71.0389 40.9707 71.8795 40.4555C72.1777 40.2386 72.4218 39.9675 72.5844 39.6421C72.7471 39.3167 72.8556 38.9642 72.8556 38.5846C72.8827 38.3406 72.8556 38.0965 72.7471 37.8796C72.6387 37.6627 72.476 37.4729 72.2862 37.3373C71.7439 36.8764 71.1203 36.551 70.4424 36.3612L67.6497 35.5206C66.4838 35.2224 65.3993 34.5716 64.613 33.6768C64.0165 32.8634 63.664 31.8873 63.6369 30.884C63.6369 30.1519 63.8267 29.4198 64.2063 28.7962C64.9654 27.576 66.1585 26.6812 67.5413 26.3016C68.3004 26.0576 69.1138 25.9491 69.9002 26.0033C70.334 26.0033 70.7407 26.0033 71.1745 26.1389C71.6083 26.166 72.015 26.2745 72.4217 26.4101C72.8556 26.5456 73.1267 26.5456 73.5605 26.6812C73.9944 26.8168 74.1028 26.8168 74.4011 26.9524C74.618 27.0608 74.7806 27.1964 74.9704 27.3591C75.0789 27.576 75.1331 27.82 75.106 28.0641V28.9046C75.106 29.3113 74.9704 29.474 74.6722 29.474C74.4282 29.474 74.1841 29.3656 73.9943 29.2029C72.8285 28.6877 71.5541 28.4437 70.2797 28.525C69.4121 28.525 68.5445 28.6877 67.7853 29.0944C67.487 29.23 67.243 29.474 67.0803 29.7723C66.9176 30.0706 66.8905 30.3959 66.9448 30.7484C66.9448 31.0196 66.9448 31.2636 67.0532 31.5076C67.1617 31.7517 67.2972 31.9686 67.487 32.1313C68.0564 32.6736 68.7885 33.0261 69.5748 33.1074L72.2319 33.948C73.3436 34.2734 74.3739 34.9241 75.1331 35.7918C75.7025 36.551 76.0008 37.5 75.9737 38.449C75.9737 39.2354 75.811 39.9946 75.4043 40.6724C75.106 41.3503 74.618 41.9197 74.0215 42.3536C73.3707 42.8145 72.6658 43.167 71.9337 43.4653C71.1474 43.6551 70.3611 43.7364 69.5477 43.7364V43.6551L69.5206 43.7093Z" fill="#1A2B3C"/>
<path d="M73.1289 52.7649C66.3504 57.3473 58.3519 59.7606 50.1635 59.7334C39.8331 59.7334 29.8552 55.9374 22.2091 48.996C21.6397 48.4266 22.2091 47.7487 22.9141 48.1554C31.4007 53.1174 41.0532 55.6933 50.8684 55.6662C58.2163 55.6391 65.5099 54.1749 72.2884 51.355C73.2645 50.9211 74.1321 52.0328 73.1289 52.7378V52.7649ZM74.105 56.9406C73.8339 57.51 74.4032 57.7541 74.9455 57.3473C78.2805 54.5545 79.121 48.7248 78.4161 47.8843C77.7111 47.0437 71.8545 46.3659 68.384 48.8604C67.8146 49.2942 67.9773 49.8365 68.5196 49.701C70.3633 49.4298 74.9455 48.8604 75.7861 49.9992C76.6266 51.1381 74.81 55.151 74.105 56.9677V56.9406Z" fill="#F7982E"/>
<path d="M54.4998 108.053H58.2686C59.5429 108.053 60.5462 108.514 61.2511 109.436C61.8747 110.276 62.2001 111.334 62.2001 112.635C62.2001 113.638 62.0103 114.533 61.6307 115.347C60.98 116.784 59.8412 117.489 58.2415 117.489H54.4727V108.053H54.4998ZM58.0246 116.404C58.4584 116.404 58.7837 116.35 59.0549 116.269C59.5429 116.106 59.9496 115.78 60.2479 115.292C60.4919 114.913 60.6817 114.425 60.7902 113.828C60.8444 113.476 60.8715 113.15 60.8715 112.825C60.8715 111.659 60.6546 110.737 60.1937 110.086C59.7327 109.436 59.0007 109.11 57.9974 109.11H55.7741V116.35H57.9974L58.0246 116.404Z" fill="#192A3B"/>
<path d="M67.4862 113.312C67.7573 113.285 67.92 113.176 68.0285 112.986C68.0827 112.878 68.1098 112.742 68.1098 112.552C68.1098 112.146 67.9742 111.875 67.7031 111.685C67.432 111.495 67.0252 111.414 66.5101 111.414C65.9136 111.414 65.4798 111.576 65.2358 111.902C65.1002 112.092 64.9917 112.363 64.9646 112.715H63.8801C63.8801 111.875 64.1783 111.278 64.6935 110.926C65.2086 110.6 65.8322 110.438 66.5372 110.438C67.3506 110.438 68.0014 110.6 68.5165 110.898C69.0046 111.197 69.2757 111.685 69.2757 112.336V116.294C69.2757 116.294 69.2757 116.511 69.357 116.593C69.4113 116.674 69.5197 116.701 69.6553 116.701C69.7095 116.701 69.7637 116.701 69.818 116.701C69.8722 116.701 69.9535 116.701 70.0349 116.674V117.542C69.8451 117.596 69.7095 117.623 69.6282 117.65C69.5468 117.65 69.4113 117.65 69.2486 117.65C68.8419 117.65 68.5707 117.514 68.3809 117.216C68.2996 117.054 68.2183 116.864 68.1912 116.593C67.9471 116.891 67.6218 117.162 67.1879 117.406C66.7541 117.65 66.2661 117.758 65.7238 117.758C65.073 117.758 64.5579 117.569 64.1512 117.189C63.7445 116.809 63.5547 116.321 63.5547 115.725C63.5547 115.074 63.7445 114.586 64.1512 114.234C64.5579 113.881 65.073 113.664 65.7238 113.583L67.5675 113.339L67.4862 113.312ZM65.0459 116.457C65.29 116.647 65.5882 116.755 65.9136 116.755C66.3203 116.755 66.727 116.674 67.1066 116.484C67.7573 116.159 68.0827 115.671 68.0827 114.939V114.017C67.9471 114.098 67.7573 114.179 67.5404 114.234C67.3235 114.288 67.1066 114.342 66.8897 114.369L66.1847 114.45C65.778 114.505 65.4527 114.586 65.2358 114.722C64.8833 114.911 64.6935 115.237 64.6935 115.671C64.6935 115.996 64.829 116.267 65.0731 116.457H65.0459Z" fill="#192A3B"/>
<path d="M71.3359 108.676H72.5018V110.601H73.6135V111.55H72.5018V116.051C72.5018 116.295 72.5832 116.458 72.7459 116.539C72.8272 116.593 72.9899 116.62 73.2068 116.62C73.261 116.62 73.3152 116.62 73.3966 116.62C73.4508 116.62 73.5322 116.62 73.6135 116.62V117.542C73.6135 117.542 73.3424 117.597 73.2068 117.624C73.0712 117.624 72.9085 117.624 72.7459 117.624C72.2036 117.624 71.8511 117.488 71.6342 117.217C71.4444 116.946 71.3359 116.593 71.3359 116.132V111.577H70.4141V110.628H71.3359V108.703V108.676Z" fill="#192A3B"/>
<path d="M78.4667 113.312C78.7378 113.285 78.9005 113.176 79.0089 112.986C79.0632 112.878 79.0903 112.742 79.0903 112.552C79.0903 112.146 78.9547 111.875 78.6836 111.685C78.4125 111.495 78.0057 111.414 77.4906 111.414C76.8941 111.414 76.4602 111.576 76.2162 111.902C76.0807 112.092 75.9722 112.363 75.9451 112.715H74.8605C74.8605 111.875 75.1588 111.278 75.674 110.926C76.1891 110.6 76.8127 110.438 77.5177 110.438C78.3311 110.438 78.9818 110.6 79.497 110.898C79.985 111.197 80.2562 111.685 80.2562 112.336V116.294C80.2562 116.294 80.2562 116.511 80.3375 116.593C80.3918 116.674 80.5002 116.701 80.6358 116.701C80.69 116.701 80.7442 116.701 80.7985 116.701C80.8527 116.701 80.934 116.701 81.0154 116.674V117.542C80.8256 117.596 80.69 117.623 80.6087 117.65C80.5273 117.65 80.3918 117.65 80.2291 117.65C79.8224 117.65 79.5512 117.514 79.3614 117.216C79.2801 117.054 79.1988 116.864 79.1716 116.593C78.9276 116.891 78.6022 117.162 78.1684 117.406C77.7346 117.65 77.2465 117.758 76.7043 117.758C76.0535 117.758 75.5384 117.569 75.1317 117.189C74.725 116.809 74.5352 116.321 74.5352 115.725C74.5352 115.074 74.725 114.586 75.1317 114.234C75.5384 113.881 76.0535 113.664 76.7043 113.583L78.548 113.339L78.4667 113.312ZM76.0264 116.457C76.2704 116.647 76.5687 116.755 76.8941 116.755C77.3008 116.755 77.7075 116.674 78.0871 116.484C78.7378 116.159 79.0632 115.671 79.0632 114.939V114.017C78.9276 114.098 78.7378 114.179 78.5209 114.234C78.304 114.288 78.0871 114.342 77.8702 114.369L77.1652 114.45C76.7585 114.505 76.4331 114.586 76.2162 114.722C75.8637 114.911 75.674 115.237 75.674 115.671C75.674 115.996 75.8095 116.267 76.0535 116.457H76.0264Z" fill="#192A3B"/>
<path d="M86.821 111.09C86.6854 110.764 86.6312 110.466 86.6312 110.195C86.6312 109.599 86.8481 109.083 87.2548 108.677C87.6615 108.27 88.2038 108.08 88.9088 108.08C89.6137 108.08 90.0747 108.27 90.4542 108.649C90.8338 109.029 90.9965 109.463 90.9965 109.978C90.9965 110.575 90.8067 111.117 90.4271 111.578C90.2102 111.849 89.8306 112.147 89.3155 112.5L91.0236 114.561C91.1321 114.208 91.2134 113.964 91.2677 113.801C91.3219 113.639 91.349 113.395 91.4032 113.096H92.5149C92.4336 113.693 92.298 114.289 92.0811 114.832C91.8642 115.374 91.7557 115.618 91.7557 115.51L93.4368 117.543H91.9455L91.0508 116.459C90.6983 116.838 90.3729 117.109 90.1018 117.299C89.5866 117.597 89.0172 117.76 88.3394 117.76C87.3633 117.76 86.6583 117.489 86.1974 116.974C85.7636 116.431 85.5195 115.835 85.5195 115.184C85.5195 114.479 85.7364 113.883 86.1703 113.395C86.4414 113.096 86.9295 112.744 87.6615 112.31C87.2548 111.849 86.9837 111.469 86.8481 111.144L86.821 111.09ZM89.5866 116.35C89.9391 116.133 90.1831 115.889 90.3729 115.618L88.258 113.015C87.6615 113.422 87.2548 113.72 87.0921 113.937C86.821 114.262 86.6583 114.642 86.6583 115.103C86.6583 115.591 86.8481 115.998 87.2006 116.269C87.5531 116.54 87.9598 116.675 88.3665 116.675C88.8274 116.675 89.2341 116.567 89.5866 116.35ZM89.5053 111.008C89.7493 110.71 89.8849 110.385 89.8849 110.032C89.8849 109.761 89.8035 109.517 89.6137 109.3C89.4239 109.11 89.1799 109.002 88.8816 109.002C88.4207 109.002 88.0682 109.165 87.9055 109.49C87.8242 109.653 87.77 109.843 87.77 110.032C87.77 110.303 87.8513 110.548 87.9869 110.792C88.1225 111.036 88.3665 111.334 88.719 111.713C89.1257 111.415 89.3968 111.198 89.5595 111.008H89.5053Z" fill="#192A3B"/>
<path d="M100.376 108.053H101.813L105.229 117.489H103.819L102.87 114.669H99.1287L98.0983 117.489H96.7969L100.349 108.053H100.376ZM102.491 113.611L101.054 109.436L99.5354 113.611H102.491Z" fill="#192A3B"/>
<path d="M106.262 110.6H107.373V111.576C107.699 111.17 108.051 110.871 108.404 110.709C108.756 110.546 109.163 110.438 109.624 110.438C110.6 110.438 111.251 110.79 111.603 111.468C111.793 111.847 111.874 112.363 111.874 113.068V117.487H110.708V113.149C110.708 112.742 110.654 112.39 110.519 112.146C110.302 111.712 109.949 111.495 109.407 111.495C109.136 111.495 108.919 111.522 108.729 111.576C108.404 111.658 108.133 111.847 107.889 112.146C107.699 112.363 107.563 112.607 107.509 112.851C107.455 113.095 107.428 113.447 107.428 113.881V117.487H106.262V110.6Z" fill="#192A3B"/>
<path d="M117.267 113.312C117.539 113.285 117.701 113.176 117.81 112.986C117.864 112.878 117.891 112.742 117.891 112.552C117.891 112.146 117.755 111.875 117.484 111.685C117.213 111.495 116.806 111.414 116.291 111.414C115.695 111.414 115.261 111.576 115.017 111.902C114.881 112.092 114.773 112.363 114.746 112.715H113.661C113.661 111.875 113.96 111.278 114.475 110.926C114.99 110.6 115.613 110.438 116.318 110.438C117.132 110.438 117.783 110.6 118.298 110.898C118.786 111.197 119.057 111.685 119.057 112.336V116.294C119.057 116.294 119.057 116.511 119.138 116.593C119.193 116.674 119.301 116.701 119.437 116.701C119.491 116.701 119.545 116.701 119.599 116.701C119.653 116.701 119.735 116.701 119.816 116.674V117.542C119.626 117.596 119.491 117.623 119.409 117.65C119.328 117.65 119.193 117.65 119.03 117.65C118.623 117.65 118.352 117.514 118.162 117.216C118.081 117.054 118 116.864 117.972 116.593C117.728 116.891 117.403 117.162 116.969 117.406C116.535 117.65 116.047 117.758 115.505 117.758C114.854 117.758 114.339 117.569 113.932 117.189C113.526 116.809 113.336 116.321 113.336 115.725C113.336 115.074 113.526 114.586 113.932 114.234C114.339 113.881 114.854 113.664 115.505 113.583L117.349 113.339L117.267 113.312ZM114.854 116.457C115.098 116.647 115.397 116.755 115.722 116.755C116.129 116.755 116.535 116.674 116.915 116.484C117.566 116.159 117.891 115.671 117.891 114.939V114.017C117.755 114.098 117.566 114.179 117.349 114.234C117.132 114.288 116.915 114.342 116.698 114.369L115.993 114.45C115.586 114.505 115.261 114.586 115.044 114.722C114.692 114.911 114.502 115.237 114.502 115.671C114.502 115.996 114.637 116.267 114.881 116.457H114.854Z" fill="#192A3B"/>
<path d="M120.957 108.053H122.123V117.489H120.957V108.053Z" fill="#192A3B"/>
<path d="M128.141 110.602H129.415C129.253 111.035 128.9 112.039 128.331 113.638C127.924 114.831 127.572 115.78 127.273 116.54C126.596 118.302 126.135 119.36 125.863 119.739C125.592 120.119 125.131 120.309 124.454 120.309C124.291 120.309 124.155 120.309 124.074 120.309C123.993 120.309 123.884 120.282 123.749 120.227V119.17C123.938 119.224 124.101 119.251 124.182 119.278C124.264 119.278 124.345 119.278 124.426 119.278C124.643 119.278 124.806 119.251 124.887 119.17C124.996 119.088 125.077 119.007 125.131 118.899C125.131 118.872 125.24 118.682 125.375 118.384C125.511 118.058 125.592 117.841 125.674 117.679L123.125 110.602H124.426L126.27 116.214L128.141 110.602Z" fill="#192A3B"/>
<path d="M130.664 108.676H131.83V110.601H132.942V111.55H131.83V116.051C131.83 116.295 131.911 116.458 132.074 116.539C132.155 116.593 132.318 116.62 132.535 116.62C132.589 116.62 132.643 116.62 132.725 116.62C132.779 116.62 132.86 116.62 132.942 116.62V117.542C132.942 117.542 132.67 117.597 132.535 117.624C132.399 117.624 132.237 117.624 132.074 117.624C131.532 117.624 131.179 117.488 130.962 117.217C130.773 116.946 130.664 116.593 130.664 116.132V111.577H129.742V110.628H130.664V108.703V108.676Z" fill="#192A3B"/>
<path d="M134.078 108.053H135.244V109.354H134.078V108.053ZM134.078 110.629H135.244V117.489H134.078V110.629Z" fill="#192A3B"/>
<path d="M141.563 110.954C142.051 111.334 142.349 111.985 142.431 112.907H141.292C141.21 112.473 141.075 112.12 140.831 111.849C140.587 111.578 140.207 111.415 139.665 111.415C138.933 111.415 138.391 111.768 138.092 112.5C137.875 112.961 137.794 113.53 137.794 114.235C137.794 114.94 137.93 115.51 138.228 115.971C138.526 116.432 138.987 116.676 139.611 116.676C140.099 116.676 140.478 116.54 140.75 116.242C141.021 115.944 141.238 115.537 141.319 115.049H142.458C142.322 115.971 141.997 116.621 141.482 117.055C140.966 117.489 140.316 117.679 139.502 117.679C138.608 117.679 137.875 117.353 137.36 116.703C136.818 116.052 136.547 115.211 136.547 114.235C136.547 113.015 136.845 112.093 137.415 111.415C138.011 110.737 138.743 110.412 139.665 110.412C140.451 110.412 141.075 110.602 141.563 110.982V110.954Z" fill="#192A3B"/>
<path d="M144.272 115.318C144.299 115.698 144.408 115.996 144.571 116.213C144.869 116.593 145.384 116.782 146.116 116.782C146.55 116.782 146.929 116.701 147.282 116.511C147.607 116.321 147.77 116.023 147.77 115.644C147.77 115.345 147.634 115.128 147.363 114.966C147.201 114.884 146.848 114.749 146.36 114.64L145.438 114.396C144.842 114.261 144.408 114.098 144.11 113.908C143.594 113.583 143.35 113.149 143.35 112.607C143.35 111.956 143.594 111.441 144.055 111.034C144.543 110.627 145.167 110.438 145.98 110.438C147.038 110.438 147.797 110.736 148.258 111.359C148.556 111.739 148.692 112.173 148.692 112.607H147.607C147.607 112.336 147.499 112.119 147.336 111.902C147.065 111.603 146.604 111.441 145.926 111.441C145.465 111.441 145.14 111.522 144.896 111.685C144.652 111.847 144.543 112.064 144.543 112.336C144.543 112.634 144.706 112.878 145.004 113.041C145.167 113.149 145.438 113.23 145.791 113.312L146.577 113.501C147.418 113.691 147.987 113.908 148.285 114.098C148.746 114.396 148.963 114.857 148.963 115.481C148.963 116.104 148.719 116.62 148.258 117.081C147.797 117.514 147.065 117.758 146.116 117.758C145.086 117.758 144.354 117.514 143.92 117.054C143.486 116.593 143.269 116.023 143.215 115.318H144.327H144.272Z" fill="#192A3B"/>
<path d="M99.2104 130.233C99.2375 130.775 99.3731 131.209 99.5629 131.534C99.9696 132.158 100.702 132.483 101.732 132.483C102.193 132.483 102.627 132.402 103.006 132.266C103.738 131.995 104.118 131.534 104.118 130.829C104.118 130.314 103.955 129.962 103.657 129.718C103.332 129.501 102.844 129.311 102.166 129.148L100.919 128.85C100.105 128.66 99.5358 128.443 99.2104 128.226C98.641 127.82 98.3428 127.25 98.3428 126.464C98.3428 125.623 98.641 124.918 99.2104 124.376C99.7798 123.834 100.593 123.562 101.651 123.562C102.627 123.562 103.44 123.807 104.118 124.267C104.796 124.756 105.121 125.515 105.121 126.572H103.928C103.874 126.057 103.738 125.677 103.522 125.406C103.142 124.918 102.518 124.674 101.624 124.674C100.891 124.674 100.376 124.837 100.051 125.162C99.7256 125.488 99.5629 125.84 99.5629 126.274C99.5629 126.735 99.7527 127.087 100.132 127.277C100.376 127.413 100.919 127.575 101.786 127.792L103.061 128.091C103.684 128.226 104.145 128.443 104.498 128.687C105.067 129.121 105.365 129.772 105.365 130.612C105.365 131.67 104.986 132.402 104.254 132.863C103.522 133.324 102.654 133.541 101.678 133.541C100.539 133.541 99.6442 133.242 98.9935 132.646C98.3428 132.049 98.0174 131.236 98.0445 130.233H99.2375H99.2104Z" fill="#192A3B"/>
<path d="M111.981 127.086C112.577 127.683 112.903 128.55 112.903 129.689C112.903 130.828 112.632 131.723 112.089 132.428C111.547 133.133 110.734 133.512 109.595 133.512C108.646 133.512 107.914 133.187 107.344 132.563C106.775 131.94 106.504 131.072 106.504 129.987C106.504 128.822 106.802 127.9 107.372 127.222C107.968 126.544 108.727 126.191 109.73 126.191C110.598 126.191 111.357 126.49 111.954 127.086H111.981ZM111.249 131.669C111.52 131.099 111.683 130.448 111.683 129.743C111.683 129.093 111.574 128.578 111.384 128.171C111.059 127.547 110.517 127.222 109.73 127.222C109.025 127.222 108.51 127.493 108.212 128.035C107.914 128.578 107.724 129.228 107.724 129.987C107.724 130.747 107.887 131.343 108.212 131.831C108.537 132.319 109.025 132.563 109.73 132.563C110.49 132.563 111.005 132.265 111.303 131.696L111.249 131.669Z" fill="#192A3B"/>
<path d="M114.853 124.296C115.124 123.889 115.639 123.699 116.426 123.699C116.507 123.699 116.561 123.699 116.642 123.699C116.724 123.699 116.805 123.699 116.914 123.699V124.757C116.914 124.757 116.697 124.757 116.642 124.757C116.588 124.757 116.534 124.757 116.48 124.757C116.127 124.757 115.91 124.838 115.829 125.028C115.748 125.218 115.721 125.679 115.721 126.411H116.886V127.333H115.721V133.271H114.582V127.333H113.633V126.411H114.582V125.326C114.582 124.838 114.69 124.486 114.826 124.269L114.853 124.296Z" fill="#192A3B"/>
<path d="M118.219 124.484H119.385V126.41H120.496V127.359H119.385V131.86C119.385 132.104 119.466 132.266 119.629 132.348C119.71 132.402 119.873 132.429 120.09 132.429C120.144 132.429 120.198 132.429 120.279 132.429C120.334 132.429 120.415 132.429 120.496 132.429V133.351C120.496 133.351 120.225 133.405 120.09 133.432C119.954 133.432 119.791 133.432 119.629 133.432C119.086 133.432 118.734 133.297 118.517 133.026C118.327 132.754 118.219 132.402 118.219 131.941V127.386H117.297V126.437H118.219V124.511V124.484Z" fill="#192A3B"/>
<path d="M122.177 126.41L123.506 131.833L124.861 126.41H126.163L127.519 131.806L128.929 126.41H130.094L128.088 133.297H126.895L125.485 127.956L124.129 133.297H122.936L120.957 126.41H122.231H122.177Z" fill="#192A3B"/>
<path d="M134.838 129.12C135.109 129.093 135.272 128.985 135.38 128.795C135.434 128.686 135.461 128.551 135.461 128.361C135.461 127.954 135.326 127.683 135.055 127.493C134.784 127.304 134.377 127.222 133.862 127.222C133.265 127.222 132.831 127.385 132.587 127.71C132.452 127.9 132.343 128.171 132.316 128.524H131.232C131.232 127.683 131.53 127.087 132.045 126.734C132.56 126.409 133.184 126.246 133.889 126.246C134.702 126.246 135.353 126.409 135.868 126.707C136.356 127.005 136.627 127.493 136.627 128.144V132.103C136.627 132.103 136.627 132.32 136.709 132.401C136.763 132.482 136.871 132.51 137.007 132.51C137.061 132.51 137.115 132.51 137.17 132.51C137.224 132.51 137.305 132.51 137.386 132.482V133.35C137.197 133.404 137.061 133.432 136.98 133.459C136.898 133.459 136.763 133.459 136.6 133.459C136.193 133.459 135.922 133.323 135.733 133.025C135.651 132.862 135.57 132.672 135.543 132.401C135.299 132.699 134.973 132.971 134.54 133.215C134.106 133.459 133.618 133.567 133.075 133.567C132.425 133.567 131.909 133.377 131.503 132.998C131.096 132.618 130.906 132.13 130.906 131.533C130.906 130.883 131.096 130.395 131.503 130.042C131.909 129.69 132.425 129.473 133.075 129.391L134.919 129.147L134.838 129.12ZM132.398 132.238C132.642 132.428 132.94 132.537 133.265 132.537C133.672 132.537 134.079 132.455 134.458 132.266C135.109 131.94 135.434 131.452 135.434 130.72V129.798C135.299 129.879 135.109 129.961 134.892 130.015C134.675 130.069 134.458 130.124 134.241 130.151L133.536 130.232C133.13 130.286 132.804 130.368 132.587 130.503C132.235 130.693 132.045 131.018 132.045 131.452C132.045 131.778 132.181 132.049 132.425 132.238H132.398Z" fill="#192A3B"/>
<path d="M138.5 126.409H139.612V127.602C139.693 127.358 139.91 127.087 140.262 126.762C140.615 126.436 141.022 126.273 141.483 126.273C141.483 126.273 141.537 126.273 141.591 126.273C141.645 126.273 141.727 126.273 141.862 126.273V127.494C141.862 127.494 141.727 127.494 141.672 127.494C141.618 127.494 141.564 127.494 141.483 127.494C140.886 127.494 140.452 127.683 140.127 128.063C139.801 128.443 139.666 128.876 139.666 129.365V133.323H138.5V126.436V126.409Z" fill="#192A3B"/>
<path d="M147.093 126.599C147.554 126.816 147.906 127.114 148.123 127.494C148.34 127.846 148.503 128.253 148.584 128.714C148.666 129.039 148.693 129.527 148.693 130.232H143.677C143.677 130.937 143.866 131.507 144.165 131.913C144.463 132.32 144.951 132.537 145.575 132.537C146.171 132.537 146.659 132.347 147.012 131.94C147.201 131.696 147.364 131.452 147.446 131.127H148.584C148.557 131.371 148.449 131.669 148.286 131.968C148.123 132.266 147.934 132.537 147.717 132.727C147.364 133.079 146.93 133.296 146.415 133.432C146.144 133.513 145.819 133.54 145.466 133.54C144.626 133.54 143.894 133.242 143.297 132.618C142.701 131.995 142.402 131.127 142.402 129.988C142.402 128.849 142.701 127.982 143.297 127.304C143.894 126.626 144.68 126.273 145.629 126.273C146.117 126.273 146.578 126.382 147.039 126.626L147.093 126.599ZM147.527 129.283C147.473 128.795 147.364 128.388 147.201 128.09C146.876 127.521 146.361 127.25 145.629 127.25C145.114 127.25 144.653 127.439 144.3 127.819C143.948 128.199 143.758 128.687 143.731 129.283H147.527Z" fill="#192A3B"/>
<path d="M83.0762 140.347C83.727 140.971 84.0795 141.703 84.1608 142.49H82.9136C82.778 141.893 82.5069 141.405 82.073 141.052C81.6663 140.7 81.0698 140.51 80.3378 140.51C79.4159 140.51 78.6838 140.836 78.1144 141.486C77.545 142.137 77.2739 143.14 77.2739 144.496C77.2739 145.608 77.5179 146.503 78.0331 147.18C78.5482 147.858 79.3074 148.211 80.3106 148.211C81.2325 148.211 81.9375 147.858 82.4255 147.126C82.6695 146.747 82.8864 146.231 82.9949 145.635H84.2421C84.1337 146.638 83.7541 147.452 83.1576 148.129C82.4255 148.943 81.4223 149.35 80.148 149.35C79.0634 149.35 78.1415 149.024 77.4095 148.346C76.4334 147.479 75.9453 146.123 75.9453 144.279C75.9453 142.896 76.2978 141.73 77.0299 140.863C77.8162 139.887 78.9007 139.398 80.2835 139.398C81.4765 139.398 82.3713 139.724 83.022 140.347H83.0762Z" fill="#192A3B"/>
<path d="M90.7504 142.895C91.3469 143.491 91.6723 144.359 91.6723 145.498C91.6723 146.637 91.4012 147.531 90.8589 148.236C90.3166 148.941 89.5032 149.321 88.3644 149.321C87.4154 149.321 86.6834 148.996 86.114 148.372C85.5446 147.748 85.2734 146.881 85.2734 145.796C85.2734 144.63 85.5717 143.708 86.1411 143.03C86.7376 142.352 87.4968 142 88.5 142C89.3676 142 90.1268 142.298 90.7233 142.895H90.7504ZM90.0184 147.477C90.2895 146.908 90.4522 146.257 90.4522 145.552C90.4522 144.901 90.3437 144.386 90.1539 143.979C89.8285 143.356 89.2863 143.03 88.5 143.03C87.795 143.03 87.2799 143.302 86.9816 143.844C86.6833 144.386 86.4936 145.037 86.4936 145.796C86.4936 146.555 86.6562 147.152 86.9816 147.64C87.307 148.128 87.795 148.372 88.5 148.372C89.2592 148.372 89.7743 148.074 90.0726 147.504L90.0184 147.477Z" fill="#192A3B"/>
<path d="M93.082 142.218H94.2208V143.194C94.4919 142.868 94.736 142.597 94.98 142.462C95.3596 142.19 95.7934 142.082 96.2815 142.082C96.8237 142.082 97.2847 142.218 97.61 142.489C97.7998 142.651 97.9625 142.868 98.1252 143.167C98.3692 142.787 98.6946 142.516 99.02 142.353C99.3724 142.163 99.752 142.082 100.186 142.082C101.108 142.082 101.731 142.407 102.084 143.085C102.274 143.438 102.355 143.926 102.355 144.549V149.132H101.162V144.36C101.162 143.899 101.053 143.573 100.809 143.411C100.593 143.248 100.294 143.167 99.9689 143.167C99.508 143.167 99.1284 143.329 98.8031 143.628C98.4777 143.926 98.315 144.441 98.315 145.146V149.159H97.1491V144.658C97.1491 144.197 97.0949 143.844 96.9864 143.628C96.8237 143.302 96.4713 143.14 96.0103 143.14C95.5765 143.14 95.1698 143.302 94.8173 143.655C94.4648 143.98 94.275 144.604 94.275 145.498V149.159H93.1092V142.272L93.082 142.218Z" fill="#192A3B"/>
<path d="M103.957 142.244H105.096V143.166C105.34 142.841 105.584 142.624 105.855 142.434C106.235 142.19 106.696 142.055 107.238 142.055C108.024 142.055 108.675 142.353 109.217 142.949C109.759 143.546 110.031 144.414 110.031 145.525C110.031 147.017 109.624 148.101 108.838 148.752C108.349 149.159 107.753 149.376 107.102 149.376C106.587 149.376 106.153 149.267 105.801 149.023C105.584 148.888 105.367 148.671 105.123 148.372V151.897H103.957V142.299V142.244ZM108.322 147.64C108.675 147.179 108.865 146.502 108.865 145.607C108.865 145.064 108.783 144.576 108.621 144.197C108.322 143.438 107.78 143.058 106.967 143.058C106.153 143.058 105.611 143.465 105.313 144.251C105.15 144.685 105.069 145.227 105.069 145.878C105.069 146.42 105.15 146.854 105.313 147.234C105.611 147.939 106.153 148.291 106.967 148.291C107.509 148.291 107.97 148.074 108.322 147.613V147.64Z" fill="#192A3B"/>
<path d="M115.64 142.407C116.101 142.624 116.453 142.923 116.67 143.302C116.887 143.655 117.05 144.061 117.131 144.522C117.213 144.848 117.24 145.336 117.24 146.041H112.224C112.224 146.746 112.413 147.315 112.712 147.722C113.01 148.129 113.498 148.346 114.122 148.346C114.718 148.346 115.206 148.156 115.559 147.749C115.748 147.505 115.911 147.261 115.992 146.936H117.131C117.104 147.18 116.996 147.478 116.833 147.776C116.67 148.074 116.48 148.346 116.264 148.535C115.911 148.888 115.477 149.105 114.962 149.24C114.691 149.322 114.366 149.349 114.013 149.349C113.173 149.349 112.44 149.051 111.844 148.427C111.247 147.803 110.949 146.936 110.949 145.797C110.949 144.658 111.247 143.79 111.844 143.112C112.44 142.435 113.227 142.082 114.176 142.082C114.664 142.082 115.125 142.19 115.586 142.435L115.64 142.407ZM116.047 145.092C115.992 144.604 115.884 144.197 115.721 143.899C115.396 143.329 114.881 143.058 114.149 143.058C113.633 143.058 113.173 143.248 112.82 143.628C112.468 144.007 112.278 144.495 112.251 145.092H116.047Z" fill="#192A3B"/>
<path d="M118.922 140.293H120.088V142.218H121.199V143.167H120.088V147.668C120.088 147.912 120.169 148.075 120.332 148.156C120.413 148.21 120.576 148.238 120.793 148.238C120.847 148.238 120.901 148.238 120.983 148.238C121.037 148.238 121.118 148.238 121.199 148.238V149.159C121.199 149.159 120.928 149.214 120.793 149.241C120.657 149.241 120.494 149.241 120.332 149.241C119.79 149.241 119.437 149.105 119.22 148.834C119.03 148.563 118.922 148.21 118.922 147.75V143.194H118V142.245H118.922V140.32V140.293Z" fill="#192A3B"/>
<path d="M126.62 142.407C127.081 142.624 127.434 142.923 127.651 143.302C127.868 143.655 128.03 144.061 128.112 144.522C128.193 144.848 128.22 145.336 128.22 146.041H123.204C123.204 146.746 123.394 147.315 123.692 147.722C123.99 148.129 124.478 148.346 125.102 148.346C125.699 148.346 126.187 148.156 126.539 147.749C126.729 147.505 126.892 147.261 126.973 146.936H128.112C128.085 147.18 127.976 147.478 127.813 147.776C127.651 148.074 127.461 148.346 127.244 148.535C126.892 148.888 126.458 149.105 125.943 149.24C125.671 149.322 125.346 149.349 124.994 149.349C124.153 149.349 123.421 149.051 122.824 148.427C122.228 147.803 121.93 146.936 121.93 145.797C121.93 144.658 122.228 143.79 122.824 143.112C123.421 142.435 124.207 142.082 125.156 142.082C125.644 142.082 126.105 142.19 126.566 142.435L126.62 142.407ZM127.027 145.092C126.973 144.604 126.864 144.197 126.702 143.899C126.376 143.329 125.861 143.058 125.129 143.058C124.614 143.058 124.153 143.248 123.801 143.628C123.448 144.007 123.258 144.495 123.231 145.092H127.027Z" fill="#192A3B"/>
<path d="M129.688 142.217H130.799V143.194C131.125 142.787 131.477 142.489 131.829 142.326C132.182 142.163 132.589 142.055 133.05 142.055C134.026 142.055 134.676 142.407 135.029 143.085C135.219 143.465 135.3 143.98 135.3 144.685V149.105H134.134V144.766C134.134 144.359 134.08 144.007 133.944 143.763C133.727 143.329 133.375 143.112 132.833 143.112C132.562 143.112 132.345 143.139 132.155 143.194C131.829 143.275 131.558 143.465 131.314 143.763C131.125 143.98 130.989 144.224 130.935 144.468C130.881 144.712 130.853 145.064 130.853 145.498V149.105H129.688V142.217Z" fill="#192A3B"/>
<path d="M141.563 142.57C142.051 142.949 142.349 143.6 142.431 144.522H141.292C141.21 144.088 141.075 143.736 140.831 143.464C140.587 143.193 140.207 143.031 139.665 143.031C138.933 143.031 138.391 143.383 138.092 144.115C137.875 144.576 137.794 145.146 137.794 145.851C137.794 146.556 137.93 147.125 138.228 147.586C138.526 148.047 138.987 148.291 139.611 148.291C140.099 148.291 140.478 148.155 140.75 147.857C141.021 147.559 141.238 147.152 141.319 146.664H142.458C142.322 147.586 141.997 148.237 141.482 148.67C140.966 149.104 140.316 149.294 139.502 149.294C138.608 149.294 137.875 148.969 137.36 148.318C136.818 147.667 136.547 146.827 136.547 145.851C136.547 144.63 136.845 143.708 137.415 143.031C138.011 142.353 138.743 142.027 139.665 142.027C140.451 142.027 141.075 142.217 141.563 142.597V142.57Z" fill="#192A3B"/>
<path d="M147.907 142.219H149.181C149.018 142.653 148.666 143.656 148.096 145.256C147.69 146.449 147.337 147.398 147.039 148.157C146.361 149.919 145.9 150.977 145.629 151.356C145.358 151.736 144.897 151.926 144.219 151.926C144.057 151.926 143.921 151.926 143.84 151.926C143.758 151.926 143.65 151.899 143.514 151.844V150.787C143.704 150.841 143.867 150.868 143.948 150.895C144.029 150.895 144.111 150.895 144.192 150.895C144.409 150.895 144.572 150.868 144.653 150.787C144.761 150.706 144.843 150.624 144.897 150.516C144.897 150.489 145.005 150.299 145.141 150.001C145.277 149.675 145.358 149.458 145.439 149.296L142.891 142.219H144.192L146.036 147.832L147.907 142.219Z" fill="#192A3B"/>
</svg>
