<svg width="168" height="167" viewBox="0 0 168 167" fill="none" xmlns="http://www.w3.org/2000/svg">
<path d="M114.451 0H0.898438V114.126L53.7704 167H167.893V53.4433L114.451 0Z" fill="white"/>
<path d="M113.041 3.49781L164.395 54.8532V163.556H55.1532L4.369 112.743V3.49781H113.041ZM114.451 0H0.898438V114.126L53.7704 167H167.893V53.4433L114.451 0Z" fill="#515151"/>
<path d="M28.0096 94.0882V100.216H24.5391V83.5134H30.9379C32.4563 83.4321 33.9475 83.9202 35.1134 84.8963C35.9269 85.6555 36.4691 86.6588 36.686 87.7433C36.903 88.8279 36.7674 89.9668 36.3065 90.97C35.8455 91.9733 35.0863 92.8409 34.1102 93.3832C33.1341 93.9255 32.0225 94.1695 30.9108 94.0611H27.9825L28.0096 94.0882ZM28.0096 91.431H30.5583C30.9108 91.4852 31.2362 91.431 31.5615 91.3225C31.8869 91.214 32.1851 90.9971 32.4021 90.7531C32.8088 90.1837 33.0257 89.5058 33.0257 88.8008C33.0257 88.0958 32.8088 87.418 32.4021 86.8486C31.8869 86.4147 31.2362 86.1707 30.5583 86.1707H28.0367V91.431H28.0096ZM51.2462 100.216L50.1345 96.5014H44.4406L43.3289 100.216H39.6143L45.4709 83.5134H49.5109L55.2048 100.216H51.2462ZM45.1185 93.8171H49.294L47.2062 86.8486L45.1185 93.8171ZM60.1666 100.216V83.5134H66.5655C68.0839 83.4321 69.5751 83.9202 70.741 84.8963C71.7171 85.8724 72.2865 87.2282 72.2865 88.611C72.2865 89.56 71.9883 90.4819 71.446 91.2683C70.8766 92.0817 70.1174 92.7054 69.2226 93.1121L73.3982 100.325H69.6836L65.969 93.7899H63.583V100.189H60.1666V100.216ZM63.6372 91.1598H66.1588C66.4571 91.214 66.7282 91.1598 67.0264 91.1056C67.2976 91.0242 67.5687 90.9158 67.8128 90.726C68.0568 90.5633 68.2466 90.3464 68.3821 90.1023C68.5177 89.8583 68.6261 89.5872 68.6804 89.2889V88.611C68.7617 88.0416 68.6262 87.4451 68.2737 86.9841C67.9212 86.5232 67.406 86.1978 66.8367 86.1165H63.7728V91.2683L63.6914 91.1869L63.6372 91.1598ZM81.8577 100.216V86.4418H76.7061V83.5406H90.4799V86.4418H85.3283V100.216H81.8577ZM99.2648 88.6381V100.189H96.0654V83.4863H99.9698L106.775 95.1728V83.4863H109.975V100.189H106.07L99.2377 88.6381H99.2648ZM116.374 100.216V83.5134H127.382V86.3063H119.953V90.2108H125.945V93.0036H119.953V97.4504H127.382V100.243H116.374V100.216ZM133.781 100.216V83.5134H140.18C141.698 83.4321 143.189 83.9202 144.355 84.8963C145.331 85.8724 145.901 87.2282 145.901 88.611C145.901 89.56 145.602 90.4819 145.06 91.2683C144.491 92.0817 143.731 92.7054 142.837 93.1121L147.012 100.325H143.298L139.583 93.7899H137.224V100.189H133.781V100.216ZM137.251 91.1598H139.746C140.315 91.2412 140.912 91.1056 141.373 90.7531C141.833 90.4006 142.159 89.8854 142.24 89.316V88.6381C142.322 88.0687 142.159 87.4722 141.833 87.0112C141.481 86.5503 140.966 86.2249 140.396 86.1436H137.197L137.251 91.1869V91.1598Z" fill="#1A2B3C"/>
<path d="M37.9881 38.2592C37.9339 38.8286 38.0424 39.398 38.2864 39.9403C38.4219 40.3742 38.6931 40.9165 38.8557 41.3232C38.91 41.3774 38.9371 41.4588 38.9642 41.513C38.9642 41.5943 38.9913 41.6757 38.9642 41.7299C38.9642 42.0011 38.8286 42.1638 38.5304 42.2993L37.2831 43.1399H36.8764C36.8764 43.1399 36.6595 43.1399 36.5511 43.0585C36.4426 43.0043 36.3613 42.9501 36.307 42.8416C36.0359 42.5976 35.819 42.3264 35.6292 42.0011C35.4123 41.6486 35.2225 41.269 35.0598 40.8894C34.382 41.7299 33.5415 42.3807 32.5654 42.8416C31.5893 43.3026 30.5589 43.5466 29.4744 43.5466C28.7965 43.6008 28.1187 43.4924 27.4679 43.2483C26.8172 43.0043 26.2478 42.6247 25.7598 42.1366C25.2717 41.6486 24.9192 41.052 24.6752 40.4284C24.4312 39.7777 24.3227 39.0998 24.377 38.4219C24.377 37.6898 24.4854 36.9848 24.7837 36.307C25.0819 35.6291 25.4886 35.0326 26.0309 34.5445C27.3595 33.5413 28.9592 32.999 30.6403 32.999C31.2639 32.999 31.8875 32.999 32.484 33.1345L34.5718 33.5413V32.1584C34.6531 31.6161 34.5989 31.0738 34.4633 30.5315C34.3277 30.0163 34.0566 29.5011 33.7312 29.0944C33.2974 28.769 32.8094 28.4979 32.2942 28.3623C31.779 28.2268 31.2096 28.1725 30.6674 28.2539C29.9624 28.281 29.2846 28.3894 28.5796 28.525C27.8747 28.6877 27.1697 28.9317 26.4918 29.2029C26.2207 29.3385 26.058 29.3385 25.7869 29.5011H25.5157C25.2446 29.5011 25.0819 29.3656 25.0819 28.9317V27.9556C25.0819 27.7116 25.109 27.4675 25.2175 27.2506C25.3802 27.0879 25.57 26.9524 25.7869 26.8439C26.519 26.4372 27.3053 26.1389 28.1458 26.0033C29.0948 25.7322 30.098 25.5966 31.0741 25.5966C32.8365 25.461 34.5989 26.0033 35.9546 27.115C36.4969 27.7387 36.9307 28.4708 37.1747 29.2571C37.4458 30.0434 37.5272 30.884 37.473 31.7246L37.9339 38.1779L37.9881 38.2592ZM30.342 41.0521C30.9656 41.0249 31.5893 40.9436 32.1858 40.7809C32.8907 40.4826 33.5143 40.0488 34.0295 39.5065C34.3549 39.154 34.5989 38.7202 34.7073 38.2321C34.8158 37.6898 34.87 37.1475 34.8429 36.5781V35.7376C33.7041 35.4935 32.5382 35.3579 31.3452 35.3308C30.3691 35.2224 29.3659 35.4664 28.5525 36.0358C28.0102 36.5781 27.6848 37.3102 27.6306 38.0694C27.5764 38.8286 27.8204 39.5879 28.2814 40.2115C28.4712 40.5369 28.7694 40.7809 29.1219 40.9165C29.4744 41.052 29.854 41.1063 30.2336 41.0249H30.2878L30.342 41.0521ZM45.4986 43.1399C45.2275 43.1399 44.9292 43.1399 44.8208 43.0043C44.6581 42.7874 44.5225 42.5434 44.4141 42.2993L39.9403 27.6845C39.8589 27.4675 39.8047 27.2235 39.8047 26.9795C39.8047 26.7083 39.9403 26.5456 40.0759 26.5456H41.9196C42.1908 26.5456 42.489 26.5456 42.5975 26.6812C42.7873 26.8981 42.9228 27.115 43.0313 27.3591L46.2307 39.7505L49.159 27.3591C49.159 27.2235 49.1861 27.0879 49.2674 26.9524C49.3488 26.8439 49.4301 26.7354 49.5657 26.6541C49.7826 26.5456 50.0267 26.4914 50.2707 26.5185H51.7891C52.0331 26.4914 52.2771 26.5185 52.494 26.6541C52.6567 26.871 52.7923 27.0879 52.9007 27.332L55.829 39.9946L59.0284 27.332C59.0284 27.1964 59.0555 27.0608 59.1369 26.9252C59.2182 26.8168 59.3267 26.7083 59.4351 26.627C59.652 26.5185 59.8961 26.4643 60.113 26.4914H61.9567C62.2279 26.4914 62.3906 26.627 62.3906 26.7897V27.1964C62.3906 27.1964 62.255 27.4675 62.255 27.6302L57.8083 42.1095C57.8083 42.2451 57.7812 42.3807 57.6998 42.5162C57.6185 42.6247 57.5101 42.7332 57.3745 42.7874C57.2389 43.0585 56.9678 43.0585 56.6967 43.0585H55.0156C54.7445 43.0585 54.4462 43.0585 54.3378 42.923C54.2022 42.7874 54.0666 42.4891 53.9039 42.218L50.9756 30.0977L48.0744 42.218C48.0744 42.3536 48.0473 42.5162 47.966 42.6247C47.8847 42.7603 47.7762 42.8416 47.6406 42.923C47.478 43.0314 47.2882 43.0857 47.0984 43.0585H45.4715L45.4986 43.1399ZM69.63 43.7093C68.6539 43.7093 67.6777 43.6008 66.7288 43.4382C65.9696 43.2755 65.2104 43.0314 64.5054 42.7332C64.2885 42.6518 64.0987 42.4891 63.9631 42.2993C63.8276 42.1095 63.7733 41.8655 63.8005 41.6215V40.6453C63.8005 40.2386 63.9361 40.0759 64.2072 40.0759H64.4783C64.6139 40.0759 64.7495 40.2115 64.885 40.2115C65.5629 40.5098 66.2678 40.7267 66.9728 40.8894C67.7048 41.052 68.4369 41.1334 69.1961 41.1605C70.1722 41.2147 71.1483 40.9707 71.9888 40.4555C72.2871 40.2386 72.5311 39.9675 72.6938 39.6421C72.8565 39.3167 72.965 38.9642 72.965 38.5846C72.9921 38.3406 72.965 38.0965 72.8565 37.8796C72.7481 37.6627 72.5853 37.4729 72.3955 37.3373C71.8533 36.8764 71.2297 36.551 70.5518 36.3612L67.7591 35.5206C66.5932 35.2224 65.5087 34.5716 64.7224 33.6768C64.1259 32.8634 63.7734 31.8873 63.7463 30.884C63.7463 30.1519 63.936 29.4198 64.3156 28.7962C65.0748 27.576 66.2678 26.6812 67.6506 26.3016C68.4098 26.0576 69.2233 25.9491 70.0096 26.0033C70.4434 26.0033 70.8501 26.0033 71.2839 26.1389C71.7177 26.166 72.1244 26.2745 72.5311 26.4101C72.9649 26.5456 73.2361 26.5456 73.6699 26.6812C74.1037 26.8168 74.2122 26.8168 74.5104 26.9524C74.7273 27.0608 74.89 27.1964 75.0798 27.3591C75.1883 27.576 75.2425 27.82 75.2154 28.0641V28.9046C75.2154 29.3113 75.0798 29.474 74.7816 29.474C74.5375 29.474 74.2935 29.3656 74.1037 29.2029C72.9378 28.6877 71.6635 28.4437 70.3891 28.525C69.5215 28.525 68.6539 28.6877 67.8947 29.0944C67.5964 29.23 67.3524 29.474 67.1897 29.7723C67.027 30.0706 66.9999 30.3959 67.0541 30.7484C67.0541 31.0196 67.0541 31.2636 67.1626 31.5076C67.271 31.7517 67.4066 31.9686 67.5964 32.1313C68.1658 32.6736 68.8979 33.0261 69.6842 33.1074L72.3413 33.948C73.453 34.2734 74.4833 34.9241 75.2425 35.7918C75.8119 36.551 76.1101 37.5 76.083 38.449C76.083 39.2354 75.9204 39.9946 75.5137 40.6724C75.2154 41.3503 74.7273 41.9197 74.1308 42.3536C73.4801 42.8145 72.7752 43.167 72.0431 43.4653C71.2568 43.6551 70.4705 43.7364 69.6571 43.7364V43.6551L69.63 43.7093Z" fill="#1A2B3C"/>
<path d="M73.2383 52.7649C66.4599 57.3473 58.4613 59.7606 50.2729 59.7334C39.9425 59.7334 29.9646 55.9374 22.3185 48.996C21.7491 48.4266 22.3185 47.7487 23.0235 48.1554C31.5101 53.1174 41.1626 55.6933 50.9778 55.6662C58.3257 55.6391 65.6193 54.1749 72.3977 51.355C73.3738 50.9211 74.2415 52.0328 73.2383 52.7378V52.7649ZM74.2144 56.9406C73.9433 57.51 74.5127 57.7541 75.0549 57.3473C78.3899 54.5545 79.2305 48.7248 78.5255 47.8843C77.8205 47.0437 71.964 46.3659 68.4934 48.8604C67.924 49.2942 68.0866 49.8365 68.6289 49.701C70.4727 49.4298 75.0549 48.8604 75.8955 49.9992C76.736 51.1381 74.9194 55.151 74.2144 56.9677V56.9406Z" fill="#F7982E"/>
<path d="M48.2654 108.053H52.0342C53.3086 108.053 54.3118 108.514 55.0167 109.436C55.6404 110.276 55.9657 111.334 55.9657 112.635C55.9657 113.638 55.7759 114.533 55.3963 115.347C54.7456 116.784 53.6068 117.489 52.0071 117.489H48.2383V108.053H48.2654ZM51.7902 116.404C52.224 116.404 52.5493 116.35 52.8205 116.269C53.3085 116.106 53.7152 115.78 54.0135 115.292C54.2575 114.913 54.4474 114.425 54.5558 113.828C54.61 113.476 54.6371 113.15 54.6371 112.825C54.6371 111.659 54.4202 110.737 53.9593 110.086C53.4984 109.436 52.7663 109.11 51.763 109.11H49.5397V116.35H51.763L51.7902 116.404Z" fill="#1A2B3C"/>
<path d="M61.8196 110.79C62.2805 111.007 62.633 111.305 62.8499 111.685C63.0668 112.037 63.2295 112.444 63.3109 112.905C63.3922 113.231 63.4193 113.719 63.4193 114.424H58.4033C58.4033 115.129 58.593 115.698 58.8913 116.105C59.1895 116.511 59.6776 116.728 60.3012 116.728C60.8977 116.728 61.3858 116.539 61.7382 116.132C61.928 115.888 62.0907 115.644 62.1721 115.318H63.3109C63.2837 115.562 63.1753 115.861 63.0126 116.159C62.8499 116.457 62.6601 116.728 62.4432 116.918C62.0907 117.271 61.6569 117.488 61.1417 117.623C60.8706 117.704 60.5452 117.732 60.1927 117.732C59.3522 117.732 58.6202 117.433 58.0237 116.81C57.4272 116.186 57.1289 115.318 57.1289 114.18C57.1289 113.041 57.4272 112.173 58.0237 111.495C58.6202 110.817 59.4065 110.465 60.3555 110.465C60.8435 110.465 61.3044 110.573 61.7653 110.817L61.8196 110.79ZM62.2263 113.502C62.1721 113.014 62.0636 112.607 61.9009 112.309C61.5756 111.739 61.0604 111.468 60.3283 111.468C59.8132 111.468 59.3522 111.658 58.9998 112.037C58.6473 112.417 58.4575 112.905 58.4304 113.502H62.2263Z" fill="#1A2B3C"/>
<path d="M65.4536 110.602L67.2973 116.214L69.2224 110.602H70.4967L67.8938 117.489H66.6737L64.125 110.602H65.4807H65.4536Z" fill="#1A2B3C"/>
<path d="M79.3908 109.381C80.0144 110.222 80.3398 111.279 80.3398 112.581C80.3398 113.991 79.9873 115.156 79.2552 116.105C78.4147 117.19 77.2217 117.759 75.6491 117.759C74.185 117.759 73.0462 117.271 72.2328 116.322C71.5007 115.401 71.1211 114.235 71.1211 112.825C71.1211 111.55 71.4465 110.466 72.0701 109.544C72.8835 108.378 74.0765 107.781 75.6762 107.781C77.276 107.781 78.5774 108.324 79.3908 109.381ZM78.2792 115.401C78.7943 114.587 79.0384 113.665 79.0384 112.608C79.0384 111.496 78.7401 110.601 78.1707 109.923C77.6013 109.245 76.7879 108.893 75.7847 108.893C74.7815 108.893 74.0223 109.218 73.3987 109.896C72.7751 110.574 72.4768 111.55 72.4768 112.879C72.4768 113.936 72.7479 114.804 73.2631 115.536C73.8054 116.268 74.6459 116.621 75.8389 116.621C77.0319 116.621 77.7911 116.214 78.2792 115.401Z" fill="#1A2B3C"/>
<path d="M81.6133 110.627H82.7521V111.549C82.9961 111.224 83.2401 111.007 83.5112 110.817C83.8908 110.573 84.3518 110.438 84.894 110.438C85.6803 110.438 86.3311 110.736 86.8734 111.332C87.4156 111.929 87.6868 112.796 87.6868 113.908C87.6868 115.4 87.2801 116.484 86.4938 117.135C86.0057 117.542 85.4092 117.758 84.7585 117.758C84.2433 117.758 83.8095 117.65 83.457 117.406C83.2401 117.27 83.0232 117.054 82.7792 116.755V120.28H81.6133V110.682V110.627ZM85.9515 116.023C86.3039 115.562 86.4938 114.884 86.4938 113.99C86.4938 113.447 86.4124 112.959 86.2497 112.58C85.9515 111.82 85.4092 111.441 84.5958 111.441C83.7824 111.441 83.2401 111.847 82.9418 112.634C82.7791 113.068 82.6978 113.61 82.6978 114.261C82.6978 114.803 82.7791 115.237 82.9418 115.616C83.2401 116.321 83.7824 116.674 84.5958 116.674C85.1381 116.674 85.599 116.457 85.9515 115.996V116.023Z" fill="#1A2B3C"/>
<path d="M89.7215 115.318C89.7486 115.698 89.8571 115.996 90.0198 116.213C90.318 116.593 90.8332 116.782 91.5653 116.782C91.9991 116.782 92.3787 116.701 92.7311 116.511C93.0565 116.321 93.2192 116.023 93.2192 115.644C93.2192 115.345 93.0836 115.128 92.8125 114.966C92.6498 114.884 92.2973 114.749 91.8093 114.64L90.8874 114.396C90.2909 114.261 89.8571 114.098 89.5588 113.908C89.0437 113.583 88.7996 113.149 88.7996 112.607C88.7996 111.956 89.0437 111.441 89.5046 111.034C89.9927 110.627 90.6163 110.438 91.4297 110.438C92.4871 110.438 93.2463 110.736 93.7072 111.359C94.0055 111.739 94.1411 112.173 94.1411 112.607H93.0565C93.0565 112.336 92.9481 112.119 92.7854 111.902C92.5142 111.603 92.0533 111.441 91.3754 111.441C90.9145 111.441 90.5892 111.522 90.3451 111.685C90.1011 111.847 89.9927 112.064 89.9927 112.336C89.9927 112.634 90.1553 112.878 90.4536 113.041C90.6163 113.149 90.8874 113.23 91.2399 113.312L92.0262 113.501C92.8667 113.691 93.4361 113.908 93.7344 114.098C94.1953 114.396 94.4122 114.857 94.4122 115.481C94.4122 116.104 94.1682 116.62 93.7072 117.081C93.2463 117.514 92.5142 117.758 91.5653 117.758C90.5349 117.758 89.8029 117.514 89.369 117.054C88.9352 116.593 88.7183 116.023 88.6641 115.318H89.7757H89.7215Z" fill="#1A2B3C"/>
<path d="M100.269 114.451C100.296 114.994 100.432 115.428 100.621 115.753C101.028 116.377 101.76 116.702 102.791 116.702C103.252 116.702 103.685 116.621 104.065 116.485C104.797 116.214 105.177 115.753 105.177 115.048C105.177 114.533 105.014 114.18 104.716 113.936C104.39 113.719 103.902 113.53 103.224 113.367L101.977 113.069C101.164 112.879 100.594 112.662 100.269 112.445C99.6996 112.038 99.4014 111.469 99.4014 110.683C99.4014 109.842 99.6996 109.137 100.269 108.595C100.838 108.052 101.652 107.781 102.709 107.781C103.685 107.781 104.499 108.025 105.177 108.486C105.854 108.974 106.18 109.734 106.18 110.791H104.987C104.933 110.276 104.797 109.896 104.58 109.625C104.201 109.137 103.577 108.893 102.682 108.893C101.95 108.893 101.435 109.056 101.11 109.381C100.784 109.706 100.621 110.059 100.621 110.493C100.621 110.954 100.811 111.306 101.191 111.496C101.435 111.632 101.977 111.794 102.845 112.011L104.119 112.309C104.743 112.445 105.204 112.662 105.556 112.906C106.126 113.34 106.424 113.991 106.424 114.831C106.424 115.889 106.044 116.621 105.312 117.082C104.58 117.543 103.712 117.759 102.736 117.759C101.598 117.759 100.703 117.461 100.052 116.865C99.4014 116.268 99.076 115.455 99.1031 114.451H100.296H100.269Z" fill="#1A2B3C"/>
<path d="M112.308 110.79C112.769 111.007 113.121 111.305 113.338 111.685C113.555 112.037 113.718 112.444 113.799 112.905C113.88 113.231 113.908 113.719 113.908 114.424H108.892C108.892 115.129 109.081 115.698 109.38 116.105C109.678 116.539 110.166 116.728 110.79 116.728C111.386 116.728 111.874 116.539 112.227 116.132C112.416 115.888 112.579 115.644 112.66 115.318H113.799C113.772 115.562 113.664 115.861 113.501 116.159C113.338 116.457 113.148 116.728 112.932 116.918C112.579 117.271 112.145 117.488 111.63 117.623C111.359 117.704 111.034 117.732 110.681 117.732C109.841 117.732 109.108 117.433 108.512 116.81C107.915 116.186 107.617 115.318 107.617 114.18C107.617 113.041 107.915 112.173 108.512 111.495C109.108 110.817 109.895 110.465 110.844 110.465C111.332 110.465 111.793 110.573 112.254 110.817L112.308 110.79ZM112.715 113.502C112.66 113.014 112.552 112.607 112.389 112.309C112.064 111.739 111.549 111.468 110.817 111.468C110.301 111.468 109.841 111.658 109.488 112.037C109.136 112.417 108.946 112.905 108.919 113.502H112.715Z" fill="#1A2B3C"/>
<path d="M115.398 110.6H116.51V111.793C116.591 111.549 116.808 111.278 117.161 110.953C117.513 110.628 117.92 110.465 118.381 110.465C118.381 110.465 118.435 110.465 118.489 110.465C118.544 110.465 118.625 110.465 118.761 110.465V111.685C118.761 111.685 118.625 111.685 118.571 111.685C118.517 111.685 118.462 111.685 118.381 111.685C117.812 111.685 117.351 111.875 117.025 112.254C116.7 112.634 116.564 113.068 116.564 113.556V117.515H115.398V110.628V110.6Z" fill="#1A2B3C"/>
<path d="M120.332 110.602L122.176 116.214L124.101 110.602H125.376L122.773 117.489H121.553L119.004 110.602H120.36H120.332Z" fill="#1A2B3C"/>
<path d="M126.352 108.053H127.517V109.354H126.352V108.053ZM126.352 110.629H127.517V117.489H126.352V110.629Z" fill="#1A2B3C"/>
<path d="M133.836 110.952C134.324 111.332 134.623 111.983 134.704 112.905H133.592C133.511 112.471 133.375 112.118 133.131 111.847C132.887 111.576 132.508 111.413 131.965 111.413C131.233 111.413 130.691 111.766 130.393 112.498C130.176 112.959 130.095 113.528 130.095 114.233C130.095 114.938 130.23 115.508 130.528 115.969C130.827 116.43 131.288 116.674 131.911 116.674C132.399 116.674 132.779 116.538 133.05 116.24C133.321 115.942 133.538 115.535 133.619 115.047H134.731C134.596 115.969 134.27 116.619 133.755 117.053C133.24 117.487 132.589 117.677 131.776 117.677C130.881 117.677 130.149 117.352 129.634 116.701C129.091 116.05 128.82 115.209 128.82 114.233C128.82 113.013 129.119 112.091 129.688 111.413C130.284 110.736 131.017 110.41 131.938 110.41C132.725 110.41 133.348 110.6 133.836 110.98V110.952Z" fill="#1A2B3C"/>
<path d="M140.097 110.79C140.558 111.007 140.91 111.305 141.127 111.685C141.344 112.037 141.507 112.444 141.588 112.905C141.67 113.231 141.697 113.719 141.697 114.424H136.681C136.681 115.129 136.87 115.698 137.169 116.105C137.467 116.539 137.955 116.728 138.579 116.728C139.175 116.728 139.663 116.539 140.016 116.132C140.205 115.888 140.368 115.644 140.449 115.318H141.588C141.561 115.562 141.453 115.861 141.29 116.159C141.127 116.457 140.937 116.728 140.721 116.918C140.368 117.271 139.934 117.488 139.419 117.623C139.148 117.704 138.823 117.732 138.47 117.732C137.63 117.732 136.898 117.433 136.301 116.81C135.705 116.186 135.406 115.318 135.406 114.18C135.406 113.041 135.705 112.173 136.301 111.495C136.898 110.817 137.684 110.465 138.633 110.465C139.121 110.465 139.582 110.573 140.043 110.817L140.097 110.79ZM140.531 113.502C140.477 113.014 140.368 112.607 140.205 112.309C139.88 111.739 139.365 111.468 138.633 111.468C138.118 111.468 137.657 111.658 137.304 112.037C136.952 112.417 136.762 112.905 136.735 113.502H140.531Z" fill="#1A2B3C"/>
<path d="M143.866 115.318C143.893 115.698 144.002 115.996 144.164 116.213C144.463 116.593 144.978 116.782 145.71 116.782C146.144 116.782 146.523 116.701 146.876 116.511C147.228 116.321 147.364 116.023 147.364 115.644C147.364 115.345 147.228 115.128 146.957 114.966C146.794 114.884 146.442 114.749 145.954 114.64L145.032 114.396C144.435 114.261 144.002 114.098 143.703 113.908C143.188 113.583 142.944 113.149 142.944 112.607C142.944 111.956 143.188 111.441 143.649 111.034C144.137 110.627 144.761 110.438 145.574 110.438C146.632 110.438 147.391 110.736 147.852 111.359C148.15 111.739 148.286 112.173 148.286 112.607H147.201C147.201 112.336 147.093 112.119 146.93 111.902C146.659 111.603 146.198 111.441 145.52 111.441C145.059 111.441 144.734 111.522 144.49 111.685C144.273 111.847 144.137 112.064 144.137 112.336C144.137 112.634 144.3 112.878 144.598 113.041C144.761 113.149 145.032 113.23 145.384 113.312L146.171 113.501C147.011 113.691 147.581 113.908 147.879 114.098C148.34 114.396 148.557 114.857 148.557 115.481C148.557 116.104 148.313 116.62 147.852 117.081C147.391 117.514 146.659 117.758 145.71 117.758C144.679 117.758 143.947 117.514 143.514 117.054C143.08 116.593 142.863 116.023 142.809 115.318H143.92H143.866Z" fill="#1A2B3C"/>
<path d="M82.67 124.539C83.3207 125.162 83.6732 125.895 83.7546 126.681H82.5073C82.3718 126.084 82.1006 125.596 81.6668 125.244C81.2601 124.891 80.6636 124.702 79.9315 124.702C79.0096 124.702 78.2776 125.027 77.7082 125.678C77.1388 126.328 76.8677 127.332 76.8677 128.687C76.8677 129.799 77.1117 130.694 77.6268 131.372C78.142 132.05 78.9012 132.402 79.9044 132.402C80.8263 132.402 81.5312 132.05 82.0193 131.318C82.2633 130.938 82.4802 130.423 82.5887 129.826H83.8359C83.7274 130.829 83.3479 131.643 82.7514 132.321C82.0193 133.134 81.0161 133.541 79.7417 133.541C78.6572 133.541 77.7353 133.216 77.0032 132.538C76.0271 131.67 75.5391 130.314 75.5391 128.471C75.5391 127.088 75.8916 125.922 76.6236 125.054C77.4099 124.078 78.4945 123.59 79.8773 123.59C81.0703 123.59 81.965 123.915 82.6158 124.539H82.67Z" fill="#1A2B3C"/>
<path d="M90.3442 127.086C90.9407 127.683 91.2661 128.55 91.2661 129.689C91.2661 130.828 90.9949 131.723 90.4526 132.428C89.9104 133.133 89.0969 133.512 87.9582 133.512C87.0092 133.512 86.2771 133.187 85.7077 132.563C85.1383 131.94 84.8672 131.072 84.8672 129.987C84.8672 128.822 85.1655 127.9 85.7349 127.222C86.3314 126.544 87.0905 126.191 88.0937 126.191C88.9614 126.191 89.7205 126.49 90.3171 127.086H90.3442ZM89.6121 131.669C89.8832 131.099 90.0459 130.448 90.0459 129.743C90.0459 129.093 89.9375 128.578 89.7477 128.171C89.4223 127.547 88.88 127.222 88.0937 127.222C87.3888 127.222 86.8736 127.493 86.5754 128.035C86.2771 128.578 86.0873 129.228 86.0873 129.987C86.0873 130.747 86.25 131.343 86.5754 131.831C86.9007 132.319 87.3888 132.563 88.0937 132.563C88.8529 132.563 89.3681 132.265 89.6663 131.696L89.6121 131.669Z" fill="#1A2B3C"/>
<path d="M92.6758 126.409H93.8146V127.385C94.0857 127.06 94.3297 126.789 94.5737 126.653C94.9533 126.382 95.3871 126.273 95.8752 126.273C96.4175 126.273 96.8784 126.409 97.2038 126.68C97.3936 126.843 97.5563 127.06 97.719 127.358C97.963 126.978 98.2884 126.707 98.6137 126.545C98.9662 126.355 99.3458 126.273 99.7796 126.273C100.701 126.273 101.325 126.599 101.678 127.277C101.867 127.629 101.949 128.117 101.949 128.741V133.323H100.756V128.551C100.756 128.09 100.647 127.765 100.403 127.602C100.186 127.439 99.888 127.358 99.5627 127.358C99.1017 127.358 98.7222 127.521 98.3968 127.819C98.0714 128.117 97.9087 128.632 97.9087 129.337V133.35H96.7429V128.849C96.7429 128.388 96.6886 128.036 96.5802 127.819C96.4175 127.494 96.065 127.331 95.6041 127.331C95.1703 127.331 94.7635 127.494 94.4111 127.846C94.0586 128.171 93.8688 128.795 93.8688 129.69V133.35H92.7029V126.463L92.6758 126.409Z" fill="#1A2B3C"/>
<path d="M103.551 126.436H104.69V127.358C104.934 127.032 105.178 126.816 105.449 126.626C105.828 126.382 106.289 126.246 106.832 126.246C107.618 126.246 108.269 126.544 108.811 127.141C109.353 127.737 109.624 128.605 109.624 129.717C109.624 131.208 109.218 132.293 108.431 132.943C107.943 133.35 107.347 133.567 106.696 133.567C106.181 133.567 105.747 133.459 105.395 133.215C105.178 133.079 104.961 132.862 104.717 132.564V136.089H103.551V126.49V126.436ZM107.916 131.832C108.269 131.371 108.458 130.693 108.458 129.798C108.458 129.256 108.377 128.768 108.214 128.388C107.916 127.629 107.374 127.249 106.56 127.249C105.747 127.249 105.205 127.656 104.906 128.442C104.744 128.876 104.662 129.419 104.662 130.069C104.662 130.612 104.744 131.045 104.906 131.425C105.205 132.13 105.747 132.482 106.56 132.482C107.103 132.482 107.564 132.266 107.916 131.805V131.832Z" fill="#1A2B3C"/>
<path d="M115.21 126.599C115.671 126.816 116.024 127.114 116.241 127.494C116.457 127.846 116.62 128.253 116.701 128.714C116.783 129.039 116.81 129.527 116.81 130.232H111.794C111.794 130.937 111.984 131.507 112.282 131.913C112.58 132.347 113.068 132.537 113.692 132.537C114.288 132.537 114.776 132.347 115.129 131.94C115.319 131.696 115.481 131.452 115.563 131.127H116.701C116.674 131.371 116.566 131.669 116.403 131.968C116.241 132.266 116.051 132.537 115.834 132.727C115.481 133.079 115.048 133.296 114.532 133.432C114.261 133.513 113.936 133.54 113.583 133.54C112.743 133.54 112.011 133.242 111.414 132.618C110.818 131.995 110.52 131.127 110.52 129.988C110.52 128.849 110.818 127.982 111.414 127.304C112.011 126.626 112.797 126.273 113.746 126.273C114.234 126.273 114.695 126.382 115.156 126.626L115.21 126.599ZM115.644 129.283C115.59 128.795 115.481 128.388 115.319 128.09C114.993 127.521 114.478 127.25 113.746 127.25C113.231 127.25 112.77 127.439 112.417 127.819C112.065 128.199 111.875 128.687 111.848 129.283H115.644Z" fill="#1A2B3C"/>
<path d="M118.516 124.484H119.681V126.41H120.793V127.359H119.681V131.86C119.681 132.104 119.763 132.266 119.925 132.348C120.007 132.402 120.17 132.429 120.386 132.429C120.441 132.429 120.495 132.429 120.576 132.429C120.63 132.429 120.712 132.429 120.793 132.429V133.351C120.793 133.351 120.522 133.405 120.386 133.432C120.251 133.432 120.088 133.432 119.925 133.432C119.383 133.432 119.031 133.297 118.814 133.026C118.624 132.754 118.516 132.402 118.516 131.941V127.386H117.594V126.437H118.516V124.511V124.484Z" fill="#1A2B3C"/>
<path d="M126.218 126.599C126.679 126.816 127.031 127.114 127.248 127.494C127.465 127.846 127.628 128.253 127.709 128.714C127.791 129.039 127.818 129.527 127.818 130.232H122.802C122.802 130.937 122.991 131.507 123.29 131.913C123.588 132.347 124.076 132.537 124.7 132.537C125.296 132.537 125.784 132.347 126.137 131.94C126.326 131.696 126.489 131.452 126.571 131.127H127.709C127.682 131.371 127.574 131.669 127.411 131.968C127.248 132.266 127.059 132.537 126.842 132.727C126.489 133.079 126.055 133.296 125.54 133.432C125.269 133.513 124.944 133.54 124.591 133.54C123.751 133.54 123.019 133.242 122.422 132.618C121.826 131.995 121.527 131.127 121.527 129.988C121.527 128.849 121.826 127.982 122.422 127.304C123.019 126.626 123.805 126.273 124.754 126.273C125.242 126.273 125.703 126.382 126.164 126.626L126.218 126.599ZM126.625 129.283C126.57 128.795 126.462 128.388 126.299 128.09C125.974 127.521 125.459 127.25 124.727 127.25C124.212 127.25 123.751 127.439 123.398 127.819C123.046 128.199 122.856 128.687 122.829 129.283H126.625Z" fill="#1A2B3C"/>
<path d="M129.281 126.409H130.393V127.385C130.718 126.978 131.071 126.68 131.423 126.517C131.776 126.355 132.182 126.246 132.643 126.246C133.619 126.246 134.27 126.599 134.623 127.276C134.812 127.656 134.894 128.171 134.894 128.876V133.296H133.728V128.958C133.728 128.551 133.674 128.198 133.538 127.954C133.321 127.52 132.969 127.304 132.426 127.304C132.155 127.304 131.938 127.331 131.749 127.385C131.423 127.466 131.152 127.656 130.908 127.954C130.718 128.171 130.583 128.415 130.528 128.659C130.474 128.903 130.447 129.256 130.447 129.69V133.296H129.281V126.409Z" fill="#1A2B3C"/>
<path d="M141.157 126.761C141.645 127.141 141.943 127.791 142.024 128.713H140.913C140.831 128.279 140.696 127.927 140.452 127.656C140.208 127.385 139.828 127.222 139.286 127.222C138.554 127.222 138.011 127.574 137.713 128.307C137.496 128.768 137.415 129.337 137.415 130.042C137.415 130.747 137.551 131.316 137.849 131.777C138.147 132.238 138.608 132.482 139.232 132.482C139.72 132.482 140.099 132.347 140.37 132.048C140.642 131.75 140.858 131.343 140.94 130.855H142.051C141.916 131.777 141.59 132.428 141.075 132.862C140.56 133.296 139.909 133.486 139.096 133.486C138.201 133.486 137.469 133.16 136.954 132.509C136.412 131.859 136.141 131.018 136.141 130.042C136.141 128.822 136.439 127.9 137.008 127.222C137.605 126.544 138.337 126.219 139.259 126.219C140.045 126.219 140.669 126.409 141.157 126.788V126.761Z" fill="#1A2B3C"/>
<path d="M147.473 126.41H148.747C148.585 126.844 148.232 127.847 147.663 129.447C147.256 130.64 146.904 131.589 146.605 132.348C145.928 134.111 145.467 135.168 145.196 135.548C144.924 135.927 144.463 136.117 143.786 136.117C143.623 136.117 143.487 136.117 143.406 136.117C143.325 136.117 143.216 136.09 143.081 136.036V134.978C143.27 135.033 143.433 135.06 143.514 135.087C143.596 135.087 143.677 135.087 143.758 135.087C143.975 135.087 144.138 135.06 144.219 134.978C144.328 134.897 144.409 134.816 144.463 134.707C144.463 134.68 144.572 134.49 144.707 134.192C144.843 133.894 144.924 133.65 145.006 133.487L142.457 126.41H143.758L145.602 132.023L147.473 126.41Z" fill="#1A2B3C"/>
</svg>
