<svg width="167" height="167" viewBox="0 0 167 167" fill="none" xmlns="http://www.w3.org/2000/svg">
<path d="M113.553 0H0V114.126L52.872 167H166.994V53.4433L113.553 0Z" fill="white"/>
<path d="M112.17 3.49781L163.524 54.8532V163.556H54.2819L3.49768 112.743V3.49781H112.17ZM113.553 0H0V114.126L52.872 167H166.994V53.4433L113.553 0Z" fill="#515151"/>
<path d="M27.1424 94.0882V100.216H23.6719V83.5134H30.0707C31.5891 83.4321 33.0804 83.9202 34.2463 84.8963C35.0597 85.6555 35.602 86.6588 35.8189 87.7433C36.0358 88.8279 35.9002 89.9668 35.4393 90.97C34.9783 91.9733 34.2192 92.8409 33.2431 93.3832C32.267 93.9255 31.1553 94.1695 30.0436 94.0611H27.1153L27.1424 94.0882ZM27.1424 91.431H29.6911C30.0436 91.4852 30.369 91.431 30.6944 91.3225C31.0197 91.214 31.318 90.9971 31.5349 90.7531C31.9416 90.1837 32.1585 89.5058 32.1585 88.8008C32.1585 88.0958 31.9416 87.418 31.5349 86.8486C31.0197 86.4147 30.369 86.1707 29.6911 86.1707H27.1696V91.431H27.1424ZM50.379 100.216L49.2673 96.5014H43.5734L42.4618 100.216H38.7472L44.6038 83.5134H48.6437L54.3376 100.216H50.379ZM44.2513 93.8171H48.4268L46.339 86.8486L44.2513 93.8171ZM59.2995 100.216V83.5134H65.6983C67.2167 83.4321 68.708 83.9202 69.8738 84.8963C70.8499 85.8724 71.4193 87.2282 71.4193 88.611C71.4193 89.56 71.1211 90.4819 70.5788 91.2683C70.0094 92.0817 69.2502 92.7054 68.3555 93.1121L72.531 100.325H68.8164L65.1018 93.7899H62.7158V100.189H59.2995V100.216ZM62.77 91.1598H65.2916C65.5899 91.214 65.861 91.1598 66.1592 91.1056C66.4304 91.0242 66.7015 90.9158 66.9456 90.726C67.1896 90.5633 67.3794 90.3464 67.5149 90.1023C67.6505 89.8583 67.759 89.5872 67.8132 89.2889V88.611C67.8945 88.0416 67.759 87.4451 67.4065 86.9841C67.054 86.5232 66.5388 86.1978 65.9695 86.1165H62.9056V91.2683L62.8242 91.1869L62.77 91.1598ZM80.9905 100.216V86.4418H75.8389V83.5406H89.6127V86.4418H84.4611V100.216H80.9905ZM98.3976 88.6381V100.189H95.1982V83.4863H99.1026L105.908 95.1728V83.4863H109.108V100.189H105.203L98.3705 88.6381H98.3976ZM115.506 100.216V83.5134H126.515V86.3063H119.085V90.2108H125.078V93.0036H119.085V97.4504H126.515V100.243H115.506V100.216ZM132.914 100.216V83.5134H139.312C140.831 83.4321 142.322 83.9202 143.488 84.8963C144.464 85.8724 145.033 87.2282 145.033 88.611C145.033 89.56 144.735 90.4819 144.193 91.2683C143.623 92.0817 142.864 92.7054 141.97 93.1121L146.145 100.325H142.43L138.716 93.7899H136.357V100.189H132.914V100.216ZM136.384 91.1598H138.879C139.448 91.2412 140.044 91.1056 140.505 90.7531C140.966 90.4006 141.292 89.8854 141.373 89.316V88.6381C141.454 88.0687 141.292 87.4722 140.966 87.0112C140.614 86.5503 140.099 86.2249 139.529 86.1436H136.33L136.384 91.1869V91.1598Z" fill="#1A2B3C"/>
<path d="M37.117 38.2592C37.0628 38.8286 37.1712 39.398 37.4153 39.9403C37.5508 40.3742 37.822 40.9165 37.9847 41.3232C38.0389 41.3774 38.066 41.4588 38.0931 41.513C38.0931 41.5943 38.1202 41.6757 38.0931 41.7299C38.0931 42.0011 37.9575 42.1638 37.6593 42.2993L36.4121 43.1399H36.0053C36.0053 43.1399 35.7884 43.1399 35.68 43.0585C35.5715 43.0043 35.4902 42.9501 35.436 42.8416C35.1648 42.5976 34.9479 42.3264 34.7581 42.0011C34.5412 41.6486 34.3514 41.269 34.1887 40.8894C33.5109 41.7299 32.6703 42.3807 31.6942 42.8416C30.7182 43.3026 29.6878 43.5466 28.6033 43.5466C27.9254 43.6008 27.2476 43.4924 26.5969 43.2483C25.9461 43.0043 25.3767 42.6247 24.8887 42.1366C24.4006 41.6486 24.0481 41.052 23.8041 40.4284C23.5601 39.7777 23.4516 39.0998 23.5059 38.4219C23.5059 37.6898 23.6143 36.9848 23.9126 36.307C24.2108 35.6291 24.6175 35.0326 25.1598 34.5445C26.4884 33.5413 28.0881 32.999 29.7692 32.999C30.3928 32.999 31.0164 32.999 31.6129 33.1345L33.7007 33.5413V32.1584C33.782 31.6161 33.7278 31.0738 33.5922 30.5315C33.4566 30.0163 33.1855 29.5011 32.8601 29.0944C32.4263 28.769 31.9383 28.4979 31.4231 28.3623C30.9079 28.2268 30.3386 28.1725 29.7963 28.2539C29.0913 28.281 28.4135 28.3894 27.7085 28.525C27.0036 28.6877 26.2986 28.9317 25.6208 29.2029C25.3496 29.3385 25.1869 29.3385 24.9158 29.5011H24.6447C24.3735 29.5011 24.2108 29.3656 24.2108 28.9317V27.9556C24.2108 27.7116 24.2379 27.4675 24.3464 27.2506C24.5091 27.0879 24.6989 26.9524 24.9158 26.8439C25.6479 26.4372 26.4342 26.1389 27.2747 26.0033C28.2237 25.7322 29.2269 25.5966 30.203 25.5966C31.9654 25.461 33.7278 26.0033 35.0835 27.115C35.6258 27.7387 36.0596 28.4708 36.3036 29.2571C36.5747 30.0434 36.6561 30.884 36.6019 31.7246L37.0628 38.1779L37.117 38.2592ZM29.4709 41.0521C30.0945 41.0249 30.7182 40.9436 31.3147 40.7809C32.0196 40.4826 32.6432 40.0488 33.1584 39.5065C33.4838 39.154 33.7278 38.7202 33.8362 38.2321C33.9447 37.6898 33.9989 37.1475 33.9718 36.5781V35.7376C32.833 35.4935 31.6671 35.3579 30.4741 35.3308C29.498 35.2224 28.4948 35.4664 27.6814 36.0358C27.1391 36.5781 26.8138 37.3102 26.7595 38.0694C26.7053 38.8286 26.9493 39.5879 27.4103 40.2115C27.6001 40.5369 27.8983 40.7809 28.2508 40.9165C28.6033 41.052 28.9829 41.1063 29.3625 41.0249H29.4167L29.4709 41.0521ZM44.6275 43.1399C44.3564 43.1399 44.0582 43.1399 43.9497 43.0043C43.787 42.7874 43.6514 42.5434 43.543 42.2993L39.0692 27.6845C38.9879 27.4675 38.9336 27.2235 38.9336 26.9795C38.9336 26.7083 39.0692 26.5456 39.2048 26.5456H41.0485C41.3197 26.5456 41.6179 26.5456 41.7264 26.6812C41.9162 26.8981 42.0517 27.115 42.1602 27.3591L45.3596 39.7505L48.2879 27.3591C48.2879 27.2235 48.315 27.0879 48.3964 26.9524C48.4777 26.8439 48.559 26.7354 48.6946 26.6541C48.9115 26.5456 49.1556 26.4914 49.3996 26.5185H50.918C51.162 26.4914 51.406 26.5185 51.6229 26.6541C51.7856 26.871 51.9212 27.0879 52.0296 27.332L54.9579 39.9946L58.1573 27.332C58.1573 27.1964 58.1845 27.0608 58.2658 26.9252C58.3471 26.8168 58.4556 26.7083 58.5641 26.627C58.781 26.5185 59.025 26.4643 59.2419 26.4914H61.0856C61.3568 26.4914 61.5195 26.627 61.5195 26.7897V27.1964C61.5195 27.1964 61.3839 27.4675 61.3839 27.6302L56.9372 42.1095C56.9372 42.2451 56.9101 42.3807 56.8288 42.5162C56.7474 42.6247 56.639 42.7332 56.5034 42.7874C56.3678 43.0585 56.0967 43.0585 55.8256 43.0585H54.1445C53.8734 43.0585 53.5751 43.0585 53.4667 42.923C53.3311 42.7874 53.1955 42.4891 53.0328 42.218L50.1045 30.0977L47.2034 42.218C47.2034 42.3536 47.1762 42.5162 47.0949 42.6247C47.0136 42.7603 46.9051 42.8416 46.7695 42.923C46.6069 43.0314 46.4171 43.0857 46.2273 43.0585H44.6004L44.6275 43.1399ZM68.7589 43.7093C67.7828 43.7093 66.8067 43.6008 65.8577 43.4382C65.0985 43.2755 64.3393 43.0314 63.6343 42.7332C63.4174 42.6518 63.2276 42.4891 63.0921 42.2993C62.9565 42.1095 62.9023 41.8655 62.9294 41.6215V40.6453C62.9294 40.2386 63.065 40.0759 63.3361 40.0759H63.6072C63.7428 40.0759 63.8784 40.2115 64.0139 40.2115C64.6918 40.5098 65.3967 40.7267 66.1017 40.8894C66.8338 41.052 67.5658 41.1334 68.325 41.1605C69.3011 41.2147 70.2772 40.9707 71.1178 40.4555C71.416 40.2386 71.66 39.9675 71.8227 39.6421C71.9854 39.3167 72.0939 38.9642 72.0939 38.5846C72.121 38.3406 72.0939 38.0965 71.9854 37.8796C71.8769 37.6627 71.7143 37.4729 71.5245 37.3373C70.9822 36.8764 70.3586 36.551 69.6807 36.3612L66.888 35.5206C65.7221 35.2224 64.6376 34.5716 63.8512 33.6768C63.2547 32.8634 62.9023 31.8873 62.8752 30.884C62.8752 30.1519 63.0649 29.4198 63.4445 28.7962C64.2037 27.576 65.3967 26.6812 66.7795 26.3016C67.5387 26.0576 68.3521 25.9491 69.1385 26.0033C69.5723 26.0033 69.979 26.0033 70.4128 26.1389C70.8466 26.166 71.2533 26.2745 71.66 26.4101C72.0939 26.5456 72.365 26.5456 72.7988 26.6812C73.2326 26.8168 73.3411 26.8168 73.6393 26.9524C73.8563 27.0608 74.0189 27.1964 74.2087 27.3591C74.3172 27.576 74.3714 27.82 74.3443 28.0641V28.9046C74.3443 29.3113 74.2087 29.474 73.9105 29.474C73.6665 29.474 73.4224 29.3656 73.2326 29.2029C72.0667 28.6877 70.7924 28.4437 69.518 28.525C68.6504 28.525 67.7828 28.6877 67.0236 29.0944C66.7253 29.23 66.4813 29.474 66.3186 29.7723C66.1559 30.0706 66.1288 30.3959 66.183 30.7484C66.183 31.0196 66.183 31.2636 66.2915 31.5076C66.4 31.7517 66.5355 31.9686 66.7253 32.1313C67.2947 32.6736 68.0268 33.0261 68.8131 33.1074L71.4702 33.948C72.5819 34.2734 73.6122 34.9241 74.3714 35.7918C74.9408 36.551 75.2391 37.5 75.2119 38.449C75.2119 39.2354 75.0493 39.9946 74.6426 40.6724C74.3443 41.3503 73.8563 41.9197 73.2598 42.3536C72.609 42.8145 71.9041 43.167 71.172 43.4653C70.3857 43.6551 69.5994 43.7364 68.786 43.7364V43.6551L68.7589 43.7093Z" fill="#1A2B3C"/>
<path d="M72.3672 52.7649C65.5887 57.3473 57.5901 59.7606 49.4018 59.7334C39.0714 59.7334 29.0935 55.9374 21.4474 48.996C20.878 48.4266 21.4474 47.7487 22.1524 48.1554C30.639 53.1174 40.2915 55.6933 50.1067 55.6662C57.4546 55.6391 64.7482 54.1749 71.5267 51.355C72.5028 50.9211 73.3704 52.0328 72.3672 52.7378V52.7649ZM73.3433 56.9406C73.0721 57.51 73.6415 57.7541 74.1838 57.3473C77.5188 54.5545 78.3593 48.7248 77.6544 47.8843C76.9494 47.0437 71.0928 46.3659 67.6223 48.8604C67.0529 49.2942 67.2156 49.8365 67.7578 49.701C69.6016 49.4298 74.1838 48.8604 75.0243 49.9992C75.8649 51.1381 74.0482 55.151 73.3433 56.9677V56.9406Z" fill="#F7982E"/>
<path d="M76.0804 108.324C77.0023 108.812 77.5716 109.68 77.7886 110.927H76.5142C76.3515 110.249 76.0533 109.734 75.5652 109.409C75.1043 109.083 74.4807 108.948 73.7757 108.948C72.9081 108.948 72.2031 109.273 71.6066 109.924C71.0101 110.575 70.739 111.551 70.739 112.852C70.739 113.964 70.983 114.886 71.471 115.591C71.9591 116.296 72.7454 116.648 73.8299 116.648C74.6705 116.648 75.3483 116.404 75.9177 115.916C76.46 115.428 76.7582 114.615 76.7582 113.503H73.8028V112.445H77.9512V117.489H77.1378L76.8396 116.269C76.4058 116.757 76.0262 117.082 75.7008 117.272C75.1585 117.597 74.4536 117.76 73.5859 117.76C72.4742 117.76 71.5253 117.407 70.739 116.675C69.8713 115.753 69.4375 114.506 69.4375 112.934C69.4375 111.361 69.8713 110.086 70.7118 109.165C71.5253 108.27 72.5556 107.836 73.8299 107.836C74.6976 107.836 75.4568 107.999 76.1075 108.351L76.0804 108.324Z" fill="#192A3B"/>
<path d="M84.1321 110.792C84.593 111.009 84.9455 111.307 85.1624 111.687C85.3793 112.039 85.542 112.446 85.6234 112.907C85.7047 113.232 85.7318 113.721 85.7318 114.426H80.7158C80.7158 115.131 80.9056 115.7 81.2038 116.107C81.5021 116.513 81.9901 116.73 82.6137 116.73C83.2102 116.73 83.6983 116.541 84.0508 116.134C84.2406 115.89 84.4032 115.646 84.4846 115.32H85.6234C85.5962 115.564 85.4878 115.863 85.3251 116.161C85.1624 116.459 84.9726 116.73 84.7557 116.92C84.4032 117.273 83.9694 117.49 83.4543 117.625C83.1831 117.706 82.8578 117.734 82.5053 117.734C81.6647 117.734 80.9327 117.435 80.3362 116.812C79.7397 116.188 79.4414 115.32 79.4414 114.182C79.4414 113.043 79.7397 112.175 80.3362 111.497C80.9327 110.819 81.719 110.467 82.668 110.467C83.156 110.467 83.6169 110.575 84.0779 110.819L84.1321 110.792ZM84.5659 113.504C84.5117 113.016 84.4032 112.609 84.2406 112.311C83.9152 111.741 83.4 111.47 82.668 111.47C82.1528 111.47 81.6919 111.66 81.3394 112.039C80.9869 112.419 80.7971 112.907 80.77 113.504H84.5659Z" fill="#192A3B"/>
<path d="M87.1953 110.602H88.307V111.578C88.6323 111.172 88.9848 110.873 89.3373 110.711C89.6898 110.548 90.0965 110.439 90.5574 110.439C91.5335 110.439 92.1843 110.792 92.5367 111.47C92.7265 111.849 92.8079 112.365 92.8079 113.07V117.489H91.642V113.151C91.642 112.744 91.5878 112.392 91.4522 112.148C91.2353 111.714 90.8828 111.497 90.3405 111.497C90.0694 111.497 89.8525 111.524 89.6627 111.578C89.3373 111.66 89.0662 111.849 88.8221 112.148C88.6323 112.365 88.4968 112.609 88.4425 112.853C88.3883 113.097 88.3612 113.449 88.3612 113.883V117.489H87.1953V110.602Z" fill="#192A3B"/>
<path d="M98.7727 110.792C99.2337 111.009 99.5861 111.307 99.8031 111.687C100.02 112.039 100.183 112.446 100.264 112.907C100.345 113.232 100.372 113.721 100.372 114.426H95.3564C95.3564 115.131 95.5462 115.7 95.8444 116.107C96.1427 116.513 96.6307 116.73 97.2543 116.73C97.8508 116.73 98.3389 116.541 98.6914 116.134C98.8812 115.89 99.0439 115.646 99.1252 115.32H100.264C100.237 115.564 100.128 115.863 99.9657 116.161C99.803 116.459 99.6133 116.73 99.3963 116.92C99.0439 117.273 98.61 117.49 98.0949 117.625C97.8237 117.706 97.4984 117.734 97.1459 117.734C96.3054 117.734 95.5733 117.435 94.9768 116.812C94.3803 116.188 94.082 115.32 94.082 114.182C94.082 113.043 94.3803 112.175 94.9768 111.497C95.5733 110.819 96.3596 110.467 97.3086 110.467C97.7966 110.467 98.2576 110.575 98.7185 110.819L98.7727 110.792ZM99.2065 113.504C99.1523 113.016 99.0439 112.609 98.8812 112.311C98.5558 111.741 98.0406 111.47 97.3086 111.47C96.7934 111.47 96.3325 111.66 95.98 112.039C95.6275 112.419 95.4377 112.907 95.4106 113.504H99.2065Z" fill="#192A3B"/>
<path d="M101.895 110.602H103.006V111.795C103.088 111.551 103.304 111.28 103.657 110.955C104.009 110.629 104.416 110.467 104.877 110.467C104.877 110.467 104.931 110.467 104.986 110.467C105.04 110.467 105.121 110.467 105.257 110.467V111.687C105.257 111.687 105.121 111.687 105.067 111.687C105.013 111.687 104.958 111.687 104.877 111.687C104.281 111.687 103.847 111.877 103.521 112.256C103.196 112.636 103.06 113.07 103.06 113.558V117.517H101.895V110.629V110.602Z" fill="#192A3B"/>
<path d="M109.947 113.314C110.218 113.287 110.381 113.178 110.489 112.988C110.544 112.88 110.571 112.744 110.571 112.554C110.571 112.148 110.435 111.877 110.164 111.687C109.893 111.497 109.486 111.416 108.971 111.416C108.375 111.416 107.941 111.578 107.697 111.904C107.561 112.093 107.453 112.365 107.426 112.717H106.341C106.341 111.877 106.639 111.28 107.154 110.928C107.67 110.602 108.293 110.439 108.998 110.439C109.812 110.439 110.462 110.602 110.977 110.9C111.466 111.199 111.737 111.687 111.737 112.337V116.296C111.737 116.296 111.737 116.513 111.818 116.595C111.872 116.676 111.981 116.703 112.116 116.703C112.17 116.703 112.225 116.703 112.279 116.703C112.333 116.703 112.414 116.703 112.496 116.676V117.544C112.306 117.598 112.17 117.625 112.089 117.652C112.008 117.652 111.872 117.652 111.71 117.652C111.303 117.652 111.032 117.516 110.842 117.218C110.761 117.055 110.679 116.866 110.652 116.595C110.408 116.893 110.083 117.164 109.649 117.408C109.215 117.652 108.727 117.76 108.185 117.76C107.534 117.76 107.019 117.571 106.612 117.191C106.205 116.811 106.016 116.323 106.016 115.727C106.016 115.076 106.205 114.588 106.612 114.236C107.019 113.883 107.534 113.666 108.185 113.585L110.028 113.341L109.947 113.314ZM107.507 116.459C107.751 116.649 108.049 116.757 108.375 116.757C108.781 116.757 109.188 116.676 109.568 116.486C110.218 116.161 110.544 115.673 110.544 114.941V114.019C110.408 114.1 110.218 114.181 110.001 114.236C109.784 114.29 109.568 114.344 109.351 114.371L108.646 114.452C108.239 114.507 107.914 114.588 107.697 114.724C107.344 114.913 107.154 115.239 107.154 115.673C107.154 115.998 107.29 116.269 107.534 116.459H107.507Z" fill="#192A3B"/>
<path d="M113.797 108.676H114.963V110.601H116.074V111.55H114.963V116.051C114.963 116.295 115.044 116.458 115.207 116.539C115.288 116.593 115.451 116.62 115.668 116.62C115.722 116.62 115.776 116.62 115.858 116.62C115.912 116.62 115.993 116.62 116.074 116.62V117.542C116.074 117.542 115.803 117.597 115.668 117.624C115.532 117.624 115.369 117.624 115.207 117.624C114.665 117.624 114.312 117.488 114.095 117.217C113.905 116.946 113.797 116.593 113.797 116.132V111.577H112.875V110.628H113.797V108.703V108.676Z" fill="#192A3B"/>
<path d="M117.211 108.053H118.377V109.354H117.211V108.053ZM117.211 110.629H118.377V117.489H117.211V110.629Z" fill="#192A3B"/>
<path d="M120.711 110.602L122.555 116.214L124.48 110.602H125.755L123.152 117.489H121.932L119.383 110.602H120.739H120.711Z" fill="#192A3B"/>
<path d="M130.988 110.792C131.449 111.009 131.801 111.307 132.018 111.687C132.235 112.039 132.397 112.446 132.479 112.907C132.56 113.232 132.587 113.721 132.587 114.426H127.571C127.571 115.131 127.761 115.7 128.059 116.107C128.358 116.513 128.846 116.73 129.469 116.73C130.066 116.73 130.554 116.541 130.906 116.134C131.096 115.89 131.259 115.646 131.34 115.32H132.479C132.452 115.564 132.343 115.863 132.181 116.161C132.018 116.459 131.828 116.73 131.611 116.92C131.259 117.273 130.825 117.49 130.31 117.625C130.039 117.706 129.713 117.734 129.361 117.734C128.52 117.734 127.788 117.435 127.192 116.812C126.595 116.188 126.297 115.32 126.297 114.182C126.297 113.043 126.595 112.175 127.192 111.497C127.788 110.819 128.574 110.467 129.523 110.467C130.011 110.467 130.472 110.575 130.933 110.819L130.988 110.792ZM131.394 113.504C131.34 113.016 131.232 112.609 131.069 112.311C130.744 111.741 130.228 111.47 129.496 111.47C128.981 111.47 128.52 111.66 128.168 112.039C127.815 112.419 127.625 112.907 127.598 113.504H131.394Z" fill="#192A3B"/>
<path d="M139.907 108.053H141.344L144.761 117.489H143.351L142.402 114.669H138.66L137.63 117.489H136.328L139.88 108.053H139.907ZM141.995 113.611L140.558 109.436L139.04 113.611H141.995Z" fill="#192A3B"/>
<path d="M146.223 108.053H147.524V117.489H146.223V108.053Z" fill="#192A3B"/>
<path d="M82.3419 124.539C82.9926 125.162 83.3451 125.895 83.4264 126.681H82.1792C82.0436 126.084 81.7725 125.596 81.3387 125.244C80.932 124.891 80.3355 124.702 79.6034 124.702C78.6815 124.702 77.9494 125.027 77.38 125.678C76.8107 126.328 76.5395 127.332 76.5395 128.687C76.5395 129.799 76.7835 130.694 77.2987 131.372C77.8139 132.05 78.5731 132.402 79.5763 132.402C80.4981 132.402 81.2031 132.05 81.6911 131.318C81.9352 130.938 82.1521 130.423 82.2605 129.826H83.5078C83.3993 130.829 83.0197 131.643 82.4232 132.321C81.6911 133.134 80.6879 133.541 79.4136 133.541C78.329 133.541 77.4072 133.216 76.6751 132.538C75.699 131.67 75.2109 130.314 75.2109 128.471C75.2109 127.088 75.5634 125.922 76.2955 125.054C77.0818 124.078 78.1663 123.59 79.5492 123.59C80.7422 123.59 81.6369 123.915 82.2876 124.539H82.3419Z" fill="#192A3B"/>
<path d="M90.0161 127.088C90.6126 127.685 90.9379 128.552 90.9379 129.691C90.9379 130.83 90.6668 131.725 90.1245 132.43C89.5822 133.135 88.7688 133.514 87.63 133.514C86.6811 133.514 85.949 133.189 85.3796 132.565C84.8102 131.942 84.5391 131.074 84.5391 129.989C84.5391 128.823 84.8373 127.902 85.4067 127.224C86.0032 126.546 86.7624 126.193 87.7656 126.193C88.6332 126.193 89.3924 126.492 89.9889 127.088H90.0161ZM89.284 131.671C89.5551 131.101 89.7178 130.45 89.7178 129.745C89.7178 129.095 89.6093 128.579 89.4196 128.173C89.0942 127.549 88.5519 127.224 87.7656 127.224C87.0606 127.224 86.5455 127.495 86.2472 128.037C85.949 128.579 85.7592 129.23 85.7592 129.989C85.7592 130.749 85.9219 131.345 86.2472 131.833C86.5726 132.321 87.0606 132.565 87.7656 132.565C88.5248 132.565 89.04 132.267 89.3382 131.698L89.284 131.671Z" fill="#192A3B"/>
<path d="M92.3477 126.409H93.4864V127.385C93.7576 127.06 94.0016 126.789 94.2456 126.653C94.6252 126.382 95.059 126.273 95.5471 126.273C96.0894 126.273 96.5503 126.409 96.8757 126.68C97.0655 126.843 97.2281 127.06 97.3908 127.358C97.6348 126.978 97.9602 126.707 98.2856 126.545C98.6381 126.355 99.0177 126.273 99.4515 126.273C100.373 126.273 100.997 126.599 101.349 127.277C101.539 127.629 101.621 128.117 101.621 128.741V133.323H100.428V128.551C100.428 128.09 100.319 127.765 100.075 127.602C99.8582 127.439 99.5599 127.358 99.2346 127.358C98.7736 127.358 98.394 127.521 98.0687 127.819C97.7433 128.117 97.5806 128.632 97.5806 129.337V133.35H96.4147V128.849C96.4147 128.388 96.3605 128.036 96.252 127.819C96.0894 127.494 95.7369 127.331 95.2759 127.331C94.8421 127.331 94.4354 127.494 94.0829 127.846C93.7305 128.171 93.5407 128.795 93.5407 129.69V133.35H92.3748V126.463L92.3477 126.409Z" fill="#192A3B"/>
<path d="M103.223 126.436H104.361V127.358C104.605 127.032 104.849 126.816 105.121 126.626C105.5 126.382 105.961 126.246 106.503 126.246C107.29 126.246 107.94 126.544 108.483 127.141C109.025 127.737 109.296 128.605 109.296 129.717C109.296 131.208 108.889 132.293 108.103 132.943C107.615 133.35 107.019 133.567 106.368 133.567C105.853 133.567 105.419 133.459 105.066 133.215C104.849 133.079 104.633 132.862 104.389 132.564V136.089H103.223V126.49V126.436ZM107.588 131.832C107.94 131.371 108.13 130.693 108.13 129.798C108.13 129.256 108.049 128.768 107.886 128.388C107.588 127.629 107.046 127.249 106.232 127.249C105.419 127.249 104.877 127.656 104.578 128.442C104.416 128.876 104.334 129.419 104.334 130.069C104.334 130.612 104.416 131.045 104.578 131.425C104.877 132.13 105.419 132.482 106.232 132.482C106.775 132.482 107.236 132.266 107.588 131.805V131.832Z" fill="#192A3B"/>
<path d="M114.882 126.599C115.343 126.816 115.696 127.114 115.912 127.494C116.129 127.846 116.292 128.253 116.373 128.714C116.455 129.039 116.482 129.527 116.482 130.232H111.466C111.466 130.937 111.656 131.507 111.954 131.913C112.252 132.32 112.74 132.537 113.364 132.537C113.96 132.537 114.448 132.347 114.801 131.94C114.991 131.696 115.153 131.452 115.235 131.127H116.373C116.346 131.371 116.238 131.669 116.075 131.968C115.912 132.266 115.723 132.537 115.506 132.727C115.153 133.079 114.719 133.296 114.204 133.432C113.933 133.513 113.608 133.54 113.255 133.54C112.415 133.54 111.683 133.242 111.086 132.618C110.49 131.995 110.191 131.127 110.191 129.988C110.191 128.849 110.49 127.982 111.086 127.304C111.683 126.626 112.469 126.273 113.418 126.273C113.906 126.273 114.367 126.382 114.828 126.626L114.882 126.599ZM115.316 129.283C115.262 128.795 115.153 128.388 114.991 128.09C114.665 127.521 114.15 127.25 113.418 127.25C112.903 127.25 112.442 127.439 112.089 127.819C111.737 128.199 111.547 128.687 111.52 129.283H115.316Z" fill="#192A3B"/>
<path d="M118.187 124.484H119.353V126.41H120.465V127.359H119.353V131.86C119.353 132.104 119.435 132.266 119.597 132.348C119.679 132.402 119.841 132.429 120.058 132.429C120.113 132.429 120.167 132.429 120.248 132.429C120.302 132.429 120.384 132.429 120.465 132.429V133.351C120.465 133.351 120.194 133.405 120.058 133.432C119.923 133.432 119.76 133.432 119.597 133.432C119.055 133.432 118.703 133.297 118.486 133.026C118.296 132.754 118.187 132.402 118.187 131.941V127.386H117.266V126.437H118.187V124.511V124.484Z" fill="#192A3B"/>
<path d="M125.89 126.599C126.351 126.816 126.703 127.114 126.92 127.494C127.137 127.846 127.3 128.253 127.381 128.714C127.463 129.039 127.49 129.527 127.49 130.232H122.474C122.474 130.937 122.663 131.507 122.962 131.913C123.26 132.32 123.748 132.537 124.372 132.537C124.968 132.537 125.456 132.347 125.809 131.94C125.998 131.696 126.161 131.452 126.242 131.127H127.381C127.354 131.371 127.246 131.669 127.083 131.968C126.92 132.266 126.73 132.537 126.514 132.727C126.161 133.079 125.727 133.296 125.212 133.432C124.941 133.513 124.616 133.54 124.263 133.54C123.423 133.54 122.69 133.242 122.094 132.618C121.497 131.995 121.199 131.127 121.199 129.988C121.199 128.849 121.497 127.982 122.094 127.304C122.69 126.626 123.477 126.273 124.426 126.273C124.914 126.273 125.375 126.382 125.836 126.626L125.89 126.599ZM126.297 129.283C126.242 128.795 126.134 128.388 125.971 128.09C125.646 127.521 125.131 127.25 124.399 127.25C123.883 127.25 123.423 127.439 123.07 127.819C122.718 128.199 122.528 128.687 122.501 129.283H126.297Z" fill="#192A3B"/>
<path d="M128.953 126.409H130.065V127.385C130.39 126.978 130.743 126.68 131.095 126.517C131.448 126.355 131.854 126.246 132.315 126.246C133.291 126.246 133.942 126.599 134.295 127.276C134.484 127.656 134.566 128.171 134.566 128.876V133.296H133.4V128.958C133.4 128.551 133.346 128.198 133.21 127.954C132.993 127.52 132.641 127.304 132.098 127.304C131.827 127.304 131.61 127.331 131.42 127.385C131.095 127.466 130.824 127.656 130.58 127.954C130.39 128.171 130.255 128.415 130.2 128.659C130.146 128.903 130.119 129.256 130.119 129.69V133.296H128.953V126.409Z" fill="#192A3B"/>
<path d="M140.829 126.763C141.317 127.143 141.615 127.793 141.696 128.715H140.557C140.476 128.281 140.341 127.929 140.096 127.658C139.852 127.387 139.473 127.224 138.931 127.224C138.199 127.224 137.656 127.576 137.358 128.309C137.141 128.769 137.06 129.339 137.06 130.044C137.06 130.749 137.195 131.318 137.494 131.779C137.792 132.24 138.253 132.484 138.876 132.484C139.364 132.484 139.744 132.349 140.015 132.05C140.286 131.752 140.503 131.345 140.585 130.857H141.723C141.588 131.779 141.262 132.43 140.747 132.864C140.232 133.298 139.581 133.487 138.768 133.487C137.873 133.487 137.141 133.162 136.626 132.511C136.084 131.861 135.812 131.02 135.812 130.044C135.812 128.824 136.111 127.902 136.68 127.224C137.277 126.546 138.009 126.221 138.931 126.221C139.717 126.221 140.341 126.411 140.829 126.79V126.763Z" fill="#192A3B"/>
<path d="M147.145 126.41H148.419C148.257 126.844 147.904 127.847 147.335 129.447C146.928 130.64 146.576 131.589 146.277 132.348C145.599 134.111 145.139 135.168 144.867 135.548C144.596 135.927 144.135 136.117 143.457 136.117C143.295 136.117 143.159 136.117 143.078 136.117C142.997 136.117 142.888 136.09 142.753 136.036V134.978C142.942 135.033 143.105 135.06 143.186 135.087C143.268 135.087 143.349 135.087 143.43 135.087C143.647 135.087 143.81 135.06 143.891 134.978C144 134.897 144.081 134.816 144.135 134.707C144.135 134.68 144.244 134.49 144.379 134.192C144.515 133.867 144.596 133.65 144.678 133.487L142.129 126.41H143.43L145.274 132.023L147.145 126.41Z" fill="#192A3B"/>
</svg>
