<svg width="167" height="167" viewBox="0 0 167 167" fill="none" xmlns="http://www.w3.org/2000/svg">
<path d="M113.561 0H0.0078125V114.126L52.8798 167H167.002V53.4433L113.561 0Z" fill="white"/>
<path d="M112.151 3.49781L163.504 54.8532V163.556H54.2626L3.47838 112.743V3.49781H112.151ZM113.561 0H0.0078125V114.126L52.8798 167H167.002V53.4433L113.561 0Z" fill="#515151"/>
<path d="M27.119 94.0882V100.216H23.6484V83.5134H30.0473C31.5657 83.4321 33.0569 83.9202 34.2228 84.8963C35.0362 85.6555 35.5785 86.6588 35.7954 87.7433C36.0123 88.8279 35.8768 89.9668 35.4158 90.97C34.9549 91.9733 34.1957 92.8409 33.2196 93.3832C32.2435 93.9255 31.1319 94.1695 30.0202 94.0611H27.0919L27.119 94.0882ZM27.119 91.431H29.6677C30.0202 91.4852 30.3455 91.431 30.6709 91.3225C30.9963 91.214 31.2945 90.9971 31.5114 90.7531C31.9181 90.1837 32.1351 89.5058 32.1351 88.8008C32.1351 88.0958 31.9181 87.418 31.5114 86.8486C30.9963 86.4147 30.3456 86.1707 29.6677 86.1707H27.1461V91.431H27.119ZM50.3556 100.216L49.2439 96.5014H43.55L42.4383 100.216H38.7237L44.5803 83.5134H48.6203L54.3142 100.216H50.3556ZM44.2278 93.8171H48.4034L46.3156 86.8486L44.2278 93.8171ZM59.276 100.216V83.5134H65.6749C67.1932 83.4321 68.6845 83.9202 69.8504 84.8963C70.8265 85.8724 71.3959 87.2282 71.3959 88.611C71.3959 89.56 71.0976 90.4819 70.5554 91.2683C69.986 92.0817 69.2268 92.7054 68.332 93.1121L72.5076 100.325H68.7929L65.0784 93.7899H62.6923V100.189H59.276V100.216ZM62.7466 91.1598H65.2682C65.5664 91.214 65.8376 91.1598 66.1358 91.1056C66.4069 91.0242 66.6781 90.9158 66.9221 90.726C67.1662 90.5633 67.3559 90.3464 67.4915 90.1023C67.6271 89.8583 67.7355 89.5872 67.7898 89.2889V88.611C67.8711 88.0416 67.7355 87.4451 67.3831 86.9841C67.0306 86.5232 66.5154 86.1978 65.946 86.1165H62.8822V91.2683L62.8008 91.1869L62.7466 91.1598ZM80.9942 100.216V86.4418H75.8426V83.5406H89.6164V86.4418H84.4648V100.216H80.9942ZM98.3741 88.6381V100.189H95.1747V83.4863H99.0791L105.885 95.1728V83.4863H109.084V100.189H105.18L98.3471 88.6381H98.3741ZM115.51 100.216V83.5134H126.518V86.3063H119.089V90.2108H125.081V93.0036H119.089V97.4504H126.518V100.243H115.51V100.216ZM132.89 100.216V83.5134H139.289C140.807 83.4321 142.299 83.9202 143.464 84.8963C144.441 85.8724 145.01 87.2282 145.01 88.611C145.01 89.56 144.712 90.4819 144.169 91.2683C143.6 92.0817 142.841 92.7054 141.946 93.1121L146.122 100.325H142.407L138.692 93.7899H136.334V100.189H132.89V100.216ZM136.361 91.1598H138.855C139.425 91.2412 140.021 91.1056 140.482 90.7531C140.943 90.4006 141.268 89.8854 141.35 89.316V88.6381C141.431 88.0687 141.268 87.4722 140.943 87.0112C140.59 86.5503 140.075 86.2249 139.506 86.1436H136.306L136.361 91.1869V91.1598Z" fill="#1A2B3C"/>
<path d="M37.0975 38.2592C37.0433 38.8286 37.1517 39.398 37.3958 39.9403C37.5313 40.3742 37.8024 40.9165 37.9651 41.3232C38.0193 41.3774 38.0465 41.4588 38.0736 41.513C38.0736 41.5943 38.1007 41.6757 38.0736 41.7299C38.0736 42.0011 37.938 42.1638 37.6398 42.2993L36.3925 43.1399H35.9858C35.9858 43.1399 35.7689 43.1399 35.6605 43.0585C35.552 43.0043 35.4706 42.9501 35.4164 42.8416C35.1453 42.5976 34.9284 42.3264 34.7386 42.0011C34.5217 41.6486 34.3319 41.269 34.1692 40.8894C33.4914 41.7299 32.6508 42.3807 31.6747 42.8416C30.6986 43.3026 29.6683 43.5466 28.5838 43.5466C27.9059 43.6008 27.228 43.4924 26.5773 43.2483C25.9266 43.0043 25.3572 42.6247 24.8691 42.1366C24.3811 41.6486 24.0286 41.052 23.7846 40.4284C23.5406 39.7777 23.4321 39.0998 23.4863 38.4219C23.4863 37.6898 23.5948 36.9848 23.893 36.307C24.1913 35.6291 24.598 35.0326 25.1403 34.5445C26.4689 33.5413 28.0686 32.999 29.7496 32.999C30.3732 32.999 30.9969 32.999 31.5934 33.1345L33.6811 33.5413V32.1584C33.7625 31.6161 33.7083 31.0738 33.5727 30.5315C33.4371 30.0163 33.166 29.5011 32.8406 29.0944C32.4068 28.769 31.9187 28.4979 31.4036 28.3623C30.8884 28.2268 30.319 28.1725 29.7767 28.2539C29.0718 28.281 28.394 28.3894 27.689 28.525C26.984 28.6877 26.2791 28.9317 25.6012 29.2029C25.3301 29.3385 25.1674 29.3385 24.8963 29.5011H24.6251C24.354 29.5011 24.1913 29.3656 24.1913 28.9317V27.9556C24.1913 27.7116 24.2184 27.4675 24.3269 27.2506C24.4895 27.0879 24.6794 26.9524 24.8963 26.8439C25.6283 26.4372 26.4146 26.1389 27.2552 26.0033C28.2041 25.7322 29.2074 25.5966 30.1835 25.5966C31.9459 25.461 33.7083 26.0033 35.064 27.115C35.6062 27.7387 36.04 28.4708 36.2841 29.2571C36.5552 30.0434 36.6366 30.884 36.5823 31.7246L37.0433 38.1779L37.0975 38.2592ZM29.4514 41.0521C30.075 41.0249 30.6986 40.9436 31.2951 40.7809C32.0001 40.4826 32.6237 40.0488 33.1389 39.5065C33.4642 39.154 33.7083 38.7202 33.8167 38.2321C33.9252 37.6898 33.9794 37.1475 33.9523 36.5781V35.7376C32.8135 35.4935 31.6476 35.3579 30.4546 35.3308C29.4785 35.2224 28.4753 35.4664 27.6619 36.0358C27.1196 36.5781 26.7942 37.3102 26.74 38.0694C26.6858 38.8286 26.9298 39.5879 27.3907 40.2115C27.5805 40.5369 27.8788 40.7809 28.2313 40.9165C28.5837 41.052 28.9633 41.1063 29.3429 41.0249H29.3971L29.4514 41.0521ZM44.608 43.1399C44.3369 43.1399 44.0386 43.1399 43.9302 43.0043C43.7675 42.7874 43.6319 42.5434 43.5235 42.2993L39.0497 27.6845C38.9684 27.4675 38.9141 27.2235 38.9141 26.9795C38.9141 26.7083 39.0497 26.5456 39.1852 26.5456H41.029C41.3001 26.5456 41.5984 26.5456 41.7068 26.6812C41.8966 26.8981 42.0322 27.115 42.1407 27.3591L45.3401 39.7505L48.2684 27.3591C48.2684 27.2235 48.2955 27.0879 48.3768 26.9524C48.4582 26.8439 48.5395 26.7354 48.6751 26.6541C48.892 26.5456 49.136 26.4914 49.3801 26.5185H50.8984C51.1425 26.4914 51.3865 26.5185 51.6034 26.6541C51.7661 26.871 51.9016 27.0879 52.0101 27.332L54.9384 39.9946L58.1378 27.332C58.1378 27.1964 58.1649 27.0608 58.2463 26.9252C58.3276 26.8168 58.4361 26.7083 58.5445 26.627C58.7614 26.5185 59.0054 26.4643 59.2224 26.4914H61.0661C61.3373 26.4914 61.4999 26.627 61.4999 26.7897V27.1964C61.4999 27.1964 61.3644 27.4675 61.3644 27.6302L56.9177 42.1095C56.9177 42.2451 56.8906 42.3807 56.8092 42.5162C56.7279 42.6247 56.6194 42.7332 56.4839 42.7874C56.3483 43.0585 56.0772 43.0585 55.806 43.0585H54.125C53.8538 43.0585 53.5556 43.0585 53.4471 42.923C53.3116 42.7874 53.176 42.4891 53.0133 42.218L50.085 30.0977L47.1838 42.218C47.1838 42.3536 47.1567 42.5162 47.0754 42.6247C46.994 42.7603 46.8856 42.8416 46.75 42.923C46.5873 43.0314 46.3975 43.0857 46.2077 43.0585H44.5809L44.608 43.1399ZM68.7393 43.7093C67.7632 43.7093 66.7871 43.6008 65.8381 43.4382C65.0789 43.2755 64.3198 43.0314 63.6148 42.7332C63.3979 42.6518 63.2081 42.4891 63.0725 42.2993C62.9369 42.1095 62.8827 41.8655 62.9098 41.6215V40.6453C62.9098 40.2386 63.0454 40.0759 63.3166 40.0759H63.5877C63.7233 40.0759 63.8588 40.2115 63.9944 40.2115C64.6723 40.5098 65.3772 40.7267 66.0821 40.8894C66.8142 41.052 67.5463 41.1334 68.3055 41.1605C69.2816 41.2147 70.2577 40.9707 71.0982 40.4555C71.3965 40.2386 71.6405 39.9675 71.8032 39.6421C71.9659 39.3167 72.0743 38.9642 72.0743 38.5846C72.1014 38.3406 72.0743 38.0965 71.9659 37.8796C71.8574 37.6627 71.6947 37.4729 71.5049 37.3373C70.9626 36.8764 70.339 36.551 69.6612 36.3612L66.8685 35.5206C65.7026 35.2224 64.618 34.5716 63.8317 33.6768C63.2352 32.8634 62.8828 31.8873 62.8556 30.884C62.8556 30.1519 63.0454 29.4198 63.425 28.7962C64.1842 27.576 65.3772 26.6812 66.76 26.3016C67.5192 26.0576 68.3326 25.9491 69.1189 26.0033C69.5527 26.0033 69.9595 26.0033 70.3933 26.1389C70.8271 26.166 71.2338 26.2745 71.6405 26.4101C72.0743 26.5456 72.3454 26.5456 72.7793 26.6812C73.2131 26.8168 73.3216 26.8168 73.6198 26.9524C73.8367 27.0608 73.9994 27.1964 74.1892 27.3591C74.2977 27.576 74.3519 27.82 74.3248 28.0641V28.9046C74.3248 29.3113 74.1892 29.474 73.8909 29.474C73.6469 29.474 73.4029 29.3656 73.2131 29.2029C72.0472 28.6877 70.7729 28.4437 69.4985 28.525C68.6309 28.525 67.7632 28.6877 67.0041 29.0944C66.7058 29.23 66.4617 29.474 66.2991 29.7723C66.1364 30.0706 66.1093 30.3959 66.1635 30.7484C66.1635 31.0196 66.1635 31.2636 66.272 31.5076C66.3804 31.7517 66.516 31.9686 66.7058 32.1313C67.2752 32.6736 68.0072 33.0261 68.7935 33.1074L71.4507 33.948C72.5624 34.2734 73.5927 34.9241 74.3519 35.7918C74.9213 36.551 75.2195 37.5 75.1924 38.449C75.1924 39.2354 75.0297 39.9946 74.623 40.6724C74.3248 41.3503 73.8367 41.9197 73.2402 42.3536C72.5895 42.8145 71.8845 43.167 71.1525 43.4653C70.3662 43.6551 69.5798 43.7364 68.7664 43.7364V43.6551L68.7393 43.7093Z" fill="#1A2B3C"/>
<path d="M72.3477 52.7649C65.5692 57.3473 57.5706 59.7606 49.3822 59.7334C39.0519 59.7334 29.074 55.9374 21.4279 48.996C20.8585 48.4266 21.4279 47.7487 22.1328 48.1554C30.6195 53.1174 40.272 55.6933 50.0872 55.6662C57.435 55.6391 64.7286 54.1749 71.5071 51.355C72.4832 50.9211 73.3509 52.0328 72.3477 52.7378V52.7649ZM73.3238 56.9406C73.0526 57.51 73.622 57.7541 74.1643 57.3473C77.4993 54.5545 78.3398 48.7248 77.6348 47.8843C76.9299 47.0437 71.0733 46.3659 67.6027 48.8604C67.0333 49.2942 67.196 49.8365 67.7383 49.701C69.582 49.4298 74.1643 48.8604 75.0048 49.9992C75.8453 51.1381 74.0287 55.151 73.3238 56.9677V56.9406Z" fill="#F7982E"/>
<path d="M75.3824 107.402H77.2261L79.9375 115.401L82.6218 107.402H84.4384V116.838H83.2183V111.253C83.2183 111.063 83.2183 110.737 83.2183 110.304C83.2183 109.87 83.2183 109.382 83.2183 108.867L80.534 116.838H79.2596L76.5482 108.867V109.165C76.5482 109.409 76.5482 109.761 76.5482 110.222C76.5482 110.683 76.5482 111.036 76.5482 111.28V116.865H75.3281V107.429L75.3824 107.402Z" fill="#1A2B3C"/>
<path d="M86.3633 107.402H87.6376V115.727H92.3826V116.838H86.3633V107.402Z" fill="#1A2B3C"/>
<path d="M97.6987 113.801C97.7258 114.343 97.8614 114.777 98.0512 115.103C98.4579 115.726 99.19 116.052 100.22 116.052C100.681 116.052 101.115 115.97 101.495 115.835C102.227 115.564 102.606 115.103 102.606 114.398C102.606 113.882 102.444 113.53 102.145 113.286C101.82 113.069 101.332 112.879 100.654 112.717L99.4069 112.418C98.5935 112.228 98.0241 112.012 97.6987 111.795C97.1293 111.388 96.8311 110.818 96.8311 110.032C96.8311 109.192 97.1293 108.487 97.6987 107.944C98.2681 107.402 99.0815 107.131 100.139 107.131C101.115 107.131 101.928 107.375 102.606 107.836C103.284 108.324 103.61 109.083 103.61 110.141H102.417C102.362 109.625 102.227 109.246 102.01 108.975C101.63 108.487 101.007 108.243 100.112 108.243C99.3797 108.243 98.8646 108.405 98.5392 108.731C98.2138 109.056 98.0512 109.409 98.0512 109.842C98.0512 110.303 98.241 110.656 98.6206 110.846C98.8646 110.981 99.4069 111.144 100.274 111.361L101.549 111.659C102.172 111.795 102.633 112.012 102.986 112.256C103.555 112.689 103.854 113.34 103.854 114.181C103.854 115.238 103.474 115.97 102.742 116.431C102.01 116.892 101.142 117.109 100.166 117.109C99.0273 117.109 98.1325 116.811 97.4818 116.214C96.831 115.618 96.5057 114.804 96.5328 113.801H97.7258H97.6987Z" fill="#1A2B3C"/>
<path d="M109.761 110.142C110.222 110.359 110.574 110.657 110.791 111.037C111.008 111.389 111.171 111.796 111.252 112.257C111.334 112.582 111.361 113.07 111.361 113.775H106.345C106.345 114.48 106.534 115.05 106.833 115.456C107.131 115.89 107.619 116.08 108.243 116.08C108.839 116.08 109.327 115.89 109.68 115.483C109.869 115.239 110.032 114.995 110.113 114.67H111.252C111.225 114.914 111.117 115.212 110.954 115.511C110.791 115.809 110.602 116.08 110.385 116.27C110.032 116.622 109.598 116.839 109.083 116.975C108.812 117.056 108.487 117.083 108.134 117.083C107.294 117.083 106.562 116.785 105.965 116.161C105.369 115.538 105.07 114.67 105.07 113.531C105.07 112.392 105.369 111.525 105.965 110.847C106.562 110.169 107.348 109.816 108.297 109.816C108.785 109.816 109.246 109.925 109.707 110.169L109.761 110.142ZM110.168 112.853C110.113 112.365 110.005 111.958 109.842 111.66C109.517 111.091 109.002 110.82 108.27 110.82C107.755 110.82 107.294 111.009 106.941 111.389C106.589 111.769 106.399 112.257 106.372 112.853H110.168Z" fill="#1A2B3C"/>
<path d="M112.852 109.952H113.963V111.145C114.045 110.901 114.262 110.63 114.614 110.304C114.966 109.979 115.373 109.816 115.834 109.816C115.834 109.816 115.888 109.816 115.943 109.816C115.997 109.816 116.078 109.816 116.214 109.816V111.037C116.214 111.037 116.078 111.037 116.024 111.037C115.97 111.037 115.915 111.037 115.834 111.037C115.265 111.037 114.804 111.226 114.478 111.606C114.153 111.986 114.017 112.419 114.017 112.907V116.866H112.852V109.979V109.952Z" fill="#1A2B3C"/>
<path d="M117.79 109.951L119.633 115.564L121.558 109.951H122.833L120.23 116.838H119.01L116.461 109.951H117.817H117.79Z" fill="#1A2B3C"/>
<path d="M123.809 107.402H124.974V108.704H123.809V107.402ZM123.809 109.978H124.974V116.838H123.809V109.978Z" fill="#1A2B3C"/>
<path d="M131.266 110.331C131.754 110.711 132.052 111.362 132.134 112.284H131.022C130.941 111.85 130.805 111.497 130.561 111.226C130.317 110.955 129.937 110.792 129.395 110.792C128.663 110.792 128.121 111.145 127.823 111.877C127.606 112.338 127.524 112.907 127.524 113.612C127.524 114.317 127.66 114.887 127.958 115.348C128.256 115.809 128.717 116.053 129.341 116.053C129.829 116.053 130.209 115.917 130.48 115.619C130.751 115.32 130.968 114.914 131.049 114.426H132.161C132.025 115.348 131.7 115.998 131.185 116.432C130.67 116.866 130.019 117.056 129.205 117.056C128.311 117.056 127.579 116.73 127.063 116.08C126.521 115.429 126.25 114.588 126.25 113.612C126.25 112.392 126.548 111.47 127.118 110.792C127.714 110.114 128.446 109.789 129.368 109.789C130.154 109.789 130.778 109.979 131.266 110.358V110.331Z" fill="#1A2B3C"/>
<path d="M137.554 110.142C138.015 110.359 138.367 110.657 138.584 111.037C138.801 111.389 138.964 111.796 139.045 112.257C139.127 112.582 139.154 113.07 139.154 113.775H134.138C134.138 114.48 134.327 115.05 134.626 115.456C134.924 115.89 135.412 116.08 136.036 116.08C136.632 116.08 137.12 115.89 137.473 115.483C137.662 115.239 137.825 114.995 137.906 114.67H139.045C139.018 114.914 138.91 115.212 138.747 115.511C138.584 115.809 138.395 116.08 138.178 116.27C137.825 116.622 137.391 116.839 136.876 116.975C136.605 117.056 136.28 117.083 135.927 117.083C135.087 117.083 134.355 116.785 133.758 116.161C133.162 115.538 132.863 114.67 132.863 113.531C132.863 112.392 133.162 111.525 133.758 110.847C134.355 110.169 135.141 109.816 136.09 109.816C136.578 109.816 137.039 109.925 137.5 110.169L137.554 110.142ZM137.961 112.853C137.906 112.365 137.798 111.958 137.635 111.66C137.31 111.091 136.795 110.82 136.063 110.82C135.548 110.82 135.087 111.009 134.734 111.389C134.382 111.769 134.192 112.257 134.165 112.853H137.961Z" fill="#1A2B3C"/>
<path d="M141.323 114.697C141.35 115.077 141.459 115.375 141.621 115.592C141.92 115.971 142.435 116.161 143.167 116.161C143.601 116.161 143.98 116.08 144.333 115.89C144.685 115.7 144.821 115.402 144.821 115.022C144.821 114.724 144.685 114.507 144.414 114.345C144.251 114.263 143.899 114.128 143.411 114.019L142.489 113.775C141.892 113.64 141.459 113.477 141.16 113.287C140.645 112.962 140.401 112.528 140.401 111.986C140.401 111.335 140.645 110.82 141.106 110.413C141.594 110.006 142.218 109.816 143.031 109.816C144.089 109.816 144.848 110.115 145.309 110.738C145.607 111.118 145.743 111.552 145.743 111.986H144.658C144.658 111.714 144.55 111.498 144.387 111.281C144.116 110.982 143.655 110.82 142.977 110.82C142.516 110.82 142.191 110.901 141.947 111.064C141.73 111.226 141.594 111.443 141.594 111.714C141.594 112.013 141.757 112.257 142.055 112.419C142.218 112.528 142.489 112.609 142.841 112.691L143.628 112.88C144.468 113.07 145.038 113.287 145.336 113.477C145.797 113.775 146.014 114.236 146.014 114.86C146.014 115.483 145.77 115.999 145.309 116.46C144.848 116.893 144.116 117.137 143.167 117.137C142.136 117.137 141.404 116.893 140.971 116.432C140.537 115.971 140.32 115.402 140.266 114.697H141.377H141.323Z" fill="#1A2B3C"/>
<path d="M80.127 123.887C80.7778 124.51 81.1302 125.242 81.2116 126.029H79.9644C79.8288 125.432 79.5577 124.944 79.1238 124.592C78.69 124.239 78.1206 124.049 77.3886 124.049C76.4667 124.049 75.7346 124.375 75.1652 125.025C74.5958 125.676 74.3247 126.679 74.3247 128.035C74.3247 129.147 74.5687 130.042 75.0839 130.719C75.599 131.397 76.3582 131.75 77.3614 131.75C78.2833 131.75 78.9882 131.397 79.4763 130.665C79.7203 130.286 79.9373 129.77 80.0457 129.174H81.2929C81.1845 130.177 80.832 130.991 80.2084 131.668C79.4763 132.482 78.4731 132.889 77.1987 132.889C76.1142 132.889 75.1923 132.563 74.4603 131.885C73.4842 131.018 72.9961 129.662 72.9961 127.818C72.9961 126.435 73.3486 125.269 74.0807 124.402C74.867 123.426 75.9515 122.938 77.3343 122.938C78.5273 122.938 79.4221 123.263 80.0728 123.887H80.127Z" fill="#1A2B3C"/>
<path d="M87.8012 126.438C88.3977 127.034 88.7231 127.902 88.7231 129.041C88.7231 130.18 88.4519 131.074 87.9097 131.779C87.3674 132.511 86.554 132.864 85.4152 132.864C84.4662 132.864 83.7341 132.539 83.1647 131.915C82.6225 131.264 82.3242 130.424 82.3242 129.339C82.3242 128.173 82.6225 127.251 83.1919 126.573C83.7613 125.895 84.5476 125.543 85.5508 125.543C86.4184 125.543 87.1776 125.841 87.7741 126.438H87.8012ZM87.0691 131.02C87.3403 130.451 87.503 129.8 87.503 129.095C87.503 128.444 87.3945 127.929 87.2047 127.522C86.8794 126.899 86.3371 126.573 85.5508 126.573C84.8458 126.573 84.3307 126.844 84.0324 127.387C83.707 127.929 83.5443 128.58 83.5443 129.339C83.5443 130.098 83.707 130.695 84.0324 131.183C84.3578 131.671 84.8458 131.915 85.5508 131.915C86.31 131.915 86.8251 131.617 87.1234 131.047L87.0691 131.02Z" fill="#1A2B3C"/>
<path d="M90.1328 125.759H91.2716V126.735C91.5427 126.409 91.7867 126.138 92.0308 126.003C92.4104 125.732 92.8442 125.623 93.3322 125.623C93.8745 125.623 94.3355 125.759 94.6608 126.03C94.8506 126.192 95.0133 126.409 95.176 126.708C95.42 126.328 95.7454 126.057 96.0707 125.894C96.4232 125.704 96.8028 125.623 97.2366 125.623C98.1585 125.623 98.7821 125.948 99.1346 126.626C99.3244 126.979 99.4057 127.467 99.4057 128.09V132.673H98.2127V127.901C98.2127 127.44 98.1043 127.114 97.8602 126.952C97.6433 126.789 97.3451 126.708 97.0197 126.708C96.5588 126.708 96.1792 126.87 95.8538 127.169C95.5285 127.467 95.3658 127.982 95.3658 128.687V132.7H94.1999V128.199C94.1999 127.738 94.1457 127.386 94.0372 127.169C93.8745 126.843 93.522 126.681 93.0611 126.681C92.6273 126.681 92.2206 126.843 91.8681 127.196C91.5156 127.521 91.3258 128.145 91.3258 129.04V132.7H90.1599V125.813L90.1328 125.759Z" fill="#1A2B3C"/>
<path d="M101.004 125.786H102.143V126.707C102.387 126.382 102.631 126.165 102.902 125.975C103.281 125.731 103.742 125.596 104.285 125.596C105.071 125.596 105.722 125.894 106.264 126.49C106.806 127.087 107.077 127.955 107.077 129.066C107.077 130.558 106.671 131.642 105.884 132.293C105.396 132.7 104.8 132.917 104.149 132.917C103.634 132.917 103.2 132.808 102.848 132.564C102.631 132.429 102.414 132.212 102.17 131.913V135.438H101.004V125.84V125.786ZM105.342 131.181C105.695 130.72 105.884 130.043 105.884 129.148C105.884 128.605 105.803 128.117 105.64 127.738C105.342 126.979 104.8 126.599 103.986 126.599C103.173 126.599 102.631 127.006 102.332 127.792C102.17 128.226 102.088 128.768 102.088 129.419C102.088 129.961 102.17 130.395 102.332 130.775C102.631 131.48 103.173 131.832 103.986 131.832C104.529 131.832 104.99 131.615 105.342 131.154V131.181Z" fill="#1A2B3C"/>
<path d="M112.663 125.948C113.124 126.165 113.477 126.464 113.694 126.843C113.911 127.196 114.073 127.602 114.155 128.063C114.236 128.389 114.263 128.877 114.263 129.582H109.247C109.247 130.287 109.437 130.856 109.735 131.263C110.033 131.697 110.521 131.887 111.145 131.887C111.741 131.887 112.23 131.697 112.582 131.29C112.772 131.046 112.934 130.802 113.016 130.477H114.155C114.127 130.721 114.019 131.019 113.856 131.317C113.694 131.615 113.504 131.887 113.287 132.076C112.934 132.429 112.501 132.646 111.985 132.781C111.714 132.863 111.389 132.89 111.036 132.89C110.196 132.89 109.464 132.592 108.867 131.968C108.271 131.344 107.973 130.477 107.973 129.338C107.973 128.199 108.271 127.331 108.867 126.653C109.464 125.976 110.25 125.623 111.199 125.623C111.687 125.623 112.148 125.731 112.609 125.976L112.663 125.948ZM113.097 128.66C113.043 128.172 112.934 127.765 112.772 127.467C112.446 126.897 111.931 126.626 111.199 126.626C110.684 126.626 110.223 126.816 109.871 127.196C109.518 127.575 109.328 128.063 109.301 128.66H113.097Z" fill="#1A2B3C"/>
<path d="M115.973 123.834H117.139V125.759H118.25V126.708H117.139V131.209C117.139 131.453 117.22 131.616 117.383 131.697C117.464 131.752 117.627 131.779 117.844 131.779C117.898 131.779 117.952 131.779 118.033 131.779C118.088 131.779 118.169 131.779 118.25 131.779V132.701C118.25 132.701 117.979 132.755 117.844 132.782C117.708 132.782 117.545 132.782 117.383 132.782C116.84 132.782 116.488 132.646 116.271 132.375C116.081 132.104 115.973 131.752 115.973 131.291V126.735H115.051V125.786H115.973V123.861V123.834Z" fill="#1A2B3C"/>
<path d="M123.644 125.948C124.105 126.165 124.457 126.464 124.674 126.843C124.891 127.196 125.054 127.602 125.135 128.063C125.216 128.389 125.244 128.877 125.244 129.582H120.227C120.227 130.287 120.417 130.856 120.716 131.263C121.014 131.697 121.502 131.887 122.125 131.887C122.722 131.887 123.21 131.697 123.563 131.29C123.752 131.046 123.915 130.802 123.996 130.477H125.135C125.108 130.721 125 131.019 124.837 131.317C124.674 131.615 124.484 131.887 124.267 132.076C123.915 132.429 123.481 132.646 122.966 132.781C122.695 132.863 122.369 132.89 122.017 132.89C121.176 132.89 120.444 132.592 119.848 131.968C119.251 131.344 118.953 130.477 118.953 129.338C118.953 128.199 119.251 127.331 119.848 126.653C120.444 125.976 121.231 125.623 122.18 125.623C122.668 125.623 123.129 125.731 123.59 125.976L123.644 125.948ZM124.078 128.66C124.023 128.172 123.915 127.765 123.752 127.467C123.427 126.897 122.912 126.626 122.18 126.626C121.665 126.626 121.204 126.816 120.851 127.196C120.499 127.575 120.309 128.063 120.282 128.66H124.078Z" fill="#1A2B3C"/>
<path d="M126.711 125.758H127.823V126.735C128.148 126.328 128.5 126.03 128.853 125.867C129.205 125.704 129.612 125.596 130.073 125.596C131.049 125.596 131.7 125.948 132.052 126.626C132.242 127.006 132.324 127.521 132.324 128.226V132.646H131.158V128.307C131.158 127.9 131.103 127.548 130.968 127.304C130.751 126.87 130.398 126.653 129.856 126.653C129.585 126.653 129.368 126.68 129.178 126.735C128.853 126.816 128.582 127.006 128.338 127.304C128.148 127.521 128.012 127.765 127.958 128.009C127.904 128.253 127.877 128.605 127.877 129.039V132.646H126.711V125.758Z" fill="#1A2B3C"/>
<path d="M138.586 126.138C139.074 126.518 139.373 127.168 139.454 128.09H138.342C138.261 127.656 138.125 127.304 137.881 127.033C137.637 126.762 137.258 126.599 136.716 126.599C135.983 126.599 135.441 126.951 135.143 127.684C134.926 128.144 134.845 128.714 134.845 129.419C134.845 130.124 134.98 130.693 135.278 131.154C135.577 131.615 136.038 131.859 136.661 131.859C137.149 131.859 137.529 131.724 137.8 131.425C138.071 131.127 138.288 130.72 138.37 130.232H139.481C139.346 131.154 139.02 131.805 138.505 132.239C137.99 132.673 137.339 132.862 136.526 132.862C135.631 132.862 134.899 132.537 134.384 131.886C133.841 131.236 133.57 130.395 133.57 129.419C133.57 128.199 133.869 127.277 134.438 126.599C135.034 125.921 135.767 125.596 136.688 125.596C137.475 125.596 138.098 125.786 138.586 126.165V126.138Z" fill="#1A2B3C"/>
<path d="M144.93 125.758H146.204C146.042 126.192 145.689 127.195 145.12 128.795C144.713 129.988 144.361 130.937 144.062 131.696C143.385 133.458 142.924 134.516 142.653 134.895C142.381 135.275 141.921 135.465 141.243 135.465C141.08 135.465 140.944 135.465 140.863 135.465C140.782 135.465 140.673 135.438 140.538 135.384V134.326C140.728 134.38 140.89 134.407 140.972 134.435C141.053 134.435 141.134 134.435 141.216 134.435C141.432 134.435 141.595 134.407 141.677 134.326C141.785 134.245 141.866 134.163 141.921 134.055C141.921 134.028 142.029 133.838 142.165 133.54C142.3 133.241 142.381 132.997 142.463 132.835L139.914 125.758H141.216L143.059 131.371L144.93 125.758Z" fill="#1A2B3C"/>
</svg>
