<svg width="91" height="16" viewBox="0 0 91 16" fill="none" xmlns="http://www.w3.org/2000/svg">
<path d="M81 8L14 8" stroke="#252525" stroke-width="2" stroke-linecap="round"/>
<path d="M90.095 6.56069L80.0314 0.305124C78.9345 -0.376685 77.5492 0.151053 77.1275 1.22574C76.9585 1.65628 77.0802 2.13161 77.2371 2.56669L78.4623 5.9652C78.9364 7.28035 78.9364 8.71979 78.4623 10.0349L77.2371 13.4334C77.0802 13.8685 76.9586 14.3439 77.1277 14.7744C77.5435 15.8332 78.8954 16.3647 79.9909 15.7195L90.0544 9.79322C91.2973 9.06129 91.3191 7.32164 90.095 6.56069Z" fill="#252525"/>
<path d="M14.5 8C14.5 11.5899 11.5899 14.5 8 14.5C4.41015 14.5 1.5 11.5899 1.5 8C1.5 4.41015 4.41015 1.5 8 1.5C11.5899 1.5 14.5 4.41015 14.5 8Z" fill="#F36B1D" stroke="#F36B1D" stroke-width="3"/>
</svg>
