<svg width="27" height="27" viewBox="0 0 27 27" fill="none" xmlns="http://www.w3.org/2000/svg">
<path d="M13.5 0C10.83 0 8.21987 0.791761 5.99981 2.27516C3.77974 3.75856 2.04941 5.86697 1.02763 8.33377C0.00584927 10.8006 -0.261496 13.515 0.259405 16.1337C0.780305 18.7525 2.06605 21.1579 3.95406 23.0459C5.84207 24.9339 8.24754 26.2197 10.8663 26.7406C13.485 27.2615 16.1994 26.9942 18.6662 25.9724C21.133 24.9506 23.2414 23.2203 24.7248 21.0002C26.2082 18.7801 27 16.17 27 13.5C27 9.91957 25.5777 6.4858 23.0459 3.95406C20.5142 1.42232 17.0804 0 13.5 0ZM20.721 8.3715L13.221 18.8715C13.0943 19.0489 12.9306 19.1966 12.7411 19.3043C12.5517 19.4121 12.341 19.4773 12.1238 19.4955C12.082 19.4985 12.041 19.5 12 19.5C11.803 19.5001 11.608 19.4613 11.426 19.3859C11.244 19.3105 11.0787 19.1999 10.9395 19.0605L6.43951 14.5605C6.16244 14.2784 6.008 13.8982 6.00979 13.5028C6.01158 13.1074 6.16946 12.7287 6.44907 12.4491C6.72868 12.1694 7.10739 12.0116 7.50282 12.0098C7.89824 12.008 8.27837 12.1624 8.5605 12.4395L11.8088 15.687L18.279 6.6285C18.5101 6.30467 18.8605 6.08593 19.2529 6.02039C19.6453 5.95485 20.0477 6.04789 20.3715 6.27904C20.6954 6.51018 20.9141 6.8605 20.9796 7.25293C21.0452 7.64536 20.9521 8.04767 20.721 8.3715Z" fill="white"/>
</svg>
