<svg width="48" height="48" viewBox="0 0 48 48" fill="none" xmlns="http://www.w3.org/2000/svg">
<circle cx="24" cy="24" r="24" fill="black"/>
<path d="M33.173 34.2848H15.4135C15.1395 34.2848 14.8768 34.3936 14.683 34.5873C14.4893 34.7811 14.3805 35.0438 14.3805 35.3178C14.3805 35.5918 14.4893 35.8546 14.683 36.0483C14.8768 36.242 15.1395 36.3509 15.4135 36.3509H33.173C33.447 36.3509 33.7098 36.242 33.9035 36.0483C34.0973 35.8546 34.2061 35.5918 34.2061 35.3178C34.2061 35.0438 34.0973 34.7811 33.9035 34.5873C33.7098 34.3936 33.447 34.2848 33.173 34.2848Z" fill="white" stroke="white" stroke-width="0.7"/>
<path d="M24.0519 28.3841L24.2994 28.6318L24.547 28.3842L31.7942 21.137L31.8038 21.1274L31.8126 21.1172C31.9818 20.9195 32.0703 20.6653 32.0602 20.4053C32.0502 20.1453 31.9424 19.8987 31.7584 19.7147C31.5744 19.5307 31.3278 19.423 31.0678 19.4129C30.8078 19.4029 30.5536 19.4913 30.356 19.6606L30.3458 19.6693L30.3363 19.6788L25.3326 24.6764V11.4155C25.3326 11.1415 25.2237 10.8787 25.03 10.685C24.8362 10.4913 24.5735 10.3824 24.2995 10.3824C24.0255 10.3824 23.7627 10.4913 23.569 10.685C23.3753 10.8787 23.2664 11.1415 23.2664 11.4155V24.6757L18.2782 19.6875C18.1874 19.5845 18.077 19.5006 17.9533 19.4408C17.8251 19.3787 17.6855 19.3439 17.5432 19.3384C17.401 19.3329 17.2591 19.3569 17.1265 19.4088L17.2542 19.7347L17.1265 19.4088C16.994 19.4608 16.8736 19.5395 16.7729 19.6402C16.6722 19.7409 16.5934 19.8613 16.5415 19.9939C16.4896 20.1264 16.4656 20.2683 16.4711 20.4106C16.4766 20.5528 16.5114 20.6924 16.5734 20.8206C16.6333 20.9443 16.7171 21.0547 16.8201 21.1455L24.0519 28.3841Z" fill="white" stroke="white" stroke-width="0.7"/>
</svg>
