<svg width="48" height="48" viewBox="0 0 48 48" fill="none" xmlns="http://www.w3.org/2000/svg">
<circle cx="24" cy="24" r="24" fill="black"/>
<path d="M30.75 36C29.7083 36 28.8229 35.6354 28.0938 34.9062C27.3646 34.1771 27 33.2917 27 32.25C27 32.1042 27.0104 31.9529 27.0312 31.7962C27.0521 31.6396 27.0833 31.4992 27.125 31.375L18.3125 26.25C17.9583 26.5625 17.5625 26.8075 17.125 26.985C16.6875 27.1625 16.2292 27.2508 15.75 27.25C14.7083 27.25 13.8229 26.8854 13.0938 26.1562C12.3646 25.4271 12 24.5417 12 23.5C12 22.4583 12.3646 21.5729 13.0938 20.8438C13.8229 20.1146 14.7083 19.75 15.75 19.75C16.2292 19.75 16.6875 19.8388 17.125 20.0163C17.5625 20.1938 17.9583 20.4383 18.3125 20.75L27.125 15.625C27.0833 15.5 27.0521 15.3596 27.0312 15.2037C27.0104 15.0479 27 14.8967 27 14.75C27 13.7083 27.3646 12.8229 28.0938 12.0938C28.8229 11.3646 29.7083 11 30.75 11C31.7917 11 32.6771 11.3646 33.4062 12.0938C34.1354 12.8229 34.5 13.7083 34.5 14.75C34.5 15.7917 34.1354 16.6771 33.4062 17.4062C32.6771 18.1354 31.7917 18.5 30.75 18.5C30.2708 18.5 29.8125 18.4117 29.375 18.235C28.9375 18.0583 28.5417 17.8133 28.1875 17.5L19.375 22.625C19.4167 22.75 19.4479 22.8908 19.4688 23.0475C19.4896 23.2042 19.5 23.355 19.5 23.5C19.5 23.6458 19.4896 23.7971 19.4688 23.9537C19.4479 24.1104 19.4167 24.2508 19.375 24.375L28.1875 29.5C28.5417 29.1875 28.9375 28.9429 29.375 28.7662C29.8125 28.5896 30.2708 28.5008 30.75 28.5C31.7917 28.5 32.6771 28.8646 33.4062 29.5938C34.1354 30.3229 34.5 31.2083 34.5 32.25C34.5 33.2917 34.1354 34.1771 33.4062 34.9062C32.6771 35.6354 31.7917 36 30.75 36ZM30.75 16C31.1042 16 31.4012 15.88 31.6412 15.64C31.8812 15.4 32.0008 15.1033 32 14.75C32 14.3958 31.88 14.0988 31.64 13.8588C31.4 13.6188 31.1033 13.4992 30.75 13.5C30.3958 13.5 30.0988 13.62 29.8588 13.86C29.6188 14.1 29.4992 14.3967 29.5 14.75C29.5 15.1042 29.62 15.4012 29.86 15.6412C30.1 15.8812 30.3967 16.0008 30.75 16ZM15.75 24.75C16.1042 24.75 16.4012 24.63 16.6412 24.39C16.8812 24.15 17.0008 23.8533 17 23.5C17 23.1458 16.88 22.8487 16.64 22.6087C16.4 22.3687 16.1033 22.2492 15.75 22.25C15.3958 22.25 15.0988 22.37 14.8588 22.61C14.6188 22.85 14.4992 23.1467 14.5 23.5C14.5 23.8542 14.62 24.1513 14.86 24.3913C15.1 24.6313 15.3967 24.7508 15.75 24.75ZM30.75 33.5C31.1042 33.5 31.4012 33.38 31.6412 33.14C31.8812 32.9 32.0008 32.6033 32 32.25C32 31.8958 31.88 31.5988 31.64 31.3588C31.4 31.1188 31.1033 30.9992 30.75 31C30.3958 31 30.0988 31.12 29.8588 31.36C29.6188 31.6 29.4992 31.8967 29.5 32.25C29.5 32.6042 29.62 32.9012 29.86 33.1412C30.1 33.3812 30.3967 33.5008 30.75 33.5Z" fill="white"/>
</svg>
