<svg width="31" height="31" viewBox="0 0 31 31" fill="none" xmlns="http://www.w3.org/2000/svg">
<path d="M15.5 1.9375C19.097 1.9375 22.5467 3.3664 25.0901 5.90986C27.6336 8.45333 29.0625 11.903 29.0625 15.5C29.0625 19.097 27.6336 22.5467 25.0901 25.0901C22.5467 27.6336 19.097 29.0625 15.5 29.0625C11.903 29.0625 8.45333 27.6336 5.90986 25.0901C3.3664 22.5467 1.9375 19.097 1.9375 15.5C1.9375 11.903 3.3664 8.45333 5.90986 5.90986C8.45333 3.3664 11.903 1.9375 15.5 1.9375ZM15.5 7.75C15.254 7.74979 15.0107 7.80089 14.7856 7.90002C14.5604 7.99916 14.3585 8.14416 14.1926 8.32576C14.0266 8.50736 13.9004 8.72157 13.8219 8.95471C13.7435 9.18785 13.7145 9.43478 13.7369 9.67975L14.4441 17.4414C14.4715 17.7023 14.5946 17.9439 14.7895 18.1194C14.9845 18.295 15.2376 18.3922 15.5 18.3922C15.7624 18.3922 16.0155 18.295 16.2105 18.1194C16.4054 17.9439 16.5285 17.7023 16.5559 17.4414L17.2612 9.67975C17.2835 9.43495 17.2546 9.18817 17.1763 8.95517C17.0979 8.72216 16.9719 8.50805 16.8062 8.32648C16.6405 8.14491 16.4387 7.99987 16.2138 7.90061C15.9889 7.80135 15.7458 7.75006 15.5 7.75ZM15.5 23.25C15.9111 23.25 16.3053 23.0867 16.596 22.796C16.8867 22.5053 17.05 22.1111 17.05 21.7C17.05 21.2889 16.8867 20.8947 16.596 20.604C16.3053 20.3133 15.9111 20.15 15.5 20.15C15.0889 20.15 14.6947 20.3133 14.404 20.604C14.1133 20.8947 13.95 21.2889 13.95 21.7C13.95 22.1111 14.1133 22.5053 14.404 22.796C14.6947 23.0867 15.0889 23.25 15.5 23.25Z" fill="white"/>
</svg>
