<svg width="450" height="380" viewBox="0 0 450 380" fill="none" xmlns="http://www.w3.org/2000/svg">
<g clip-path="url(#clip0_2125_6106)">
<path opacity="0.7" d="M110.828 42.6206C86.9155 54.8369 66.5731 75.7519 59.379 101.63C50.1547 134.897 63.4393 170.169 80.2256 200.328C97.0118 230.487 117.831 259.323 125.461 292.986C129.494 310.738 130.053 330.249 140.912 344.865C153.298 361.539 176.474 367.157 197.007 364.034C217.54 360.912 236.153 350.55 254.233 340.338C289.413 320.473 324.676 300.403 356.436 275.439C388.196 250.475 416.578 220.261 434.59 184.076C442.956 167.265 449.06 149.05 449.905 130.302C450.75 111.555 445.967 92.1675 434.44 77.3471C422.573 62.104 404.737 52.8327 386.956 45.293C301.962 9.28492 195.509 -0.613543 110.828 42.6206Z" fill="#F1F2F2"/>
<path d="M400.936 234.741V239.976H440.054V234.741H400.936Z" fill="#E0E0E0" stroke="#1A2E35" stroke-width="0.5" stroke-linecap="round" stroke-linejoin="round"/>
<path d="M406.263 234.959C406.399 234.959 406.508 236.05 406.508 237.413C406.508 238.777 406.399 239.867 406.263 239.867C406.127 239.867 406.018 238.777 406.018 237.413C406.018 236.05 406.127 234.959 406.263 234.959Z" fill="#FAFAFA" stroke="#1A2E35" stroke-width="0.5" stroke-linecap="round" stroke-linejoin="round"/>
<path d="M405.404 234.864C405.541 234.864 405.65 235.954 405.65 237.318C405.65 238.681 405.541 239.772 405.404 239.772C405.268 239.772 405.159 238.681 405.159 237.318C405.159 235.954 405.268 234.864 405.404 234.864Z" fill="#FAFAFA" stroke="#1A2E35" stroke-width="0.5" stroke-linecap="round" stroke-linejoin="round"/>
<path d="M437.015 234.959C437.151 234.959 437.26 236.05 437.26 237.413C437.26 238.777 437.151 239.867 437.015 239.867C436.879 239.867 436.77 238.777 436.77 237.413C436.77 236.05 436.879 234.959 437.015 234.959Z" fill="#FAFAFA"/>
<path d="M436.17 239.758C436.305 239.758 436.415 238.659 436.415 237.304C436.415 235.949 436.305 234.85 436.17 234.85C436.035 234.85 435.925 235.949 435.925 237.304C435.925 238.659 436.035 239.758 436.17 239.758Z" fill="#FAFAFA"/>
<path d="M431.06 237.522C431.06 237.658 426.578 237.767 421.059 237.767C415.541 237.767 411.059 237.658 411.059 237.522C411.059 237.386 415.541 237.277 421.059 237.277C426.578 237.277 431.06 237.386 431.06 237.522Z" fill="#FAFAFA"/>
<path d="M400.759 258.287V268.745H439.877V258.287H400.759Z" fill="#E0E0E0" stroke="#1A2E35" stroke-width="0.5" stroke-linecap="round" stroke-linejoin="round"/>
<path d="M440.38 265.813C440.38 265.813 440.312 265.868 440.162 265.936C440.013 266.004 439.795 266.113 439.508 266.236C438.923 266.468 438.051 266.809 436.852 266.999C435.68 267.163 434.099 267.218 432.546 266.386C431.783 265.977 431.061 265.35 430.502 264.532C429.957 263.714 429.617 262.637 429.794 261.519C429.889 260.96 430.121 260.414 430.516 259.964C430.897 259.514 431.51 259.173 432.164 259.214C432.818 259.242 433.418 259.623 433.827 260.114C434.235 260.605 434.522 261.232 434.59 261.9C434.74 263.223 434.181 264.6 433.241 265.609C432.314 266.645 430.925 267.286 429.48 267.449C428.036 267.627 426.537 267.395 425.12 266.904C423.703 266.413 422.3 265.622 421.305 264.341C420.815 263.7 420.474 262.923 420.42 262.078C420.351 261.246 420.61 260.346 421.251 259.732C421.564 259.419 422.014 259.214 422.477 259.201C422.94 259.173 423.39 259.323 423.758 259.555C424.507 260.019 424.998 260.823 425.202 261.668C425.57 263.373 424.889 265.159 423.662 266.277C422.422 267.409 420.801 267.899 419.261 268.077C417.708 268.227 416.141 268.117 414.697 267.627C413.266 267.149 411.972 266.209 411.222 264.927C410.459 263.673 410.214 262.105 410.786 260.769C411.059 260.114 411.658 259.528 412.381 259.419C413.089 259.283 413.811 259.487 414.356 259.896C415.46 260.769 415.651 262.282 415.283 263.414C414.915 264.586 414.125 265.486 413.307 266.195C411.631 267.613 409.656 268.213 407.939 268.281C406.208 268.336 404.751 267.858 403.688 267.313C402.611 266.754 401.903 266.127 401.467 265.663C401.249 265.432 401.099 265.254 401.004 265.118C400.908 264.995 400.854 264.927 400.867 264.913C400.922 264.845 401.644 266.059 403.769 267.136C404.819 267.654 406.249 268.09 407.925 267.995C409.587 267.913 411.481 267.299 413.076 265.922C413.852 265.241 414.588 264.368 414.915 263.305C415.228 262.268 415.024 260.932 414.097 260.21C413.648 259.869 413.021 259.705 412.449 259.828C411.863 259.923 411.413 260.36 411.168 260.932C410.677 262.091 410.895 263.536 411.59 264.682C412.285 265.854 413.471 266.727 414.833 267.177C416.196 267.64 417.708 267.749 419.193 267.586C420.678 267.422 422.191 266.945 423.322 265.909C424.439 264.913 425.038 263.277 424.711 261.778C424.534 261.041 424.112 260.36 423.485 259.978C422.872 259.569 422.082 259.582 421.578 260.101C421.074 260.591 420.828 261.341 420.896 262.064C420.937 262.787 421.237 263.482 421.687 264.068C422.586 265.241 423.921 266.004 425.27 266.481C426.633 266.959 428.063 267.177 429.426 267.013C430.788 266.863 432.055 266.291 432.927 265.336C433.813 264.409 434.317 263.155 434.181 261.968C434.086 260.823 433.214 259.692 432.151 259.623C431.633 259.582 431.129 259.842 430.788 260.237C430.448 260.619 430.23 261.123 430.134 261.614C429.957 262.623 430.271 263.618 430.761 264.395C431.265 265.172 431.96 265.772 432.669 266.181C434.126 266.986 435.666 266.986 436.811 266.85C437.982 266.7 438.868 266.4 439.454 266.181C440.04 265.963 440.34 265.841 440.353 265.854L440.38 265.813Z" fill="#FAFAFA"/>
<path d="M404.247 240.126V258.273H439.863V240.126H404.247Z" fill="#EBEBEB" stroke="#1A2E35" stroke-width="0.5" stroke-linecap="round" stroke-linejoin="round"/>
<path d="M410.174 240.753C410.31 240.753 410.419 244.68 410.419 249.534C410.419 254.388 410.31 258.314 410.174 258.314C410.038 258.314 409.929 254.388 409.929 249.534C409.929 244.68 410.038 240.753 410.174 240.753Z" fill="#E0E0E0" stroke="#1A2E35" stroke-width="0.5" stroke-linecap="round" stroke-linejoin="round"/>
<path d="M412.872 240.522C413.008 240.522 413.117 244.407 413.117 249.193C413.117 253.979 413.008 257.864 412.872 257.864C412.736 257.864 412.627 253.979 412.627 249.193C412.627 244.407 412.736 240.522 412.872 240.522Z" fill="#E0E0E0" stroke="#1A2E35" stroke-width="0.5" stroke-linecap="round" stroke-linejoin="round"/>
<path d="M435.844 239.949C435.98 239.949 436.089 244.039 436.089 249.084C436.089 254.129 435.98 258.219 435.844 258.219C435.708 258.219 435.599 254.129 435.599 249.084C435.599 244.039 435.708 239.949 435.844 239.949Z" fill="#E0E0E0"/>
<path d="M432.669 240.194C432.805 240.194 432.914 244.176 432.914 249.084C432.914 253.992 432.805 257.973 432.669 257.973C432.533 257.973 432.424 253.992 432.424 249.084C432.424 244.176 432.533 240.194 432.669 240.194Z" fill="#E0E0E0"/>
<path d="M432.314 33.5403H192.156V192.938H432.314V33.5403Z" fill="#E0E0E0" stroke="#1A2E35" stroke-width="0.5" stroke-linecap="round" stroke-linejoin="round"/>
<path d="M0.34109 45.184C-0.0131657 22.633 17.9449 3.99499 40.3856 3.62687C62.8263 3.25874 81.3702 21.3241 81.7245 43.8752C82.0788 66.4262 64.1207 85.0778 41.6936 85.4323C19.2529 85.8005 0.708971 67.7351 0.34109 45.184ZM60.4828 44.216C60.3057 33.4313 51.4493 24.8008 40.7126 24.9781C29.9896 25.1553 21.4057 34.0721 21.5692 44.8432C21.7463 55.6279 30.6027 64.2584 41.3394 64.0811C52.0624 63.9039 60.6463 54.9871 60.4828 44.216Z" fill="#F5F5F5" stroke="#1A2E35" stroke-width="0.5" stroke-linecap="round" stroke-linejoin="round"/>
<path d="M0.34109 45.1839C-0.0131657 22.6328 17.9449 3.99483 40.3856 3.62671L40.7262 24.9779C30.0032 25.1552 21.4193 34.072 21.5828 44.843C21.7599 55.6277 30.6163 64.2582 41.353 64.0809L41.6936 85.4322C19.2529 85.8003 0.708971 67.7349 0.34109 45.1839Z" fill="#E0E0E0" stroke="#1A2E35" stroke-width="0.5" stroke-linecap="round" stroke-linejoin="round"/>
<path d="M36.7207 0.340928C62.9765 -0.0817337 83.9048 20.3015 84.3272 46.6974L59.4884 47.0928C59.2841 34.4811 49.6919 26.5323 37.1431 26.7368L36.7207 0.340928Z" fill="#EBEBEB" stroke="#1A2E35" stroke-width="0.5" stroke-linecap="round" stroke-linejoin="round"/>
<path d="M195.004 373.265C193.955 372.365 191.625 369.529 193.423 366.216C194.077 365.002 195.481 364.403 196.748 363.871C198.015 363.339 199.35 362.875 200.4 361.976C202.375 360.285 202.92 357.49 204.242 355.24C205.754 352.663 208.561 350.727 211.531 350.864C214.938 351.014 217.772 353.795 219.066 356.972C220.347 360.149 220.401 363.666 220.429 367.088C220.442 368.984 220.361 371.124 218.971 372.392C217.69 373.578 215.755 373.592 214.025 373.537C207.825 373.347 201.626 373.156 195.413 372.965" fill="#F5F5F5"/>
<path d="M195.004 373.265C193.955 372.365 191.625 369.529 193.423 366.216C194.077 365.002 195.481 364.403 196.748 363.871C198.015 363.339 199.35 362.875 200.4 361.976C202.375 360.285 202.92 357.49 204.242 355.24C205.754 352.663 208.561 350.727 211.531 350.864C214.938 351.014 217.772 353.795 219.066 356.972C220.347 360.149 220.401 363.666 220.429 367.088C220.442 368.984 220.361 371.124 218.971 372.392C217.69 373.578 215.755 373.592 214.025 373.537C207.825 373.347 201.626 373.156 195.413 372.965" stroke="#1A2E35" stroke-width="0.5" stroke-linecap="round" stroke-linejoin="round"/>
<path d="M230.593 322.055H181.665L190.481 374.656C190.862 376.946 192.524 378.719 194.663 379.332C194.718 379.346 194.772 379.359 194.841 379.373C194.99 379.414 195.127 379.455 195.277 379.482C195.604 379.55 195.931 379.577 196.271 379.591C196.271 379.605 196.271 379.618 196.271 379.646L196.517 379.605H218.33C218.739 379.605 219.134 379.564 219.53 379.482C222.105 379.087 224.162 377.014 224.475 374.342L228.727 338.102L228.917 336.657H228.89L230.58 322.3L230.607 322.027L230.593 322.055ZM221.355 355.608H216.328L216.832 340.338H222.65L221.342 355.608H221.355ZM223.14 340.338H227.95L226.165 355.608H221.846L223.154 340.338H223.14ZM208.793 372.529L208.493 359.262H215.728L215.292 372.529H208.806H208.793ZM200.972 359.262H208.003L208.302 372.529H201.994L200.958 359.262H200.972ZM201.517 372.529H195.631C195.072 368.943 194.336 364.293 193.56 359.262H200.495L201.531 372.529H201.517ZM200.686 355.608L199.5 340.338H207.567L207.921 355.608H200.699H200.686ZM208.398 355.608L208.043 340.338H216.341L215.837 355.608H208.398ZM207.962 336.684L207.635 322.545H216.927L216.464 336.684H207.962ZM207.471 336.684H199.214L198.111 322.545H207.144L207.471 336.684ZM198.724 336.684H189.976C189.663 334.734 189.377 332.88 189.104 331.217C188.192 325.504 187.851 323.35 187.66 322.545H197.62L198.724 336.684ZM199.01 340.338L200.195 355.608H192.96C192.715 354.054 192.47 352.486 192.225 350.918C191.652 347.319 191.094 343.719 190.562 340.338H199.01ZM192.47 355.608H187.742L185.18 340.338H190.058C190.808 345.056 191.625 350.305 192.456 355.608H192.47ZM193.042 359.262C193.764 363.857 194.473 368.37 195.113 372.529H190.576L188.355 359.262H193.042ZM215.755 372.529L216.191 359.262H221.028L219.897 372.529H215.755ZM216.941 336.684L217.404 322.545H224.148L222.936 336.684H216.927H216.941ZM187.197 322.545C187.388 323.568 188.287 329.131 189.486 336.684H184.581L182.21 322.545H187.21H187.197ZM224.148 372.529H220.361L221.492 359.262H225.702L224.148 372.529ZM228.345 336.684H223.426L224.639 322.545H230.007L228.345 336.684Z" fill="#E0E0E0" stroke="#1A2E35" stroke-width="0.5" stroke-linecap="round" stroke-linejoin="round"/>
<path d="M220.279 212.544H123.539C121.876 212.544 120.528 213.893 120.528 215.557V238.49C120.528 240.154 121.876 241.503 123.539 241.503H220.279C221.942 241.503 223.29 240.154 223.29 238.49V215.557C223.29 213.893 221.942 212.544 220.279 212.544Z" fill="#E0E0E0" stroke="#1A2E35" stroke-width="0.5" stroke-linecap="round" stroke-linejoin="round"/>
<path d="M142.179 231.864C140.012 234.577 136.075 235.013 133.377 232.832C130.679 230.651 130.243 226.697 132.409 223.983C134.576 221.27 138.514 220.834 141.211 223.015C143.909 225.197 144.345 229.151 142.179 231.864Z" fill="#F5F5F5" stroke="#1A2E35" stroke-width="0.5" stroke-linecap="round" stroke-linejoin="round"/>
<path d="M140.816 225.783C140.912 225.879 139.399 227.515 137.451 229.423C137.165 229.696 136.892 229.969 136.62 230.228L136.456 230.391L136.293 230.228C134.767 228.66 133.704 227.446 133.786 227.365C133.867 227.283 135.08 228.36 136.633 229.887H136.306C136.565 229.628 136.838 229.355 137.124 229.069C139.072 227.16 140.735 225.674 140.83 225.769L140.816 225.783Z" fill="#E0E0E0" stroke="#1A2E35" stroke-width="0.5" stroke-linecap="round" stroke-linejoin="round"/>
<path d="M213.166 224.815C213.166 224.951 199.377 225.06 182.359 225.06C165.341 225.06 151.553 224.951 151.553 224.815C151.553 224.679 165.341 224.57 182.359 224.57C199.377 224.57 213.166 224.679 213.166 224.815Z" fill="#FAFAFA" stroke="#1A2E35" stroke-width="0.5" stroke-linecap="round" stroke-linejoin="round"/>
<path d="M213.438 230.064C213.438 230.201 199.65 230.31 182.632 230.31C165.614 230.31 151.825 230.201 151.825 230.064C151.825 229.928 165.614 229.819 182.632 229.819C199.65 229.819 213.438 229.928 213.438 230.064Z" fill="#FAFAFA" stroke="#1A2E35" stroke-width="0.5" stroke-linecap="round" stroke-linejoin="round"/>
<path d="M426.455 37.5486H177.754V200.791H426.455V37.5486Z" fill="#FAFAFA" stroke="#1A2E35" stroke-width="0.5" stroke-linecap="round" stroke-linejoin="round"/>
<path d="M426.469 200.778C426.469 199.21 426.387 137.106 426.278 37.535L426.469 37.7258C358.22 37.7258 271.673 37.7531 177.781 37.7804H177.768L178.013 37.535C178.013 95.5896 177.999 150.836 177.999 200.778L177.781 200.56C324.116 200.696 424.493 200.778 426.483 200.778C424.493 200.778 324.116 200.873 177.781 200.996H177.563V200.778C177.563 150.836 177.563 95.5896 177.55 37.535V37.2896H177.809C271.686 37.3032 358.247 37.3305 426.496 37.3441H426.687V37.535C426.564 137.092 426.496 199.196 426.496 200.778H426.469Z" fill="#263238" stroke="#1A2E35" stroke-width="0.5" stroke-linecap="round" stroke-linejoin="round"/>
<path d="M253.77 127.685L278.227 128.025C278.037 141.073 267.055 151.708 253.77 151.708C253.715 151.708 253.675 151.708 253.62 151.708L253.77 127.698V127.685Z" fill="#455A64" stroke="#1A2E35" stroke-width="0.5" stroke-linecap="round" stroke-linejoin="round"/>
<path d="M294.224 160.829C294.224 160.829 294.046 160.857 293.706 160.87C293.324 160.87 292.82 160.898 292.207 160.911C290.858 160.925 289.005 160.952 286.743 160.979H286.675L286.634 160.925C284.454 158.171 281.634 154.626 278.568 150.754C276.184 147.713 273.949 144.864 272.069 142.45L272.192 142.505C269.249 142.478 266.782 142.45 264.998 142.437C264.166 142.423 263.499 142.41 262.981 142.396C262.518 142.382 262.272 142.369 262.272 142.341C262.272 142.314 262.518 142.314 262.981 142.287C263.499 142.287 264.166 142.26 264.998 142.246C266.782 142.232 269.249 142.205 272.192 142.178H272.273L272.328 142.232C274.235 144.632 276.47 147.468 278.882 150.495C281.934 154.38 284.713 157.953 286.88 160.72L286.771 160.666C289.032 160.693 290.885 160.707 292.234 160.734C292.847 160.748 293.338 160.761 293.733 160.775C294.074 160.775 294.251 160.802 294.251 160.816L294.224 160.829Z" fill="#263238" stroke="#1A2E35" stroke-width="0.5" stroke-linecap="round" stroke-linejoin="round"/>
<path d="M302.998 163.652C302.998 163.761 299.455 163.843 295.081 163.843C290.708 163.843 287.165 163.761 287.165 163.652C287.165 163.543 290.708 163.461 295.081 163.461C299.455 163.461 302.998 163.543 302.998 163.652Z" fill="#263238" stroke="#1A2E35" stroke-width="0.5" stroke-linecap="round" stroke-linejoin="round"/>
<path d="M302.998 166.583C302.998 166.692 299.455 166.774 295.081 166.774C290.708 166.774 287.165 166.692 287.165 166.583C287.165 166.474 290.708 166.392 295.081 166.392C299.455 166.392 302.998 166.474 302.998 166.583Z" fill="#263238" stroke="#1A2E35" stroke-width="0.5" stroke-linecap="round" stroke-linejoin="round"/>
<path d="M249.901 124.208L249.56 148.218C236.275 148.041 225.443 137.256 225.443 124.208C225.443 111.16 236.493 100.198 249.914 100.198C263.335 100.198 274.385 111.037 274.385 124.208H249.914H249.901Z" fill="#F15A29" stroke="#1A2E35" stroke-width="0.5" stroke-linecap="round" stroke-linejoin="round"/>
<path d="M240.349 116.355C240.349 116.355 240.199 116.409 239.926 116.45C239.599 116.505 239.191 116.573 238.714 116.641C237.596 116.805 236.098 117.009 234.313 117.255H234.245L234.19 117.214C232.514 115.591 230.498 113.628 228.331 111.501C225.511 108.733 222.977 106.224 221.164 104.384C220.292 103.498 219.57 102.761 219.025 102.202C218.521 101.684 218.262 101.384 218.276 101.371C218.29 101.357 218.603 101.616 219.134 102.107C219.707 102.652 220.456 103.361 221.355 104.207C223.222 105.993 225.783 108.474 228.604 111.242C230.757 113.382 232.76 115.359 234.422 116.995L234.299 116.955C236.084 116.764 237.583 116.586 238.714 116.464C239.204 116.423 239.599 116.382 239.94 116.355C240.226 116.327 240.376 116.327 240.376 116.355H240.349Z" fill="#263238" stroke="#1A2E35" stroke-width="0.5" stroke-linecap="round" stroke-linejoin="round"/>
<path d="M212.063 100.321C212.063 100.43 208.52 100.512 204.147 100.512C199.773 100.512 196.23 100.43 196.23 100.321C196.23 100.212 199.773 100.13 204.147 100.13C208.52 100.13 212.063 100.212 212.063 100.321Z" fill="#263238" stroke="#1A2E35" stroke-width="0.5" stroke-linecap="round" stroke-linejoin="round"/>
<path d="M212.063 103.252C212.063 103.361 208.52 103.443 204.147 103.443C199.773 103.443 196.23 103.361 196.23 103.252C196.23 103.143 199.773 103.061 204.147 103.061C208.52 103.061 212.063 103.143 212.063 103.252Z" fill="#263238" stroke="#1A2E35" stroke-width="0.5" stroke-linecap="round" stroke-linejoin="round"/>
<path d="M335.48 76.7606L335.384 61.8447C330.997 61.872 326.514 63.6035 323.081 66.644C319.034 70.2162 316.445 75.6017 317.154 82.1052C317.235 82.8142 317.344 83.5368 317.508 84.2731C317.508 84.2867 317.508 84.314 317.508 84.3276L335.48 80.2782V76.7742V76.7606Z" fill="#A7A9AC" stroke="#1A2E35" stroke-width="0.5" stroke-linecap="round" stroke-linejoin="round"/>
<g opacity="0.3">
<path d="M335.48 76.7606L335.384 61.8447C330.997 61.872 326.514 63.6035 323.081 66.644C319.034 70.2162 316.445 75.6017 317.154 82.1052C317.235 82.8142 317.344 83.5368 317.508 84.2731C317.508 84.2867 317.508 84.314 317.508 84.3276L335.48 80.2782V76.7742V76.7606Z" fill="white" stroke="#1A2E35" stroke-width="0.5" stroke-linecap="round" stroke-linejoin="round"/>
</g>
<path d="M353.996 72.1658C351.489 66.9166 346.543 62.7172 339.499 62.0082C339.308 61.9946 339.117 61.9673 338.926 61.9537C338.804 61.9537 338.681 61.9264 338.558 61.9264C338.204 61.9128 337.836 61.8992 337.482 61.8992C337.468 61.8992 337.455 61.8992 337.428 61.8992C337.414 61.8992 337.4 61.8992 337.387 61.8992L337.482 76.8287L337.509 80.3327L355.481 84.2593H355.508C355.781 83.005 355.917 81.6961 355.903 80.3872C355.89 77.5922 355.236 74.7563 353.996 72.1658Z" fill="#A7A9AC" stroke="#1A2E35" stroke-width="0.5" stroke-linecap="round" stroke-linejoin="round"/>
<g opacity="0.3">
<path d="M353.996 72.1658C351.489 66.9166 346.543 62.7172 339.499 62.0082C339.308 61.9946 339.117 61.9673 338.926 61.9537C338.804 61.9537 338.681 61.9264 338.558 61.9264C338.204 61.9128 337.836 61.8992 337.482 61.8992C337.468 61.8992 337.455 61.8992 337.428 61.8992C337.414 61.8992 337.4 61.8992 337.387 61.8992L337.482 76.8287L337.509 80.3327L355.481 84.2593H355.508C355.781 83.005 355.917 81.6961 355.903 80.3872C355.89 77.5922 355.236 74.7563 353.996 72.1658Z" fill="black" stroke="#1A2E35" stroke-width="0.5" stroke-linecap="round" stroke-linejoin="round"/>
</g>
<path d="M336.447 82.1326L318.476 86.1819C320.315 94.417 327.659 100.566 336.447 100.566C345.235 100.566 352.648 94.3488 354.446 86.0592L336.474 82.1326" fill="#A7A9AC"/>
<path d="M336.447 82.1326L318.476 86.1819C320.315 94.417 327.659 100.566 336.447 100.566C345.235 100.566 352.648 94.3488 354.446 86.0592L336.474 82.1326" stroke="#1A2E35" stroke-width="0.5" stroke-linecap="round" stroke-linejoin="round"/>
<path d="M406.385 79.4466C406.385 79.5829 397.093 79.692 385.634 79.692C374.175 79.692 364.883 79.5829 364.883 79.4466C364.883 79.3102 374.175 79.2012 385.634 79.2012C397.093 79.2012 406.385 79.3102 406.385 79.4466Z" fill="#263238" stroke="#1A2E35" stroke-width="0.5" stroke-linecap="round" stroke-linejoin="round"/>
<path d="M406.385 74.7154C406.385 74.8517 397.093 74.9608 385.634 74.9608C374.175 74.9608 364.883 74.8517 364.883 74.7154C364.883 74.579 374.175 74.47 385.634 74.47C397.093 74.47 406.385 74.579 406.385 74.7154Z" fill="#263238" stroke="#1A2E35" stroke-width="0.5" stroke-linecap="round" stroke-linejoin="round"/>
<path d="M406.385 69.9844C406.385 70.1208 397.093 70.2298 385.634 70.2298C374.175 70.2298 364.883 70.1208 364.883 69.9844C364.883 69.8481 374.175 69.739 385.634 69.739C397.093 69.739 406.385 69.8481 406.385 69.9844Z" fill="#263238" stroke="#1A2E35" stroke-width="0.5" stroke-linecap="round" stroke-linejoin="round"/>
<path d="M406.385 83.8504C406.385 83.9867 397.093 84.0958 385.634 84.0958C374.175 84.0958 364.883 83.9867 364.883 83.8504C364.883 83.7141 374.175 83.605 385.634 83.605C397.093 83.605 406.385 83.7141 406.385 83.8504Z" fill="#263238" stroke="#1A2E35" stroke-width="0.5" stroke-linecap="round" stroke-linejoin="round"/>
<path d="M393.536 88.636C393.536 88.7724 387.16 88.8815 379.284 88.8815C371.409 88.8815 365.032 88.7724 365.032 88.636C365.032 88.4997 371.409 88.3906 379.284 88.3906C387.16 88.3906 393.536 88.4997 393.536 88.636Z" fill="#263238" stroke="#1A2E35" stroke-width="0.5" stroke-linecap="round" stroke-linejoin="round"/>
<path d="M325.656 122.899H321.378V170.66H325.656V122.899Z" fill="#A7A9AC" stroke="#1A2E35" stroke-width="0.5" stroke-linecap="round" stroke-linejoin="round"/>
<path d="M333.899 139.124H329.621V170.66H333.899V139.124Z" fill="#A7A9AC" stroke="#1A2E35" stroke-width="0.5" stroke-linecap="round" stroke-linejoin="round"/>
<path d="M342.156 128.844H337.878V170.919H342.156V128.844Z" fill="#A7A9AC" stroke="#1A2E35" stroke-width="0.5" stroke-linecap="round" stroke-linejoin="round"/>
<path d="M350.399 124.753H346.121V170.673H350.399V124.753Z" fill="#A7A9AC" stroke="#1A2E35" stroke-width="0.5" stroke-linecap="round" stroke-linejoin="round"/>
<path d="M358.656 140.092H354.378V170.66H358.656V140.092Z" fill="#A7A9AC" stroke="#1A2E35" stroke-width="0.5" stroke-linecap="round" stroke-linejoin="round"/>
<path d="M366.913 146.091H362.635V170.673H366.913V146.091Z" fill="#A7A9AC" stroke="#1A2E35" stroke-width="0.5" stroke-linecap="round" stroke-linejoin="round"/>
<path d="M375.156 127.807H370.878V170.673H375.156V127.807Z" fill="#A7A9AC" stroke="#1A2E35" stroke-width="0.5" stroke-linecap="round" stroke-linejoin="round"/>
<path d="M383.413 135.538H379.135V170.673H383.413V135.538Z" fill="#A7A9AC" stroke="#1A2E35" stroke-width="0.5" stroke-linecap="round" stroke-linejoin="round"/>
<path d="M391.67 129.362H387.392V170.673H391.67V129.362Z" fill="#A7A9AC" stroke="#1A2E35" stroke-width="0.5" stroke-linecap="round" stroke-linejoin="round"/>
<path d="M399.914 142.519H395.636V170.66H399.914V142.519Z" fill="#A7A9AC" stroke="#1A2E35" stroke-width="0.5" stroke-linecap="round" stroke-linejoin="round"/>
<path d="M408.171 137.174H403.893V170.673H408.171V137.174Z" fill="#A7A9AC" stroke="#1A2E35" stroke-width="0.5" stroke-linecap="round" stroke-linejoin="round"/>
<path d="M409.915 174C409.915 174.095 389.64 174.177 364.638 174.177C339.636 174.177 319.361 174.095 319.361 174C319.361 173.905 339.636 173.823 364.638 173.823C389.64 173.823 409.915 173.905 409.915 174Z" fill="#263238" stroke="#1A2E35" stroke-width="0.5" stroke-linecap="round" stroke-linejoin="round"/>
<path d="M327.468 177.749C327.468 177.845 326.051 177.927 324.294 177.927C322.536 177.927 321.119 177.845 321.119 177.749C321.119 177.654 322.536 177.572 324.294 177.572C326.051 177.572 327.468 177.654 327.468 177.749Z" fill="#263238" stroke="#1A2E35" stroke-width="0.5" stroke-linecap="round" stroke-linejoin="round"/>
<path d="M337.987 177.94C337.987 178.036 336.284 178.118 334.199 178.118C332.114 178.118 330.411 178.036 330.411 177.94C330.411 177.845 332.114 177.763 334.199 177.763C336.284 177.763 337.987 177.845 337.987 177.94Z" fill="#263238" stroke="#1A2E35" stroke-width="0.5" stroke-linecap="round" stroke-linejoin="round"/>
<path d="M346.966 177.94C346.966 178.036 345.263 178.118 343.178 178.118C341.094 178.118 339.391 178.036 339.391 177.94C339.391 177.845 341.094 177.763 343.178 177.763C345.263 177.763 346.966 177.845 346.966 177.94Z" fill="#263238" stroke="#1A2E35" stroke-width="0.5" stroke-linecap="round" stroke-linejoin="round"/>
<path d="M355.945 177.94C355.945 178.036 354.242 178.118 352.157 178.118C350.072 178.118 348.369 178.036 348.369 177.94C348.369 177.845 350.072 177.763 352.157 177.763C354.242 177.763 355.945 177.845 355.945 177.94Z" fill="#263238" stroke="#1A2E35" stroke-width="0.5" stroke-linecap="round" stroke-linejoin="round"/>
<path d="M364.911 177.94C364.911 178.036 363.207 178.118 361.123 178.118C359.038 178.118 357.335 178.036 357.335 177.94C357.335 177.845 359.038 177.763 361.123 177.763C363.207 177.763 364.911 177.845 364.911 177.94Z" fill="#263238" stroke="#1A2E35" stroke-width="0.5" stroke-linecap="round" stroke-linejoin="round"/>
<path d="M373.889 177.94C373.889 178.036 372.186 178.118 370.101 178.118C368.017 178.118 366.313 178.036 366.313 177.94C366.313 177.845 368.017 177.763 370.101 177.763C372.186 177.763 373.889 177.845 373.889 177.94Z" fill="#263238" stroke="#1A2E35" stroke-width="0.5" stroke-linecap="round" stroke-linejoin="round"/>
<path d="M382.869 177.94C382.869 178.036 381.165 178.118 379.081 178.118C376.996 178.118 375.293 178.036 375.293 177.94C375.293 177.845 376.996 177.763 379.081 177.763C381.165 177.763 382.869 177.845 382.869 177.94Z" fill="#263238" stroke="#1A2E35" stroke-width="0.5" stroke-linecap="round" stroke-linejoin="round"/>
<path d="M391.833 177.94C391.833 178.036 390.13 178.118 388.046 178.118C385.961 178.118 384.258 178.036 384.258 177.94C384.258 177.845 385.961 177.763 388.046 177.763C390.13 177.763 391.833 177.845 391.833 177.94Z" fill="#263238" stroke="#1A2E35" stroke-width="0.5" stroke-linecap="round" stroke-linejoin="round"/>
<path d="M400.813 177.94C400.813 178.036 399.11 178.118 397.025 178.118C394.94 178.118 393.237 178.036 393.237 177.94C393.237 177.845 394.94 177.763 397.025 177.763C399.11 177.763 400.813 177.845 400.813 177.94Z" fill="#263238" stroke="#1A2E35" stroke-width="0.5" stroke-linecap="round" stroke-linejoin="round"/>
<path d="M409.779 177.94C409.779 178.036 408.076 178.118 405.991 178.118C403.906 178.118 402.203 178.036 402.203 177.94C402.203 177.845 403.906 177.763 405.991 177.763C408.076 177.763 409.779 177.845 409.779 177.94Z" fill="#263238" stroke="#1A2E35" stroke-width="0.5" stroke-linecap="round" stroke-linejoin="round"/>
<g opacity="0.3">
<path d="M333.899 139.124H329.621V170.66H333.899V139.124Z" fill="white" stroke="#1A2E35" stroke-width="0.5" stroke-linecap="round" stroke-linejoin="round"/>
</g>
<g opacity="0.3">
<path d="M350.399 124.753H346.121V170.673H350.399V124.753Z" fill="white" stroke="#1A2E35" stroke-width="0.5" stroke-linecap="round" stroke-linejoin="round"/>
</g>
<g opacity="0.3">
<path d="M366.913 146.091H362.635V170.673H366.913V146.091Z" fill="white" stroke="#1A2E35" stroke-width="0.5" stroke-linecap="round" stroke-linejoin="round"/>
</g>
<g opacity="0.3">
<path d="M383.413 135.538H379.135V170.673H383.413V135.538Z" fill="white" stroke="#1A2E35" stroke-width="0.5" stroke-linecap="round" stroke-linejoin="round"/>
</g>
<g opacity="0.3">
<path d="M399.914 142.519H395.636V170.66H399.914V142.519Z" fill="white" stroke="#1A2E35" stroke-width="0.5" stroke-linecap="round" stroke-linejoin="round"/>
</g>
<path d="M207.975 68.2257C207.975 70.5026 206.135 72.3432 203.86 72.3432C201.585 72.3432 199.745 70.5026 199.745 68.2257C199.745 65.9488 201.585 64.1082 203.86 64.1082C206.135 64.1082 207.975 65.9488 207.975 68.2257Z" fill="#A7A9AC" stroke="#1A2E35" stroke-width="0.5" stroke-linecap="round" stroke-linejoin="round"/>
<path d="M278.704 64.9808C278.704 65.1171 264.833 65.2262 247.72 65.2262C230.607 65.2262 216.736 65.1171 216.736 64.9808C216.736 64.8444 230.607 64.7354 247.72 64.7354C264.833 64.7354 278.704 64.8444 278.704 64.9808Z" fill="#A7A9AC" stroke="#1A2E35" stroke-width="0.5" stroke-linecap="round" stroke-linejoin="round"/>
<path d="M241.616 69.9571C241.616 69.9571 241.275 70.0253 240.662 70.0525C240.049 70.0798 239.149 70.1071 238.046 70.1343C235.839 70.1752 232.786 70.2025 229.407 70.2025C226.028 70.2025 222.976 70.1752 220.769 70.1343C219.665 70.1071 218.766 70.0798 218.153 70.0525C217.54 70.0253 217.199 69.998 217.199 69.9571C217.199 69.9162 217.54 69.8889 218.153 69.8616C218.766 69.8344 219.665 69.8071 220.769 69.7798C222.976 69.7389 226.028 69.7117 229.407 69.7117C232.786 69.7117 235.839 69.7389 238.046 69.7798C239.149 69.8071 240.049 69.8344 240.662 69.8616C241.275 69.8889 241.616 69.9162 241.616 69.9571Z" fill="#A7A9AC" stroke="#1A2E35" stroke-width="0.5" stroke-linecap="round" stroke-linejoin="round"/>
<path d="M172.686 52.3147H42.5244V200.969H172.686V52.3147Z" fill="#FAFAFA" stroke="#1A2E35" stroke-width="0.5" stroke-linecap="round" stroke-linejoin="round"/>
<path d="M172.7 200.969C172.7 200.969 172.7 200.723 172.7 200.26C172.7 199.783 172.7 199.101 172.7 198.201C172.7 196.374 172.686 193.688 172.673 190.184C172.673 183.162 172.646 172.896 172.618 159.848C172.591 133.779 172.55 96.6532 172.509 52.3283L172.727 52.5464C134.4 52.5464 89.8587 52.56 42.5792 52.5737L42.8244 52.3283C42.8108 107.138 42.7972 158.239 42.7836 200.982L42.5792 200.778C81.7381 200.819 114.261 200.86 136.988 200.887C148.365 200.914 157.29 200.928 163.38 200.942C166.419 200.942 168.762 200.955 170.343 200.969C171.923 200.969 172.741 200.996 172.741 200.996C172.741 200.996 171.951 201.01 170.384 201.023C168.817 201.023 166.487 201.023 163.462 201.051C157.385 201.051 148.474 201.078 137.111 201.105C114.343 201.132 81.7789 201.173 42.5656 201.214H42.3612V201.01C42.3612 158.266 42.3339 107.165 42.3203 52.3555V52.1101H42.5656C89.8451 52.1101 134.386 52.1237 172.714 52.1374H172.932V52.3555C172.891 96.735 172.85 133.929 172.823 160.025C172.795 173.046 172.782 183.299 172.768 190.307C172.768 193.797 172.755 196.469 172.741 198.283C172.741 199.183 172.741 199.864 172.741 200.328C172.741 200.778 172.741 201.01 172.741 201.01L172.7 200.969Z" fill="#263238" stroke="#1A2E35" stroke-width="0.5" stroke-linecap="round" stroke-linejoin="round"/>
<path d="M161.5 128.23C161.459 128.325 160.055 127.507 157.317 126.635C154.592 125.789 150.395 124.971 145.313 125.749C142.792 126.158 140.067 126.921 137.397 128.298C134.712 129.648 132.151 131.639 129.617 133.902C127.069 136.151 124.534 138.715 121.605 141.087C118.676 143.419 115.324 145.614 111.386 146.623C109.424 147.127 107.38 147.263 105.418 146.977C103.456 146.704 101.603 146.064 99.8864 145.273C96.4528 143.65 93.5234 141.537 90.6213 139.765C87.7327 137.951 84.8442 136.52 81.9011 135.852C78.9853 135.143 76.1513 134.993 73.617 135.211C68.4939 135.661 64.6243 137.474 62.1718 138.933C59.7193 140.433 58.5611 141.564 58.493 141.482C58.4657 141.455 58.7519 141.183 59.3241 140.664C59.8828 140.146 60.7684 139.437 61.981 138.633C64.4063 137.065 68.3031 135.115 73.5489 134.57C76.1513 134.311 79.0534 134.42 82.0646 135.115C85.0894 135.77 88.1142 137.242 91.03 139.042C93.9731 140.814 96.9025 142.914 100.227 144.468C103.524 146.05 107.394 146.759 111.141 145.75C114.888 144.796 118.158 142.669 121.033 140.392C123.908 138.074 126.456 135.538 129.044 133.275C131.62 131.011 134.249 128.994 137.042 127.63C139.808 126.239 142.615 125.489 145.204 125.121C150.422 124.412 154.673 125.353 157.412 126.308C158.788 126.785 159.81 127.276 160.491 127.63C161.159 127.998 161.513 128.203 161.5 128.23Z" fill="#A7A9AC" stroke="#1A2E35" stroke-width="0.5" stroke-linecap="round" stroke-linejoin="round"/>
<path d="M89.4221 148.19H78.3584V178.145H89.4221V148.19Z" fill="#A7A9AC" stroke="#1A2E35" stroke-width="0.5" stroke-linecap="round" stroke-linejoin="round"/>
<path d="M136.374 148.19H125.311V178.145H136.374V148.19Z" fill="#A7A9AC" stroke="#1A2E35" stroke-width="0.5" stroke-linecap="round" stroke-linejoin="round"/>
<path d="M152.03 130.602H140.966V178.145H152.03V130.602Z" fill="#A7A9AC" stroke="#1A2E35" stroke-width="0.5" stroke-linecap="round" stroke-linejoin="round"/>
<path d="M75.1018 168.71H64.0381V178.786H75.1018V168.71Z" fill="#A7A9AC" stroke="#1A2E35" stroke-width="0.5" stroke-linecap="round" stroke-linejoin="round"/>
<path d="M105.077 161.716H94.0137V178.145H105.077V161.716Z" fill="#A7A9AC" stroke="#1A2E35" stroke-width="0.5" stroke-linecap="round" stroke-linejoin="round"/>
<path d="M120.719 157.939H109.655V178.131H120.719V157.939Z" fill="#A7A9AC" stroke="#1A2E35" stroke-width="0.5" stroke-linecap="round" stroke-linejoin="round"/>
<path d="M89.8721 181.663C89.8721 181.908 87.2016 182.113 83.8906 182.113C80.5797 182.113 77.9092 181.908 77.9092 181.663C77.9092 181.417 80.5797 181.213 83.8906 181.213C87.2016 181.213 89.8721 181.417 89.8721 181.663Z" fill="#263238" stroke="#1A2E35" stroke-width="0.5" stroke-linecap="round" stroke-linejoin="round"/>
<path d="M76.0967 181.663C76.0967 181.908 73.4126 182.113 70.1153 182.113C66.818 182.113 64.1338 181.908 64.1338 181.663C64.1338 181.417 66.8043 181.213 70.1153 181.213C73.4262 181.213 76.0967 181.417 76.0967 181.663Z" fill="#263238" stroke="#1A2E35" stroke-width="0.5" stroke-linecap="round" stroke-linejoin="round"/>
<path d="M154.211 181.663C154.211 181.908 151.186 182.113 147.452 182.113C143.719 182.113 140.694 181.908 140.694 181.663C140.694 181.417 143.719 181.213 147.452 181.213C151.186 181.213 154.211 181.417 154.211 181.663Z" fill="#263238" stroke="#1A2E35" stroke-width="0.5" stroke-linecap="round" stroke-linejoin="round"/>
<path d="M131.02 182.113C134.752 182.113 137.778 181.911 137.778 181.663C137.778 181.414 134.752 181.213 131.02 181.213C127.287 181.213 124.262 181.414 124.262 181.663C124.262 181.911 127.287 182.113 131.02 182.113Z" fill="#263238" stroke="#1A2E35" stroke-width="0.5" stroke-linecap="round" stroke-linejoin="round"/>
<path d="M120.732 181.663C120.732 181.908 118.048 182.113 114.751 182.113C111.454 182.113 108.77 181.908 108.77 181.663C108.77 181.417 111.44 181.213 114.751 181.213C118.062 181.213 120.732 181.417 120.732 181.663Z" fill="#263238" stroke="#1A2E35" stroke-width="0.5" stroke-linecap="round" stroke-linejoin="round"/>
<path d="M104.56 181.663C104.56 181.908 101.875 182.113 98.5781 182.113C95.2808 182.113 92.5967 181.908 92.5967 181.663C92.5967 181.417 95.2672 181.213 98.5781 181.213C101.889 181.213 104.56 181.417 104.56 181.663Z" fill="#263238" stroke="#1A2E35" stroke-width="0.5" stroke-linecap="round" stroke-linejoin="round"/>
<path d="M154.224 73.9932H63.7803V111.569H154.224V73.9932Z" fill="#E0E0E0" stroke="#1A2E35" stroke-width="0.5" stroke-linecap="round" stroke-linejoin="round"/>
<path d="M82.5698 85.8685C82.5698 88.2 80.6759 90.0815 78.3596 90.0815C76.0433 90.0815 74.1494 88.1863 74.1494 85.8685C74.1494 83.5507 76.0433 81.6555 78.3596 81.6555C80.6759 81.6555 82.5698 83.5507 82.5698 85.8685Z" fill="#263238"/>
<path d="M116.156 82.9507H86.7803V84.5868H116.156V82.9507Z" fill="#263238"/>
<path d="M143.924 86.6592H86.7803V88.2953H143.924V86.6592Z" fill="white" stroke="#1A2E35" stroke-width="0.5" stroke-linecap="round" stroke-linejoin="round"/>
<path d="M82.5698 98.8348C82.5698 101.166 80.6759 103.048 78.3596 103.048C76.0433 103.048 74.1494 101.153 74.1494 98.8348C74.1494 96.517 76.0433 94.6218 78.3596 94.6218C80.6759 94.6218 82.5698 96.517 82.5698 98.8348Z" fill="#A7A9AC" stroke="#1A2E35" stroke-width="0.5" stroke-linecap="round" stroke-linejoin="round"/>
<path d="M101.782 95.9307H86.7803V97.5668H101.782V95.9307Z" fill="#A7A9AC" stroke="#1A2E35" stroke-width="0.5" stroke-linecap="round" stroke-linejoin="round"/>
<path d="M143.924 99.6392H86.7803V101.275H143.924V99.6392Z" fill="white" stroke="#1A2E35" stroke-width="0.5" stroke-linecap="round" stroke-linejoin="round"/>
<path d="M342.428 266.713H286.987V269.413H342.428V266.713Z" fill="#263238" stroke="#1A2E35" stroke-width="0.5" stroke-linecap="round" stroke-linejoin="round"/>
<path d="M278.404 269.413L267.994 230.419H311.281L320.696 269.413H278.404Z" fill="#263238"/>
<path d="M318.107 266.468H279.439L270.433 232.219H309.305L318.107 266.468Z" fill="#F5F5F5"/>
<path d="M271.087 234.686H309.959L309.305 232.232H270.433L271.073 234.686H271.087Z" fill="#EBEBEB"/>
<path d="M275.284 233.459C275.284 233.691 275.475 233.882 275.707 233.882C275.938 233.882 276.129 233.691 276.129 233.459C276.129 233.227 275.938 233.036 275.707 233.036C275.475 233.036 275.284 233.227 275.284 233.459Z" fill="#FAFAFA" stroke="#1A2E35" stroke-width="0.25" stroke-linecap="round" stroke-linejoin="round"/>
<path d="M273.826 233.459C273.826 233.691 274.017 233.882 274.249 233.882C274.48 233.882 274.671 233.691 274.671 233.459C274.671 233.227 274.48 233.036 274.249 233.036C274.017 233.036 273.826 233.227 273.826 233.459Z" fill="#FAFAFA" stroke="#1A2E35" stroke-width="0.25" stroke-linecap="round" stroke-linejoin="round"/>
<path d="M272.354 233.459C272.354 233.691 272.545 233.882 272.777 233.882C273.008 233.882 273.199 233.691 273.199 233.459C273.199 233.227 273.008 233.036 272.777 233.036C272.545 233.036 272.354 233.227 272.354 233.459Z" fill="#FAFAFA" stroke="#1A2E35" stroke-width="0.25" stroke-linecap="round" stroke-linejoin="round"/>
<path d="M300.3 249.684L304.551 254.551C306.213 253.365 307.167 251.565 307.167 249.657C307.167 246.248 304.047 243.453 300.273 243.467C296.498 243.48 293.419 246.303 293.433 249.711L300.3 249.684Z" fill="#F15A29" stroke="#1A2E35" stroke-width="0.5" stroke-linecap="round" stroke-linejoin="round"/>
<path d="M299.755 250.461C299.755 250.461 300.204 250.87 300.967 251.675C301.73 252.493 302.82 253.679 304.115 255.138L304.265 255.301L304.088 255.438C302.357 256.733 299.496 257.278 296.907 256.147C295.681 255.629 294.659 254.756 293.95 253.774C293.255 252.765 292.901 251.634 292.86 250.57V250.352H293.065C295.109 250.352 296.784 250.352 297.956 250.366C299.128 250.379 299.782 250.407 299.755 250.448C299.741 250.488 299.046 250.543 297.874 250.597C296.703 250.652 295.04 250.707 293.065 250.761L293.269 250.543C293.324 251.525 293.664 252.561 294.332 253.488C295 254.401 295.953 255.206 297.098 255.683C299.509 256.747 302.207 256.269 303.842 255.083L303.801 255.383C302.575 253.938 301.553 252.724 300.845 251.852C300.136 250.979 299.741 250.475 299.755 250.434V250.461Z" fill="#263238"/>
<path d="M296.975 246.003C296.975 246.221 297.152 246.384 297.356 246.384C297.574 246.384 297.738 246.207 297.738 246.003C297.738 245.784 297.56 245.621 297.356 245.621C297.138 245.621 296.975 245.798 296.975 246.003Z" fill="#263238" stroke="#1A2E35" stroke-width="0.5" stroke-linecap="round" stroke-linejoin="round"/>
<path d="M289.317 243.221C289.317 243.085 291.375 242.976 293.923 242.962C294.127 242.962 294.331 242.962 294.536 242.962H294.631L294.699 243.03C296.293 244.626 297.452 245.921 297.356 246.016C297.274 246.098 295.966 244.953 294.359 243.371L294.522 243.439C294.318 243.439 294.113 243.439 293.909 243.439C291.375 243.439 289.304 243.344 289.304 243.221H289.317Z" fill="#263238"/>
<path d="M280.611 248.102C280.611 248.102 280.434 247.489 280.175 246.303C279.916 245.116 279.548 243.399 279.126 241.272L279.085 241.04H279.33C282.069 241.013 285.38 240.985 288.95 240.958C288.895 240.917 289.399 241.326 289.195 241.162V241.19V241.217L289.208 241.272L289.236 241.381L289.277 241.612L289.358 242.062C289.413 242.362 289.467 242.662 289.522 242.962C289.631 243.562 289.74 244.148 289.849 244.721C290.067 245.866 290.258 246.971 290.448 248.007L290.503 248.266H290.244C287.355 248.266 284.917 248.225 283.241 248.184C282.464 248.157 281.824 248.143 281.292 248.13C280.843 248.116 280.611 248.089 280.625 248.075C280.638 248.061 280.897 248.034 281.374 248.021C281.919 248.007 282.573 247.98 283.363 247.952C285.066 247.911 287.437 247.857 290.244 247.816L290.026 248.075C289.822 247.039 289.617 245.934 289.386 244.789C289.277 244.217 289.168 243.63 289.045 243.03C288.99 242.73 288.936 242.43 288.868 242.131L288.786 241.681L288.745 241.449L288.718 241.34V241.285L288.704 241.258V241.231C288.486 241.053 288.99 241.476 288.936 241.422C285.366 241.422 282.055 241.422 279.317 241.422L279.507 241.19C279.875 243.235 280.148 244.939 280.338 246.139C280.529 247.339 280.638 248.048 280.611 248.075V248.102Z" fill="#263238"/>
<path d="M296.402 253.76C296.402 253.979 296.579 254.142 296.784 254.142C297.002 254.142 297.165 253.965 297.165 253.76C297.165 253.542 296.988 253.379 296.784 253.379C296.566 253.379 296.402 253.556 296.402 253.76Z" fill="#263238" stroke="#1A2E35" stroke-width="0.5" stroke-linecap="round" stroke-linejoin="round"/>
<path d="M289.794 253.788C289.794 253.651 291.361 253.542 293.282 253.529C295.217 253.529 296.784 253.624 296.784 253.76C296.784 253.897 295.217 254.006 293.296 254.019C291.361 254.019 289.808 253.924 289.794 253.788Z" fill="#263238"/>
<path d="M280.652 256.828C280.652 256.828 280.488 256.406 280.23 255.547C279.971 254.688 279.616 253.42 279.18 251.838L279.126 251.62H279.358C281.974 251.565 285.462 251.538 289.277 251.511C289.072 251.347 289.563 251.729 289.508 251.688V251.702V251.729L289.522 251.77L289.549 251.852L289.59 252.015L289.672 252.343L289.835 252.997C289.944 253.433 290.053 253.856 290.162 254.279C290.38 255.124 290.585 255.942 290.776 256.719L290.844 257.006H290.558C287.614 257.006 285.107 256.965 283.35 256.924C282.546 256.896 281.878 256.883 281.32 256.869C280.856 256.856 280.611 256.828 280.625 256.815C280.638 256.787 280.911 256.774 281.401 256.747C281.974 256.733 282.655 256.706 283.472 256.678C285.23 256.624 287.683 256.569 290.544 256.542L290.326 256.828C290.122 256.051 289.904 255.233 289.686 254.401C289.577 253.979 289.468 253.556 289.359 253.12L289.195 252.465L289.113 252.138L289.072 251.975L289.045 251.893V251.852L289.032 251.825V251.811C288.977 251.77 289.481 252.152 289.263 251.988C285.448 252.002 281.96 251.988 279.344 251.961L279.521 251.729C279.889 253.256 280.175 254.51 280.366 255.383C280.557 256.269 280.666 256.774 280.638 256.801L280.652 256.828Z" fill="#263238"/>
<path d="M281.374 243.344C281.374 243.208 282.846 243.099 284.658 243.085C286.47 243.085 287.955 243.18 287.955 243.317C287.955 243.453 286.483 243.562 284.671 243.576C282.859 243.576 281.374 243.48 281.374 243.344Z" fill="#263238"/>
<path d="M281.456 244.421C281.456 244.285 282.941 244.176 284.767 244.162C286.593 244.162 288.078 244.258 288.078 244.394C288.078 244.53 286.593 244.639 284.767 244.653C282.941 244.653 281.456 244.558 281.456 244.421Z" fill="#263238"/>
<path d="M281.66 245.457C281.66 245.321 283.091 245.212 284.848 245.198C286.62 245.198 288.05 245.294 288.05 245.43C288.05 245.566 286.62 245.675 284.862 245.689C283.104 245.689 281.66 245.594 281.66 245.457Z" fill="#263238"/>
<path d="M281.578 253.706C281.578 253.57 282.982 253.461 284.712 253.447C286.442 253.447 287.846 253.542 287.846 253.679C287.846 253.815 286.442 253.924 284.712 253.938C282.982 253.938 281.578 253.842 281.578 253.706Z" fill="#263238"/>
<path d="M281.96 254.892C281.96 254.756 283.159 254.647 284.63 254.633C286.102 254.633 287.301 254.728 287.301 254.865C287.301 255.001 286.102 255.11 284.63 255.124C283.159 255.124 281.96 255.028 281.96 254.892Z" fill="#263238"/>
<path d="M221.342 269.29V274.403H224.694V377.928H231.547V274.403H267.995V377.928H274.862V274.403H432.955V377.9H439.822V274.403H442.792V269.29H221.342Z" fill="#263238"/>
<path d="M370.225 307.861C370.225 307.97 372.228 308.052 374.694 308.052C377.16 308.052 379.163 307.97 379.163 307.861C379.163 307.752 377.16 307.67 374.694 307.67C372.228 307.67 370.225 307.752 370.225 307.861Z" fill="#263238" stroke="#1A2E35" stroke-width="0.5" stroke-linecap="round" stroke-linejoin="round"/>
<path d="M305.192 308.925C305.327 308.925 305.437 308.87 305.437 308.802C305.437 308.734 305.327 308.679 305.192 308.679C305.056 308.679 304.946 308.734 304.946 308.802C304.946 308.87 305.056 308.925 305.192 308.925Z" fill="#455A64" stroke="#1A2E35" stroke-width="0.5" stroke-linecap="round" stroke-linejoin="round"/>
<path d="M348.943 216.771L323.3 190.702L322.741 187.88C322.632 187.362 322.523 186.789 322.428 186.135C322.305 185.371 322.333 184.594 322.469 183.844C322.632 182.931 322.905 181.717 323.259 181.117C323.695 180.368 323 179.454 322.292 179.768C321.583 180.081 320.343 182.126 320.071 184.949C319.798 187.771 317.4 184.022 316.501 182.685C315.602 181.336 312.632 177.313 312.018 177.259C311.106 177.191 310.874 178.172 311.8 179.495C312.741 180.831 315.234 184.99 314.525 185.426C314.525 185.426 314.526 185.426 314.498 185.426C313.054 185.18 311.623 185.889 310.956 187.185C310.315 188.425 309.593 190.198 310.179 191.002C311.296 192.529 314.267 195.338 314.267 195.338L315.125 196.074C315.125 196.074 337.32 228.251 342.144 229.287C345.155 229.942 391.644 233.8 391.644 233.8L395.146 220.984L348.929 216.798L348.943 216.771Z" fill="#FFBF9D" stroke="#1A2E35" stroke-width="0.5" stroke-linecap="round" stroke-linejoin="round"/>
<path d="M309.975 190.43C310.765 191.193 311.555 191.943 312.345 192.707C312.618 192.966 312.89 193.225 313.245 193.361C313.585 193.497 314.035 193.47 314.28 193.197C314.512 192.952 314.525 192.557 314.416 192.243C314.307 191.929 314.089 191.657 313.871 191.398C313.108 190.471 312.332 189.543 311.569 188.63" fill="#FFBF9D"/>
<path d="M309.975 190.43C310.765 191.193 311.555 191.943 312.345 192.707C312.618 192.966 312.89 193.225 313.245 193.361C313.585 193.497 314.035 193.47 314.28 193.197C314.512 192.952 314.525 192.557 314.416 192.243C314.307 191.929 314.089 191.657 313.871 191.398C313.108 190.471 312.332 189.543 311.569 188.63" stroke="#1A2E35" stroke-width="0.5" stroke-linecap="round" stroke-linejoin="round"/>
<path d="M311.664 188.766C312.454 189.53 313.245 190.293 314.035 191.043C314.307 191.302 314.58 191.561 314.934 191.698C315.275 191.834 315.724 191.807 315.97 191.534C316.201 191.289 316.215 190.893 316.106 190.58C315.997 190.266 315.779 189.993 315.561 189.734C314.798 188.807 314.021 187.88 313.258 186.967" fill="#FFBF9D"/>
<path d="M311.664 188.766C312.454 189.53 313.245 190.293 314.035 191.043C314.307 191.302 314.58 191.561 314.934 191.698C315.275 191.834 315.724 191.807 315.97 191.534C316.201 191.289 316.215 190.893 316.106 190.58C315.997 190.266 315.779 189.993 315.561 189.734C314.798 188.807 314.021 187.88 313.258 186.967" stroke="#1A2E35" stroke-width="0.5" stroke-linecap="round" stroke-linejoin="round"/>
<path d="M313.518 187.416C314.308 188.18 315.098 188.943 315.888 189.693C316.161 189.952 316.433 190.211 316.788 190.348C317.128 190.484 317.578 190.457 317.823 190.184C318.055 189.939 318.068 189.543 317.959 189.23C317.85 188.916 317.632 188.643 317.414 188.384C316.651 187.457 315.875 186.53 315.112 185.617" fill="#FFBF9D"/>
<path d="M313.518 187.416C314.308 188.18 315.098 188.943 315.888 189.693C316.161 189.952 316.433 190.211 316.788 190.348C317.128 190.484 317.578 190.457 317.823 190.184C318.055 189.939 318.068 189.543 317.959 189.23C317.85 188.916 317.632 188.643 317.414 188.384C316.651 187.457 315.875 186.53 315.112 185.617" stroke="#1A2E35" stroke-width="0.5" stroke-linecap="round" stroke-linejoin="round"/>
<path d="M382.542 177.681L382.651 213.403L368.74 214.071L368.181 205.509C368.181 205.509 361.464 206.532 360.061 201.473C359.161 198.242 359.393 173.291 359.393 173.291L382.556 177.681H382.542Z" fill="#FFBF9D" stroke="#1A2E35" stroke-width="0.5" stroke-linecap="round" stroke-linejoin="round"/>
<path d="M355.918 176.809C356.954 178.95 361.859 182.849 361.859 182.849L364.08 188.793C366.001 187.28 368.59 187.376 369.08 190.757C369.435 193.211 366.396 193.702 366.396 193.702C368.167 196.715 369.366 199.155 371.942 202.032C374.735 205.141 376.302 205.455 379.326 205.495H382.665C382.665 205.495 389.491 199.783 388.142 184.744C386.793 169.706 373.277 174.096 370.048 170.333C364.788 164.211 352.471 169.678 355.905 176.809H355.918Z" fill="#263238" stroke="#1A2E35" stroke-width="0.5" stroke-linecap="round" stroke-linejoin="round"/>
<path d="M387.392 197.315C387.392 197.315 386.793 197.438 385.744 197.233C384.694 197.042 383.196 196.442 381.751 195.174C380.294 193.92 378.999 191.998 377.718 189.843C376.424 187.716 374.993 185.235 372.609 183.585C370.184 181.963 367.336 181.636 364.897 181.131C362.431 180.667 360.196 179.958 358.67 178.759C357.144 177.573 356.395 176.1 356.177 175.064C355.945 174 356.109 173.414 356.109 173.414C356.15 173.414 356 174.014 356.245 175.05C356.49 176.073 357.24 177.504 358.752 178.663C360.264 179.836 362.472 180.517 364.924 180.967C367.363 181.458 370.238 181.785 372.704 183.435C375.143 185.126 376.574 187.635 377.868 189.762C379.149 191.929 380.403 193.838 381.833 195.079C383.25 196.347 384.708 196.947 385.744 197.165C386.261 197.274 386.67 197.288 386.956 197.315C387.229 197.315 387.379 197.315 387.379 197.315H387.392Z" fill="#455A64" stroke="#1A2E35" stroke-width="0.5" stroke-linecap="round" stroke-linejoin="round"/>
<path d="M388.182 185.085C388.182 185.085 387.937 185.017 387.46 184.867C386.983 184.73 386.289 184.499 385.362 184.403C384.449 184.308 383.237 184.362 382.133 185.126C381.602 185.494 381.138 186.08 381.016 186.816C380.893 187.525 381.056 188.398 381.67 188.943C381.969 189.216 382.378 189.366 382.801 189.393C383.223 189.407 383.659 189.271 384.04 189.052C384.817 188.602 385.43 187.825 385.716 186.898C386.343 185.071 385.907 182.699 384.231 181.24C383.427 180.517 382.365 180.013 381.234 179.904C380.089 179.781 378.931 180.04 377.773 180.354C376.615 180.681 375.443 181.063 374.189 181.213C372.95 181.376 371.669 181.39 370.388 181.213C369.121 181.035 367.867 180.736 366.723 180.204C365.606 179.672 364.556 178.786 364.216 177.559C363.889 176.373 364.202 175.023 365.06 174.191C365.933 173.332 367.309 173.237 368.331 173.714C368.848 173.946 369.298 174.355 369.543 174.859C369.802 175.364 369.87 175.923 369.802 176.454C369.652 177.531 369.025 178.472 368.167 179.004C367.322 179.549 366.341 179.754 365.415 179.768C364.488 179.795 363.616 179.618 362.812 179.372C361.191 178.868 359.91 177.954 358.984 177.013C358.03 176.073 357.43 175.064 357.022 174.218C356.613 173.373 356.449 172.65 356.327 172.173C356.245 171.682 356.204 171.423 356.204 171.423C356.204 171.423 356.259 171.682 356.354 172.16C356.49 172.637 356.654 173.346 357.076 174.177C357.485 175.009 358.098 176.004 359.038 176.932C359.965 177.859 361.245 178.759 362.84 179.236C363.63 179.481 364.502 179.645 365.401 179.618C366.3 179.59 367.254 179.399 368.072 178.868C368.876 178.35 369.489 177.45 369.625 176.427C369.788 175.418 369.257 174.287 368.249 173.864C367.281 173.414 365.987 173.523 365.183 174.314C364.366 175.091 364.066 176.373 364.393 177.504C364.706 178.649 365.701 179.508 366.805 180.027C367.922 180.558 369.148 180.845 370.402 181.022C371.655 181.185 372.922 181.172 374.149 181.022C375.375 180.872 376.547 180.49 377.705 180.163C378.863 179.836 380.048 179.577 381.234 179.713C382.405 179.836 383.495 180.354 384.34 181.104C386.071 182.603 386.52 185.058 385.866 186.939C385.566 187.894 384.912 188.698 384.109 189.161C383.7 189.393 383.25 189.53 382.787 189.516C382.337 189.489 381.901 189.325 381.574 189.025C380.92 188.425 380.757 187.512 380.893 186.776C381.029 185.998 381.52 185.398 382.078 185.017C383.209 184.24 384.463 184.199 385.376 184.308C386.316 184.417 387.011 184.662 387.474 184.812C387.937 184.976 388.182 185.071 388.182 185.071V185.085Z" fill="#455A64" stroke="#1A2E35" stroke-width="0.5" stroke-linecap="round" stroke-linejoin="round"/>
<path d="M370.498 369.216L365.947 363.38L376.82 354.777L383.565 363.257L382.924 363.83C380.049 366.366 368.154 376.537 365.661 377.519C362.881 378.61 370.484 369.216 370.484 369.216H370.498Z" fill="#A7A9AC" stroke="#1A2E35" stroke-width="0.5" stroke-linecap="round" stroke-linejoin="round"/>
<g opacity="0.4">
<path d="M366.914 373.96C366.914 373.96 364.407 377.451 365.238 377.669C366.069 377.887 378.482 368.057 383.578 363.244L383.373 363.012L368.985 374.587C368.985 374.587 367.568 373.469 366.914 373.947V373.96Z" fill="white" stroke="#1A2E35" stroke-width="0.5" stroke-linecap="round" stroke-linejoin="round"/>
</g>
<path d="M383.524 362.876C383.524 362.876 383.469 362.944 383.347 363.039C383.197 363.176 383.02 363.326 382.829 363.503C382.311 363.953 381.671 364.498 380.921 365.153C379.3 366.53 377.038 368.411 374.49 370.429C371.942 372.447 369.599 374.219 367.882 375.487C367.078 376.074 366.397 376.564 365.838 376.973C365.634 377.123 365.443 377.246 365.28 377.369C365.157 377.451 365.075 377.505 365.075 377.492C365.075 377.492 365.13 377.437 365.252 377.342C365.416 377.219 365.593 377.083 365.797 376.919C366.342 376.51 367.01 375.992 367.8 375.392C369.49 374.11 371.833 372.311 374.381 370.293C376.929 368.275 379.205 366.407 380.84 365.057C381.603 364.43 382.257 363.885 382.788 363.448C382.979 363.285 383.156 363.148 383.319 363.012C383.442 362.917 383.51 362.862 383.51 362.876H383.524Z" fill="#263238" stroke="#1A2E35" stroke-width="0.5" stroke-linecap="round" stroke-linejoin="round"/>
<path d="M369.108 374.765C369.108 374.765 368.672 374.356 367.991 374.11C367.323 373.851 366.724 373.933 366.724 373.892C366.71 373.851 367.337 373.688 368.059 373.96C368.781 374.219 369.149 374.751 369.122 374.765H369.108Z" fill="#263238" stroke="#1A2E35" stroke-width="0.5" stroke-linecap="round" stroke-linejoin="round"/>
<path d="M371.029 370.593C371.029 370.593 370.716 370.565 370.362 370.443C370.007 370.32 369.735 370.184 369.749 370.143C369.762 370.102 370.062 370.17 370.416 370.293C370.77 370.415 371.043 370.552 371.029 370.593Z" fill="#263238" stroke="#1A2E35" stroke-width="0.5" stroke-linecap="round" stroke-linejoin="round"/>
<path d="M371.547 369.434C371.547 369.434 371.288 369.502 370.961 369.475C370.634 369.461 370.389 369.406 370.389 369.352C370.389 369.311 370.648 369.284 370.975 369.311C371.302 369.325 371.547 369.379 371.547 369.434Z" fill="#263238" stroke="#1A2E35" stroke-width="0.5" stroke-linecap="round" stroke-linejoin="round"/>
<path d="M371.288 367.975C371.288 367.975 371.084 368.247 370.784 368.493C370.471 368.738 370.198 368.915 370.171 368.888C370.144 368.847 370.375 368.615 370.675 368.37C370.975 368.125 371.261 367.947 371.288 367.975Z" fill="#263238" stroke="#1A2E35" stroke-width="0.5" stroke-linecap="round" stroke-linejoin="round"/>
<path d="M370.907 367.088C370.907 367.088 370.77 367.457 370.416 367.77C370.076 368.097 369.708 368.234 369.694 368.206C369.667 368.166 369.98 367.961 370.307 367.647C370.634 367.348 370.866 367.061 370.907 367.088Z" fill="#263238" stroke="#1A2E35" stroke-width="0.5" stroke-linecap="round" stroke-linejoin="round"/>
<path d="M369.912 369.938C369.912 369.938 369.68 370.197 369.203 370.483C368.972 370.633 368.672 370.783 368.331 370.906C368.154 370.961 367.991 371.042 367.773 371.07C367.664 371.07 367.541 371.07 367.432 370.988C367.323 370.906 367.282 370.743 367.323 370.62C367.718 369.747 368.686 369.597 369.203 369.747C369.476 369.815 369.68 369.938 369.803 370.034C369.926 370.129 369.98 370.197 369.966 370.211C369.953 370.238 369.708 369.979 369.176 369.87C368.917 369.815 368.59 369.829 368.277 369.952C367.977 370.074 367.609 370.333 367.487 370.661C367.446 370.824 367.582 370.933 367.773 370.906C367.95 370.893 368.127 370.811 368.304 370.77C368.645 370.647 368.931 370.511 369.176 370.388C369.653 370.129 369.926 369.924 369.939 369.938H369.912Z" fill="#263238" stroke="#1A2E35" stroke-width="0.5" stroke-linecap="round" stroke-linejoin="round"/>
<path d="M369.762 370.115C369.762 370.115 369.517 370.033 369.299 369.693C369.19 369.529 369.108 369.297 369.081 369.025C369.081 368.766 369.081 368.438 369.381 368.207C369.558 368.097 369.79 368.22 369.858 368.356C369.939 368.493 369.967 368.643 369.98 368.766C370.008 369.025 370.008 369.256 369.98 369.447C369.926 369.829 369.817 370.047 369.803 370.047C369.776 370.047 369.844 369.815 369.858 369.434C369.858 369.243 369.858 369.025 369.817 368.779C369.79 368.561 369.653 368.234 369.449 368.343C369.258 368.466 369.217 368.779 369.217 368.997C369.217 369.229 369.299 369.447 369.381 369.611C369.558 369.938 369.762 370.074 369.735 370.088L369.762 370.115Z" fill="#263238" stroke="#1A2E35" stroke-width="0.5" stroke-linecap="round" stroke-linejoin="round"/>
<path d="M380.948 360.081C380.948 360.081 380.607 360.299 380.171 360.749C379.722 361.185 379.204 361.921 378.986 362.862C378.768 363.803 378.904 364.689 379.109 365.275C379.313 365.875 379.545 366.202 379.517 366.216C379.517 366.216 379.449 366.148 379.34 365.998C379.245 365.848 379.109 365.616 379 365.316C378.754 364.716 378.591 363.803 378.822 362.821C379.054 361.853 379.613 361.089 380.09 360.667C380.335 360.449 380.539 360.299 380.703 360.203C380.853 360.108 380.948 360.081 380.962 360.081H380.948Z" fill="#263238" stroke="#1A2E35" stroke-width="0.5" stroke-linecap="round" stroke-linejoin="round"/>
<path d="M376.248 356.44C376.248 356.44 377.12 357.381 378.114 358.594C379.109 359.822 379.886 360.83 379.845 360.858C379.804 360.885 378.973 359.917 377.978 358.703C376.983 357.476 376.207 356.467 376.248 356.44Z" fill="#263238" stroke="#1A2E35" stroke-width="0.5" stroke-linecap="round" stroke-linejoin="round"/>
<path d="M377.351 366.298C377.351 366.298 376.765 367.007 375.893 367.716C375.021 368.425 374.231 368.888 374.204 368.847C374.177 368.806 374.926 368.288 375.784 367.579C376.656 366.884 377.324 366.257 377.351 366.298Z" fill="#263238" stroke="#1A2E35" stroke-width="0.5" stroke-linecap="round" stroke-linejoin="round"/>
<path d="M379.477 364.607C379.477 364.607 379.532 364.798 379.6 365.03C379.654 365.248 379.736 365.425 379.695 365.452C379.654 365.48 379.504 365.33 379.436 365.071C379.368 364.812 379.436 364.607 379.477 364.607Z" fill="#263238" stroke="#1A2E35" stroke-width="0.5" stroke-linecap="round" stroke-linejoin="round"/>
<path d="M379.491 362.971C379.491 362.971 379.559 363.148 379.532 363.353C379.505 363.557 379.45 363.721 379.409 363.707C379.368 363.707 379.341 363.53 379.368 363.326C379.396 363.121 379.45 362.957 379.491 362.971Z" fill="#263238" stroke="#1A2E35" stroke-width="0.5" stroke-linecap="round" stroke-linejoin="round"/>
<path d="M380.28 361.608C380.28 361.608 380.158 361.758 380.035 361.949C379.913 362.126 379.872 362.303 379.831 362.303C379.79 362.303 379.749 362.085 379.899 361.853C380.049 361.635 380.267 361.567 380.28 361.608Z" fill="#263238" stroke="#1A2E35" stroke-width="0.5" stroke-linecap="round" stroke-linejoin="round"/>
<path d="M380.922 360.749C380.922 360.749 380.949 360.871 380.881 360.98C380.813 361.09 380.731 361.158 380.69 361.13C380.649 361.103 380.663 361.008 380.731 360.899C380.799 360.79 380.881 360.721 380.922 360.749Z" fill="#263238" stroke="#1A2E35" stroke-width="0.5" stroke-linecap="round" stroke-linejoin="round"/>
<g opacity="0.3">
<path d="M380.703 359.794L369.694 368.207L368.686 366.884L380.253 359.044L380.703 359.794Z" fill="black" stroke="#1A2E35" stroke-width="0.5" stroke-linecap="round" stroke-linejoin="round"/>
</g>
<path d="M320.466 375.078V367.675L334.35 367.62L334.431 378.459L333.573 378.514C329.744 378.746 314.116 379.4 311.555 378.623C308.693 377.764 320.466 375.064 320.466 375.064V375.078Z" fill="#A7A9AC" stroke="#1A2E35" stroke-width="0.5" stroke-linecap="round" stroke-linejoin="round"/>
<g opacity="0.4">
<path d="M314.716 376.591C314.716 376.591 310.588 377.791 311.105 378.473C311.623 379.155 327.442 379.087 334.432 378.446L334.405 378.132L315.942 378.364C315.942 378.364 315.52 376.619 314.716 376.578V376.591Z" fill="white" stroke="#1A2E35" stroke-width="0.5" stroke-linecap="round" stroke-linejoin="round"/>
</g>
<path d="M334.636 378.132C334.636 378.132 334.555 378.146 334.405 378.159C334.2 378.159 333.969 378.187 333.723 378.2C333.042 378.228 332.197 378.268 331.203 378.323C329.077 378.405 326.134 378.487 322.891 378.5C319.635 378.514 316.706 378.473 314.566 378.405C313.572 378.364 312.727 378.337 312.046 378.309C311.787 378.296 311.569 378.282 311.364 378.268C311.215 378.268 311.133 378.255 311.133 378.241C311.133 378.241 311.215 378.241 311.378 378.241C311.582 378.241 311.814 378.241 312.059 378.241C312.741 378.241 313.585 378.268 314.58 378.282C316.706 378.309 319.649 378.35 322.891 378.337C326.134 378.323 329.077 378.255 331.203 378.2C332.197 378.173 333.042 378.146 333.723 378.132C333.982 378.132 334.2 378.132 334.405 378.132C334.568 378.132 334.65 378.132 334.65 378.132H334.636Z" fill="#263238" stroke="#1A2E35" stroke-width="0.5" stroke-linecap="round" stroke-linejoin="round"/>
<path d="M315.956 378.596C315.956 378.596 315.861 377.996 315.48 377.396C315.112 376.782 314.594 376.482 314.621 376.428C314.621 376.387 315.221 376.646 315.629 377.3C316.038 377.955 315.997 378.596 315.956 378.596Z" fill="#263238" stroke="#1A2E35" stroke-width="0.5" stroke-linecap="round" stroke-linejoin="round"/>
<path d="M320.044 376.496C320.044 376.496 319.812 376.278 319.608 375.964C319.403 375.651 319.267 375.364 319.308 375.337C319.349 375.31 319.54 375.555 319.744 375.869C319.948 376.182 320.085 376.469 320.044 376.496Z" fill="#263238" stroke="#1A2E35" stroke-width="0.5" stroke-linecap="round" stroke-linejoin="round"/>
<path d="M321.161 375.896C321.161 375.896 320.916 375.787 320.671 375.569C320.425 375.351 320.262 375.16 320.289 375.119C320.316 375.078 320.534 375.228 320.78 375.446C321.025 375.664 321.188 375.855 321.161 375.896Z" fill="#263238" stroke="#1A2E35" stroke-width="0.5" stroke-linecap="round" stroke-linejoin="round"/>
<path d="M321.869 374.587C321.869 374.587 321.542 374.683 321.147 374.683C320.752 374.683 320.425 374.655 320.425 374.614C320.425 374.574 320.752 374.519 321.147 374.519C321.542 374.519 321.869 374.546 321.869 374.587Z" fill="#263238" stroke="#1A2E35" stroke-width="0.5" stroke-linecap="round" stroke-linejoin="round"/>
<path d="M322.101 373.66C322.101 373.66 321.761 373.865 321.297 373.892C320.834 373.933 320.453 373.824 320.466 373.783C320.466 373.728 320.834 373.756 321.284 373.728C321.733 373.701 322.088 373.606 322.101 373.66Z" fill="#263238" stroke="#1A2E35" stroke-width="0.5" stroke-linecap="round" stroke-linejoin="round"/>
<path d="M319.567 375.296C319.567 375.296 319.226 375.364 318.681 375.296C318.408 375.269 318.081 375.201 317.727 375.092C317.55 375.037 317.373 374.983 317.182 374.874C317.1 374.819 316.991 374.737 316.964 374.601C316.923 374.465 316.991 374.315 317.1 374.246C317.945 373.796 318.804 374.274 319.117 374.71C319.294 374.928 319.376 375.146 319.417 375.31C319.458 375.46 319.444 375.555 319.444 375.555C319.417 375.555 319.376 375.201 319.035 374.792C318.858 374.587 318.599 374.396 318.272 374.301C317.959 374.205 317.509 374.192 317.209 374.383C317.073 374.492 317.128 374.655 317.278 374.751C317.427 374.846 317.618 374.901 317.782 374.969C318.122 375.078 318.436 375.16 318.695 375.201C319.226 375.296 319.567 375.296 319.567 375.323V375.296Z" fill="#263238" stroke="#1A2E35" stroke-width="0.5" stroke-linecap="round" stroke-linejoin="round"/>
<path d="M319.335 375.337C319.335 375.337 319.185 375.119 319.226 374.723C319.253 374.533 319.321 374.287 319.471 374.069C319.621 373.865 319.825 373.592 320.207 373.605C320.411 373.633 320.52 373.865 320.479 374.015C320.466 374.165 320.398 374.301 320.329 374.41C320.193 374.628 320.043 374.819 319.907 374.955C319.635 375.228 319.403 375.337 319.403 375.323C319.389 375.296 319.58 375.16 319.825 374.873C319.948 374.737 320.084 374.546 320.193 374.342C320.316 374.151 320.398 373.81 320.18 373.769C319.962 373.742 319.73 373.974 319.594 374.151C319.457 374.342 319.376 374.546 319.348 374.737C319.28 375.105 319.362 375.337 319.348 375.337H319.335Z" fill="#263238" stroke="#1A2E35" stroke-width="0.5" stroke-linecap="round" stroke-linejoin="round"/>
<path d="M334.337 374.342C334.337 374.342 333.942 374.301 333.315 374.383C332.688 374.451 331.83 374.71 331.08 375.31C330.331 375.91 329.895 376.7 329.691 377.287C329.486 377.887 329.459 378.282 329.432 378.282C329.432 378.282 329.418 378.187 329.432 377.996C329.445 377.818 329.486 377.559 329.582 377.246C329.759 376.632 330.195 375.801 330.971 375.173C331.748 374.546 332.661 374.301 333.301 374.26C333.628 374.233 333.887 374.26 334.064 374.274C334.242 374.301 334.337 374.328 334.337 374.342Z" fill="#263238" stroke="#1A2E35" stroke-width="0.5" stroke-linecap="round" stroke-linejoin="round"/>
<path d="M332.865 368.574C332.865 368.574 332.974 369.842 333.002 371.424C333.029 372.992 333.002 374.274 332.961 374.274C332.92 374.274 332.852 373.006 332.824 371.424C332.797 369.856 332.824 368.574 332.865 368.574Z" fill="#263238" stroke="#1A2E35" stroke-width="0.5" stroke-linecap="round" stroke-linejoin="round"/>
<path d="M327.66 377.014C327.66 377.014 326.761 377.205 325.643 377.219C324.513 377.232 323.613 377.11 323.613 377.069C323.613 377.014 324.526 377.069 325.643 377.055C326.761 377.055 327.66 376.96 327.674 377.014H327.66Z" fill="#263238" stroke="#1A2E35" stroke-width="0.5" stroke-linecap="round" stroke-linejoin="round"/>
<path d="M330.372 377C330.372 377 330.303 377.191 330.208 377.396C330.113 377.6 330.072 377.791 330.017 377.791C329.976 377.791 329.949 377.573 330.058 377.328C330.167 377.082 330.344 376.96 330.372 377Z" fill="#263238" stroke="#1A2E35" stroke-width="0.5" stroke-linecap="round" stroke-linejoin="round"/>
<path d="M331.393 375.719C331.393 375.719 331.339 375.896 331.189 376.046C331.052 376.196 330.903 376.278 330.875 376.251C330.848 376.223 330.93 376.073 331.08 375.923C331.216 375.773 331.366 375.692 331.393 375.719Z" fill="#263238" stroke="#1A2E35" stroke-width="0.5" stroke-linecap="round" stroke-linejoin="round"/>
<path d="M332.852 375.133C332.852 375.133 332.661 375.173 332.457 375.255C332.252 375.323 332.102 375.433 332.075 375.405C332.034 375.378 332.157 375.187 332.402 375.092C332.661 375.01 332.865 375.092 332.852 375.133Z" fill="#263238" stroke="#1A2E35" stroke-width="0.5" stroke-linecap="round" stroke-linejoin="round"/>
<path d="M333.9 374.86C333.9 374.86 333.832 374.969 333.723 375.024C333.614 375.065 333.505 375.065 333.478 375.024C333.464 374.983 333.546 374.915 333.655 374.86C333.764 374.819 333.873 374.819 333.9 374.86Z" fill="#263238" stroke="#1A2E35" stroke-width="0.5" stroke-linecap="round" stroke-linejoin="round"/>
<g opacity="0.3">
<path d="M334.432 373.783L320.466 373.796L320.479 372.133L334.391 372.038L334.432 373.783Z" fill="black" stroke="#1A2E35" stroke-width="0.5" stroke-linecap="round" stroke-linejoin="round"/>
</g>
<path d="M342.988 241.135L336.271 258.314L308.067 262.35L304.674 260.905L302.222 259.746C302.222 259.746 299.578 254.633 298.979 254.838C298.366 255.042 298.202 256.542 299.251 258.887L295.995 257.96C295.995 257.96 288.937 261.219 289.25 261.655C289.564 262.091 290.136 263.141 291.676 262.35C293.215 261.559 295.232 260.646 295.232 260.646L299.033 261.737L294.128 262.364L289.523 266.563C289.523 266.563 291.035 267.695 292.343 266.495L304.32 269.072L308.067 269.29H338.942C343.697 269.29 347.648 268.513 349.147 264L354.692 247.271L343.002 241.135H342.988Z" fill="#FFBF9D" stroke="#1A2E35" stroke-width="0.5" stroke-linecap="round" stroke-linejoin="round"/>
<path d="M292.33 266.495C292.33 266.495 292.603 266.168 293.039 265.704C293.257 265.472 293.543 265.227 293.911 265.036C294.265 264.845 294.714 264.763 295.205 264.695C297.194 264.463 298.816 264.191 298.802 264.082C298.802 263.973 297.167 264.082 295.164 264.327C294.66 264.382 294.156 264.491 293.747 264.736C293.352 264.981 293.052 265.268 292.848 265.54C292.439 266.086 292.303 266.481 292.344 266.508L292.33 266.495Z" fill="#AA6550"/>
<path d="M294.21 266.986C294.21 266.986 294.292 266.74 294.633 266.672C294.973 266.604 295.518 266.549 296.091 266.481C297.235 266.359 298.189 266.372 298.203 266.263C298.203 266.168 297.249 265.99 296.063 266.1C295.464 266.168 294.96 266.263 294.551 266.413C294.347 266.495 294.21 266.659 294.183 266.795C294.156 266.918 294.183 266.986 294.21 266.986Z" fill="#AA6550"/>
<path d="M357.295 243.63L354.924 251.675L339.854 244.844C340.4 243.153 342.893 235.654 347.662 223.738C350.319 217.098 356.232 212.313 363.276 211.14C368.209 210.322 373.577 209.681 377.705 209.722C386.153 209.818 398.593 215.094 400.269 223.384C401.549 229.71 400.31 240.876 400.31 254.456L399.206 280.388L355.905 281.861L357.295 243.617V243.63Z" fill="#F15A29" stroke="#1A2E35" stroke-width="0.5" stroke-linecap="round" stroke-linejoin="round"/>
<g opacity="0.3">
<path d="M400.269 248.471C394.996 249.548 389.587 248.471 384.218 248.143C380.962 247.953 377.351 247.598 374.776 249.602C372.732 251.184 371.915 253.856 371.329 256.378C369.081 265.977 368.672 272.412 368.168 282.27L394.233 283.851L400.269 248.471Z" fill="black" stroke="#1A2E35" stroke-width="0.5" stroke-linecap="round" stroke-linejoin="round"/>
</g>
<path d="M356.191 215.476C356.191 215.476 356.627 215.544 357.35 215.817C358.058 216.103 359.025 216.73 359.843 217.834C360.674 218.939 361.233 220.52 361.328 222.347C361.451 224.174 361.192 226.192 360.878 228.292C360.211 232.491 359.189 236.213 358.453 238.913C358.099 240.208 357.799 241.285 357.581 242.103C357.377 242.853 357.281 243.276 357.309 243.29C357.336 243.29 357.486 242.894 357.731 242.144C357.976 241.408 358.317 240.317 358.726 238.981C359.516 236.309 360.592 232.573 361.26 228.346C361.573 226.233 361.832 224.202 361.696 222.32C361.573 220.452 360.96 218.789 360.075 217.671C359.203 216.539 358.167 215.926 357.418 215.667C357.036 215.544 356.736 215.489 356.532 215.462C356.328 215.448 356.219 215.435 356.219 215.462L356.191 215.476Z" fill="#263238" stroke="#1A2E35" stroke-width="0.5" stroke-linecap="round" stroke-linejoin="round"/>
<path d="M340.331 242.799C340.331 242.799 341.121 243.317 342.457 244.012C343.792 244.707 345.672 245.635 347.77 246.589C349.869 247.543 351.803 248.334 353.22 248.866C354.638 249.411 355.523 249.698 355.537 249.657C355.55 249.602 354.706 249.22 353.316 248.62C351.926 248.021 350.019 247.189 347.92 246.248C345.822 245.307 343.942 244.421 342.566 243.78C341.203 243.139 340.345 242.758 340.331 242.799Z" fill="#263238" stroke="#1A2E35" stroke-width="0.5" stroke-linecap="round" stroke-linejoin="round"/>
<path d="M333.423 283.838C326.052 287.86 323.245 297.063 327.114 304.521L364.802 369.27L382.187 358.758L352.92 300.294L374.135 286.442" fill="#263238"/>
<path d="M333.423 283.838C326.052 287.86 323.245 297.063 327.114 304.521L364.802 369.27L382.187 358.758L352.92 300.294L374.135 286.442" stroke="#1A2E35" stroke-width="0.5" stroke-linecap="round" stroke-linejoin="round"/>
<path d="M379.313 280.634L327.578 282.461C319.185 282.761 312.563 289.728 312.699 298.14L314.852 372.092L336.612 372.038L335.889 302.121L379.327 300.976V280.634H379.313Z" fill="#263238" stroke="#1A2E35" stroke-width="0.5" stroke-linecap="round" stroke-linejoin="round"/>
<path d="M335.876 304.644C335.876 304.644 335.917 304.876 335.944 305.326C335.971 305.816 335.998 306.471 336.026 307.289C336.094 308.993 336.162 311.461 336.216 314.515C336.353 320.609 336.434 329.035 336.475 338.334C336.516 347.619 336.571 356.018 336.598 362.167C336.612 365.18 336.625 367.634 336.639 369.393C336.639 370.211 336.639 370.865 336.639 371.356C336.639 371.806 336.625 372.038 336.598 372.038C336.571 372.038 336.557 371.806 336.53 371.356C336.503 370.865 336.475 370.211 336.448 369.393C336.38 367.689 336.312 365.221 336.257 362.167C336.121 356.072 336.039 347.646 335.998 338.334C335.958 329.049 335.903 320.65 335.876 314.515C335.862 311.502 335.849 309.048 335.835 307.289C335.835 306.471 335.835 305.816 335.835 305.326C335.835 304.876 335.849 304.644 335.876 304.644Z" fill="#455A64" stroke="#1A2E35" stroke-width="0.5" stroke-linecap="round" stroke-linejoin="round"/>
<path d="M401.726 233.705H386.071C379.776 233.705 374.667 238.817 374.667 245.116V299.762H343.397C339.037 299.762 335.494 303.307 335.494 307.67H406.904C406.904 307.67 406.904 307.643 406.904 307.629C410.378 307.479 413.144 304.63 413.144 301.112V245.116C413.144 238.817 408.035 233.705 401.74 233.705H401.726Z" fill="#455A64" stroke="#1A2E35" stroke-width="0.5" stroke-linecap="round" stroke-linejoin="round"/>
<path d="M379.218 235.504C379.354 235.504 379.463 251.566 379.463 271.376C379.463 291.187 379.354 307.248 379.218 307.248C379.082 307.248 378.973 291.187 378.973 271.376C378.973 251.566 379.082 235.504 379.218 235.504Z" fill="#263238" stroke="#1A2E35" stroke-width="0.5" stroke-linecap="round" stroke-linejoin="round"/>
<path d="M377.242 365.03V307.698H372.159V365.03C369.053 371.151 361.75 375.31 352.853 378.705H398.224C389.014 374.955 380.689 372.078 377.255 365.03H377.242Z" fill="#455A64" stroke="#1A2E35" stroke-width="0.5" stroke-linecap="round" stroke-linejoin="round"/>
<path d="M90.6344 357.613C90.6344 357.613 90.6752 357.49 90.7706 357.272C90.8796 357.026 91.0295 356.713 91.2202 356.304C91.6017 355.445 92.1059 354.136 92.5555 352.404C93.4412 348.941 93.7545 343.651 92.4465 337.366C91.8334 334.216 90.8524 330.849 89.6533 327.263C88.4679 323.677 87.1054 319.873 85.9882 315.769C84.8845 311.665 84.0125 307.22 84.176 302.544C84.3395 297.867 85.7293 293.204 87.2553 288.555C88.7677 283.906 90.3482 279.352 90.8115 274.771C91.3429 270.203 90.3619 265.718 88.2908 262.05C86.2743 258.342 83.74 255.165 81.8461 251.879C79.9249 248.607 78.7123 245.225 77.9765 242.09C76.5323 235.763 77.0364 230.446 77.7313 226.928C78.4807 223.397 79.3118 221.57 79.3118 221.57C79.3118 221.57 79.2846 221.693 79.2164 221.925C79.1347 222.184 79.0257 222.524 78.903 222.947C78.6305 223.847 78.2627 225.197 77.922 226.956C77.2953 230.46 76.8456 235.75 78.3172 241.994C79.0802 245.089 80.2792 248.416 82.2003 251.661C84.0943 254.906 86.6422 258.069 88.6859 261.832C90.8115 265.541 91.8334 270.176 91.2884 274.812C90.8115 279.461 89.231 284.042 87.7186 288.691C86.1925 293.327 84.83 297.949 84.6529 302.544C84.4758 307.139 85.3341 311.542 86.4242 315.633C87.5278 319.723 88.8767 323.527 90.0485 327.126C91.2339 330.712 92.2013 334.121 92.7871 337.284C94.0679 343.61 93.7 348.955 92.7463 352.432C92.2694 354.177 91.7244 355.472 91.3156 356.317C91.1112 356.726 90.9341 357.04 90.8115 357.272C90.7025 357.49 90.6344 357.599 90.6207 357.585L90.6344 357.613Z" fill="#263238" stroke="#1A2E35" stroke-width="0.2" stroke-miterlimit="10"/>
<path d="M84.4352 255.124C84.4352 255.124 80.5793 242.799 87.4873 235.586C87.7325 235.327 88.1549 235.45 88.223 235.804C88.5909 237.836 89.0542 244.039 84.4352 255.124Z" fill="#A7A9AC" stroke="#1A2E35" stroke-width="0.2" stroke-miterlimit="10"/>
<path d="M86.7377 239.69C86.7377 239.69 86.6968 240.576 86.4788 241.967C86.2199 243.535 85.9338 245.375 85.6068 247.407C85.2798 249.438 84.9936 251.279 84.7484 252.847C84.544 254.238 84.4077 255.097 84.3396 255.097C84.2715 255.097 84.2851 254.21 84.4077 252.806C84.5304 251.402 84.7892 249.466 85.1299 247.339C85.4705 245.212 85.852 243.303 86.1518 241.926C86.4515 240.549 86.6831 239.704 86.7513 239.717L86.7377 239.69Z" fill="#263238" stroke="#1A2E35" stroke-width="0.2" stroke-miterlimit="10"/>
<path d="M88.9589 284.179C88.9589 284.179 91.3161 271.485 100.786 268.336C101.113 268.226 101.44 268.526 101.331 268.867C100.704 270.844 98.2105 276.53 88.9453 284.179H88.9589Z" fill="#A7A9AC" stroke="#1A2E35" stroke-width="0.2" stroke-miterlimit="10"/>
<path d="M98.2101 271.621C98.2101 271.621 97.7605 272.371 96.9157 273.503C95.9619 274.771 94.8447 276.257 93.6048 277.893C92.3649 279.543 91.2476 281.029 90.3075 282.297C89.4763 283.429 88.9586 284.138 88.8904 284.097C88.8359 284.07 89.2583 283.292 90.0213 282.106C90.798 280.92 91.9152 279.325 93.2233 277.607C94.5177 275.889 95.7439 274.376 96.6568 273.298C97.5697 272.221 98.1692 271.581 98.2101 271.621Z" fill="#263238" stroke="#1A2E35" stroke-width="0.2" stroke-miterlimit="10"/>
<path d="M86.3972 316.028C86.3972 316.028 84.9665 303.198 93.128 297.431C93.4142 297.226 93.8093 297.431 93.8093 297.772C93.782 299.844 93.0599 306.007 86.4108 316.014L86.3972 316.028Z" fill="#A7A9AC" stroke="#1A2E35" stroke-width="0.2" stroke-miterlimit="10"/>
<path d="M91.6024 301.317C91.6024 301.317 91.3844 302.176 90.9212 303.498C90.3762 304.984 89.7358 306.73 89.0273 308.666C88.3188 310.602 87.692 312.347 87.147 313.833C86.6701 315.156 86.384 315.987 86.3159 315.96C86.2614 315.946 86.4249 315.087 86.82 313.724C87.2151 312.361 87.8283 310.506 88.5776 308.488C89.327 306.471 90.0492 304.657 90.6078 303.362C91.1664 302.067 91.5479 301.276 91.6161 301.303L91.6024 301.317Z" fill="#263238" stroke="#1A2E35" stroke-width="0.2" stroke-miterlimit="10"/>
<path d="M93.5362 348.055C93.5362 348.055 92.5688 335.184 100.921 329.717C101.221 329.526 101.602 329.744 101.589 330.085C101.493 332.144 100.54 338.293 93.5362 348.055Z" fill="#A7A9AC" stroke="#1A2E35" stroke-width="0.2" stroke-miterlimit="10"/>
<path d="M99.2592 333.548C99.2592 333.548 99.014 334.393 98.4962 335.702C97.8967 337.175 97.1882 338.893 96.4116 340.802C95.6349 342.71 94.94 344.428 94.3405 345.901C93.8228 347.21 93.5094 348.014 93.4413 348C93.3868 347.987 93.5911 347.128 94.0271 345.792C94.4631 344.455 95.1444 342.615 95.9619 340.624C96.7794 338.634 97.5697 336.848 98.1828 335.58C98.7823 334.298 99.2047 333.534 99.2592 333.562V333.548Z" fill="#263238" stroke="#1A2E35" stroke-width="0.2" stroke-miterlimit="10"/>
<path d="M78.9034 244.298C78.9034 244.298 67.4719 238.327 67.2402 228.333C67.2402 227.978 67.6217 227.76 67.9079 227.965C69.611 229.137 74.3117 233.187 78.9034 244.298Z" fill="#A7A9AC" stroke="#1A2E35" stroke-width="0.2" stroke-miterlimit="10"/>
<path d="M69.6113 231.769C69.6113 231.769 70.1972 232.423 71.042 233.555C71.9685 234.836 73.0585 236.35 74.2711 238.013C75.4838 239.676 76.5738 241.176 77.5003 242.458C78.3315 243.589 78.8628 244.285 78.8083 244.339C78.7675 244.38 78.1407 243.753 77.2414 242.676C76.3422 241.585 75.1432 240.045 73.8896 238.299C72.6361 236.554 71.5325 234.932 70.7695 233.746C70.0065 232.559 69.5705 231.796 69.625 231.769H69.6113Z" fill="#263238" stroke="#1A2E35" stroke-width="0.2" stroke-miterlimit="10"/>
<path d="M91.1799 270.762C91.1799 270.762 79.4078 265.486 78.5766 255.533C78.5494 255.178 78.9173 254.947 79.217 255.124C80.9883 256.201 85.9342 259.95 91.1799 270.762Z" fill="#A7A9AC" stroke="#1A2E35" stroke-width="0.2" stroke-miterlimit="10"/>
<path d="M81.1515 258.819C81.1515 258.819 81.7783 259.432 82.6776 260.523C83.6858 261.75 84.8576 263.195 86.1656 264.777C87.4736 266.359 88.659 267.804 89.6673 269.017C90.5665 270.094 91.1388 270.762 91.0843 270.817C91.0434 270.858 90.3894 270.272 89.4084 269.249C88.441 268.226 87.1466 266.754 85.7841 265.077C84.4216 263.414 83.2362 261.859 82.405 260.728C81.5739 259.582 81.0834 258.86 81.1379 258.819H81.1515Z" fill="#263238" stroke="#1A2E35" stroke-width="0.2" stroke-miterlimit="10"/>
<path d="M84.408 300.281C84.408 300.281 76.3283 290.218 80.1161 280.974C80.2523 280.647 80.6883 280.606 80.8791 280.906C81.9691 282.665 84.6533 288.269 84.408 300.281Z" fill="#A7A9AC" stroke="#1A2E35" stroke-width="0.2" stroke-miterlimit="10"/>
<path d="M80.9066 285.065C80.9066 285.065 81.1927 285.896 81.4925 287.273C81.8331 288.828 82.2282 290.641 82.6642 292.659C83.1002 294.663 83.509 296.49 83.8496 298.031C84.163 299.408 84.3538 300.253 84.2856 300.267C84.2311 300.281 83.9178 299.462 83.509 298.113C83.1139 296.749 82.637 294.868 82.1874 292.754C81.7377 290.655 81.3835 288.732 81.1518 287.342C80.9338 285.951 80.8385 285.078 80.893 285.065H80.9066Z" fill="#263238" stroke="#1A2E35" stroke-width="0.2" stroke-miterlimit="10"/>
<path d="M92.42 335.007C92.42 335.007 80.7296 329.54 80.0756 319.573C80.0483 319.219 80.4299 318.987 80.7296 319.178C82.4736 320.282 87.3651 324.113 92.4337 335.007H92.42Z" fill="#A7A9AC" stroke="#1A2E35" stroke-width="0.2" stroke-miterlimit="10"/>
<path d="M82.583 322.9C82.583 322.9 83.1961 323.527 84.0818 324.631C85.0628 325.872 86.2209 327.331 87.5017 328.94C88.7825 330.549 89.9406 332.008 90.9353 333.248C91.8209 334.339 92.3659 335.021 92.325 335.062C92.2842 335.103 91.6302 334.503 90.6764 333.466C89.7226 332.417 88.4555 330.93 87.1338 329.24C85.7986 327.549 84.6404 325.981 83.8229 324.836C83.0054 323.677 82.5421 322.941 82.5966 322.9H82.583Z" fill="#263238" stroke="#1A2E35" stroke-width="0.2" stroke-miterlimit="10"/>
<path d="M115.692 284.26C115.692 284.26 115.705 284.356 115.705 284.547C115.705 284.765 115.705 285.037 115.678 285.378C115.637 286.155 115.596 287.205 115.542 288.514C115.392 291.268 115.188 295.099 114.929 299.694V299.721C114.098 304.398 111.713 309.565 108.525 314.596C106.181 318.305 103.729 321.673 101.603 324.795C99.4778 327.917 97.6656 330.808 96.4121 333.371C95.145 335.934 94.4092 338.129 93.9868 339.67C93.7825 340.447 93.6326 341.047 93.5372 341.456C93.4418 341.865 93.3873 342.083 93.3601 342.083C93.3464 342.083 93.3601 341.865 93.4418 341.442C93.4963 341.02 93.619 340.42 93.8097 339.629C94.1912 338.075 94.8725 335.839 96.1124 333.234C97.3386 330.63 99.1235 327.699 101.235 324.563C103.334 321.414 105.786 318.032 108.116 314.351C111.291 309.347 113.662 304.248 114.52 299.653V299.681C114.833 295.099 115.106 291.268 115.297 288.514C115.406 287.205 115.487 286.169 115.556 285.392C115.583 285.065 115.61 284.792 115.637 284.574C115.665 284.383 115.678 284.288 115.692 284.288V284.26Z" fill="#263238" stroke="#1A2E35" stroke-width="0.2" stroke-miterlimit="10"/>
<path d="M108.729 313.615C108.729 313.615 113.675 301.699 107.449 293.886C107.231 293.613 106.795 293.695 106.699 294.036C106.154 296.027 105.132 302.162 108.729 313.628V313.615Z" fill="#A7A9AC" stroke="#1A2E35" stroke-width="0.2" stroke-miterlimit="10"/>
<path d="M107.83 298.045C107.83 298.045 108.048 298.904 108.225 300.294C108.403 301.699 108.593 303.635 108.757 305.789C108.907 307.943 108.988 309.893 108.988 311.297C108.988 312.715 108.907 313.588 108.852 313.588C108.784 313.588 108.73 312.715 108.648 311.311C108.539 309.729 108.416 307.875 108.28 305.816C108.13 303.757 108.007 301.903 107.898 300.322C107.817 298.917 107.776 298.045 107.844 298.031L107.83 298.045Z" fill="#263238" stroke="#1A2E35" stroke-width="0.2" stroke-miterlimit="10"/>
<g opacity="0.3">
<path d="M108.729 313.615C108.729 313.615 113.675 301.699 107.449 293.886C107.231 293.613 106.795 293.695 106.699 294.036C106.154 296.027 105.132 302.162 108.729 313.628V313.615Z" fill="black" stroke="#1A2E35" stroke-width="0.2" stroke-miterlimit="10"/>
</g>
<path d="M93.4009 342.342C93.4009 342.342 97.3658 330.058 90.5259 322.777C90.2807 322.518 89.8583 322.641 89.7902 322.981C89.4087 325.013 88.8773 331.203 93.4009 342.342Z" fill="#A7A9AC" stroke="#1A2E35" stroke-width="0.2" stroke-miterlimit="10"/>
<path d="M91.2484 326.895C91.2484 326.895 91.5345 327.726 91.8206 329.117C92.1068 330.494 92.461 332.416 92.788 334.543C93.115 336.67 93.3466 338.606 93.4557 340.024C93.5647 341.429 93.5647 342.315 93.4965 342.315C93.4284 342.315 93.3058 341.456 93.115 340.065C92.8834 338.497 92.6109 336.657 92.3111 334.625C91.9978 332.594 91.7253 330.753 91.48 329.185C91.2756 327.794 91.1802 326.922 91.2484 326.908V326.895Z" fill="#263238" stroke="#1A2E35" stroke-width="0.2" stroke-miterlimit="10"/>
<g opacity="0.3">
<path d="M93.4009 342.342C93.4009 342.342 97.3658 330.058 90.5259 322.777C90.2807 322.518 89.8583 322.641 89.7902 322.981C89.4087 325.013 88.8773 331.203 93.4009 342.342Z" fill="black" stroke="#1A2E35" stroke-width="0.2" stroke-miterlimit="10"/>
</g>
<path d="M115.038 299.04C115.038 299.04 125.611 291.636 124.535 281.697C124.494 281.343 124.085 281.179 123.826 281.411C122.287 282.801 118.145 287.423 115.038 299.026V299.04Z" fill="#A7A9AC" stroke="#1A2E35" stroke-width="0.2" stroke-miterlimit="10"/>
<g opacity="0.3">
<path d="M115.038 299.04C115.038 299.04 125.611 291.636 124.535 281.697C124.494 281.343 124.085 281.179 123.826 281.411C122.287 282.801 118.145 287.423 115.038 299.026V299.04Z" fill="black" stroke="#1A2E35" stroke-width="0.2" stroke-miterlimit="10"/>
</g>
<path d="M122.627 285.419C122.627 285.419 122.355 286.251 121.755 287.532C121.156 288.814 120.284 290.546 119.248 292.441C118.227 294.336 117.246 296.027 116.483 297.213C115.72 298.399 115.188 299.108 115.134 299.067C115.079 299.026 115.501 298.263 116.183 297.036C116.946 295.645 117.831 294.009 118.812 292.209C119.793 290.396 120.679 288.76 121.428 287.369C122.11 286.128 122.546 285.378 122.614 285.406L122.627 285.419Z" fill="#263238" stroke="#1A2E35" stroke-width="0.2" stroke-miterlimit="10"/>
<path d="M97.666 330.167C97.666 330.167 110.419 328.176 113.825 318.796C113.948 318.469 113.648 318.141 113.308 318.237C111.318 318.809 105.555 321.127 97.6523 330.18L97.666 330.167Z" fill="#A7A9AC" stroke="#1A2E35" stroke-width="0.2" stroke-miterlimit="10"/>
<g opacity="0.3">
<path d="M97.666 330.167C97.666 330.167 110.419 328.176 113.825 318.796C113.948 318.469 113.648 318.141 113.308 318.237C111.318 318.809 105.555 321.127 97.6523 330.18L97.666 330.167Z" fill="black" stroke="#1A2E35" stroke-width="0.2" stroke-miterlimit="10"/>
</g>
<path d="M110.474 321.277C110.474 321.277 109.861 321.904 108.757 322.791C107.653 323.677 106.1 324.849 104.356 326.104C102.598 327.358 100.977 328.435 99.778 329.172C98.5653 329.908 97.7887 330.303 97.7614 330.249C97.7205 330.194 98.4427 329.69 99.6008 328.885C100.895 327.972 102.408 326.895 104.097 325.708C105.773 324.522 107.285 323.432 108.58 322.518C109.738 321.714 110.46 321.223 110.501 321.277H110.474Z" fill="#263238" stroke="#1A2E35" stroke-width="0.2" stroke-miterlimit="10"/>
<path d="M85.4981 353.645L81.792 378.677H104.955L101.957 353.645H85.4981Z" fill="#455A64" stroke="#1A2E35" stroke-width="0.2" stroke-miterlimit="10"/>
<path d="M102.884 361.403C102.884 361.539 98.7013 361.648 93.5373 361.648C88.3734 361.648 84.1904 361.539 84.1904 361.403C84.1904 361.267 88.3734 361.157 93.5373 361.157C98.7013 361.157 102.884 361.267 102.884 361.403Z" fill="#263238" stroke="#1A2E35" stroke-width="0.2" stroke-miterlimit="10"/>
<path d="M103.333 363.394C103.333 363.53 99.0142 363.639 93.6867 363.639C88.3592 363.639 84.04 363.53 84.04 363.394C84.04 363.257 88.3592 363.148 93.6867 363.148C99.0142 363.148 103.333 363.257 103.333 363.394Z" fill="#263238" stroke="#1A2E35" stroke-width="0.2" stroke-miterlimit="10"/>
</g>
<defs>
<clipPath id="clip0_2125_6106">
<rect width="450" height="380" fill="white"/>
</clipPath>
</defs>
</svg>
