<svg width="390" height="381" viewBox="0 0 390 381" fill="none" xmlns="http://www.w3.org/2000/svg">
<g clip-path="url(#clip0_2125_6394)">
<path opacity="0.7" d="M53.9706 42.719C30.279 54.8202 10.1108 75.5382 2.99658 101.186C-6.14257 134.14 7.01943 169.08 23.6508 198.955C40.2822 228.83 60.9094 257.394 68.4691 290.74C72.4649 308.325 73.0184 327.652 83.7775 342.13C96.0485 358.648 119.011 364.212 139.355 361.119C159.699 358.027 178.139 347.762 196.053 337.646C230.908 317.968 265.845 298.088 297.312 273.358C328.78 248.629 356.899 218.7 374.745 182.856C383.034 166.203 389.082 148.159 389.919 129.589C390.742 111.005 386.017 91.8127 374.597 77.1319C362.839 62.0323 345.168 52.8484 327.551 45.3796C243.341 9.69718 137.87 -0.108068 53.9706 42.719Z" fill="#F1F2F2"/>
<path d="M305.898 112.153L288.484 98.8763C288.484 98.8763 267.343 58.8585 266.142 57.4539L259.824 65.6249C259.824 65.6249 271.731 100.429 273.499 105.278C275.268 110.127 282.517 115.61 286.067 119.338C289.618 123.065 303.482 132.857 303.482 132.857L305.898 112.153Z" fill="white" stroke="#1A2E35" stroke-width="0.5" stroke-linecap="round" stroke-linejoin="round"/>
<path d="M219.042 229.329H202.964C192.92 229.329 184.605 221.482 184.038 211.434L183.16 195.997H238.819L237.941 211.434C237.374 221.469 229.072 229.329 219.015 229.329H219.042Z" fill="#1A2E35"/>
<path d="M294.774 84.1413C294.774 37.1815 256.179 -0.756435 208.985 0.364551C163.694 1.43151 127.137 39.0183 127.245 84.3439C127.299 106.642 136.061 126.887 150.316 141.879C158.848 150.86 165.057 161.786 167.892 173.847L168.446 176.197H253.573L253.897 174.82C256.854 162.259 263.28 150.86 272.108 141.46C286.161 126.482 294.774 106.331 294.774 84.1548V84.1413Z" fill="white"/>
<mask id="mask0_2125_6394" style="mask-type:luminance" maskUnits="userSpaceOnUse" x="127" y="0" width="168" height="177">
<path d="M294.774 84.1413C294.774 37.1815 256.179 -0.756435 208.985 0.364551C163.694 1.43151 127.137 39.0183 127.245 84.3439C127.299 106.642 136.061 126.887 150.316 141.879C158.848 150.86 165.057 161.786 167.892 173.847L168.446 176.197H253.573L253.897 174.82C256.854 162.259 263.28 150.86 272.108 141.46C286.161 126.482 294.774 106.331 294.774 84.1548V84.1413Z" fill="white"/>
</mask>
<g mask="url(#mask0_2125_6394)">
<path opacity="0.4" d="M208.985 0.364551C163.694 1.43151 127.137 39.0183 127.245 84.3439C127.299 106.642 136.061 126.887 150.316 141.879C158.848 150.86 165.057 161.786 167.892 173.847L168.446 176.197H253.573L253.897 174.82C256.854 162.259 263.28 150.86 272.108 141.46C286.161 126.482 294.774 106.331 294.774 84.1548C294.774 37.1815 256.179 -0.756435 208.985 0.364551ZM210.74 151.819C169.431 151.819 135.953 118.325 135.953 76.9967C135.953 35.6688 169.431 2.17433 210.74 2.17433C252.048 2.17433 285.527 35.6688 285.527 76.9967C285.527 118.325 252.048 151.819 210.74 151.819Z" fill="#FFBF9D"/>
</g>
<path d="M294.774 84.1413C294.774 37.1815 256.179 -0.756435 208.985 0.364551C163.694 1.43151 127.137 39.0183 127.245 84.3439C127.299 106.642 136.061 126.887 150.316 141.879C158.848 150.86 165.057 161.786 167.892 173.847L168.446 176.197H253.573L253.897 174.82C256.854 162.259 263.28 150.86 272.108 141.46C286.161 126.482 294.774 106.331 294.774 84.1548V84.1413Z" stroke="#1A2E35" stroke-width="0.5" stroke-miterlimit="10"/>
<path d="M182.417 218.498H239.588C248.754 213.419 255.139 203.884 255.773 192.728L257.218 167.081H164.773L166.218 192.728C166.852 203.884 173.238 213.419 182.404 218.498H182.417Z" fill="#F15A29" stroke="#1A2E35" stroke-width="0.5" stroke-linecap="round" stroke-linejoin="round"/>
<path d="M256.8 176.4L166.934 183.652C165.044 183.801 163.384 182.396 163.235 180.506C163.087 178.615 164.491 176.953 166.381 176.805L256.247 169.552C258.137 169.404 259.797 170.808 259.946 172.699C260.094 174.59 258.69 176.251 256.8 176.4Z" fill="#F15A29" stroke="#1A2E35" stroke-width="0.5" stroke-linecap="round" stroke-linejoin="round"/>
<path d="M256.786 190.014L167.879 197.199C165.989 197.347 164.328 195.943 164.18 194.052C164.031 192.161 165.435 190.5 167.325 190.351L256.233 183.166C258.123 183.018 259.783 184.422 259.932 186.313C260.08 188.204 258.676 189.865 256.786 190.014Z" fill="#F15A29" stroke="#1A2E35" stroke-width="0.5" stroke-linecap="round" stroke-linejoin="round"/>
<path d="M254.06 203.911L172.132 210.529C170.242 210.678 168.581 209.273 168.433 207.382C168.284 205.491 169.688 203.83 171.578 203.682L253.506 197.064C255.396 196.915 257.057 198.32 257.205 200.211C257.354 202.101 255.95 203.763 254.06 203.911Z" fill="#F15A29" stroke="#1A2E35" stroke-width="0.5" stroke-linecap="round" stroke-linejoin="round"/>
<path d="M276.144 363.645C276.144 363.645 278.034 375.246 276.144 380.662H237.779C237.779 380.662 236.159 376.597 237.779 374.044C239.399 371.478 251.562 370.02 255.341 366.562C259.121 363.105 263.171 357.162 263.171 357.162L276.144 363.645Z" fill="#1A2E35" stroke="#1A2E35" stroke-width="0.5" stroke-miterlimit="10"/>
<path d="M237.05 378.623H276.644L276.981 380.662H237.05V378.623Z" fill="white" stroke="#1A2E35" stroke-width="0.5" stroke-linecap="round" stroke-linejoin="round"/>
<path d="M266.924 362.227C266.924 362.227 263.306 363.105 262.901 363.24C262.496 363.375 258.986 368.777 255.476 369.723C251.967 370.668 248.457 370.492 248.997 372.194" stroke="white" stroke-width="0.5" stroke-linecap="round" stroke-linejoin="round"/>
<path d="M258.919 362.227L263.036 365.266" stroke="white" stroke-width="0.5" stroke-linecap="round" stroke-linejoin="round"/>
<path d="M257.016 364.887L260.984 367.791" stroke="white" stroke-width="0.5" stroke-linecap="round" stroke-linejoin="round"/>
<path d="M254.491 367.21L257.92 370.533" stroke="white" stroke-width="0.5" stroke-linecap="round" stroke-linejoin="round"/>
<path d="M251.008 368.912L252.493 372.208" stroke="white" stroke-width="0.5" stroke-linecap="round" stroke-linejoin="round"/>
<path d="M276.765 368.912C276.765 368.912 270.475 368.142 263.576 370.56C256.692 372.977 254.302 375.084 254.478 375.719C254.653 376.354 255.463 378.231 255.463 378.231H258.919C258.919 378.231 257.677 376.03 257.92 375.719C258.163 375.409 269.948 370.817 276.752 371.627V368.912H276.765Z" fill="white"/>
<path d="M332.18 380.662C332.18 380.662 333.665 375.017 331.924 372.923C328.819 369.169 332.302 366.008 329.183 364.712L327.874 366.225C327.617 364.685 328.346 360.012 322.569 359.404C315.576 358.661 315.454 363.753 315.076 365.428L315.198 363.091C312.215 363.091 313.767 366.062 309.245 370.938C305.802 374.652 305.789 379.42 305.978 380.676H332.167L332.18 380.662Z" fill="#1A2E35" stroke="#1A2E35" stroke-width="0.5" stroke-miterlimit="10"/>
<path d="M305.965 378.623H332.775L332.181 380.662H305.992L305.965 378.623Z" fill="white" stroke="#1A2E35" stroke-width="0.5" stroke-linecap="round" stroke-linejoin="round"/>
<path d="M314.563 370.695C314.563 370.695 323.365 367.778 327.604 371.424" stroke="white" stroke-width="0.5" stroke-linecap="round" stroke-linejoin="round"/>
<path d="M314.563 368.764C314.563 368.764 322.299 366.319 327.604 369.587" stroke="white" stroke-width="0.5" stroke-linecap="round" stroke-linejoin="round"/>
<path d="M315.022 366.859C315.022 366.859 322.299 364.118 327.617 367.872" stroke="white" stroke-width="0.5" stroke-linecap="round" stroke-linejoin="round"/>
<path d="M309.245 370.925L310.109 371.775C310.352 372.018 310.393 372.397 310.204 372.68C309.583 373.666 308.3 376.016 308.408 378.609H307.112C307.112 378.609 307.558 375.152 308.975 372.707L308.314 372.046L309.232 370.925H309.245Z" fill="white"/>
<path d="M283.043 309.081C283.043 309.081 277.346 318.765 267.721 316.698" stroke="#1A2E35" stroke-width="0.5" stroke-linecap="round" stroke-linejoin="round"/>
<path d="M289.063 198.833L285.324 206.734C285.324 206.734 269.907 238.621 260.458 275.127C260.228 275.992 255.341 293.293 259.27 336.349L257.042 343.913L259.486 356.392C259.486 356.392 255.814 361.7 255.949 363.429C255.949 363.429 265.007 365.117 268.031 366.751C270.38 368.021 277.44 374.99 277.44 374.99C279.438 374.571 279.614 366.481 279.614 366.481C279.614 366.481 283.812 294.589 285 291.497C286.188 288.404 293.558 275.046 305.02 244.483C305.02 244.483 305.276 287.175 308.34 297.979C311.067 307.582 307.841 334.486 307.841 334.486L309.677 364.428C309.677 364.428 303.224 371.127 308.462 372.937C308.462 372.937 311.958 366.211 321.907 364.685C326.97 363.901 333.274 372.896 333.274 372.896C335.488 372.194 332.329 360.89 332.329 360.89C339.389 307.609 334.178 317.252 335.582 291.199C336.487 274.493 341.225 202.979 335.663 197.158L289.05 198.846L289.063 198.833Z" fill="#757575"/>
<mask id="mask1_2125_6394" style="mask-type:luminance" maskUnits="userSpaceOnUse" x="255" y="197" width="84" height="178">
<path d="M289.063 198.833L285.324 206.734C285.324 206.734 269.907 238.621 260.458 275.127C260.228 275.992 255.341 293.293 259.27 336.349L257.042 343.913L259.486 356.392C259.486 356.392 255.814 361.7 255.949 363.429C255.949 363.429 265.007 365.117 268.031 366.751C270.38 368.021 277.44 374.99 277.44 374.99C279.438 374.571 279.614 366.481 279.614 366.481C279.614 366.481 283.812 294.589 285 291.497C286.188 288.404 293.558 275.046 305.02 244.483C305.02 244.483 305.276 287.175 308.34 297.979C311.067 307.582 307.841 334.486 307.841 334.486L309.677 364.428C309.677 364.428 303.224 371.127 308.462 372.937C308.462 372.937 311.958 366.211 321.907 364.685C326.97 363.901 333.274 372.896 333.274 372.896C335.488 372.194 332.329 360.89 332.329 360.89C339.389 307.609 334.178 317.252 335.582 291.199C336.487 274.493 341.225 202.979 335.663 197.158L289.05 198.846L289.063 198.833Z" fill="white"/>
</mask>
<g mask="url(#mask1_2125_6394)">
<path opacity="0.2" d="M338.336 223.454C313.416 225.413 291.817 217.255 282.462 212.987C284.23 208.989 285.324 206.734 285.324 206.734L289.063 198.833L335.677 197.145C337.688 199.238 338.35 209.894 338.336 223.454Z" fill="black"/>
<path opacity="0.2" d="M304.804 245.023C293.464 275.195 286.175 288.404 284.987 291.497C284.312 293.279 282.638 317.698 281.328 338.186C279.83 319.548 278.291 299.87 278.156 296.021C277.886 288.35 283.421 277.802 284.258 275.087C285.095 272.372 283.205 269.415 283.205 269.415L293.181 256.827C292.843 252.559 298.122 233.908 298.122 233.908C301.267 236.879 304.035 243.213 304.777 245.037L304.804 245.023Z" fill="black"/>
</g>
<path d="M289.063 198.833L285.324 206.734C285.324 206.734 269.907 238.621 260.458 275.127C260.228 275.992 255.341 293.293 259.27 336.349L257.042 343.913L259.486 356.392C259.486 356.392 255.814 361.7 255.949 363.429C255.949 363.429 265.007 365.117 268.031 366.751C270.38 368.021 277.44 374.99 277.44 374.99C279.438 374.571 279.614 366.481 279.614 366.481C279.614 366.481 283.812 294.589 285 291.497C286.188 288.404 293.558 275.046 305.02 244.483C305.02 244.483 305.276 287.175 308.34 297.979C311.067 307.582 307.841 334.486 307.841 334.486L309.677 364.428C309.677 364.428 303.224 371.127 308.462 372.937C308.462 372.937 311.958 366.211 321.907 364.685C326.97 363.901 333.274 372.896 333.274 372.896C335.488 372.194 332.329 360.89 332.329 360.89C339.389 307.609 334.178 317.252 335.582 291.199C336.487 274.493 341.225 202.979 335.663 197.158L289.05 198.846L289.063 198.833Z" stroke="#1A2E35" stroke-width="0.5" stroke-linecap="round" stroke-linejoin="round"/>
<path d="M305.006 244.483C305.006 244.483 299.309 233.475 294.449 230.41" stroke="#1A2E35" stroke-width="0.5" stroke-linecap="round" stroke-linejoin="round"/>
<path d="M292.316 226.844C292.316 226.844 309.623 232.111 315.617 233.138" stroke="#1A2E35" stroke-width="0.5" stroke-linecap="round" stroke-linejoin="round"/>
<path d="M301.172 209.178C300.43 223.589 295.34 226.047 300.254 229.194C300.254 229.194 300.119 235.934 302.563 240.215" stroke="#1A2E35" stroke-width="0.5" stroke-linecap="round" stroke-linejoin="round"/>
<path d="M331.492 203.668C331.492 203.668 329.454 225.818 336.258 229.991" stroke="#1A2E35" stroke-width="0.5" stroke-linecap="round" stroke-linejoin="round"/>
<path d="M336.271 210.812C336.271 210.812 336.784 225.561 336.271 237.446C336.271 237.446 334.57 287.674 332.869 293.982C331.168 300.289 335.488 309.81 335.123 337.092" stroke="#1A2E35" stroke-width="0.5" stroke-linecap="round" stroke-linejoin="round"/>
<path d="M319.909 358.459C321.529 358.148 323.23 358.297 324.674 359.093" stroke="#1A2E35" stroke-width="0.5" stroke-linecap="round" stroke-linejoin="round"/>
<path d="M309.663 364.415C311.796 362.375 314.293 360.579 316.993 359.377" stroke="#1A2E35" stroke-width="0.5" stroke-linecap="round" stroke-linejoin="round"/>
<path d="M312.512 247.967C316.332 252.249 322.393 260.339 328.59 261.027" stroke="#1A2E35" stroke-width="0.5" stroke-linecap="round" stroke-linejoin="round"/>
<path d="M306.626 240.971C307.8 242.457 309.015 243.915 310.244 245.347" stroke="#1A2E35" stroke-width="0.5" stroke-linecap="round" stroke-linejoin="round"/>
<path d="M312.08 291.186C312.08 291.186 320.774 303.017 325.539 303.706" stroke="#1A2E35" stroke-width="0.5" stroke-linecap="round" stroke-linejoin="round"/>
<path d="M301.847 242.335C301.847 242.335 286.377 285.459 280.99 289.714C280.99 289.714 280.383 321.412 280.207 332.5C280.032 343.575 277.48 358.296 277.48 358.296" stroke="#1A2E35" stroke-width="0.5" stroke-linecap="round" stroke-linejoin="round"/>
<path d="M260.971 357.986C260.971 357.986 266.937 360.052 269.826 361.362C272.729 362.672 273.741 365.576 273.741 365.576" stroke="#1A2E35" stroke-width="0.5" stroke-linecap="round" stroke-linejoin="round"/>
<path d="M276.05 274.169C284.365 268.942 295.314 262.432 299.728 253.248" stroke="#1A2E35" stroke-width="0.5" stroke-linecap="round" stroke-linejoin="round"/>
<path d="M268.801 278.477C270.367 277.613 271.919 276.694 273.458 275.762" stroke="#1A2E35" stroke-width="0.5" stroke-linecap="round" stroke-linejoin="round"/>
<path d="M294.976 215.013C299.444 214.945 304.344 214.365 308.151 211.839" stroke="#1A2E35" stroke-width="0.5" stroke-linecap="round" stroke-linejoin="round"/>
<path d="M287.889 214.594C289.171 214.77 290.454 214.878 291.75 214.945" stroke="#1A2E35" stroke-width="0.5" stroke-linecap="round" stroke-linejoin="round"/>
<path d="M311.014 121.093C311.014 121.093 337.284 113.638 352.39 121.715C356.156 123.727 364.728 130.237 364.431 138.07C364.134 145.89 339.268 182.275 339.578 187.15C339.875 192.026 339.551 204.519 337.743 205.37C335.934 206.221 295.989 207.382 286.161 204.857C282.233 203.844 289.954 185.219 289.954 185.219C289.954 185.219 297.487 144.864 311.014 121.093Z" fill="#F1F2F2" stroke="#1A2E35" stroke-width="0.5" stroke-linecap="round" stroke-linejoin="round"/>
<path d="M348.421 119.702C348.421 119.702 331.816 126.36 326.376 119.405C326.376 119.405 329.359 119.702 331.155 117.109C331.857 116.123 332.383 114.705 332.491 112.679C332.572 111.45 330.142 95.6346 331.155 94.23C346.45 72.8367 349.838 104.251 349.838 104.251C349.838 104.251 344.425 117.744 348.421 119.702Z" fill="#FFBF9D" stroke="#1A2E35" stroke-width="0.5" stroke-linecap="round" stroke-linejoin="round"/>
<path d="M336.784 111.153C336.784 111.153 335.704 116.082 331.142 117.122C331.844 116.136 332.37 114.718 332.478 112.692C335.569 111.801 336.784 111.153 336.784 111.153Z" fill="#1A2E35"/>
<path d="M351.39 114.138L334.232 118.703V127.63C334.232 127.63 329.237 140.096 329.399 142.122C329.561 144.148 334.232 225.439 334.232 225.439C334.232 225.439 348.164 224.4 353.212 215.742C353.212 215.742 351.188 184.22 353.212 179.033C355.237 173.847 355.494 167.013 355.494 167.013C355.494 167.013 368.629 142.46 365.699 134.964C362.77 127.468 353.658 120.175 353.658 120.175L351.39 114.124V114.138Z" fill="#BCBEC0" stroke="#1A2E35" stroke-width="0.5" stroke-miterlimit="10"/>
<path d="M336.19 119.972C336.19 119.972 339.025 129.224 339.376 129.035C339.727 128.846 349.541 124.875 352.187 120.918" stroke="#231F20" stroke-width="0.5" stroke-linecap="round" stroke-linejoin="round"/>
<path d="M330.318 118.055C330.075 117.703 319.383 111.153 319.383 111.153L313.889 112.612L305.776 107.533C305.776 107.533 297.555 132.614 297.798 138.381C298.041 144.148 289.28 176.251 287.997 188.893C287.997 188.893 298.392 168.31 299.917 164.717C301.443 161.125 306.248 136.963 310.258 131.29C314.267 125.631 323.622 118.649 323.622 118.649L330.318 118.041V118.055Z" fill="#BCBEC0" stroke="#1A2E35" stroke-width="0.5" stroke-miterlimit="10"/>
<path d="M350.419 102.131C351.161 100.2 351.512 98.0254 351.35 95.5673C350.23 79.7385 346.477 76.0514 340.321 77.0778C317.305 80.9135 324.122 92.6095 323.244 96.4857C322.367 100.362 319.1 100.659 319.545 102.428C319.721 103.131 322.434 103.198 322.434 103.198L322.596 106.858L323.636 107.101C323.636 107.101 324.473 115.421 326.592 116.38C329.279 117.609 337.284 112.76 337.27 109.762" fill="#FFBF9D"/>
<path d="M350.419 102.131C351.161 100.2 351.512 98.0254 351.35 95.5673C350.23 79.7385 346.477 76.0514 340.321 77.0778C317.305 80.9135 324.122 92.6095 323.244 96.4857C322.367 100.362 319.1 100.659 319.545 102.428C319.721 103.131 322.434 103.198 322.434 103.198L322.596 106.858L323.636 107.101C323.636 107.101 324.473 115.421 326.592 116.38C329.279 117.609 337.284 112.76 337.27 109.762" stroke="#1A2E35" stroke-width="0.5" stroke-linecap="round" stroke-linejoin="round"/>
<path d="M325.026 90.8131C325.026 90.8131 328.266 90.1513 329.873 92.7445" stroke="#1A2E35" stroke-width="0.5" stroke-linecap="round" stroke-linejoin="round"/>
<path d="M326.376 95.5942C326.498 96.364 326.916 96.9313 327.308 96.8638C327.713 96.7962 327.929 96.1344 327.821 95.3646C327.699 94.5948 327.281 94.0275 326.889 94.0951C326.498 94.1626 326.268 94.8244 326.376 95.5942Z" fill="#1A2E35"/>
<path d="M323.622 107.101C323.622 107.101 326.781 107.101 328.644 106.372" stroke="#1A2E35" stroke-width="0.5" stroke-linecap="round" stroke-linejoin="round"/>
<path d="M327.942 106.602C327.942 106.602 326.605 108.465 325.404 108.465C324.202 108.465 324.135 107.533 324.135 107.533" stroke="#1A2E35" stroke-width="0.5" stroke-linecap="round" stroke-linejoin="round"/>
<path d="M351.809 79.5763C351.809 79.5763 352.956 74.6601 341.509 73.9984C332.559 73.4851 324.392 74.282 321.381 80.0625C318.357 85.8565 318.681 91.0562 322.988 91.7315C322.988 91.7315 323.622 85.4783 329.886 81.0619C329.886 81.0619 327.388 87.5447 331.155 90.7321C332.113 91.5425 333.058 92.0692 333.936 92.4068C334.233 92.9876 334.557 93.5143 334.921 93.933C336.744 95.9859 336.811 100.348 336.811 100.348L338.566 99.3488C338.566 99.3488 336.015 92.5959 343.412 94.1896C347.206 95 346.531 99.5919 347.098 102.455C347.692 105.467 349.217 106.102 349.217 106.102C350.432 104.859 352.011 102.509 353.199 99.5109C353.199 99.5109 356.979 96.8232 356.979 92.866C356.979 88.9088 355.926 82.4395 351.809 79.6033V79.5763Z" fill="#1A2E35"/>
<path d="M339.39 94.2437C339.39 94.2437 341.779 90.5566 343.912 90.4621C346.045 90.3675 347.476 97.8093 345.518 100.632C343.561 103.468 341.644 104.468 340.767 103.617C339.876 102.766 340.132 101.483 340.132 101.483" fill="#FFBF9D"/>
<path d="M339.39 94.2437C339.39 94.2437 341.779 90.5566 343.912 90.4621C346.045 90.3675 347.476 97.8093 345.518 100.632C343.561 103.468 341.644 104.468 340.767 103.617C339.876 102.766 340.132 101.483 340.132 101.483" stroke="#1A2E35" stroke-width="0.5" stroke-linecap="round" stroke-linejoin="round"/>
<path d="M311.432 123.389C311.432 123.389 315.589 118.878 318.411 114.138" stroke="#231F20" stroke-width="0.5" stroke-linecap="round" stroke-linejoin="round"/>
<path d="M311.432 114.138C311.432 114.138 313.322 114.651 314.928 117.122" stroke="#231F20" stroke-width="0.5" stroke-linecap="round" stroke-linejoin="round"/>
<path d="M305.776 107.533L297.19 103.914L294.274 99.4839C294.274 99.4839 286.836 110.154 288.011 124.497L292.803 127.536L299.337 142.405L305.803 107.52L305.776 107.533Z" fill="#BCBEC0" stroke="#1A2E35" stroke-width="0.5" stroke-miterlimit="10"/>
<path d="M336.919 142.432C336.919 142.432 345.558 154.628 341.306 159.788C339.308 162.205 321.718 168.067 321.718 168.067L268.935 164.947L251.372 168.067L249.415 168.229C249.415 168.229 248.106 166.513 249.901 165.284C249.901 165.284 248.943 162.975 249.348 162.475C250.549 160.936 256.003 158.423 256.003 158.423C256.003 158.423 249.698 160.004 252.304 156.614C254.072 154.304 260.809 153.831 263.913 151.792C266.478 150.117 264.237 140.785 269.799 142.46C269.799 142.46 268.22 146.282 268.733 150.387C268.814 151.063 268.962 154.399 268.962 154.399C271.77 157.627 301.982 153.453 304.574 153.372C307.166 153.291 319.828 151.373 319.828 151.373L336.946 142.46L336.919 142.432Z" fill="#FFBF9D" stroke="#1A2E35" stroke-width="0.5" stroke-linecap="round" stroke-linejoin="round"/>
<path d="M260.66 154.628C260.66 154.628 261.281 156.006 261.146 156.681C261.011 157.37 259.162 158.666 259.162 158.666C259.162 158.666 258.959 160.179 259.162 160.652C259.364 161.138 257.177 162.853 257.177 163.461C257.177 164.069 256.219 165.446 256.219 165.446" stroke="#1A2E35" stroke-width="0.5" stroke-linecap="round" stroke-linejoin="round"/>
<path d="M249.901 165.257C250.725 165.879 254.235 162.394 256.206 162.232" stroke="#1A2E35" stroke-width="0.5" stroke-linecap="round" stroke-linejoin="round"/>
<path d="M254.491 165.744C254.491 165.744 252.642 166.973 249.901 167.945" stroke="#1A2E35" stroke-width="0.5" stroke-linecap="round" stroke-linejoin="round"/>
<path d="M335.434 142.23L336.784 139.947C336.784 139.947 340.32 141.46 341.279 139.947C342.237 138.435 352.969 133.478 355.035 133.613" stroke="#231F20" stroke-width="0.5" stroke-linecap="round" stroke-linejoin="round"/>
<path d="M339.781 162.246C339.781 162.246 342.4 164.933 343.089 163.799C343.777 162.664 353.105 162.165 356.993 158.95" stroke="#231F20" stroke-width="0.5" stroke-linecap="round" stroke-linejoin="round"/>
<path d="M337.297 173.104C337.297 173.523 344.168 195.119 346.922 198.158" stroke="#231F20" stroke-width="0.5" stroke-linecap="round" stroke-linejoin="round"/>
<path d="M323.271 175.306C322.447 175.859 306.45 189.203 299.728 189.338" stroke="#1A2E35" stroke-width="0.5" stroke-linecap="round" stroke-linejoin="round"/>
<path d="M311.432 137.922C311.432 138.705 316.17 145.174 318.411 146.957" stroke="#1A2E35" stroke-width="0.5" stroke-linecap="round" stroke-linejoin="round"/>
<path d="M97.02 145.512C97.02 145.512 107.874 151.319 110.276 156.479C112.679 161.638 121.4 188.217 121.4 188.217C121.4 188.217 128.028 199.13 129.567 201.345C131.106 203.56 130.445 212.879 122.804 212.758C115.163 212.636 106.321 205.41 105.997 202.101C105.673 198.793 101.718 196.915 101.421 194.038C101.124 191.162 91.9307 172.375 91.9307 172.375L97.0335 145.512H97.02Z" fill="#BCBEC0" stroke="#1A2E35" stroke-width="0.5" stroke-miterlimit="10"/>
<path d="M109.264 365.468C109.264 365.468 107.631 375.517 109.264 380.217H142.513C142.513 380.217 143.917 376.692 142.513 374.477C141.109 372.262 130.566 370.992 127.286 367.994C124.005 364.996 120.496 359.85 120.496 359.85L109.251 365.468H109.264Z" fill="white" stroke="#1A2E35" stroke-width="0.5" stroke-linecap="round" stroke-linejoin="round"/>
<path d="M143.134 378.448H108.819L108.535 380.217H143.134V378.448Z" fill="white" stroke="#1A2E35" stroke-width="0.5" stroke-linecap="round" stroke-linejoin="round"/>
<path d="M117.256 364.239C117.256 364.239 120.388 364.996 120.739 365.117C121.09 365.239 124.141 369.925 127.178 370.736C130.215 371.559 133.266 371.397 132.794 372.883" stroke="#1A2E35" stroke-width="0.5" stroke-linecap="round" stroke-linejoin="round"/>
<path d="M124.181 364.239L120.617 366.873" stroke="#1A2E35" stroke-width="0.5" stroke-linecap="round" stroke-linejoin="round"/>
<path d="M125.828 366.549L122.399 369.074" stroke="#1A2E35" stroke-width="0.5" stroke-linecap="round" stroke-linejoin="round"/>
<path d="M128.028 368.561L125.045 371.438" stroke="#1A2E35" stroke-width="0.5" stroke-linecap="round" stroke-linejoin="round"/>
<path d="M131.039 370.033L129.743 372.883" stroke="#1A2E35" stroke-width="0.5" stroke-linecap="round" stroke-linejoin="round"/>
<path d="M52.9036 380.217C52.9036 380.217 51.6211 375.328 53.1196 373.504C55.806 370.249 52.7956 367.521 55.4955 366.387L56.6294 367.697C56.8454 366.36 56.2244 362.308 61.2328 361.781C67.2805 361.146 67.402 365.549 67.726 367.008L67.6315 364.982C70.2099 364.982 68.8735 367.562 72.7883 371.775C75.7717 374.99 75.7852 379.123 75.6232 380.217H52.9171H52.9036Z" fill="white" stroke="#1A2E35" stroke-width="0.5" stroke-linecap="round" stroke-linejoin="round"/>
<path d="M30.9674 194.039C28.173 195.673 20.9643 211.029 25.1761 241.512C29.3879 271.994 41.983 331.623 44.1024 340.739C46.2083 349.856 53.6195 371.789 53.6195 371.789C53.6195 371.789 56.4544 362.281 70.0484 367.359C70.5479 367.548 71.0743 367.103 70.9663 366.576L67.983 351.044C67.983 351.044 67.7805 339.672 66.795 336.822C63.1096 326.085 61.2737 284.636 60.0588 278.842C58.8438 273.061 61.2332 256.409 61.2332 256.409C61.2332 256.409 78.2561 297.142 78.796 301.14C79.3495 305.138 89.7306 321.777 89.7306 321.777L91.5126 337.066C91.5126 337.066 105.323 360.741 107.752 367.805L124.195 364.239L123.736 352.543L119.308 351.031L111.573 324.424C111.573 324.424 108.657 312.647 102.569 297.277C98.9103 288.026 88.5292 252.195 88.5292 252.195C85.3028 248.683 82.2654 229.302 82.2654 229.302L77.2841 204.843L30.9944 194.039H30.9674Z" fill="#F1F2F2"/>
<mask id="mask2_2125_6394" style="mask-type:luminance" maskUnits="userSpaceOnUse" x="23" y="194" width="102" height="178">
<path d="M30.9674 194.039C28.173 195.673 20.9643 211.029 25.1761 241.512C29.3879 271.994 41.983 331.623 44.1024 340.739C46.2083 349.856 53.6195 371.789 53.6195 371.789C53.6195 371.789 56.4544 362.281 70.0484 367.359C70.5479 367.548 71.0743 367.103 70.9663 366.576L67.983 351.044C67.983 351.044 67.7805 339.672 66.795 336.822C63.1096 326.085 61.2737 284.636 60.0588 278.842C58.8438 273.061 61.2332 256.409 61.2332 256.409C61.2332 256.409 78.2561 297.142 78.796 301.14C79.3495 305.138 89.7306 321.777 89.7306 321.777L91.5126 337.066C91.5126 337.066 105.323 360.741 107.752 367.805L124.195 364.239L123.736 352.543L119.308 351.031L111.573 324.424C111.573 324.424 108.657 312.647 102.569 297.277C98.9103 288.026 88.5292 252.195 88.5292 252.195C85.3028 248.683 82.2654 229.302 82.2654 229.302L77.2841 204.843L30.9944 194.039H30.9674Z" fill="white"/>
</mask>
<g mask="url(#mask2_2125_6394)">
<path opacity="0.2" d="M79.6462 216.58C71.3171 221.037 53.0928 229.599 44.8311 224.265C37.8924 219.781 30.0492 212.569 25.2568 207.909C26.8633 199.441 29.5092 194.889 30.9671 194.039L77.2568 204.857L79.6462 216.593V216.58Z" fill="black"/>
<path opacity="0.2" d="M124.181 364.253L107.725 367.805C105.295 360.741 91.4985 337.066 91.4985 337.066L89.703 321.777C89.703 321.777 79.3355 305.138 78.782 301.14C78.2285 297.142 61.2191 256.409 61.2191 256.409C61.2191 256.409 60.8142 259.258 60.4092 263.027C60.5307 261.082 61.4081 247.954 60.9222 243.916L61.3406 241.471C61.3406 241.471 72.5452 233.368 74.0437 236.461C75.5286 239.553 68.1714 242.727 68.1714 242.727C68.1714 242.727 74.9886 244.78 78.296 244.915C81.5899 245.05 77.54 253.127 75.9876 254.045C74.4351 254.964 68.4279 254.045 68.4279 254.045C68.4279 254.045 81.3199 285.905 93.2804 296.994C97.0603 300.505 101.191 302.599 105.052 303.855C109.439 315.888 111.545 324.424 111.545 324.424L119.28 351.031L123.708 352.557L124.167 364.253H124.181Z" fill="black"/>
</g>
<path d="M30.9674 194.039C28.173 195.673 20.9643 211.029 25.1761 241.512C29.3879 271.994 41.983 331.623 44.1024 340.739C46.2083 349.856 53.6195 371.789 53.6195 371.789C53.6195 371.789 56.4544 362.281 70.0484 367.359C70.5479 367.548 71.0743 367.103 70.9663 366.576L67.983 351.044C67.983 351.044 67.7805 339.672 66.795 336.822C63.1096 326.085 61.2737 284.636 60.0588 278.842C58.8438 273.061 61.2332 256.409 61.2332 256.409C61.2332 256.409 78.2561 297.142 78.796 301.14C79.3495 305.138 89.7306 321.777 89.7306 321.777L91.5126 337.066C91.5126 337.066 105.323 360.741 107.752 367.805L124.195 364.239L123.736 352.543L119.308 351.031L111.573 324.424C111.573 324.424 108.657 312.647 102.569 297.277C98.9103 288.026 88.5292 252.195 88.5292 252.195C85.3028 248.683 82.2654 229.302 82.2654 229.302L77.2841 204.843L30.9944 194.039H30.9674Z" stroke="#1A2E35" stroke-width="0.5" stroke-linecap="round" stroke-linejoin="round"/>
<path d="M98.6403 172.794C92.957 184.071 84.0608 198.158 84.0608 198.158L80.1325 213.865C80.1325 213.865 65.364 222.982 48.4222 219.159C28.5509 214.675 25.3516 204.506 25.3516 204.506L30.6839 186.826C33.2623 175.009 38.8645 152.454 50.5011 146.079C62.1376 139.705 82.1034 139.151 90.1491 141.744C97.3173 144.04 101.286 145.796 103.23 147.916C103.23 147.916 106.132 157.87 105.498 161.179C104.891 164.366 98.6267 172.794 98.6267 172.794H98.6403Z" fill="#BCBEC0" stroke="#1A2E35" stroke-width="0.5" stroke-miterlimit="10"/>
<path d="M75.6234 378.447H52.4043L52.9038 380.217H75.6099L75.6234 378.447Z" fill="white" stroke="#1A2E35" stroke-width="0.5" stroke-linecap="round" stroke-linejoin="round"/>
<path d="M68.1721 371.573C68.1721 371.573 60.5449 369.047 56.873 372.208" stroke="#1A2E35" stroke-width="0.5" stroke-linecap="round" stroke-linejoin="round"/>
<path d="M68.1721 369.912C68.1721 369.912 61.4629 367.791 56.873 370.628" stroke="#1A2E35" stroke-width="0.5" stroke-linecap="round" stroke-linejoin="round"/>
<path d="M67.7806 368.264C67.7806 368.264 61.4764 365.887 56.873 369.142" stroke="#1A2E35" stroke-width="0.5" stroke-linecap="round" stroke-linejoin="round"/>
<g opacity="0.96">
<path d="M66.7812 239.377C65.8767 239.58 48.3274 245.982 44.8311 252.384" stroke="#1A2E35" stroke-width="0.5" stroke-linecap="round" stroke-linejoin="round"/>
<path d="M62.5156 248.669C63.3931 249.912 70.8448 273.237 74.0307 279.638C77.2166 286.04 87.9487 314.727 90.4191 316.388C90.4191 316.388 93.7264 333.108 95.7783 335.796C97.8438 338.483 108.522 359.863 108.522 359.863" stroke="#1A2E35" stroke-width="0.5" stroke-linecap="round" stroke-linejoin="round"/>
<path d="M120.496 359.85L107.55 362.618" stroke="#1A2E35" stroke-width="0.5" stroke-linecap="round" stroke-linejoin="round"/>
<path d="M67.78 361.227C67.78 361.227 57.4124 360.295 53.916 364.239" stroke="#1A2E35" stroke-width="0.5" stroke-linecap="round" stroke-linejoin="round"/>
<path d="M55.8059 251.344C54.942 256.3 41.942 283.758 38.8506 280.651" stroke="#1A2E35" stroke-width="0.5" stroke-linecap="round" stroke-linejoin="round"/>
<path d="M60.8418 253.829C60.8418 253.829 62.3672 247.022 60.9228 243.916C60.3693 242.727 72.0599 246.806 75.9882 245.874" stroke="#1A2E35" stroke-width="0.5" stroke-linecap="round" stroke-linejoin="round"/>
<path d="M62.5157 220.091C62.5157 220.091 60.4637 225.953 59.9778 227.816C59.4783 229.68 63.7036 236.906 62.5157 238.351" stroke="#1A2E35" stroke-width="0.5" stroke-linecap="round" stroke-linejoin="round"/>
<path d="M34.0987 214.608C34.0987 214.608 31.2098 219.038 31.2098 222.292C31.2098 225.547 27.2949 226.993 27.2949 226.993" stroke="#1A2E35" stroke-width="0.5" stroke-linecap="round" stroke-linejoin="round"/>
<path d="M27.9432 209.773C27.9432 209.773 24.4064 223.076 27.2953 239.378C30.1841 255.679 34.936 288.917 36.7854 297.385C38.6348 305.853 42.9816 324.843 42.9816 327.53C42.9816 330.218 47.342 345.493 47.342 345.493" stroke="#1A2E35" stroke-width="0.5" stroke-linecap="round" stroke-linejoin="round"/>
<path d="M46.2754 322.357C46.8964 322.357 58.4384 333.5 61.3408 333.716" stroke="#1A2E35" stroke-width="0.5" stroke-linecap="round" stroke-linejoin="round"/>
<path d="M96.8311 315.551C97.452 315.753 107.145 320.507 107.563 319.062" stroke="#1A2E35" stroke-width="0.5" stroke-linecap="round" stroke-linejoin="round"/>
</g>
<path d="M84.884 139.853C84.884 139.853 73.0989 141.041 72.6805 147.592C72.262 154.142 77.7698 161.57 86.9899 161.989C96.2101 162.408 97.3305 153.359 97.668 148.456C97.992 143.554 91.3097 139.488 84.884 139.866V139.853Z" fill="#FFBF9D" stroke="#1A2E35" stroke-width="0.5" stroke-linecap="round" stroke-linejoin="round"/>
<path d="M81.1315 143.837C79.4305 139.056 78.8096 133.438 80.281 127.239C81.9144 120.351 90.1086 110.896 102.515 119.5C108.913 123.93 109.305 133.546 107.307 142.352C106.834 144.459 107.185 146.511 106.497 148.443C104.04 155.223 99.5583 160.436 97.1014 160.557C92.9975 160.76 84.8033 155.803 85.1543 151.482" fill="#FFBF9D"/>
<path d="M81.1315 143.837C79.4305 139.056 78.8096 133.438 80.281 127.239C81.9144 120.351 90.1086 110.896 102.515 119.5C108.913 123.93 109.305 133.546 107.307 142.352C106.834 144.459 107.185 146.511 106.497 148.443C104.04 155.223 99.5583 160.436 97.1014 160.557C92.9975 160.76 84.8033 155.803 85.1543 151.482" stroke="#1A2E35" stroke-width="0.5" stroke-linecap="round" stroke-linejoin="round"/>
<path d="M97.669 139.448C97.669 139.448 94.3617 138.327 91.1758 140.285" stroke="#1A2E35" stroke-width="0.5" stroke-linecap="round" stroke-linejoin="round"/>
<path d="M103.919 139.245C103.919 139.245 106.416 137.989 108.05 138.313" stroke="#1A2E35" stroke-width="0.5" stroke-linecap="round" stroke-linejoin="round"/>
<path d="M93.6865 145.512C94.0668 145.512 94.375 145.016 94.375 144.405C94.375 143.793 94.0668 143.297 93.6865 143.297C93.3063 143.297 92.998 143.793 92.998 144.405C92.998 145.016 93.3063 145.512 93.6865 145.512Z" fill="#1A2E35"/>
<path d="M103.919 144.891C104.299 144.891 104.607 144.395 104.607 143.783C104.607 143.172 104.299 142.676 103.919 142.676C103.539 142.676 103.23 143.172 103.23 143.783C103.23 144.395 103.539 144.891 103.919 144.891Z" fill="#1A2E35"/>
<path d="M89.704 131.047L89.3801 136.112C89.3801 136.112 85.7892 137.962 84.8847 139.853C83.9803 141.744 84.3178 143.783 84.3178 143.783C84.3178 143.783 82.1308 139.975 80.9699 140.285C80.5514 140.393 80.5514 141.987 80.5514 141.987C80.5514 141.987 75.6646 131.034 80.0789 125.226C84.4933 119.419 89.7176 131.034 89.7176 131.034L89.704 131.047Z" fill="#1A2E35"/>
<path d="M82.7787 142.689C82.7787 142.689 81.7933 139.016 78.4859 138.03C75.1785 137.044 77.4464 145.863 80.2678 147.038C83.0892 148.213 83.7912 148.996 83.9667 147.956" fill="#FFBF9D"/>
<path d="M82.7787 142.689C82.7787 142.689 81.7933 139.016 78.4859 138.03C75.1785 137.044 77.4464 145.863 80.2678 147.038C83.0892 148.213 83.7912 148.996 83.9667 147.956" stroke="#1A2E35" stroke-width="0.5" stroke-linecap="round" stroke-linejoin="round"/>
<path d="M101.503 144.405C101.503 144.405 101.233 146.633 102.259 147.943C103.285 149.253 101.989 151.171 100.193 150.698" stroke="#1A2E35" stroke-width="0.5" stroke-linecap="round" stroke-linejoin="round"/>
<path d="M100.206 153.791C100.206 153.791 97.0476 154.682 94.4287 153.791" stroke="#1A2E35" stroke-width="0.5" stroke-linecap="round" stroke-linejoin="round"/>
<path d="M89.7037 131.047C89.7037 131.047 98.1408 133.073 103.23 132.398C108.319 131.722 111.573 129.372 110.79 123.97C110.007 118.568 103.919 116.083 93.902 114.367C84.0744 112.693 73.7608 120.053 78.4451 129.048C83.1294 138.043 89.6902 131.047 89.6902 131.047H89.7037Z" fill="#1A2E35"/>
<path d="M100.881 211.177C100.881 211.177 101.218 211.691 101.326 212.987C101.434 214.27 96.7906 215.823 95.9671 215.31C95.1436 214.797 93.1862 212.217 95.4541 210.664C97.7221 209.111 100.881 211.177 100.881 211.177Z" fill="#BFBFBF" stroke="#1A2E35" stroke-width="0.5" stroke-linecap="round" stroke-linejoin="round"/>
<path d="M113.085 209.773C113.085 209.773 113.544 212.785 114.273 213.973C114.988 215.162 119.484 214.014 120.726 214.608C121.968 215.202 122.062 213.055 120.726 211.961C119.389 210.867 117.688 208.409 113.085 209.773Z" fill="#BFBFBF" stroke="#1A2E35" stroke-width="0.5" stroke-linecap="round" stroke-linejoin="round"/>
<path d="M110.263 209.125H104.972V292.874H110.263V209.125Z" fill="white" stroke="#1A2E35" stroke-width="0.5" stroke-linecap="round" stroke-linejoin="round"/>
<path d="M103.231 269.752H112.019C113.072 269.752 113.936 270.617 113.936 271.67V380.23H101.327V271.67C101.327 270.617 102.191 269.752 103.244 269.752H103.231Z" fill="#F15A29" stroke="#1A2E35" stroke-width="0.5" stroke-linecap="round" stroke-linejoin="round"/>
<path d="M122.966 203.344H92.2818C90.9589 203.344 89.8789 204.424 89.8789 205.748V207.369C89.8789 208.692 90.9589 209.773 92.2818 209.773H103.608V214.608H111.654V209.773H122.98C124.303 209.773 125.383 208.692 125.383 207.369V205.748C125.383 204.424 124.303 203.344 122.98 203.344H122.966Z" fill="#F15A29" stroke="#1A2E35" stroke-width="0.5" stroke-linecap="round" stroke-linejoin="round"/>
<path d="M79.444 200.724C79.444 200.724 95.7109 198.522 97.3173 198.252C98.9238 197.982 103.919 206.504 103.919 206.504L100.206 212.217C100.206 212.217 86.0183 214.203 85.1813 213.379C84.3443 212.555 83.9664 211.177 83.9664 211.177C83.9664 211.177 76.7171 213.933 75.9882 208.976C75.2592 204.019 74.8272 203.29 79.444 200.724Z" fill="#FFBF9D" stroke="#1A2E35" stroke-width="0.5" stroke-linecap="round" stroke-linejoin="round"/>
<path d="M112.531 203.344C112.531 203.344 115.002 198.928 117.486 198.928C119.969 198.928 129.46 200.575 130.553 201.953C131.66 203.331 134.265 205.532 133.86 207.315C133.455 209.098 130.837 212.839 128.353 212.204C125.869 211.569 119.551 212.272 119.551 212.272C119.551 212.272 116.109 211.637 115.839 209.746L118.728 208.949C118.728 208.949 119.146 204.965 118.593 204.411C118.039 203.857 112.545 203.317 112.545 203.317L112.531 203.344Z" fill="#FFBF9D" stroke="#1A2E35" stroke-width="0.5" stroke-linecap="round" stroke-linejoin="round"/>
<path d="M121.4 212.123C121.4 212.123 124.411 208.841 124.181 207.599C123.952 206.356 123.506 202.507 122.764 202.088" stroke="#1A2E35" stroke-width="0.5" stroke-linecap="round" stroke-linejoin="round"/>
<path d="M125.571 211.961C125.571 211.961 127.812 211.042 127.812 208.976C127.812 206.91 127.245 204.019 127.245 204.019" stroke="#1A2E35" stroke-width="0.5" stroke-linecap="round" stroke-linejoin="round"/>
<path d="M129.567 212.204C132.281 209.125 130.566 205.91 130.566 205.91" stroke="#1A2E35" stroke-width="0.5" stroke-linecap="round" stroke-linejoin="round"/>
<path d="M97.6143 212.285C97.6143 212.285 100.193 208.814 99.7742 207.099C99.3557 205.384 97.6143 202.088 97.6143 202.088" stroke="#1A2E35" stroke-width="0.5" stroke-linecap="round" stroke-linejoin="round"/>
<path d="M94.1047 212.987C94.1047 212.987 95.5492 208.827 95.4412 207.99C95.3332 207.153 93.3757 203.128 93.2812 202.709" stroke="#1A2E35" stroke-width="0.5" stroke-linecap="round" stroke-linejoin="round"/>
<path d="M89.8795 213.406C90.7974 211.893 92.9709 211.299 91.3239 207.99C89.677 204.681 88.8535 204.019 88.8535 204.019" stroke="#1A2E35" stroke-width="0.5" stroke-linecap="round" stroke-linejoin="round"/>
<path d="M83.9668 211.178C84.7093 210.462 86.1537 208.719 86.1537 208.719C86.1537 208.719 86.4642 210.151 87.0852 210.556" stroke="#1A2E35" stroke-width="0.5" stroke-linecap="round" stroke-linejoin="round"/>
<path d="M91.0938 378.002H124.681C125.625 378.002 126.381 378.772 126.381 379.704V380.649H89.7979V379.285C89.7979 378.569 90.3783 377.988 91.0938 377.988V378.002Z" fill="#1A2E35"/>
<path d="M40.3495 162.935C36.2321 173.28 31.3183 185.368 30.6298 196.618C30.3733 200.805 34.3962 202.264 37.7846 203.803C44.3723 206.802 51.5 208.99 58.5873 210.381C61.0982 210.88 63.7711 210.853 66.201 211.461C68.9144 212.136 72.7617 214.527 75.5426 212.987" stroke="#231F20" stroke-width="0.5" stroke-linecap="round" stroke-linejoin="round"/>
<path d="M59.9373 168.445L54.4835 180.195L50.9736 187.231C50.9736 187.231 53.201 189.541 55.8064 189.73C58.4118 189.919 59.9373 192.364 59.9373 192.364C59.9373 192.364 73.6798 198.306 75.5292 198.239C77.3921 198.171 78.8906 196.388 80.4025 198.928" stroke="#231F20" stroke-width="0.5" stroke-linecap="round" stroke-linejoin="round"/>
<path d="M50.9734 187.232C50.9734 187.232 43.5487 184.76 40.8623 187.232" stroke="#231F20" stroke-width="0.5" stroke-linecap="round" stroke-linejoin="round"/>
<path d="M52.2158 150.766C52.8368 150.279 60.3965 158.532 60.842 164.731" stroke="#231F20" stroke-width="0.5" stroke-linecap="round" stroke-linejoin="round"/>
<path d="M62.7315 168.445C62.7315 168.445 60.7066 172.605 57.3857 173.928" stroke="#231F20" stroke-width="0.5" stroke-linecap="round" stroke-linejoin="round"/>
<path d="M104.607 169.269C104.607 169.269 100.409 176.427 96.1162 177.602" stroke="#231F20" stroke-width="0.5" stroke-linecap="round" stroke-linejoin="round"/>
<path d="M105.606 194.039C105.606 194.039 111.425 189.541 115.353 189.73" stroke="#231F20" stroke-width="0.5" stroke-linecap="round" stroke-linejoin="round"/>
<path d="M103.919 175.751C103.919 175.751 100.287 178.709 97.6143 177.602" stroke="#231F20" stroke-width="0.5" stroke-linecap="round" stroke-linejoin="round"/>
<path d="M110.357 372.91C139.665 372.91 134.926 380.217 164.801 380.217C194.675 380.217 212.832 380.662 212.832 224.116" stroke="#1A2E35" stroke-width="0.5" stroke-linecap="round" stroke-linejoin="round"/>
</g>
<defs>
<clipPath id="clip0_2125_6394">
<rect width="390" height="381" fill="white"/>
</clipPath>
</defs>
</svg>
