<svg width="530" height="220" viewBox="0 0 530 220" fill="none" xmlns="http://www.w3.org/2000/svg">
<g clip-path="url(#clip0_2125_5936)">
<path d="M173.488 215.528C150.574 203.496 129.733 187.541 112.48 168.242C104.268 159.052 103.587 152.703 101.948 140.602C100.177 127.504 99.674 114.058 102.698 101.092C106.92 82.974 119.255 65.7135 137.118 60.4156C155.616 54.9247 175.089 62.9256 193.146 69.7216C211.203 76.5177 232.346 82.0009 249.011 72.2779C263.627 63.7519 269.938 46.3369 279.921 32.6907C299.278 6.23233 335.918 -6.19369 367.408 3.01191C398.898 12.2175 423.033 42.4215 425.044 75.1276C426.157 93.2608 421.108 111.155 415.949 128.585C406.26 161.268 394.575 195.874 367.586 216.741" fill="#F1F2F2"/>
<path d="M333.861 148.247H371.221V219.598H324.883V157.213C324.883 152.263 328.904 148.247 333.861 148.247Z" fill="#455A64" stroke="#1A2E35" stroke-width="0.5" stroke-miterlimit="10"/>
<path d="M382.109 96.1719L377.144 143.513C376.301 151.56 376.704 163.561 389.51 164.318C400.669 164.133 404.567 153.962 405.348 146.447C405.719 142.887 406.036 139.914 406.098 139.551C406.098 139.551 418.285 139.682 420.404 127.843C421.433 122.121 422.585 110.173 423.498 99.346C424.48 87.7231 416.344 77.2896 404.822 75.3743L403.677 75.1813C391.203 73.8452 383.099 83.6841 382.109 96.1796V96.1719Z" fill="#FFBF9D" stroke="#1A2E35" stroke-width="0.5" stroke-miterlimit="10"/>
<path d="M406.09 139.544C406.09 139.544 398.526 138.74 391.389 132.408C391.389 132.408 393.716 141.698 405.749 142.602L406.097 139.544H406.09Z" fill="#FF9A6C"/>
<path d="M402.625 102.342C402.362 102.559 401.086 101.323 399.091 101.091C397.103 100.821 395.51 101.694 395.325 101.416C395.232 101.292 395.518 100.875 396.214 100.473C396.902 100.08 398.024 99.7475 399.269 99.902C400.514 100.064 401.503 100.659 402.045 101.207C402.602 101.763 402.756 102.234 402.625 102.335V102.342Z" fill="#263238"/>
<path d="M402.424 106.93C402.316 107.779 401.496 108.389 400.607 108.289C399.718 108.189 399.083 107.424 399.192 106.567C399.3 105.717 400.12 105.107 401.009 105.208C401.898 105.308 402.532 106.08 402.424 106.93Z" fill="#263238"/>
<path d="M406.353 116.707C406.36 116.599 407.528 116.591 409.407 116.668C409.879 116.699 410.335 116.676 410.467 116.375C410.629 116.058 410.521 115.526 410.389 114.946C410.142 113.749 409.879 112.49 409.6 111.17C408.526 105.802 407.83 101.424 408.046 101.385C408.263 101.346 409.307 105.656 410.382 111.023C410.637 112.344 410.876 113.603 411.108 114.807C411.194 115.363 411.402 116.02 411.047 116.676C410.861 117.001 410.482 117.201 410.165 117.232C409.848 117.271 409.585 117.232 409.353 117.209C407.489 117.001 406.337 116.815 406.345 116.715L406.353 116.707Z" fill="#263238"/>
<path d="M402.463 94.7511C402.231 95.1758 400.661 94.697 398.728 94.6198C396.802 94.5039 395.186 94.8206 395 94.3726C394.923 94.1564 395.255 93.778 395.944 93.4459C396.624 93.1138 397.668 92.859 398.828 92.913C399.98 92.9748 400.994 93.3301 401.628 93.7316C402.27 94.1332 402.563 94.5503 402.455 94.7511H402.463Z" fill="#263238"/>
<path d="M421.13 100.203C420.891 100.543 419.359 100.003 417.473 99.771C415.586 99.5007 413.993 99.632 413.83 99.2381C413.761 99.0528 414.101 98.7516 414.789 98.5276C415.47 98.3037 416.498 98.1724 417.635 98.3268C418.764 98.4813 419.738 98.8674 420.357 99.269C420.976 99.6706 421.246 100.041 421.138 100.211L421.13 100.203Z" fill="#263238"/>
<path d="M381.614 105.115C381.429 104.991 373.858 101.346 372.767 109.502C371.677 117.657 380.098 117.07 380.145 116.838C380.191 116.607 381.622 105.123 381.622 105.123L381.614 105.115Z" fill="#FFBF9D" stroke="#1A2E35" stroke-width="0.5" stroke-miterlimit="10"/>
<path d="M378.056 113.409C378.056 113.409 377.902 113.486 377.646 113.571C377.399 113.649 376.981 113.664 376.579 113.448C375.759 113.015 375.218 111.556 375.373 110.081C375.45 109.339 375.705 108.652 376.046 108.104C376.378 107.54 376.819 107.177 377.26 107.154C377.708 107.115 377.979 107.409 378.049 107.656C378.126 107.895 378.049 108.057 378.095 108.073C378.118 108.096 378.288 107.957 378.265 107.617C378.25 107.447 378.18 107.246 378.01 107.061C377.832 106.876 377.561 106.76 377.252 106.752C376.618 106.713 375.976 107.215 375.597 107.818C375.187 108.42 374.886 109.185 374.801 110.027C374.63 111.679 375.272 113.324 376.401 113.826C376.958 114.05 377.461 113.942 377.731 113.788C378.01 113.618 378.079 113.44 378.056 113.425V113.409Z" fill="#FF9A6C"/>
<path d="M403.893 122.198C404.001 121.997 402.439 121.372 401.449 119.765C400.955 118.97 400.699 118.136 400.514 117.526C400.328 116.908 400.181 116.522 400.088 116.537C400.003 116.553 399.988 116.962 400.058 117.618C400.135 118.267 400.328 119.209 400.893 120.113C401.442 121.016 402.238 121.603 402.841 121.904C403.445 122.213 403.862 122.267 403.893 122.206V122.198Z" fill="#263238"/>
<path d="M371.947 90.8664C373.919 88.1403 374.638 84.7345 375.868 81.5991C377.098 78.4636 379.201 75.2972 382.472 74.4632L382.542 74.5018C385.488 73.6214 388.991 73.9303 391.133 76.1159C392.108 71.9146 396.145 68.895 400.406 68.1845C404.659 67.4817 411.271 68.7406 415.107 70.7099C418.076 72.2313 420.821 75.0424 424.093 79.1046C425.477 80.8191 426.722 82.6339 427.805 84.5492L430.388 96.0253L426.753 101.586C426.529 101.964 426.304 102.343 426.034 102.721V102.69L422.105 114.753C422.237 111.378 423.567 99.7168 423.698 96.3419C418.525 95.6391 414.024 93.1138 410.9 88.9435C409.252 86.7425 408.038 84.0626 405.695 82.6185C402.671 80.765 398.789 81.5527 395.348 82.4022L395.503 82.2864C393.693 82.9274 392.007 83.9236 390.569 85.1979C390.708 91.8781 389.393 98.5893 386.725 104.721C386.323 105.648 385.287 107.532 384.32 107.803C382.418 108.343 382.093 106.428 381.08 105.331C380.33 104.528 379.131 104.32 377.809 104.204C377.221 102.088 376.742 98.5815 376.347 95.5079C375.203 95.7395 374.012 95.7241 372.883 95.4229C373.316 94.612 373.741 93.8011 374.174 92.9902C373.687 93.2374 373.184 93.4922 372.643 93.5231C372.102 93.554 371.499 93.2914 371.305 92.7894C371.05 92.133 371.545 91.4457 371.955 90.8742L371.947 90.8664Z" fill="#263238" stroke="#1A2E35" stroke-width="0.5" stroke-miterlimit="10"/>
<path d="M394.76 77.8228C394.76 77.8228 394.234 78.0931 393.461 78.8036C392.695 79.5141 391.798 80.7961 391.257 82.5955C390.986 83.4913 390.769 84.503 390.669 85.5997C390.561 86.6963 390.545 87.8856 390.514 89.129C390.483 90.3801 390.445 91.693 390.244 93.0522C390.143 93.7318 389.996 94.4114 389.787 95.091C389.571 95.7552 389.323 96.4811 388.759 97.014C388.303 97.4542 387.599 97.6009 387.019 97.4233C386.431 97.2611 385.928 96.8982 385.58 96.4271C384.892 95.4617 384.807 94.3033 384.707 93.2839L384.954 93.3379C384.459 94.2029 383.956 95.0524 383.268 95.7011C382.588 96.3576 381.698 96.7514 380.825 96.7514C380.391 96.7514 379.966 96.6433 379.61 96.4193C379.255 96.2031 379.007 95.8633 378.853 95.5158C378.706 95.1605 378.644 94.7898 378.698 94.4346C378.752 94.0793 378.922 93.755 379.17 93.5387L379.286 93.6623C378.265 94.6276 377.244 95.0987 376.54 95.3459C376.185 95.4694 375.906 95.5389 375.713 95.5776C375.519 95.6162 375.419 95.6316 375.419 95.6239C375.419 95.6162 375.512 95.5853 375.697 95.5312C375.883 95.4772 376.154 95.3922 376.502 95.2532C377.182 94.9829 378.18 94.4886 379.162 93.531L379.278 93.6546C378.837 94.0407 378.744 94.7898 379.038 95.4231C379.185 95.732 379.409 96.0332 379.726 96.2185C380.043 96.4116 380.43 96.5043 380.825 96.5043C381.621 96.5043 382.456 96.1259 383.09 95.5003C383.74 94.8748 384.227 94.0484 384.714 93.1835L384.923 92.8128L384.962 93.2298C385.062 94.2492 385.163 95.3613 385.789 96.234C386.099 96.651 386.563 96.9831 387.073 97.1221C387.583 97.2689 388.156 97.153 388.55 96.7746C389.045 96.3112 389.292 95.6316 389.501 94.9752C389.71 94.311 389.849 93.6469 389.958 92.975C390.166 91.6389 390.205 90.3338 390.244 89.0904C390.282 87.847 390.313 86.6577 390.429 85.5456C390.545 84.4335 390.769 83.4141 391.056 82.5028C391.628 80.6802 392.571 79.3905 393.368 78.6877C394.172 77.985 394.744 77.7842 394.744 77.7842L394.76 77.8228Z" fill="#455A64"/>
<path d="M430.658 92.8359C430.658 92.8359 430.627 92.8668 430.558 92.9054C430.473 92.9594 430.364 93.0212 430.241 93.0984C430.101 93.1834 429.923 93.2838 429.707 93.3765C429.49 93.4769 429.243 93.6004 428.941 93.6931C427.781 94.1179 425.956 94.4731 423.745 94.141C421.548 93.8167 418.981 92.7895 416.777 90.8202C414.55 88.8895 412.686 86.1711 411.24 83.1206C410.505 81.5992 409.933 80.0469 409.276 78.6104C408.626 77.1663 407.884 75.8225 406.94 74.7336C406.004 73.6369 404.883 72.7797 403.692 72.3318C403.097 72.0924 402.486 71.9997 401.898 71.9534C401.303 71.9302 400.738 71.9997 400.205 72.1155C399.145 72.3627 398.256 72.8569 397.575 73.3821C396.887 73.915 396.407 74.4942 396.067 75.0039C395.425 76.0542 395.325 76.7492 395.286 76.7338C395.286 76.7338 395.286 76.6874 395.309 76.6102C395.333 76.5098 395.363 76.394 395.402 76.2473C395.487 75.9306 395.673 75.4827 395.982 74.9421C396.315 74.4169 396.794 73.8068 397.49 73.2508C398.178 72.7025 399.083 72.185 400.174 71.9148C400.715 71.7835 401.303 71.7062 401.921 71.7217C402.532 71.7603 403.174 71.853 403.793 72.1001C405.038 72.5635 406.198 73.4361 407.157 74.556C408.131 75.6758 408.889 77.0427 409.546 78.4869C410.211 79.9388 410.784 81.4833 411.511 82.9893C412.949 86.0166 414.782 88.7042 416.963 90.6194C419.12 92.5733 421.633 93.5927 423.791 93.9402C425.964 94.2955 427.766 93.9711 428.926 93.585C430.094 93.1911 430.666 92.7973 430.681 92.8359H430.658Z" fill="#455A64"/>
<path d="M420.799 104.775C420.536 104.991 419.26 103.756 417.265 103.524C415.277 103.254 413.684 104.126 413.498 103.856C413.406 103.732 413.692 103.315 414.388 102.914C415.076 102.52 416.197 102.188 417.442 102.342C418.687 102.505 419.677 103.099 420.219 103.648C420.775 104.204 420.93 104.675 420.799 104.775Z" fill="#263238"/>
<path d="M419.105 108.475C418.997 109.324 418.185 109.934 417.288 109.834C416.398 109.734 415.764 108.969 415.872 108.112C415.981 107.262 416.8 106.652 417.69 106.753C418.579 106.853 419.213 107.625 419.105 108.475Z" fill="#263238"/>
<path d="M426.931 83.082C427.804 84.5262 429.243 85.9163 430.929 85.9086C431.431 85.9086 432.761 85.5765 432.761 85.5765C433.311 85.9935 432.963 87.9783 432.499 88.4803C432.035 88.99 431.107 89.6464 431.107 89.6464C432.955 90.9052 434.803 90.5732 436.968 90.0326C436.226 93.5542 433.457 96.5661 430.008 97.6087C428.91 97.9407 427.603 98.0489 426.706 97.3306C425.918 96.6974 425.678 95.6162 425.531 94.6122C424.966 90.9361 424.858 87.1983 425.214 83.4991L426.915 83.0897L426.931 83.082Z" fill="#263238"/>
<path d="M404.829 150.641C404.829 150.641 412.369 153.707 416.669 164.133C419.693 171.462 436.474 194.592 436.474 194.592L481.103 204.485L482.626 218.702L411.24 218.115L401.318 186.568L404.822 150.641H404.829Z" fill="#F15A29" stroke="#1A2E35" stroke-width="0.5" stroke-miterlimit="10"/>
<path d="M397.112 219.598L408.379 158.395L406.013 150.046L407.59 142.988C407.59 142.988 389.819 135.86 376.874 130.755L374.786 137.505L366.859 140.825C359.528 143.899 350.147 150.958 347.008 158.248C339.452 175.787 330.706 188.205 330.706 219.374" fill="#F15A29"/>
<path d="M397.112 219.598L408.379 158.395L406.013 150.046L407.59 142.988C407.59 142.988 389.819 135.86 376.874 130.755L374.786 137.505L366.859 140.825C359.528 143.899 350.147 150.958 347.008 158.248C339.452 175.787 330.706 188.205 330.706 219.374" stroke="#1A2E35" stroke-width="0.5" stroke-miterlimit="10"/>
<path d="M480.252 205.188C480.639 204.608 485.635 198.847 486.988 198.847C488.341 198.847 489.873 200.384 489.873 200.384C489.873 200.384 491.605 199.619 492.757 199.998C493.909 200.384 499.3 204.995 499.3 206.724V209.605C499.3 209.605 499.493 210.563 499.3 211.906C499.106 213.25 495.835 215.559 495.835 215.559H477.376C477.376 215.559 473.849 213.188 474.29 210.949C474.731 208.717 480.252 205.188 480.252 205.188Z" fill="#FFBF9D" stroke="#1A2E35" stroke-width="0.5" stroke-miterlimit="10"/>
<path d="M489.865 200.384C489.865 200.384 490.29 200.592 491.017 201.04C491.806 201.534 492.834 202.183 494.072 202.963C494.389 203.179 494.737 203.349 495.077 203.651C495.409 203.944 495.672 204.346 495.819 204.801C495.982 205.272 495.951 205.759 495.989 206.222C496.013 206.701 496.044 207.188 496.067 207.69C496.167 209.705 496.268 211.914 496.384 214.223C496.399 214.578 496.415 214.926 496.43 215.273V215.459L496.26 215.505C495.881 215.598 495.502 215.69 495.131 215.783H495.1H495.069C494.536 215.775 494.017 215.559 493.623 215.242C493.229 214.926 492.927 214.532 492.687 214.123C492.216 213.312 491.937 212.455 491.721 211.644C491.303 210.006 491.148 208.5 491.087 207.211L491.187 207.35C489.88 206.832 488.797 206.408 487.962 206.076C487.204 205.767 486.795 205.581 486.81 205.558C486.818 205.527 487.251 205.658 488.024 205.921C488.867 206.215 489.973 206.601 491.303 207.064L491.396 207.095V207.203C491.496 208.462 491.69 209.96 492.115 211.543C492.332 212.331 492.618 213.157 493.066 213.906C493.499 214.648 494.195 215.335 495.085 215.343H495.03C495.402 215.258 495.781 215.165 496.16 215.065L495.989 215.289C495.974 214.941 495.958 214.594 495.943 214.239C495.842 211.922 495.75 209.721 495.665 207.705C495.641 207.203 495.626 206.716 495.61 206.238C495.58 205.751 495.61 205.295 495.479 204.909C495.355 204.515 495.131 204.16 494.853 203.898C494.574 203.643 494.211 203.442 493.901 203.218C492.695 202.392 491.697 201.704 490.924 201.179C490.228 200.693 489.849 200.407 489.865 200.384Z" fill="#FF9A6C"/>
<path d="M477.376 214.903C477.376 214.903 477.817 214.81 478.613 214.733C479.51 214.664 480.632 214.571 481.977 214.463H482.001H482.031C483.122 214.718 484.413 214.965 485.828 215.15C486.54 215.235 487.282 215.312 488.048 215.328C488.79 215.343 489.633 215.305 490.074 214.749C490.321 214.455 490.391 214.038 490.391 213.621C490.399 213.196 490.329 212.787 490.321 212.324C490.306 211.999 490.082 211.652 489.819 211.382C489.556 211.103 489.231 210.88 488.906 210.694C487.561 209.937 486.138 209.922 484.947 209.991C483.725 210.022 482.72 209.536 482.333 208.941C481.931 208.37 481.97 207.945 481.985 207.953C482.024 207.937 482.055 208.339 482.464 208.833C482.867 209.343 483.779 209.737 484.939 209.675C486.091 209.567 487.654 209.536 489.1 210.331C489.455 210.524 489.811 210.764 490.12 211.08C490.422 211.389 490.724 211.775 490.755 212.316C490.762 212.71 490.84 213.158 490.832 213.621C490.832 214.077 490.755 214.602 490.414 215.019C490.113 215.397 489.672 215.59 489.254 215.683C488.837 215.776 488.411 215.768 488.025 215.76C487.236 215.737 486.486 215.66 485.767 215.56C484.328 215.359 483.037 215.081 481.939 214.787H481.993C480.647 214.841 479.518 214.88 478.621 214.911C477.824 214.926 477.376 214.919 477.376 214.888V214.903Z" fill="#FF9A6C"/>
<path d="M495.904 215.274C495.804 215.212 496.569 213.768 497.389 211.93C498.217 210.091 498.975 208.624 499.091 208.678C499.191 208.725 498.627 210.261 497.791 212.115C496.964 213.968 496.005 215.343 495.897 215.274H495.904Z" fill="#FF9A6C"/>
<path d="M356.883 174.142C356.883 174.142 389.417 218.37 394.506 218.37H442.042V200.384L406.09 191.92C406.09 191.92 388.389 155.337 384.476 150.649C380.563 145.961 370.084 139.659 362.258 146.695C354.432 153.73 356.883 174.149 356.883 174.149V174.142Z" fill="#F15A29" stroke="#1A2E35" stroke-width="0.5" stroke-miterlimit="10"/>
<path d="M442.011 202.121L449.798 201.496C449.798 201.496 449.968 198.607 451.67 197.588C453.371 196.569 453.201 194.36 454.222 194.53C455.242 194.7 455.923 194.522 455.923 194.522L462.38 189.101L467.824 185.533L472.078 184.683C472.078 184.683 474.63 185.363 472.078 187.741L469.356 189.27L466.974 191.649L472.41 188.985C472.913 188.738 473.508 188.73 474.019 188.969C475.272 189.556 477.584 190.699 478.195 191.309C479.045 192.159 478.195 193.008 478.195 193.008L480.577 195.047C480.577 195.047 481.087 197.766 478.365 197.086L476.153 196.576L473.261 199.465C473.261 199.465 483.121 197.426 483.801 197.766C484.482 198.105 485.333 199.634 483.801 200.994C482.27 202.353 476.323 202.013 474.962 203.372C473.601 204.732 464.607 212.933 462.403 213.443C460.192 213.953 442.049 218.378 442.049 218.378L442.018 202.129L442.011 202.121Z" fill="#FFBF9D" stroke="#1A2E35" stroke-width="0.5" stroke-miterlimit="10"/>
<path d="M480.43 195.356C480.391 195.395 479.912 195.001 479.092 194.406C478.682 194.113 478.195 193.758 477.646 193.379C477.375 193.194 477.082 193.001 476.772 192.815C476.471 192.645 476.13 192.421 475.86 192.445C475.195 192.483 474.545 192.947 473.957 193.232C473.37 193.549 472.851 193.85 472.418 194.105C471.552 194.615 471.019 194.947 470.98 194.893C470.949 194.846 471.413 194.422 472.248 193.835C472.666 193.541 473.176 193.209 473.756 192.869C474.05 192.7 474.352 192.53 474.684 192.352C475.017 192.182 475.396 192.012 475.844 191.989C475.952 191.981 476.068 191.989 476.2 192.028C476.308 192.066 476.401 192.105 476.494 192.151C476.672 192.244 476.842 192.337 476.996 192.437C477.313 192.638 477.607 192.839 477.878 193.039C478.419 193.441 478.891 193.819 479.278 194.151C480.051 194.808 480.469 195.302 480.422 195.348L480.43 195.356Z" fill="#FF9A6C"/>
<path d="M457.67 193.595C457.748 193.696 456.936 194.398 455.992 195.302C455.056 196.213 454.275 196.962 454.183 196.877C454.097 196.8 454.724 195.92 455.683 194.985C456.649 194.051 457.601 193.502 457.67 193.595Z" fill="#FF9A6C"/>
<path d="M384.475 150.641C384.475 150.641 385.233 151.522 386.354 153.383C387.476 155.236 389.061 158.009 390.971 161.6C394.799 168.774 400.081 179.169 406.26 191.835L406.136 191.734C416.738 194.221 428.957 197.086 442.096 200.168L442.266 200.206V200.376C442.266 206.16 442.266 212.192 442.266 218.363V218.587H442.042H439.884C425.554 218.587 411.905 218.571 399.485 218.571C397.931 218.571 396.4 218.571 394.884 218.571C394.691 218.571 394.521 218.586 394.289 218.548C394.08 218.509 393.879 218.44 393.709 218.355C393.345 218.193 393.028 217.976 392.719 217.76C392.1 217.32 391.536 216.833 390.987 216.331C388.806 214.331 386.896 212.207 385.063 210.145C381.413 205.998 378.18 202.006 375.249 198.337C369.411 190.993 364.84 184.923 361.693 180.722C360.146 178.621 358.932 176.984 358.105 175.864C357.71 175.316 357.401 174.891 357.184 174.59C356.983 174.304 356.883 174.142 356.883 174.142C356.883 174.142 356.999 174.281 357.215 174.559C357.44 174.852 357.757 175.269 358.167 175.81C359.009 176.922 360.239 178.544 361.824 180.621C365.01 184.791 369.612 190.823 375.489 198.144C378.435 201.797 381.683 205.774 385.334 209.906C387.166 211.96 389.084 214.076 391.249 216.046C391.791 216.532 392.348 217.011 392.951 217.436C393.252 217.637 393.554 217.845 393.879 217.992C394.211 218.154 394.49 218.193 394.892 218.177C396.408 218.177 397.939 218.177 399.493 218.177C411.913 218.177 425.562 218.169 439.892 218.162H442.049L441.825 218.386C441.825 212.223 441.825 206.184 441.825 200.399L441.995 200.615C428.864 197.511 416.653 194.623 406.051 192.113L405.966 192.089L405.927 192.012C399.787 179.331 394.559 168.913 390.785 161.716C388.906 158.109 387.352 155.329 386.262 153.46C385.697 152.533 385.279 151.815 384.947 151.367C384.63 150.911 384.475 150.664 384.475 150.664V150.641Z" fill="#263238"/>
<path d="M399.555 200.098C399.454 200.06 400.29 198.021 401.976 195.92C403.654 193.804 405.455 192.538 405.517 192.63C405.602 192.731 403.963 194.136 402.324 196.198C400.669 198.252 399.671 200.16 399.547 200.098H399.555Z" fill="#263238"/>
<path d="M398.457 194.584C398.38 194.499 399.641 193.425 401.543 192.753C403.438 192.066 405.093 192.097 405.085 192.213C405.093 192.344 403.515 192.514 401.69 193.178C399.865 193.819 398.535 194.692 398.457 194.584Z" fill="#263238"/>
<path d="M437.332 218.718L503.931 219.598L525.375 159.553C525.847 158.302 525.267 156.904 524.045 156.356C522.715 155.769 521.161 156.418 520.658 157.777L499.531 214.64L437.324 215.258C436.373 215.266 435.607 216.038 435.607 216.988C435.607 217.938 436.381 218.718 437.332 218.718Z" fill="#E0E0E0" stroke="#1A2E35" stroke-width="0.5" stroke-miterlimit="10"/>
<path d="M216.361 92.9364C216.361 92.9364 214.591 95.3613 214.621 99.7402C214.637 102.08 216.23 106.837 220.398 107.069C219.292 113.773 223.592 118.723 230.738 118.738C237.891 118.746 246.08 106.498 252.7 103.802L271.941 98.7285C273.626 98.3346 274.322 96.2804 274.291 94.5504C274.261 92.8205 273.812 91.0211 274.423 89.3993C275.266 87.1752 277.841 85.9858 278.723 83.7848C279.72 81.2749 278.174 78.487 276.387 76.4636C274.601 74.4325 272.42 72.5095 271.855 69.8683C271.337 67.4433 272.265 64.7017 271.051 62.5394C269.559 59.875 265.646 59.5352 263.828 57.0793C262.947 55.89 262.676 54.3377 261.802 53.1407C260.317 51.1019 257.464 50.5613 254.958 50.8393C252.453 51.1173 250.032 52.0209 247.519 52.2062C244.062 52.4533 240.497 51.3413 237.179 52.3375C233.522 53.4419 231.294 56.6777 228.92 59.8209L225.827 63.4584C225.185 64.0839 224.512 64.6554 223.762 65.1419C222.455 65.9915 220.963 66.5784 219.849 67.6519C217.452 69.961 217.668 74.3862 220.275 76.4482C217.614 77.3054 215.72 80.0856 215.882 82.8658C215.882 82.8658 215.542 86.0476 217.56 87.4609C217.56 87.4609 214.66 89.6387 216.346 92.9441L216.361 92.9364Z" fill="#263238" stroke="#1A2E35" stroke-width="0.5" stroke-miterlimit="10"/>
<path d="M271.461 78.4178C271.136 66.4475 261.663 56.7399 249.692 56.0989L248.501 56.0371C235.633 56.0989 228.495 67.0499 228.912 79.8929L229.021 88.9749C227.636 88.5347 220.909 86.8743 220.746 94.5354C220.561 102.969 229.083 101.409 229.098 101.169C229.098 101.107 229.121 100.181 229.137 98.8679L229.431 124.276L224.922 125.504L225.726 140.401L239.577 149.221L253.009 148.95L261.454 141.266L263.326 133.651L264.331 127.157L258.237 124.909C258.268 122.785 258.291 121.357 258.307 121.357C258.307 121.357 270.742 120.106 271.554 107.795C271.948 101.849 271.755 89.5464 271.461 78.4101V78.4178Z" fill="#FFBF9D" stroke="#1A2E35" stroke-width="0.5" stroke-miterlimit="10"/>
<path d="M258.137 121.364C258.137 121.364 250.342 121.403 242.338 115.765C242.338 115.765 245.771 124.932 258.137 124.476V121.364Z" fill="#7B4B45"/>
<path d="M264.687 88.6269C264.671 89.5537 263.867 90.3105 262.893 90.3105C261.918 90.3105 261.145 89.5614 261.16 88.6269C261.176 87.7002 261.98 86.9434 262.955 86.9434C263.929 86.9434 264.702 87.7002 264.687 88.6269Z" fill="#263238"/>
<path d="M268.383 83.3833C268.151 83.5996 266.875 82.5415 264.972 82.4489C263.078 82.3253 261.639 83.2211 261.446 82.9817C261.353 82.8736 261.593 82.472 262.227 82.0627C264.029 80.8811 261.809 81.1669 265.065 81.3522C266.248 81.4217 267.215 81.9083 267.764 82.3871C268.321 82.8659 268.499 83.2907 268.383 83.3911V83.3833Z" fill="#263238"/>
<path d="M248.083 88.5112C248.068 89.4379 247.264 90.1948 246.289 90.1948C245.315 90.1948 244.541 89.4457 244.557 88.5112C244.572 87.5845 245.377 86.8276 246.351 86.8276C246.413 86.8276 248.114 86.6886 248.083 88.5112Z" fill="#263238"/>
<path d="M249.777 83.1597C249.545 83.3759 248.262 82.3179 246.367 82.2252C244.472 82.1016 243.034 82.9975 242.841 82.7581C242.748 82.65 242.987 82.2484 243.622 81.8391C244.24 81.4297 245.284 81.0591 246.46 81.1286C247.643 81.1981 248.61 81.6846 249.159 82.1634C249.715 82.6422 249.893 83.067 249.777 83.1597Z" fill="#263238"/>
<path d="M255.794 98.0645C255.794 97.9564 256.977 97.8173 258.903 97.6783C259.39 97.6552 259.854 97.5857 259.954 97.2536C260.086 96.9138 259.916 96.3809 259.707 95.8017C259.312 94.6047 258.903 93.3536 258.477 92.0484C256.768 86.7042 255.562 82.3176 255.778 82.2559C255.438 82.3563 257.217 85.4068 259.258 91.809C259.668 93.1296 260.055 94.3807 260.434 95.5854C260.588 96.1415 260.867 96.7825 260.581 97.493C260.434 97.8482 260.063 98.0876 259.745 98.1571C259.428 98.2344 259.158 98.2267 258.918 98.2267C256.992 98.2267 255.802 98.1726 255.802 98.0645H255.794Z" fill="#263238"/>
<path d="M250.148 99.0682C250.458 99.0682 250.349 101.122 252.035 102.675C253.713 104.235 255.917 104.119 255.917 104.405C255.94 104.536 255.407 104.775 254.479 104.752C253.566 104.737 252.259 104.374 251.231 103.424C250.202 102.474 249.808 101.254 249.785 100.412C249.754 99.547 250.009 99.0528 250.148 99.0682Z" fill="#263238"/>
<path d="M249.754 75.1353C249.538 75.6373 247.658 75.2975 245.423 75.4442C243.181 75.5446 241.356 76.1007 241.085 75.6219C240.969 75.3902 241.302 74.9268 242.052 74.4712C242.794 74.0155 243.97 73.5985 245.307 73.5213C246.653 73.444 247.859 73.722 248.656 74.0927C249.452 74.4634 249.847 74.8882 249.746 75.1276L249.754 75.1353Z" fill="#263238"/>
<path d="M267.934 77.0509C267.579 77.4602 266.295 76.9505 264.725 76.8424C262.784 76.6416 261.291 76.1242 261.531 76.5103C261.407 76.2863 261.639 75.8693 262.243 75.4909C262.838 75.1125 263.813 74.8344 264.887 74.9271C265.962 75.0198 266.875 75.46 267.401 75.9311C267.934 76.4022 268.089 76.8578 267.934 77.0586V77.0509Z" fill="#263238"/>
<path d="M226.585 97.9175C226.585 97.9175 226.438 98.0179 226.183 98.126C225.935 98.2341 225.518 98.2959 225.085 98.126C224.203 97.7785 223.476 96.3498 223.469 94.8284C223.469 94.0638 223.639 93.3301 223.925 92.7355C224.195 92.1254 224.605 91.7006 225.054 91.6311C225.502 91.5384 225.812 91.8165 225.912 92.0559C226.02 92.2953 225.966 92.4574 226.005 92.4806C226.028 92.5038 226.191 92.3416 226.129 91.9941C226.098 91.8242 226.005 91.6234 225.812 91.4612C225.611 91.2913 225.317 91.1986 225 91.2295C224.35 91.2604 223.747 91.8473 223.438 92.5038C223.09 93.1602 222.873 93.9788 222.873 94.8438C222.889 96.5428 223.724 98.1492 224.938 98.5353C225.526 98.7052 226.028 98.5353 226.291 98.3422C226.554 98.1414 226.608 97.9484 226.577 97.9329L226.585 97.9175Z" fill="#7B4B45"/>
<path d="M266.009 64.3775C267.386 63.6438 263.341 59.1723 260 57.6046C254.951 55.2414 247.217 53.7277 242.523 54.9866C236.87 56.508 232.153 59.2496 229.253 64.3389C226.361 69.4282 225.216 75.3825 225.309 81.2287C225.332 83.0127 225.494 84.8739 226.43 86.3953C227.582 88.2719 229.833 89.4767 229.701 92.0484C229.655 92.9906 229.91 93.9405 230.544 94.6355C232.068 96.2959 233.978 94.7823 234.867 93.2454C236.77 89.9632 237.025 86.0246 237.234 82.2404C237.381 79.5529 237.527 76.8035 236.801 74.2087C236.406 72.7954 235.757 71.4593 235.439 70.0306C235.122 68.6019 235.184 66.9801 236.089 65.8294C236.236 65.6441 236.476 65.4046 236.785 65.1421C239.206 63.0801 242.562 62.4931 245.547 63.5898C250.28 65.3274 258.369 67.9455 260.511 66.3623C263.589 64.084 264.339 62.5781 264.339 62.5781L265.994 64.3698L266.009 64.3775Z" fill="#263238"/>
<path d="M226.918 62.1843C226.987 62.2461 227.668 61.4429 229.044 60.493C229.732 60.0219 230.583 59.5122 231.604 59.1261C232.617 58.7399 233.808 58.4542 235.037 58.5546C237.543 58.794 239.639 59.9601 240.922 60.9795C242.229 62.0144 242.833 62.8794 242.918 62.8176C242.949 62.7944 242.825 62.5627 242.546 62.1689C242.276 61.775 241.82 61.2421 241.178 60.6706C239.909 59.5354 237.76 58.2457 235.076 57.9908C233.723 57.8827 232.455 58.2148 231.403 58.6473C230.343 59.0797 229.477 59.6512 228.797 60.1764C227.443 61.2421 226.863 62.1611 226.91 62.192L226.918 62.1843Z" fill="#455A64"/>
<path d="M252.646 53.079C252.623 53.1717 253.52 53.3802 254.881 53.9208C256.242 54.4537 258.052 55.3959 259.769 56.8092C261.486 58.2302 262.754 59.8211 263.543 61.049C264.331 62.2769 264.71 63.1187 264.795 63.0801C264.85 63.0569 264.61 62.1611 263.883 60.8405C263.164 59.5276 261.903 57.8363 260.124 56.369C258.346 54.9093 256.436 53.9981 255.013 53.5424C253.582 53.0868 252.646 53.0173 252.639 53.0713L252.646 53.079Z" fill="#455A64"/>
<path d="M186.055 149.993C188.019 145.946 189.906 142.702 191.576 140.138C194.871 135.08 199.913 131.419 205.79 130.153L227.93 124.16C227.93 124.16 229.438 139.072 244.665 139.072C259.892 139.072 260.201 125.264 260.201 125.264L288.08 135.443C288.961 135.783 294.901 137.837 301.814 152.641C308.403 166.743 311.28 173.956 311.28 173.956L284.986 181.015L283.239 205.272L283.803 218.811L203.694 218.633L204.143 203.156L203.779 177.563L202.101 180.722L177.092 170.705C177.092 170.705 179.582 163.33 186.062 150L186.055 149.993Z" fill="#F15A29" stroke="#1A2E35" stroke-width="0.5" stroke-miterlimit="10"/>
<path d="M203.393 164.318C203.277 164.318 203.346 172.891 203.555 183.463C203.764 194.036 204.019 202.6 204.143 202.6C204.259 202.6 204.189 194.028 203.981 183.456C203.772 172.883 203.517 164.318 203.393 164.318Z" fill="#263238" stroke="#1A2E35" stroke-width="0.5" stroke-miterlimit="10"/>
<g opacity="0.3">
<path d="M281.445 166.821C280.2 165.454 278.267 164.998 276.457 164.627C255.841 160.403 234.582 162.187 213.702 164.797C211.111 165.122 208.258 165.67 206.688 167.755C205.559 169.261 206.286 171.269 206.177 173.146C205.628 182.815 206.897 193.109 208.807 202.6L279.945 201.457C282.381 194.098 282.969 181.61 283.008 173.122C283.015 170.898 282.946 168.45 281.445 166.813V166.821Z" fill="black" stroke="#1A2E35" stroke-width="0.5" stroke-miterlimit="10"/>
</g>
<path d="M286.069 155.661C286.069 155.661 286.085 155.785 286.092 156.024C286.092 156.294 286.092 156.642 286.092 157.067C286.092 157.97 286.069 159.275 286.023 160.897C285.945 164.133 285.775 168.597 285.497 173.516C285.226 178.443 284.901 182.9 284.646 186.12C284.507 187.703 284.399 188.993 284.322 189.935C284.275 190.36 284.244 190.7 284.213 190.97C284.182 191.209 284.167 191.333 284.159 191.333C284.151 191.333 284.151 191.209 284.159 190.97C284.175 190.7 284.19 190.352 284.206 189.927C284.26 188.985 284.345 187.688 284.438 186.104C284.631 182.845 284.902 178.405 285.195 173.501C285.466 168.581 285.675 164.118 285.806 160.889C285.876 159.306 285.93 158.009 285.969 157.067C285.992 156.642 286.007 156.294 286.023 156.024C286.038 155.785 286.054 155.661 286.061 155.661H286.069Z" fill="#263238" stroke="#1A2E35" stroke-width="0.5" stroke-miterlimit="10"/>
<path d="M217.606 83.5609C217.606 83.5609 217.893 83.6845 218.426 83.8389C218.952 83.9934 219.764 84.1092 220.738 83.9934C221.721 83.8852 222.857 83.5223 224.017 82.9044C225.193 82.3021 226.391 81.468 227.729 80.6957C229.059 79.9234 230.444 79.3288 231.789 79.1589C233.127 78.9581 234.38 79.267 235.254 79.7999C236.143 80.325 236.677 81.0201 236.916 81.5375C237.04 81.8001 237.11 82.0163 237.141 82.1631C237.172 82.3098 237.187 82.387 237.172 82.3947C237.141 82.4025 237.079 82.0858 236.816 81.5916C236.553 81.105 236.019 80.464 235.153 79.9852C234.295 79.4987 233.112 79.2284 231.828 79.4369C230.536 79.6145 229.199 80.2015 227.876 80.966C226.562 81.7306 225.34 82.5646 224.141 83.1593C222.95 83.7694 221.775 84.1247 220.762 84.2096C219.749 84.3023 218.921 84.1478 218.395 83.9548C218.125 83.8621 217.931 83.7617 217.8 83.6922C217.668 83.615 217.606 83.5763 217.606 83.5686V83.5609Z" fill="#455A64"/>
<path d="M218.133 87.3219C218.141 87.2601 219.192 87.6848 220.94 87.4918C221.806 87.3991 222.819 87.1597 223.917 86.7813C225.015 86.4106 226.191 85.8931 227.459 85.4375C228.727 84.9819 229.996 84.6575 231.187 84.6189C232.37 84.588 233.437 84.8274 234.249 85.2058C235.069 85.5842 235.625 86.0862 235.943 86.4724C236.097 86.6732 236.213 86.8353 236.275 86.9512C236.337 87.067 236.368 87.1288 236.36 87.1365C236.337 87.152 236.198 86.9126 235.857 86.5496C235.525 86.1943 234.96 85.7387 234.164 85.3989C233.367 85.0591 232.339 84.8506 231.194 84.8969C230.05 84.9432 228.812 85.2753 227.56 85.7232C226.299 86.1712 225.124 86.6809 224.002 87.0438C222.889 87.4145 221.845 87.6385 220.963 87.7003C220.074 87.7621 219.355 87.6771 218.867 87.5613C218.628 87.4995 218.442 87.4454 218.318 87.3991C218.195 87.3528 218.133 87.3219 218.141 87.3141L218.133 87.3219Z" fill="#455A64"/>
<path d="M275.506 79.7224C275.506 79.7224 275.467 80.0313 275.228 80.4561C274.98 80.8808 274.532 81.4137 273.905 81.823C273.271 82.2323 272.606 82.4331 272.119 82.4872C271.632 82.5412 271.33 82.4872 271.33 82.4486C271.322 82.3559 272.544 82.3636 273.735 81.5604C274.949 80.7881 275.429 79.6606 275.514 79.707L275.506 79.7224Z" fill="#455A64"/>
<path d="M277.524 84.1479C277.524 84.1479 277.47 84.6036 277.114 85.2446C276.766 85.8779 276.101 86.681 275.158 87.2834C274.214 87.8858 273.209 88.1484 272.482 88.2024C271.755 88.2565 271.314 88.1484 271.314 88.1175C271.314 88.0634 271.763 88.0943 272.451 87.9862C273.147 87.8858 274.083 87.6001 274.988 87.0286C275.885 86.4494 276.542 85.7234 276.921 85.1365C277.308 84.5495 277.47 84.1402 277.517 84.1557L277.524 84.1479Z" fill="#455A64"/>
<path d="M309.006 174.613L319.74 196.136C320.938 198.538 321.503 201.21 321.371 203.89C320.962 212.246 314.064 218.81 305.688 218.81L274.902 217.027L273.557 203.002L296.981 197.364L287.902 180.235L309.006 174.613Z" fill="#FFBF9D" stroke="#1A2E35" stroke-width="0.5" stroke-miterlimit="10"/>
<path d="M296.98 197.357C296.996 197.449 298.048 197.279 299.741 197.287C301.435 197.31 303.786 197.588 306.229 198.43C308.681 199.249 310.722 200.469 312.045 201.511C313.375 202.562 314.001 203.427 314.079 203.365C314.11 203.342 313.97 203.118 313.692 202.716C313.406 202.33 312.934 201.797 312.285 201.218C310.985 200.067 308.921 198.762 306.4 197.92C303.886 197.055 301.458 196.831 299.733 196.901C298.867 196.955 298.171 197.025 297.7 197.14C297.228 197.241 296.973 197.31 296.973 197.349L296.98 197.357Z" fill="#7B4B45"/>
<path d="M170.658 203.573C170.712 203.643 171.54 202.994 172.986 202.168C174.432 201.334 176.551 200.376 179.033 199.812C181.523 199.256 183.843 199.21 185.514 199.341C187.184 199.465 188.205 199.697 188.228 199.612C188.236 199.573 187.988 199.488 187.532 199.357C187.076 199.218 186.403 199.079 185.552 198.971C183.867 198.739 181.469 198.731 178.917 199.303C176.365 199.882 174.208 200.924 172.785 201.859C172.073 202.322 171.517 202.739 171.169 203.056C170.813 203.373 170.627 203.558 170.65 203.589L170.658 203.573Z" fill="#7B4B45" stroke="#1A2E35" stroke-width="0.5" stroke-miterlimit="10"/>
<path d="M279.582 202.183H273.557C273.557 202.183 259.962 197.279 257.163 197.743C254.642 198.168 245.424 204.284 243.622 205.489C243.421 205.62 243.266 205.821 243.181 206.045C242.81 207.041 243.297 208.145 244.279 208.555L244.472 208.632L244.387 208.91C244.287 209.25 244.233 209.636 244.248 210.007C244.318 211.296 246.058 211.69 246.715 210.578L246.367 211.196C246.228 211.443 246.158 211.737 246.174 212.022L246.205 212.586C246.236 213.212 246.653 213.744 247.249 213.938C247.813 214.123 248.432 213.961 248.834 213.521C250.002 212.239 252.531 209.667 254.24 209.381C255.755 209.126 258.292 209.095 259.823 209.103C260.604 209.103 261.292 209.582 261.578 210.308C260.565 210.377 253.497 214.061 250.999 215.374C250.226 215.783 249.646 216.517 249.545 217.382C249.453 218.162 249.847 218.981 251.394 218.618C254.719 217.845 260.697 215.096 260.697 215.096C260.697 215.096 263.782 214.216 265.778 215.621C268.585 217.598 269.876 218.324 272.289 217.529C274.702 216.733 276.48 215.583 276.48 215.583L281.236 215.111C281.236 215.111 285.729 203.89 279.582 202.168V202.183Z" fill="#FFBF9D" stroke="#1A2E35" stroke-width="0.5" stroke-miterlimit="10"/>
<path d="M261.625 204.477C261.617 204.531 260.658 204.222 259.073 204.122C257.495 204.014 255.252 204.199 253.018 205.149C250.783 206.099 249.097 207.597 248.084 208.81C247.055 210.022 246.614 210.926 246.576 210.895C246.56 210.895 246.661 210.663 246.877 210.269C247.094 209.875 247.442 209.327 247.945 208.694C248.934 207.435 250.636 205.89 252.917 204.917C255.198 203.944 257.495 203.79 259.088 203.944C259.892 204.022 260.534 204.145 260.967 204.261C261.4 204.377 261.632 204.462 261.632 204.477H261.625Z" fill="#7B4B45" stroke="#1A2E35" stroke-width="0.5" stroke-miterlimit="10"/>
<path d="M260.187 201.18C260.171 201.241 259.205 200.77 257.526 200.716C255.864 200.647 253.528 201.149 251.34 202.462C249.151 203.79 247.52 205.466 246.36 206.67C245.811 207.257 245.347 207.744 244.991 208.122C244.666 208.462 244.48 208.647 244.473 208.64C244.457 208.632 244.62 208.424 244.921 208.061C245.223 207.698 245.664 207.18 246.228 206.555C247.357 205.319 248.989 203.597 251.216 202.245C253.443 200.902 255.848 200.415 257.542 200.539C258.393 200.593 259.065 200.747 259.514 200.902C259.738 200.963 259.908 201.048 260.024 201.095C260.14 201.141 260.194 201.172 260.194 201.18H260.187Z" fill="#7B4B45" stroke="#1A2E35" stroke-width="0.5" stroke-miterlimit="10"/>
<path d="M240.954 206.477C240.868 206.253 240.722 206.053 240.513 205.921C238.703 204.709 229.485 198.592 226.972 198.175C224.172 197.704 210.577 202.616 210.577 202.616H204.553C204.213 202.708 203.919 202.84 203.641 202.987L189.349 199.859L198.622 179.378L177.502 170.921C177.502 170.921 171.718 187.062 164.456 205.018C164.309 205.381 164.193 205.751 164.108 206.137C163.01 210.987 166.714 219.158 171.694 219.158L213.377 218.749V218.285C214.939 218.363 216.199 217.59 218.357 216.077C220.352 214.671 223.438 215.552 223.438 215.552C223.438 215.552 229.416 218.293 232.741 219.073C234.287 219.436 234.682 218.618 234.597 217.838C234.496 216.973 233.916 216.239 233.143 215.83C230.645 214.509 223.577 210.833 222.564 210.763C222.85 210.037 223.538 209.559 224.319 209.559C225.85 209.559 228.379 209.582 229.903 209.837C231.612 210.122 234.141 212.694 235.308 213.976C235.71 214.416 236.329 214.571 236.894 214.393C237.489 214.2 237.899 213.659 237.938 213.042L237.969 212.486C237.984 212.2 237.914 211.914 237.775 211.659L237.427 211.041C238.092 212.154 239.832 211.76 239.894 210.47C239.917 210.092 239.855 209.713 239.755 209.373L239.67 209.095L239.863 209.018C240.845 208.616 241.333 207.504 240.961 206.508L240.954 206.477Z" fill="#FFBF9D" stroke="#1A2E35" stroke-width="0.5" stroke-miterlimit="10"/>
<path d="M222.51 204.902C222.525 204.956 223.476 204.647 225.062 204.547C226.639 204.439 228.882 204.624 231.117 205.574C233.352 206.524 235.038 208.022 236.051 209.234C237.079 210.447 237.52 211.351 237.559 211.32C237.574 211.32 237.474 211.088 237.257 210.694C237.041 210.3 236.693 209.752 236.19 209.119C235.2 207.86 233.499 206.315 231.217 205.342C228.936 204.369 226.639 204.215 225.046 204.369C224.242 204.446 223.6 204.57 223.167 204.686C222.734 204.802 222.502 204.887 222.502 204.902H222.51Z" fill="#7B4B45" stroke="#1A2E35" stroke-width="0.5" stroke-miterlimit="10"/>
<path d="M223.948 201.604C223.964 201.666 224.93 201.195 226.608 201.141C228.271 201.071 230.607 201.573 232.795 202.886C234.984 204.214 236.615 205.89 237.775 207.095C238.324 207.682 238.788 208.169 239.144 208.547C239.469 208.887 239.654 209.072 239.662 209.064C239.678 209.049 239.515 208.848 239.214 208.485C238.912 208.122 238.471 207.605 237.907 206.979C236.778 205.744 235.146 204.021 232.919 202.67C230.692 201.326 228.287 200.84 226.593 200.955C225.742 201.01 225.069 201.164 224.621 201.318C224.397 201.38 224.227 201.465 224.111 201.511C223.995 201.558 223.94 201.589 223.94 201.596L223.948 201.604Z" fill="#7B4B45" stroke="#1A2E35" stroke-width="0.5" stroke-miterlimit="10"/>
<path d="M214.096 219.182H283.27C285.234 219.182 286.851 217.637 286.936 215.675L289.008 168.126C289.101 166.041 287.431 164.303 285.343 164.303H212.155C210.067 164.303 208.404 166.041 208.489 168.118L210.43 215.668C210.508 217.629 212.132 219.182 214.096 219.182Z" fill="#E0E0E0" stroke="#1A2E35" stroke-width="0.5" stroke-miterlimit="10"/>
<path d="M214.096 219.182C214.096 219.182 214.042 219.182 213.926 219.182C213.81 219.182 213.647 219.166 213.423 219.135C212.99 219.058 212.317 218.865 211.652 218.293C210.995 217.737 210.361 216.726 210.368 215.428C210.314 214.162 210.245 212.702 210.175 211.057C209.897 204.47 209.487 194.947 208.984 183.178C208.86 180.235 208.729 177.154 208.597 173.941C208.528 172.335 208.458 170.698 208.389 169.03C208.373 168.605 208.342 168.203 208.358 167.755C208.389 167.323 208.489 166.883 208.659 166.481C209 165.662 209.649 164.975 210.453 164.573C210.856 164.373 211.296 164.241 211.745 164.187C212.201 164.149 212.634 164.172 213.075 164.164C213.957 164.164 214.846 164.164 215.743 164.164C217.537 164.164 219.354 164.164 221.203 164.164C224.899 164.164 228.696 164.164 232.602 164.164C248.2 164.164 265.344 164.156 283.34 164.149H285.025C285.582 164.133 286.193 164.195 286.734 164.411C287.833 164.821 288.699 165.771 289.024 166.883C289.201 167.431 289.201 168.049 289.163 168.582L289.093 170.234C289.047 171.339 289 172.435 288.946 173.524C288.753 177.895 288.567 182.205 288.382 186.437C288.01 194.901 287.647 203.072 287.307 210.856C287.26 211.829 287.222 212.795 287.175 213.752C287.152 214.231 287.137 214.71 287.113 215.189C287.098 215.66 287.075 216.17 286.92 216.641C286.634 217.591 285.961 218.402 285.11 218.865C284.685 219.097 284.213 219.251 283.734 219.305C283.247 219.351 282.79 219.328 282.326 219.336C278.63 219.336 275.042 219.336 271.577 219.328C264.641 219.328 258.183 219.313 252.283 219.305C240.49 219.282 230.947 219.267 224.342 219.251C221.048 219.236 218.488 219.228 216.748 219.22C215.882 219.22 215.225 219.205 214.776 219.205C214.328 219.205 214.104 219.189 214.104 219.189C214.104 219.189 214.328 219.182 214.776 219.174C215.233 219.174 215.89 219.166 216.748 219.158C218.496 219.158 221.048 219.143 224.342 219.127C230.947 219.112 240.49 219.097 252.283 219.073C258.183 219.073 264.641 219.058 271.577 219.05C275.042 219.05 278.63 219.05 282.326 219.043C282.783 219.043 283.262 219.058 283.695 219.012C284.136 218.958 284.569 218.819 284.964 218.602C285.752 218.17 286.371 217.421 286.634 216.548C286.773 216.116 286.796 215.66 286.812 215.173C286.835 214.695 286.85 214.216 286.874 213.737C286.912 212.779 286.959 211.806 286.997 210.841C287.338 203.056 287.686 194.893 288.057 186.421C288.242 182.189 288.428 177.88 288.621 173.501C288.668 172.404 288.714 171.308 288.768 170.211L288.838 168.558C288.877 167.995 288.877 167.485 288.714 166.968C288.413 165.956 287.624 165.083 286.618 164.712C286.116 164.512 285.59 164.458 285.033 164.473H283.347C265.352 164.473 248.207 164.465 232.609 164.458C228.712 164.458 224.907 164.458 221.21 164.458C219.362 164.458 217.545 164.458 215.751 164.458C214.854 164.458 213.964 164.458 213.083 164.458C212.642 164.458 212.193 164.442 211.784 164.481C211.366 164.527 210.956 164.651 210.585 164.836C209.843 165.207 209.232 165.848 208.915 166.605C208.752 166.983 208.659 167.385 208.636 167.786C208.621 168.188 208.659 168.62 208.667 169.03C208.737 170.698 208.799 172.335 208.86 173.941C208.984 177.154 209.108 180.235 209.224 183.178C209.68 194.947 210.051 204.47 210.307 211.057C210.368 212.702 210.423 214.162 210.469 215.436C210.453 216.71 211.057 217.699 211.699 218.255C212.348 218.826 213.005 219.035 213.431 219.12C213.864 219.205 214.096 219.182 214.096 219.197V219.182Z" fill="#263238" stroke="#1A2E35" stroke-width="0.5" stroke-miterlimit="10"/>
<path d="M244.967 192.577C244.967 194.67 246.66 196.361 248.756 196.361C250.852 196.361 252.545 194.67 252.545 192.577C252.545 190.484 250.852 188.792 248.756 188.792C246.66 188.792 244.967 190.484 244.967 192.577Z" fill="white" stroke="#1A2E35" stroke-width="0.5" stroke-miterlimit="10"/>
<path d="M68.2464 74.6025L66.1584 72.7026C63.3744 73.8302 62.083 76.8421 61.619 79.6377C61.155 82.4334 61.2168 85.3835 59.9486 87.9475C58.9742 89.9245 57.1955 91.7548 57.4121 93.925C57.6209 95.9869 59.6238 97.6628 59.6315 99.7402C59.647 101.733 57.8529 103.27 56.8166 105.015C54.7132 108.552 53.3676 123.009 54.4734 126.925C63.7147 126.191 80.086 125.287 89.3428 123.318C86.8759 108.459 76.5983 87.4764 68.2387 74.6025H68.2464Z" fill="#263238" stroke="#1A2E35" stroke-width="0.5" stroke-miterlimit="10"/>
<path d="M63.1966 107.362C68.3389 107.362 72.5075 102.75 72.5075 97.0601C72.5075 91.3703 68.3389 86.7578 63.1966 86.7578C58.0544 86.7578 53.8857 91.3703 53.8857 97.0601C53.8857 102.75 58.0544 107.362 63.1966 107.362Z" fill="#455A64" stroke="#1A2E35" stroke-width="0.5" stroke-miterlimit="10"/>
<g opacity="0.3">
<path d="M60.5979 91.3605C61.031 90.1326 61.5182 89.314 61.5182 89.314C61.727 95.7548 62.1137 101.029 62.7787 107.362C60.9614 104.08 60.4201 100.08 60.2113 96.1718C60.0953 94.0017 60.0644 92.8896 60.6057 91.3605H60.5979Z" fill="black" stroke="#1A2E35" stroke-width="0.5" stroke-miterlimit="10"/>
</g>
<path d="M114.87 128.415L104.902 126.492L102.466 85.6919C101.499 74.3625 91.1986 66.0373 79.5522 67.4197C68.5787 68.7248 60.7062 78.6332 61.3481 89.4606C61.9126 98.952 62.6937 108.49 63.4593 111.849C65.7793 121.981 72.6928 124.63 75.3995 125.295C76.0181 125.449 77.6421 125.418 78.2762 125.372C78.3149 125.372 78.3458 125.403 78.3458 125.441L78.4696 132.083L72.6542 133.295L72.5072 147.691L96.0396 152.023L111.924 147.32L117.925 138.501L114.87 128.422V128.415Z" fill="#FFBF9D" stroke="#1A2E35" stroke-width="0.5" stroke-miterlimit="10"/>
<path d="M76.4051 104.412C76.4051 104.311 75.2683 104.196 73.4355 104.095C72.9715 104.08 72.5307 104.018 72.4302 103.717C72.2988 103.4 72.4611 102.898 72.6545 102.35C73.0179 101.222 73.3969 100.041 73.799 98.8051C75.3766 93.7621 76.4902 89.6304 76.2814 89.5686C76.0726 89.5068 74.6265 93.5535 73.0489 98.5965C72.6699 99.8399 72.3065 101.022 71.9662 102.157C71.827 102.682 71.5641 103.292 71.8425 103.948C71.9894 104.281 72.3451 104.497 72.6467 104.559C72.9483 104.628 73.2113 104.613 73.4355 104.613C75.2761 104.582 76.4128 104.512 76.4128 104.412H76.4051Z" fill="#263238"/>
<path d="M64.3409 93.2912C64.5419 93.5152 65.7406 92.5035 67.4651 92.4494C69.1896 92.3722 70.4734 93.299 70.6512 93.0596C70.744 92.9592 70.5352 92.5498 69.9707 92.1328C69.4216 91.7158 68.4859 91.3219 67.411 91.3605C66.3361 91.3991 65.439 91.8548 64.9286 92.3104C64.4027 92.7661 64.2326 93.1831 64.3331 93.2835L64.3409 93.2912Z" fill="#263238"/>
<path d="M81.8255 93.7235C82.0575 93.9397 83.3103 92.8045 85.1895 92.65C87.0687 92.4647 88.5303 93.3451 88.7159 93.0902C88.8087 92.9744 88.5535 92.5651 87.9193 92.1635C87.293 91.7619 86.249 91.4066 85.0735 91.5148C83.898 91.6229 82.9469 92.1558 82.4133 92.6655C81.8719 93.1752 81.7095 93.6231 81.8178 93.7235H81.8255Z" fill="#263238"/>
<path d="M78.3457 125.364C78.3457 125.364 85.3598 125.441 93.7581 119.68C93.7581 119.68 91.5851 128.924 78.4076 128.639L78.3534 125.364H78.3457Z" fill="#FF9A6C"/>
<path d="M77.4491 108.637C78.0446 107.749 79.1505 107.208 80.295 107.247C81.0838 107.277 81.9035 107.594 82.4216 108.181C82.9398 108.776 83.0944 109.656 82.7 110.289C82.2592 111 81.2462 111.224 80.3646 111.046C79.483 110.869 78.7097 110.359 77.9673 109.849C77.7662 109.71 77.5497 109.563 77.4182 109.363C77.2867 109.162 77.2403 108.884 77.3795 108.698" fill="#FF9A6C"/>
<path d="M81.8023 105.269C81.5085 105.269 81.6245 107.2 80.0391 108.683C78.4538 110.173 76.3426 110.096 76.3504 110.366C76.3272 110.49 76.8376 110.706 77.7269 110.668C78.593 110.637 79.8381 110.274 80.8125 109.37C81.7791 108.459 82.1503 107.308 82.1658 106.52C82.189 105.71 81.9415 105.246 81.8023 105.269Z" fill="#263238" stroke="#1A2E35" stroke-width="0.5" stroke-miterlimit="10"/>
<path d="M81.5474 86.6342C81.7562 87.1053 83.5503 86.7346 85.6847 86.8272C87.8268 86.8736 89.5746 87.3524 89.8298 86.9045C89.938 86.6882 89.6132 86.2558 88.8863 85.8387C88.1671 85.4217 87.0458 85.0664 85.7621 85.0201C84.4783 84.9815 83.3261 85.2672 82.576 85.6302C81.8181 85.9932 81.4546 86.4025 81.5474 86.6265V86.6342Z" fill="#263238"/>
<path d="M63.9699 87.0127C64.3333 87.4221 65.7872 87.0127 67.5272 86.9973C69.2672 86.9355 70.7365 87.283 71.0845 86.866C71.2314 86.6652 71.0072 86.2559 70.3653 85.8698C69.7312 85.4836 68.6794 85.167 67.4808 85.1979C66.2821 85.2211 65.2459 85.584 64.6349 85.9933C64.0163 86.4026 63.8075 86.8197 63.9699 87.0205V87.0127Z" fill="#263238"/>
<path d="M77.9433 65.1338C78.8868 63.5275 80.65 62.7938 82.6142 62.4926C90.6336 61.2802 99.5888 66.1069 104.09 72.8489C108.583 79.591 108.822 89.6538 105.536 97.06L100.532 93.9322C90.4867 89.7928 83.3876 80.1316 76.9303 70.1382C76.0487 68.779 77.1236 66.524 77.9511 65.1261L77.9433 65.1338Z" fill="#263238" stroke="#1A2E35" stroke-width="0.5" stroke-miterlimit="10"/>
<path d="M61.495 90.125L60.9537 89.0824C58.9662 85.2596 59.8246 80.9194 61.3094 76.8803C62.6395 73.2738 63.3587 72.0767 65.6014 69.5359C68.9576 65.7208 74.7498 61.3497 79.6605 63.5276C80.689 65.4737 77.3173 69.0494 75.5928 70.5244C73.064 72.6868 70.86 74.1464 69.1973 75.6987C65.8411 78.8265 61.8275 84.3869 61.495 90.125Z" fill="#263238" stroke="#1A2E35" stroke-width="0.5" stroke-miterlimit="10"/>
<path d="M65.8642 98.2339C65.8178 99.037 66.4674 99.7398 67.3026 99.7939C68.1378 99.8557 68.857 99.2533 68.8956 98.4501C68.942 97.6469 68.2924 96.9442 67.4572 96.8901C66.6143 96.8283 65.9028 97.4307 65.8564 98.2339H65.8642Z" fill="#263238"/>
<path d="M82.1659 98.2339C82.1195 99.037 82.7691 99.7398 83.6043 99.7939C84.4395 99.8557 85.1587 99.2533 85.1974 98.4501C85.2438 97.6469 84.5942 96.9442 83.759 96.8901C82.9161 96.8283 82.2046 97.4307 82.1582 98.2339H82.1659Z" fill="#263238"/>
<path d="M100.525 93.9323C100.711 93.8319 108.119 90.9049 108.591 98.6895C109.063 106.474 101.136 105.339 101.113 105.115C101.09 104.891 100.525 93.9323 100.525 93.9323Z" fill="#FFBF9D" stroke="#1A2E35" stroke-width="0.5" stroke-miterlimit="10"/>
<path d="M103.317 102.026C103.317 102.026 103.457 102.111 103.696 102.204C103.928 102.289 104.315 102.343 104.709 102.165C105.514 101.81 106.132 100.466 106.078 99.0604C106.055 98.3499 105.869 97.6857 105.583 97.1451C105.313 96.5891 104.918 96.2107 104.501 96.1643C104.083 96.0948 103.805 96.3574 103.72 96.5814C103.627 96.8053 103.689 96.9598 103.65 96.9752C103.627 96.9984 103.472 96.8517 103.518 96.5273C103.542 96.3728 103.619 96.1798 103.797 96.0176C103.975 95.8554 104.245 95.7627 104.539 95.7705C105.142 95.7705 105.715 96.2956 106.032 96.8903C106.38 97.4849 106.612 98.234 106.635 99.0295C106.681 100.597 105.962 102.119 104.856 102.512C104.315 102.69 103.851 102.551 103.604 102.381C103.348 102.204 103.302 102.034 103.325 102.018L103.317 102.026Z" fill="#FF9A6C" stroke="#1A2E35" stroke-width="0.5" stroke-miterlimit="10"/>
<path d="M72.7936 95.979C72.7549 95.979 72.8091 95.338 72.5461 94.2337C72.2832 93.1525 71.595 91.5538 69.9864 90.295C69.1899 89.6849 68.1846 89.1598 67.0169 88.9358C65.8569 88.7196 64.5499 88.735 63.2971 89.1906C62.663 89.3992 62.0598 89.7158 61.4953 90.1251C60.923 90.5267 60.4049 91.021 59.9796 91.6002C59.0902 92.7431 58.5799 94.2182 58.5412 95.7473C58.5335 97.2764 58.9974 98.767 59.8481 99.9408C60.258 100.535 60.7606 101.045 61.3174 101.462C61.8665 101.887 62.4697 102.227 63.0884 102.451C64.3257 102.945 65.6326 103.007 66.8003 102.829C67.9758 102.644 68.9966 102.15 69.8086 101.563C71.4558 100.358 72.1981 98.7824 72.492 97.7089C72.7859 96.6123 72.7549 95.9713 72.7936 95.9713C72.7936 95.9713 72.7936 96.0099 72.7936 96.0871C72.7936 96.1798 72.7936 96.2956 72.7859 96.4269C72.7859 96.5814 72.7704 96.7667 72.7317 96.983C72.7008 97.1992 72.6699 97.4541 72.5848 97.7321C72.3141 98.8287 71.5872 100.458 69.9091 101.709C69.0816 102.319 68.0299 102.837 66.8235 103.038C65.6249 103.231 64.2715 103.177 62.9878 102.675C62.3382 102.443 61.7196 102.095 61.1473 101.655C60.5673 101.223 60.0492 100.698 59.6238 100.08C58.7423 98.8673 58.2551 97.3228 58.2628 95.7319C58.3015 94.1487 58.8351 92.6119 59.763 91.4303C60.2116 90.8279 60.7452 90.3182 61.3406 89.9089C61.9206 89.4918 62.5548 89.1598 63.2121 88.9512C64.5113 88.4879 65.8646 88.4802 67.0555 88.7118C68.2542 88.9512 69.2827 89.4996 70.0947 90.1406C71.7264 91.4457 72.4069 93.0907 72.6389 94.2028C72.7163 94.4808 72.7395 94.7356 72.7627 94.9519C72.7936 95.1681 72.8013 95.3612 72.8013 95.5079C72.8013 95.6469 72.8013 95.755 72.8013 95.8477C72.8013 95.925 72.8013 95.9636 72.7936 95.9636V95.979Z" fill="white"/>
<path d="M92.4753 96.2954C92.4366 96.2954 92.4907 95.6544 92.2278 94.5501C91.9649 93.4689 91.2766 91.8702 89.6681 90.6114C88.8715 90.0013 87.8662 89.4762 86.6985 89.2522C85.5385 89.036 84.2316 89.0514 82.9788 89.5071C82.3447 89.7156 81.7415 90.0322 81.1769 90.4415C80.6047 90.8431 80.0865 91.3374 79.6612 91.9166C78.7719 93.0596 78.2615 94.5346 78.2228 96.0637C78.2151 97.5929 78.6791 99.0834 79.5297 100.257C79.9396 100.852 80.4423 101.362 80.9991 101.779C81.5481 102.203 82.1513 102.543 82.77 102.767C84.0073 103.261 85.3142 103.323 86.482 103.146C87.6574 102.96 88.6782 102.466 89.4902 101.879C91.1374 100.674 91.8798 99.0988 92.1737 98.0253C92.4675 96.9287 92.4366 96.2877 92.4753 96.2877C92.4753 96.2877 92.4753 96.3263 92.4753 96.4035C92.4753 96.4962 92.4752 96.6121 92.4675 96.7433C92.4675 96.8978 92.452 97.0831 92.4134 97.2994C92.3825 97.5156 92.3515 97.7705 92.2664 98.0485C91.9958 99.1451 91.2689 100.775 89.5907 102.026C88.7633 102.636 87.7116 103.153 86.5052 103.354C85.3065 103.547 83.9532 103.493 82.6695 102.991C82.0199 102.759 81.4012 102.412 80.8289 101.972C80.2489 101.539 79.7308 101.014 79.3055 100.396C78.4239 99.1838 77.9367 97.6392 77.9444 96.0483C77.9831 94.4651 78.5167 92.9283 79.4447 91.7467C79.8932 91.1443 80.4268 90.6346 81.0223 90.2253C81.61 89.8083 82.2364 89.4762 82.8937 89.2677C84.1929 88.8043 85.5462 88.7966 86.7372 89.0282C87.9358 89.2677 88.9643 89.816 89.7763 90.457C91.4081 91.7621 92.0886 93.4071 92.3206 94.5192C92.3979 94.7972 92.4211 95.052 92.4443 95.2683C92.4753 95.4845 92.483 95.6776 92.483 95.8243C92.483 95.9633 92.483 96.0715 92.483 96.1641C92.483 96.2414 92.483 96.28 92.4753 96.28V96.2954Z" fill="white"/>
<path d="M78.4232 95.7548C78.4232 95.7548 78.1835 95.4459 77.704 95.0675C77.24 94.6891 76.4667 94.2875 75.5464 94.2643C74.6262 94.2489 73.8374 94.6273 73.3656 94.9826C72.8784 95.3455 72.6619 95.6699 72.6232 95.639C72.6 95.6236 72.7624 95.2606 73.2496 94.8358C73.7214 94.4188 74.5565 93.9786 75.5541 93.994C76.5517 94.0172 77.3715 94.4806 77.8277 94.9208C78.2917 95.361 78.4464 95.7394 78.4232 95.7471V95.7548Z" fill="white"/>
<path d="M102.319 93.4382C102.319 93.4382 101.778 93.6004 100.881 93.7394C99.9835 93.8784 98.7307 94.0097 97.3542 94.1332C96.024 94.2491 94.8177 94.3572 93.8278 94.4499C92.9307 94.5348 92.3662 94.6043 92.3662 94.5657C92.3662 94.5348 92.9075 94.4035 93.8046 94.2645C94.7017 94.1255 95.9544 93.9942 97.331 93.8707C98.6611 93.7548 99.8675 93.6467 100.857 93.554C101.754 93.4691 102.319 93.3996 102.319 93.4382Z" fill="white"/>
<path d="M61.4333 100.381C61.4952 100.327 60.4589 99.4462 59.9099 97.9248C59.3376 96.4112 59.5541 95.0674 59.4691 95.0674C59.4381 95.0674 59.3376 95.384 59.3144 95.9323C59.2912 96.4729 59.3685 97.2375 59.6624 98.0252C59.9563 98.8052 60.3893 99.4385 60.7605 99.8324C61.1317 100.234 61.4179 100.412 61.4411 100.388L61.4333 100.381Z" fill="white" stroke="#1A2E35" stroke-width="0.5" stroke-miterlimit="10"/>
<path d="M60.1966 92.3414C60.1579 92.2796 59.864 92.4263 59.7016 92.7739C59.5315 93.1214 59.6011 93.438 59.6707 93.4303C59.748 93.4303 59.8022 93.1677 59.9414 92.8897C60.0728 92.604 60.243 92.4032 60.1966 92.3414Z" fill="white" stroke="#1A2E35" stroke-width="0.5" stroke-miterlimit="10"/>
<path d="M79.4059 98.8364C79.4445 98.8209 79.3054 98.4271 79.1894 97.7706C79.0734 97.1142 79.0192 96.1874 79.2048 95.1912C79.3904 94.195 79.7771 93.3454 80.1173 92.7817C80.4576 92.2102 80.736 91.8936 80.7051 91.8627C80.6896 91.8395 80.3571 92.1175 79.9627 92.6813C79.5683 93.2373 79.1429 94.11 78.9496 95.1449C78.7563 96.1797 78.8414 97.1451 79.0115 97.8092C79.1739 98.4734 79.3827 98.8518 79.4136 98.8364H79.4059Z" fill="white"/>
<path d="M106.487 105.015C106.487 105.015 106.596 105.169 106.75 105.447C106.905 105.725 107.075 106.173 107.083 106.745C107.091 107.308 106.905 108.003 106.364 108.521C105.838 109.038 105.003 109.37 104.16 109.224C103.317 109.069 102.652 108.459 102.342 107.795C102.018 107.123 102.08 106.405 102.288 105.88C102.489 105.347 102.814 104.991 103.054 104.783C103.301 104.574 103.464 104.49 103.448 104.466C103.448 104.451 103.263 104.505 102.984 104.698C102.714 104.891 102.35 105.246 102.11 105.802C101.871 106.351 101.77 107.138 102.118 107.888C102.451 108.621 103.17 109.301 104.113 109.471C105.057 109.633 105.969 109.254 106.534 108.675C107.122 108.096 107.307 107.316 107.269 106.721C107.238 106.111 107.021 105.656 106.835 105.378C106.642 105.1 106.495 104.992 106.487 104.999V105.015Z" fill="#E0E0E0" stroke="#1A2E35" stroke-width="0.5" stroke-miterlimit="10"/>
<path d="M97.3389 67.9141C104.569 67.8909 107.647 78.5175 109.295 82.4176C110.942 86.3176 111.429 90.6964 113.517 94.3802C115.18 97.3072 117.863 99.8557 118.234 103.2C118.505 105.632 117.469 108.057 117.608 110.505C117.747 113.039 119.1 115.309 120.036 117.665C120.964 120.02 121.413 122.901 119.905 124.932C114.368 125.495 108.792 125.627 103.232 125.318C102.288 125.264 101.283 125.179 100.548 124.584C99.6202 123.835 99.4037 122.53 99.2567 121.348C97.7101 109.084 101.097 103.624 99.5506 91.3606" fill="#263238"/>
<path d="M97.3389 67.9141C104.569 67.8909 107.647 78.5175 109.295 82.4176C110.942 86.3176 111.429 90.6964 113.517 94.3802C115.18 97.3072 117.863 99.8557 118.234 103.2C118.505 105.632 117.469 108.057 117.608 110.505C117.747 113.039 119.1 115.309 120.036 117.665C120.964 120.02 121.413 122.901 119.905 124.932C114.368 125.495 108.792 125.627 103.232 125.318C102.288 125.264 101.283 125.179 100.548 124.584C99.6202 123.835 99.4037 122.53 99.2567 121.348C97.7101 109.084 101.097 103.624 99.5506 91.3606" stroke="#1A2E35" stroke-width="0.5" stroke-miterlimit="10"/>
<path d="M96.1709 99.3076C96.1709 104.999 100.339 109.61 105.482 109.61C110.624 109.61 114.793 104.999 114.793 99.3076C114.793 93.6159 110.624 89.0054 105.482 89.0054C100.339 89.0054 96.1709 93.6159 96.1709 99.3076Z" fill="#455A64" stroke="#1A2E35" stroke-width="0.5" stroke-miterlimit="10"/>
<path d="M99.9761 99.3075C99.9761 99.3075 99.9684 99.153 99.9761 98.8596C99.9761 98.5661 100.015 98.1336 100.123 97.5776C100.224 97.0215 100.44 96.3651 100.78 95.6469C101.136 94.9287 101.654 94.1641 102.412 93.4922C103.162 92.8203 104.152 92.2411 105.32 91.9708C106.48 91.7237 107.818 91.7778 109.055 92.3183C110.3 92.8281 111.414 93.7934 112.195 95.0213C112.581 95.6392 112.891 96.3188 113.099 97.0447C113.301 97.7707 113.401 98.5275 113.417 99.2998C113.409 100.072 113.301 100.829 113.099 101.563C112.891 102.289 112.574 102.968 112.195 103.586C111.414 104.814 110.3 105.779 109.055 106.289C107.818 106.83 106.48 106.876 105.32 106.636C104.152 106.374 103.17 105.787 102.412 105.115C101.654 104.443 101.136 103.671 100.78 102.96C100.432 102.242 100.216 101.586 100.123 101.03C100.015 100.481 99.9761 100.049 99.9761 99.7477C99.9761 99.4542 99.9761 99.2998 99.9761 99.2998C100.015 99.2998 99.9761 99.9253 100.216 101.007C100.332 101.547 100.556 102.188 100.904 102.891C101.26 103.586 101.786 104.327 102.528 104.976C103.27 105.617 104.229 106.173 105.358 106.42C106.48 106.644 107.764 106.59 108.954 106.065C110.145 105.571 111.22 104.636 111.97 103.447C112.342 102.845 112.635 102.188 112.844 101.493C113.038 100.79 113.138 100.057 113.146 99.3075C113.138 98.5584 113.03 97.8247 112.844 97.1219C112.643 96.4192 112.342 95.7627 111.97 95.1681C111.22 93.9788 110.145 93.0443 108.954 92.55C107.764 92.0249 106.48 91.9708 105.358 92.1948C104.229 92.4419 103.27 92.998 102.528 93.639C101.786 94.2877 101.26 95.0291 100.904 95.7241C100.556 96.4269 100.324 97.0679 100.216 97.6085C99.9761 98.6897 100.015 99.3152 99.9761 99.3152V99.3075Z" fill="#263238" stroke="#1A2E35" stroke-width="0.5" stroke-miterlimit="10"/>
<path d="M107.284 89.2447C107.284 89.2447 108.846 62.4852 81.7947 61.6279C81.7947 61.6279 72.7004 61.6279 68.9033 66.3697C68.9033 66.3697 75.1209 62.7709 82.1659 64.7402C87.8962 66.3466 100.849 72.0923 101.592 89.9398L104.144 88.9976L107.284 89.237V89.2447Z" fill="#455A64" stroke="#1A2E35" stroke-width="0.5" stroke-miterlimit="10"/>
<g opacity="0.3">
<path d="M112.519 102.837C111.931 105.617 109.14 107.695 106.294 107.664C103.448 107.633 100.78 105.648 99.7438 102.999C98.7076 100.35 99.1561 97.7864 100.842 95.4927C100.533 96.3808 99.1948 98.8367 100.757 102.698C101.615 104.814 104.113 106.467 106.387 106.668C108.66 106.868 111.297 105.308 112.527 102.837" fill="black"/>
<path d="M112.519 102.837C111.931 105.617 109.14 107.695 106.294 107.664C103.448 107.633 100.78 105.648 99.7438 102.999C98.7076 100.35 99.1561 97.7864 100.842 95.4927C100.533 96.3808 99.1948 98.8367 100.757 102.698C101.615 104.814 104.113 106.467 106.387 106.668C108.66 106.868 111.297 105.308 112.527 102.837" stroke="#1A2E35" stroke-width="0.5" stroke-miterlimit="10"/>
</g>
<path d="M101.12 90.2334C101.12 90.2334 101.484 89.94 102.18 89.6388C102.868 89.3376 103.881 89.0441 105.025 88.9669C106.178 88.8897 107.222 89.0518 107.941 89.2526C108.668 89.4534 109.078 89.6697 109.07 89.7006C109.047 89.7855 107.307 89.0673 105.049 89.2295C102.791 89.3685 101.159 90.3184 101.128 90.2334H101.12Z" fill="#263238" stroke="#1A2E35" stroke-width="0.5" stroke-miterlimit="10"/>
<path d="M67.5732 67.4586C67.5732 67.4586 67.581 67.4046 67.6196 67.3042C67.6583 67.2038 67.7047 67.057 67.782 66.864C67.9522 66.4933 68.2228 65.9449 68.7023 65.3194C69.1818 64.7016 69.8623 64.0142 70.7671 63.3578C71.6719 62.7091 72.7855 62.0913 74.0924 61.5815C74.742 61.3267 75.4457 61.1105 76.1726 60.8788C76.915 60.6934 77.6806 60.4772 78.4926 60.3459C80.1089 60.0524 81.8721 59.8825 83.7203 59.952C87.4091 60.0602 91.4845 60.9869 95.2429 63.0334C97.1221 64.0529 98.8234 65.2885 100.27 66.6863C101.723 68.0764 102.945 69.6056 103.943 71.1578C104.94 72.7101 105.737 74.2856 106.309 75.8302C106.897 77.367 107.315 78.8421 107.562 80.2167C108.088 82.9583 108.065 85.2443 107.925 86.7888C107.879 87.5688 107.763 88.1635 107.701 88.5651C107.67 88.7582 107.639 88.9049 107.624 89.0207C107.608 89.1211 107.593 89.1752 107.585 89.1752C107.585 89.1752 107.585 89.1211 107.593 89.013C107.608 88.8972 107.624 88.7427 107.647 88.5496C107.693 88.1403 107.794 87.5457 107.817 86.7734C107.918 85.2288 107.918 82.966 107.369 80.2476C107.113 78.8884 106.688 77.4211 106.093 75.9074C105.513 74.386 104.724 72.826 103.726 71.2891C102.729 69.7523 101.522 68.2463 100.076 66.8717C98.6378 65.4893 96.952 64.2691 95.096 63.2651C91.3763 61.2417 87.3472 60.3227 83.6971 60.1992C81.8643 60.1219 80.1244 60.2841 78.5158 60.5621C77.7116 60.6857 76.9537 60.8942 76.219 61.0718C75.4999 61.2958 74.7961 61.5043 74.1543 61.7515C72.8628 62.2457 71.7492 62.8481 70.8522 63.4736C69.9551 64.1069 69.2668 64.7711 68.7874 65.3735C68.3002 65.9758 68.0218 66.5087 67.8362 66.8717C67.7588 67.0493 67.697 67.1883 67.6506 67.2964C67.6042 67.3891 67.581 67.4432 67.581 67.4354L67.5732 67.4586Z" fill="#455A64" stroke="#1A2E35" stroke-width="0.5" stroke-miterlimit="10"/>
<path d="M65.3232 69.6672C65.3232 69.6672 65.3387 69.6208 65.3851 69.5282C65.4392 69.4278 65.5088 69.3042 65.5939 69.142C65.7872 68.8099 66.0734 68.3234 66.4987 67.721C66.924 67.1264 67.4886 66.4236 68.2774 65.7363C69.0584 65.0412 70.0792 64.4079 71.2701 63.8596C72.4611 63.3113 73.8221 62.817 75.3456 62.5545C76.8768 62.3459 78.5162 62.2455 80.2562 62.2996C81.9884 62.3614 83.798 62.624 85.6386 62.9715C87.4945 63.319 89.3815 63.8828 91.1988 64.7169C93.0161 65.5586 94.6788 66.6398 96.063 67.9295C97.4473 69.2193 98.5686 70.6711 99.4734 72.1462C101.283 75.1118 102.25 78.1159 102.876 80.6413C103.502 83.1744 103.812 85.2673 104.028 86.7114C104.121 87.4219 104.198 87.978 104.253 88.3719C104.276 88.5495 104.291 88.6962 104.299 88.8043C104.307 88.9047 104.314 88.9511 104.307 88.9511C104.307 88.9511 104.291 88.9047 104.268 88.8043C104.245 88.6962 104.222 88.5495 104.191 88.3719C104.121 87.978 104.036 87.4219 103.92 86.7192C103.673 85.2827 103.332 83.1976 102.69 80.6799C102.041 78.17 101.066 75.189 99.2646 72.262C98.3598 70.8024 97.2539 69.3737 95.8851 68.1072C94.5164 66.8406 92.8846 65.7749 91.0905 64.9485C89.2964 64.1222 87.4249 63.5661 85.5922 63.2109C83.7516 62.8634 81.9652 62.5931 80.2485 62.5313C78.5394 62.4695 76.8922 62.5622 75.3842 62.7553C73.884 63.0024 72.5307 63.4812 71.3475 64.0141C70.1643 64.5469 69.1512 65.1648 68.3779 65.8289C67.5968 66.5008 67.0246 67.1882 66.5915 67.7674C66.1584 68.3543 65.8568 68.8254 65.648 69.1497C65.5552 69.3042 65.4779 69.42 65.416 69.5204C65.3619 69.6054 65.331 69.644 65.331 69.644L65.3232 69.6672Z" fill="#263238" stroke="#1A2E35" stroke-width="0.5" stroke-miterlimit="10"/>
<path d="M150.961 194.329C149.979 184.66 146.584 170.28 143.893 158.009C137.946 130.886 121.374 129.558 121.366 129.55L112.349 127.426C112.349 127.426 105.111 149.776 87.2391 148.818C72.6774 148.031 72.6619 133.28 72.6619 133.28L62.106 135.141C62.106 135.141 62.106 135.141 62.0982 135.141L62.0209 135.157C60.2036 135.489 56.9711 136.786 53.2591 141.42C48.0082 147.977 31.3662 175.076 31.3662 175.076L41.5819 201.171L61.41 176.126C61.6961 177.825 62.0441 179.486 62.454 181.092C66.5294 196.854 68.9654 219.621 68.9654 219.621L141.156 219.791L139.825 213.343L140.877 213.196C147.876 212.3 151.688 201.326 150.977 194.314L150.961 194.329Z" fill="#F15A29" stroke="#1A2E35" stroke-width="0.5" stroke-miterlimit="10"/>
<path d="M60.6445 154.139C60.6445 154.139 60.6058 154.271 60.5671 154.518C60.5285 154.796 60.4666 155.159 60.397 155.615C60.3661 155.854 60.3274 156.117 60.281 156.402C60.2501 156.696 60.2191 157.012 60.1882 157.344C60.1186 158.024 60.0335 158.796 60.0026 159.654C59.8789 161.368 59.8789 163.415 59.9639 165.685C60.0567 167.956 60.3197 170.442 60.6986 173.037C61.0775 175.632 61.557 178.088 62.0442 180.304C62.5237 182.521 63.0109 184.506 63.4207 186.174C63.846 187.834 64.194 189.178 64.4492 190.105C64.573 190.545 64.6735 190.9 64.7431 191.17C64.8127 191.41 64.8514 191.541 64.8668 191.533C64.8746 191.533 64.8514 191.402 64.7972 191.155C64.7354 190.885 64.6503 190.529 64.5498 190.081C64.3178 189.124 64.0007 187.78 63.6063 186.127C63.2196 184.459 62.7479 182.467 62.2839 180.25C61.8122 178.034 61.3405 175.586 60.9615 172.999C60.5826 170.411 60.3197 167.932 60.2114 165.67C60.1186 163.407 60.0954 161.368 60.1959 159.654C60.2191 158.796 60.2887 158.024 60.3429 157.344C60.3661 157.005 60.397 156.688 60.4202 156.402C60.4511 156.117 60.4821 155.854 60.513 155.607C60.5594 155.151 60.5981 154.788 60.629 154.51C60.6522 154.255 60.6599 154.124 60.6522 154.124L60.6445 154.139Z" fill="#263238" stroke="#1A2E35" stroke-width="0.5" stroke-miterlimit="10"/>
<path d="M139.988 197.472C139.988 197.472 139.965 197.225 139.857 196.793C139.748 196.36 139.547 195.743 139.215 195.009C138.565 193.549 137.281 191.642 135.286 190.19C133.283 188.738 131.072 188.105 129.486 187.935C128.69 187.842 128.032 187.842 127.592 187.873C127.143 187.904 126.903 187.942 126.903 187.958C126.903 188.012 127.893 187.896 129.471 188.12C131.033 188.336 133.183 188.977 135.139 190.398C137.096 191.819 138.372 193.665 139.052 195.086C139.748 196.507 139.942 197.488 139.996 197.472H139.988Z" fill="#263238" stroke="#1A2E35" stroke-width="0.5" stroke-miterlimit="10"/>
<path d="M136.152 183.957C136.152 183.957 136.013 183.926 135.75 183.919C135.495 183.911 135.116 183.919 134.659 183.965C133.739 184.05 132.471 184.305 131.164 184.845C129.857 185.386 128.774 186.096 128.055 186.676C127.699 186.969 127.421 187.224 127.243 187.409C127.065 187.595 126.973 187.703 126.988 187.718C127.019 187.749 127.437 187.363 128.171 186.822C128.906 186.282 129.981 185.618 131.264 185.085C132.548 184.56 133.786 184.282 134.683 184.143C135.587 184.011 136.152 183.988 136.152 183.95V183.957Z" fill="#263238" stroke="#1A2E35" stroke-width="0.5" stroke-miterlimit="10"/>
<path d="M118.992 148.826C118.992 148.826 119.023 148.563 119.031 148.1C119.031 147.637 119.062 146.957 119.116 146.131C119.224 144.47 119.534 142.184 120.222 139.744C120.91 137.304 121.838 135.187 122.611 133.712C122.998 132.971 123.323 132.384 123.563 131.982C123.795 131.581 123.918 131.349 123.903 131.342C123.887 131.334 123.733 131.542 123.47 131.928C123.199 132.315 122.851 132.894 122.441 133.62C121.622 135.079 120.663 137.203 119.967 139.667C119.278 142.13 118.992 144.447 118.93 146.115C118.899 146.949 118.899 147.629 118.93 148.1C118.954 148.571 118.977 148.826 118.992 148.826Z" fill="#263238" stroke="#1A2E35" stroke-width="0.5" stroke-miterlimit="10"/>
<path d="M122.178 211.628C122.178 211.628 122.464 211.976 123.083 212.485C123.702 212.987 124.73 213.566 126.115 213.929C127.491 214.308 129.216 214.462 131.11 214.37C133.005 214.231 135.093 214.014 137.266 213.69C139.431 213.358 141.512 212.964 143.275 212.308C144.141 211.945 144.868 211.396 145.479 210.833C146.097 210.261 146.6 209.659 147.025 209.079C147.868 207.921 148.386 206.871 148.719 206.145C148.874 205.774 148.997 205.488 149.075 205.288C149.152 205.087 149.198 204.986 149.206 204.994C149.214 204.994 149.183 205.102 149.121 205.311C149.067 205.519 148.959 205.813 148.812 206.191C148.51 206.94 148.007 208.006 147.172 209.195C146.755 209.79 146.252 210.408 145.626 210.995C144.999 211.574 144.265 212.153 143.367 212.532C141.558 213.219 139.485 213.613 137.305 213.953C135.124 214.277 133.036 214.493 131.126 214.617C129.208 214.702 127.468 214.524 126.068 214.115C124.668 213.721 123.632 213.103 123.021 212.57C122.727 212.292 122.495 212.068 122.372 211.898C122.24 211.728 122.171 211.643 122.178 211.636V211.628Z" fill="#263238" stroke="#1A2E35" stroke-width="0.5" stroke-miterlimit="10"/>
<path d="M119.441 157.476C119.51 157.46 121.258 164.233 123.346 172.612C125.434 180.992 127.066 187.795 126.996 187.819C126.926 187.834 125.179 181.061 123.091 172.682C121.003 164.303 119.371 157.499 119.441 157.476Z" fill="#263238" stroke="#1A2E35" stroke-width="0.5" stroke-miterlimit="10"/>
<path d="M117.329 195.734C117.329 195.734 117.282 195.541 117.244 195.178C117.213 194.815 117.166 194.29 117.205 193.642C117.244 192.985 117.468 192.197 117.948 191.471C118.187 191.109 118.458 190.738 118.798 190.406C119.138 190.074 119.541 189.78 119.974 189.533C121.737 188.575 123.515 188.174 124.799 187.981C125.441 187.888 125.967 187.857 126.33 187.842C126.694 187.834 126.895 187.842 126.895 187.865C126.895 187.911 126.098 187.942 124.83 188.166C123.577 188.406 121.814 188.838 120.105 189.765C119.688 190.012 119.301 190.282 118.976 190.599C118.651 190.908 118.388 191.271 118.149 191.611C117.677 192.306 117.445 193.032 117.383 193.665C117.313 194.298 117.337 194.823 117.337 195.178C117.337 195.541 117.337 195.742 117.321 195.742L117.329 195.734Z" fill="#263238" stroke="#1A2E35" stroke-width="0.5" stroke-miterlimit="10"/>
<path d="M83.7979 194.785C83.7979 194.785 83.8214 194.793 83.8292 194.8C83.8214 194.8 83.8057 194.793 83.7979 194.785Z" fill="#FFBF9D" stroke="#1A2E35" stroke-width="0.5" stroke-miterlimit="10"/>
<path d="M83.9756 194.87C83.9756 194.87 84.0216 194.893 84.0447 194.9C84.0293 194.893 84.0063 194.877 83.9756 194.87Z" fill="#FFBF9D" stroke="#1A2E35" stroke-width="0.5" stroke-miterlimit="10"/>
<path d="M83.8291 194.8C83.891 194.831 83.9374 194.854 83.9838 194.869C83.9296 194.846 83.8755 194.815 83.8291 194.8Z" fill="#FFBF9D" stroke="#1A2E35" stroke-width="0.5" stroke-miterlimit="10"/>
<path d="M83.7285 194.754C83.7285 194.754 83.7746 194.777 83.7976 194.785C83.7592 194.769 83.7285 194.754 83.7285 194.754Z" fill="#FFBF9D" stroke="#1A2E35" stroke-width="0.5" stroke-miterlimit="10"/>
<path d="M68.1537 209.041C69.4838 206.523 79.8851 199.897 79.8851 199.897L77.0702 199.248L73.9614 200.561C73.9614 200.561 73.7681 201.843 72.6235 203.473C71.479 205.102 69.538 203.419 69.538 203.419L70.8526 197.132L77.0006 193.433C77.0006 193.433 82.7851 194.314 83.7208 194.761L86.1877 197.016C87.2704 197.866 90.3946 201.21 91.253 201.31C92.1114 201.411 118.961 195.379 118.961 195.379C122.642 198.291 124.583 204.075 125.163 208.245C125.163 208.245 125.821 210.292 125.109 211.404L92.1423 213.991L85.1592 215.922C85.1592 215.922 81.2925 217.497 79.4211 217.891C77.0934 218.378 75.5313 217.629 75.4694 216.347C75.4075 215.065 77.2094 214.926 77.2094 214.926C77.2094 214.926 80.1403 213.868 81.7024 212.956C83.2645 212.045 84.2389 210.176 84.2389 210.176L81.7488 210.477C81.7488 210.477 76.4515 214.146 74.4641 215.227C72.4766 216.3 72.0822 214.331 71.9198 213.729C71.7574 213.126 77.8667 207.164 77.8667 207.164C77.8667 207.164 72.059 210.74 71.015 211.644C69.971 212.547 68.4244 212.817 68.0919 212.207C67.7593 211.605 66.8159 211.582 68.146 209.072L68.1537 209.041Z" fill="#FFBF9D" stroke="#1A2E35" stroke-width="0.5" stroke-miterlimit="10"/>
<path d="M84.0459 194.9C84.0459 194.9 84.0922 194.924 84.1076 194.931L84.0459 194.9Z" fill="#FFBF9D" stroke="#1A2E35" stroke-width="0.5" stroke-miterlimit="10"/>
<path d="M84.0996 194.931C84.0996 194.931 84.1231 194.947 84.131 194.947C84.131 194.947 84.1153 194.939 84.0996 194.931Z" fill="#FFBF9D" stroke="#1A2E35" stroke-width="0.5" stroke-miterlimit="10"/>
<path d="M96.8055 209.62C96.8055 209.62 96.8364 209.474 96.8364 209.211C96.8442 209.08 96.8364 208.917 96.8055 208.732C96.79 208.547 96.7514 208.331 96.6895 208.107C96.4807 207.18 95.8852 205.991 95.0036 204.855C94.122 203.72 93.1709 202.832 92.4671 202.222C91.7557 201.612 91.2917 201.272 91.2685 201.295C91.2453 201.326 91.6783 201.712 92.3511 202.345C93.0239 202.986 93.9442 203.89 94.8103 205.002C95.6764 206.114 96.2796 207.257 96.5271 208.145C96.7823 209.033 96.7591 209.613 96.8055 209.613V209.62Z" fill="#FF9A6C"/>
<path d="M80.1329 199.696C80.1251 199.758 80.9526 199.858 81.9115 199.534C82.8704 199.217 83.4659 198.631 83.4272 198.592C83.3808 198.53 82.7467 199.001 81.8342 199.302C80.9294 199.611 80.1406 199.619 80.1329 199.696Z" fill="#FF9A6C"/>
<path d="M78.4 206.585C78.4232 206.647 79.6142 206.222 81.0448 205.627C82.4832 205.041 83.6277 204.508 83.5968 204.446C83.5736 204.384 82.3827 204.809 80.952 205.404C79.5136 205.99 78.3691 206.523 78.4 206.585Z" fill="#FF9A6C" stroke="#1A2E35" stroke-width="0.5" stroke-miterlimit="10"/>
<path d="M83.9759 210.099C84.0068 210.161 84.6023 209.906 85.3369 209.62C86.0716 209.334 86.6748 209.118 86.6593 209.056C86.6438 208.995 85.9942 209.103 85.2441 209.396C84.494 209.69 83.9449 210.045 83.9759 210.099Z" fill="#FF9A6C"/>
<path d="M79.2585 207.041C79.2353 207.11 79.8385 207.334 80.287 207.937C80.751 208.531 80.8051 209.172 80.8747 209.165C80.9057 209.165 80.9366 209.002 80.8979 208.732C80.8593 208.47 80.7278 208.114 80.4803 207.782C80.2329 207.458 79.9235 207.234 79.6761 207.126C79.4286 207.018 79.2662 207.002 79.2585 207.033V207.041Z" fill="#FF9A6C"/>
<path d="M76.8154 203.195C76.7844 203.257 77.2407 203.504 77.5345 204.029C77.8439 204.546 77.8361 205.064 77.9057 205.072C77.9676 205.095 78.0991 204.508 77.7433 203.905C77.3953 203.303 76.8231 203.125 76.8076 203.195H76.8154Z" fill="#FF9A6C"/>
<path d="M77.6424 196.329C77.6424 196.329 77.7662 196.229 77.8358 196.005C77.9054 195.781 77.944 195.441 77.859 195.086C77.7739 194.73 77.5883 194.445 77.4182 194.283C77.248 194.113 77.1166 194.059 77.0934 194.082C77.047 194.136 77.4723 194.507 77.6192 195.148C77.7816 195.781 77.5728 196.306 77.6424 196.337V196.329Z" fill="#FF9A6C"/>
<path d="M125.411 212.338C125.411 212.338 125.38 212.068 125.365 211.582C125.365 211.342 125.357 211.041 125.334 210.693C125.311 210.346 125.303 209.96 125.249 209.527C125.102 207.805 124.715 205.419 123.811 202.932C123.354 201.689 122.805 200.553 122.248 199.557C121.947 199.071 121.684 198.592 121.375 198.182C121.228 197.974 121.088 197.773 120.949 197.58C120.802 197.395 120.663 197.217 120.524 197.047C119.426 195.703 118.591 195.016 118.629 194.97C118.645 194.954 118.853 195.124 119.217 195.449C119.403 195.603 119.627 195.804 119.867 196.059C120.106 196.306 120.392 196.584 120.663 196.931C120.802 197.101 120.949 197.279 121.104 197.456C121.251 197.642 121.39 197.85 121.545 198.059C121.862 198.468 122.132 198.947 122.449 199.433C123.029 200.437 123.586 201.588 124.05 202.839C124.963 205.357 125.326 207.774 125.427 209.512C125.465 209.944 125.458 210.346 125.473 210.693C125.481 211.041 125.473 211.342 125.465 211.582C125.442 212.068 125.427 212.338 125.404 212.338H125.411Z" fill="#263238" stroke="#1A2E35" stroke-width="0.5" stroke-miterlimit="10"/>
<path d="M0.240379 172.319L9.86831 219.513H93.4263C94.3466 219.513 95.0967 218.764 95.0967 217.845C95.0967 216.926 94.3466 216.177 93.4263 216.177H76.6065L67.6823 172.28C67.5121 171.439 66.7775 170.828 65.9114 170.821L2.04997 170.126C0.889974 170.11 0.00838053 171.176 0.240379 172.311V172.319Z" fill="#E0E0E0" stroke="#1A2E35" stroke-width="0.5" stroke-miterlimit="10"/>
<path d="M0.240029 172.319C0.240029 172.319 0.232296 172.273 0.216829 172.18C0.201363 172.087 0.185896 171.941 0.209096 171.748C0.240029 171.385 0.441094 170.767 1.09069 170.365C1.25309 170.265 1.43869 170.195 1.63975 170.149C1.84855 170.103 2.07282 170.103 2.29708 170.11C2.75334 170.11 3.25601 170.11 3.79734 170.118C4.88773 170.126 6.14052 170.141 7.55571 170.149C13.2242 170.203 21.4524 170.28 31.7067 170.381C36.8339 170.435 42.4714 170.489 48.5421 170.55C51.5812 170.581 54.721 170.612 57.9689 170.651C59.5929 170.666 61.2401 170.682 62.9182 170.705C63.7534 170.713 64.5964 170.72 65.447 170.728C65.6635 170.728 65.8646 170.728 66.0966 170.744C66.3209 170.767 66.5374 170.828 66.7385 170.929C67.1406 171.13 67.4731 171.469 67.6587 171.887C67.7515 172.095 67.7902 172.319 67.8366 172.528L67.9681 173.161C68.0531 173.586 68.1382 174.01 68.231 174.435C68.4011 175.285 68.579 176.15 68.7569 177.014C69.1126 178.744 69.4683 180.49 69.8241 182.266C70.5432 185.811 71.2856 189.433 72.0358 193.132C73.5438 200.53 75.1059 208.23 76.7221 216.161L76.6139 216.069C79.7768 216.069 83.0093 216.069 86.3037 216.069C87.9508 216.069 89.6058 216.069 91.2762 216.069H92.5289H93.1553C93.3564 216.069 93.5807 216.061 93.8049 216.107C94.2457 216.2 94.6479 216.463 94.9031 216.833C95.1583 217.204 95.2665 217.675 95.1969 218.115C95.1196 218.664 94.7639 219.15 94.2844 219.413C94.0447 219.544 93.774 219.614 93.4956 219.621H92.7223C91.7015 219.621 90.6807 219.621 89.6676 219.621C87.6338 219.621 85.6154 219.621 83.6047 219.621C79.5912 219.621 75.624 219.621 71.7264 219.621C63.9236 219.621 56.3604 219.621 49.1066 219.621C34.599 219.621 21.3364 219.606 9.87569 219.598H9.80609L9.79062 219.529C6.85198 205.025 4.45466 193.225 2.79201 185.046C1.97228 180.961 1.33042 177.779 0.889624 175.617C0.673093 174.535 0.510694 173.717 0.402428 173.161C0.294162 172.605 0.247763 172.319 0.247763 172.319C0.247763 172.319 0.317362 172.605 0.433361 173.153C0.54936 173.709 0.719492 174.535 0.943757 175.609C1.39229 177.771 2.04962 180.945 2.89254 185.031C4.57066 193.202 6.99118 205.002 9.96076 219.498L9.87569 219.428C21.3441 219.428 34.6067 219.413 49.1066 219.405C56.3604 219.405 63.9236 219.405 71.7264 219.405C75.6317 219.405 79.5912 219.405 83.6047 219.405C85.6154 219.405 87.6338 219.405 89.6676 219.405C90.6807 219.405 91.7015 219.405 92.7223 219.405H93.4879C93.7276 219.397 93.9596 219.328 94.1684 219.22C94.586 218.988 94.8953 218.563 94.9649 218.092C95.0268 217.706 94.934 217.297 94.7097 216.972C94.4855 216.648 94.1375 216.416 93.7585 216.339C93.5729 216.293 93.3719 216.308 93.1553 216.308H92.5289H91.2762C89.6058 216.308 87.9508 216.308 86.3037 216.308C83.0093 216.308 79.7768 216.308 76.6139 216.308H76.5211L76.5056 216.216C74.8971 208.284 73.3272 200.585 71.827 193.186C71.0768 189.487 70.3422 185.857 69.623 182.32C69.2673 180.552 68.9115 178.798 68.5558 177.069C68.3779 176.204 68.2078 175.346 68.0299 174.489C67.9449 174.064 67.8598 173.64 67.7747 173.215L67.6433 172.582C67.5969 172.365 67.5659 172.165 67.4809 171.979C67.3185 171.608 67.0246 171.3 66.6611 171.122C66.4833 171.029 66.2822 170.975 66.0811 170.952C65.8878 170.937 65.6635 170.944 65.4547 170.937C64.6041 170.929 63.7612 170.921 62.926 170.906C61.2556 170.89 59.6007 170.867 57.9767 170.852C54.7287 170.813 51.5812 170.774 48.5498 170.744C42.4792 170.674 36.8416 170.605 31.7145 170.543C21.4601 170.419 13.2319 170.311 7.57118 170.242C6.15599 170.226 4.90319 170.203 3.8128 170.187C3.27147 170.18 2.76881 170.172 2.31255 170.164C2.08055 170.164 1.86402 170.157 1.66295 170.195C1.46189 170.242 1.27629 170.311 1.12162 170.404C0.479761 170.79 0.278696 171.392 0.240029 171.748C0.201363 172.126 0.263229 172.319 0.255496 172.319H0.240029Z" fill="#263238" stroke="#1A2E35" stroke-width="0.5" stroke-miterlimit="10"/>
<path d="M38.7442 193.92C38.7442 195.441 37.5069 196.677 35.9834 196.677C34.46 196.677 33.2227 195.441 33.2227 193.92C33.2227 192.398 34.46 191.163 35.9834 191.163C37.5069 191.163 38.7442 192.398 38.7442 193.92Z" fill="white" stroke="#1A2E35" stroke-width="0.5" stroke-miterlimit="10"/>
<path d="M0.317304 172.697C0.317304 172.697 0.417836 172.697 0.603435 172.689C0.8045 172.689 1.0829 172.689 1.44636 172.689C2.19649 172.689 3.28688 172.689 4.69434 172.689C7.52472 172.705 11.6002 172.72 16.6423 172.744C26.7342 172.813 40.6695 172.913 56.0588 173.022C57.9843 173.037 59.8867 173.052 61.7582 173.068C62.2299 173.068 62.6939 173.068 63.1579 173.076C63.3822 173.076 63.6296 173.068 63.8771 173.122C64.1168 173.168 64.3488 173.261 64.5576 173.4C64.9675 173.663 65.2768 174.08 65.4083 174.551C65.5088 175.014 65.5939 175.446 65.6789 175.894C66.3827 179.447 67.0632 182.876 67.7128 186.143C69.0043 192.676 70.172 198.561 71.1464 203.504C72.113 208.438 72.9018 212.439 73.4432 215.211C73.7061 216.586 73.9149 217.659 74.0541 218.393C74.1237 218.748 74.1701 219.026 74.2088 219.219C74.2397 219.405 74.2551 219.505 74.2551 219.505C74.2551 219.505 74.232 219.413 74.1856 219.227C74.1469 219.034 74.085 218.756 74.0077 218.401C73.853 217.667 73.6365 216.601 73.3504 215.227C72.7858 212.454 71.9816 208.462 70.984 203.534C69.9941 198.592 68.8109 192.715 67.4963 186.181C66.8467 182.914 66.1584 179.486 65.447 175.933C65.3541 175.493 65.2691 175.037 65.1763 174.605C65.068 174.188 64.7896 173.817 64.4262 173.585C64.2406 173.469 64.0395 173.385 63.823 173.346C63.6142 173.3 63.3899 173.315 63.1502 173.307C62.6862 173.307 62.2144 173.307 61.7504 173.3C59.879 173.284 57.9766 173.269 56.051 173.253C40.6618 173.122 26.7264 172.998 16.6345 172.906C11.5924 172.852 7.51698 172.805 4.6866 172.774C3.27915 172.751 2.18876 172.736 1.43863 172.728C1.07516 172.72 0.789033 172.713 0.595702 172.713C0.40237 172.713 0.30957 172.697 0.30957 172.697H0.317304Z" fill="#263238" stroke="#1A2E35" stroke-width="0.5" stroke-miterlimit="10"/>
<path d="M38.6668 51.7045C48.2039 51.7045 55.9352 43.9836 55.9352 34.4594C55.9352 24.9352 48.2039 17.2144 38.6668 17.2144C29.1298 17.2144 21.3984 24.9352 21.3984 34.4594C21.3984 43.9836 29.1298 51.7045 38.6668 51.7045Z" fill="#F1F2F2"/>
<path d="M471.127 157.824C480.664 157.824 488.395 150.103 488.395 140.579C488.395 131.054 480.664 123.333 471.127 123.333C461.59 123.333 453.858 131.054 453.858 140.579C453.858 150.103 461.59 157.824 471.127 157.824Z" fill="#F1F2F2"/>
<path d="M0.193359 219.599H530" stroke="#1A2E35" stroke-width="0.5" stroke-miterlimit="10"/>
</g>
<defs>
<clipPath id="clip0_2125_5936">
<rect width="530" height="220" fill="white"/>
</clipPath>
</defs>
</svg>
