<svg width="295" height="272" viewBox="0 0 295 272" fill="none" xmlns="http://www.w3.org/2000/svg">
<g clip-path="url(#clip0_2125_5589)">
<path opacity="0.7" d="M64.6324 19.3684C48.391 27.652 34.5743 41.834 29.688 59.3812C23.4229 81.9392 32.4458 105.856 43.8472 126.306C55.2485 146.757 69.3891 166.31 74.5715 189.136C77.3108 201.173 77.6902 214.403 85.0659 224.314C93.4781 235.62 109.22 239.429 123.166 237.312C137.112 235.195 149.754 228.169 162.034 221.244C185.929 207.774 209.879 194.165 231.451 177.238C253.023 160.31 272.299 139.823 284.534 115.286C290.216 103.887 294.362 91.5356 294.935 78.8236C295.509 66.1116 292.261 52.9651 284.432 42.9156C276.371 32.5796 264.257 26.293 252.18 21.1804C194.452 -3.24512 122.148 -9.95706 64.6324 19.3591V19.3684Z" fill="#F1F2F2"/>
<path d="M181.098 255.128H168.661C166.495 255.128 164.728 253.177 164.728 250.773V158.313C164.728 156.473 163.376 154.985 161.72 154.985H112.394C112.135 154.985 111.932 154.754 111.932 154.476C111.932 154.199 112.135 153.968 112.394 153.968H161.72C163.885 153.968 165.653 155.918 165.653 158.322V250.782C165.653 252.622 167.004 254.111 168.661 254.111H181.098C181.358 254.111 181.561 254.342 181.561 254.619C181.561 254.897 181.358 255.128 181.098 255.128Z" fill="#231F20"/>
<path d="M184.828 242.749H172.39C170.225 242.749 168.457 240.798 168.457 238.394V150.436C168.457 148.596 167.106 147.108 165.449 147.108H116.124C115.865 147.108 115.661 146.877 115.661 146.6C115.661 146.322 115.865 146.091 116.124 146.091H165.449C167.615 146.091 169.382 148.042 169.382 150.445V238.403C169.382 240.243 170.734 241.732 172.39 241.732H184.828C185.087 241.732 185.291 241.963 185.291 242.24C185.291 242.517 185.087 242.749 184.828 242.749Z" fill="#231F20"/>
<path d="M180.765 227.374H164.385C162.534 227.374 161.025 225.71 161.025 223.657V161.133C161.025 159.293 159.674 157.805 158.018 157.805H97.5037C97.2446 157.805 97.041 157.573 97.041 157.296C97.041 157.019 97.2446 156.788 97.5037 156.788H158.018C160.183 156.788 161.951 158.738 161.951 161.142V223.667C161.951 225.155 163.043 226.366 164.385 226.366H180.765C181.024 226.366 181.228 226.597 181.228 226.875C181.228 227.152 181.024 227.383 180.765 227.383V227.374Z" fill="#231F20"/>
<path d="M215.847 79.1842C215.19 79.3783 214.552 79.628 213.959 79.9423C213.997 79.9885 214.043 80.0255 214.08 80.081C214.654 80.8483 214.506 81.9485 213.737 82.5217C212.969 83.1041 211.877 82.9469 211.304 82.1796C211.266 82.1241 211.229 82.0687 211.202 82.0132C210.73 82.5032 210.304 83.0486 209.934 83.6218C209.999 83.6403 210.054 83.6496 210.119 83.6773C210.998 84.0564 211.415 85.0733 211.044 85.9608C210.674 86.8484 209.647 87.2644 208.768 86.8854C208.703 86.8576 208.638 86.8206 208.573 86.7744C208.407 87.4401 208.305 88.1242 208.277 88.8176C208.351 88.7991 208.416 88.7806 208.49 88.7714C209.443 88.6512 210.313 89.3353 210.424 90.2876C210.545 91.2398 209.869 92.1181 208.916 92.2383C208.833 92.2475 208.749 92.2383 208.666 92.2383C208.86 92.9132 209.119 93.5696 209.434 94.1797C209.49 94.1243 209.545 94.0596 209.619 94.0133C210.387 93.4309 211.479 93.588 212.053 94.3554C212.627 95.1227 212.479 96.2229 211.711 96.7961C211.637 96.8516 211.563 96.8978 211.479 96.9348C211.979 97.4248 212.534 97.8593 213.117 98.2383C213.136 98.1551 213.164 98.0719 213.191 97.9887C213.562 97.1012 214.589 96.6852 215.468 97.0642C216.356 97.4433 216.764 98.4602 216.393 99.3477C216.356 99.4402 216.31 99.5234 216.255 99.5974C216.93 99.7638 217.624 99.8655 218.337 99.8932C218.309 99.81 218.291 99.7176 218.272 99.6251C218.152 98.6729 218.827 97.7946 219.78 97.6744C220.734 97.5542 221.604 98.2383 221.715 99.1906C221.724 99.2923 221.724 99.3847 221.715 99.4772C222.399 99.283 223.047 99.0149 223.667 98.6913C223.603 98.6266 223.538 98.5619 223.482 98.488C222.908 97.7206 223.056 96.6204 223.825 96.0472C224.593 95.4648 225.685 95.622 226.258 96.3893C226.314 96.4633 226.36 96.5465 226.407 96.6297C226.888 96.1212 227.323 95.5665 227.693 94.9748C227.61 94.9563 227.526 94.9286 227.443 94.9009C226.555 94.5218 226.147 93.5048 226.518 92.6173C226.888 91.7298 227.915 91.3138 228.794 91.6928C228.877 91.7298 228.952 91.776 229.016 91.813C229.174 91.1473 229.275 90.454 229.303 89.7513C229.229 89.7698 229.155 89.7976 229.072 89.8068C228.119 89.927 227.249 89.2429 227.138 88.2906C227.017 87.3384 227.693 86.4601 228.646 86.3399C228.72 86.3306 228.803 86.3399 228.877 86.3399C228.683 85.665 228.424 85.0271 228.1 84.4262C228.054 84.4724 227.998 84.5279 227.943 84.5741C227.175 85.1565 226.092 84.9994 225.509 84.232C224.935 83.4647 225.083 82.3645 225.851 81.7913C225.907 81.7451 225.972 81.7173 226.027 81.6804C225.537 81.2089 224.991 80.7836 224.417 80.423C224.398 80.4877 224.389 80.5432 224.361 80.6079C223.991 81.4955 222.964 81.9115 222.085 81.5324C221.196 81.1534 220.789 80.1364 221.159 79.2489C221.187 79.1842 221.224 79.138 221.252 79.0825C220.604 78.9253 219.929 78.8236 219.234 78.7959C219.244 78.8514 219.262 78.9068 219.271 78.9716C219.392 79.9238 218.716 80.8021 217.763 80.9223C216.81 81.0425 215.94 80.3583 215.829 79.4061C215.829 79.3414 215.829 79.2766 215.829 79.2119L215.847 79.1842ZM217.92 82.2813C221.798 81.8006 225.333 84.5648 225.814 88.4663C226.296 92.3677 223.538 95.9178 219.66 96.3986C215.783 96.8793 212.247 94.115 211.766 90.2136C211.285 86.3122 214.043 82.762 217.92 82.2813Z" fill="#F15A29" stroke="#231F20" stroke-width="0.5" stroke-miterlimit="10"/>
<path d="M217.957 96.87C222.094 97.3323 225.833 94.3369 226.296 90.1858C226.758 86.0348 223.769 82.272 219.632 81.8098C215.496 81.3475 211.757 84.3429 211.294 88.494C210.832 92.645 213.821 96.4078 217.957 96.87ZM214.034 88.8545C214.339 86.3583 216.727 84.5463 219.355 84.8144C221.983 85.0825 223.871 87.3291 223.556 89.816C223.251 92.3122 220.863 94.1242 218.235 93.8561C215.607 93.588 213.719 91.3415 214.034 88.8545Z" fill="#F15A29"/>
<path d="M158.887 95.1689C158.35 95.3261 157.832 95.5387 157.351 95.8069C157.388 95.8438 157.425 95.8808 157.453 95.9178C157.925 96.565 157.804 97.4895 157.184 97.9795C156.564 98.4694 155.676 98.34 155.195 97.6836C155.158 97.6374 155.139 97.5912 155.111 97.5357C154.732 97.9517 154.38 98.4047 154.084 98.8855C154.13 98.904 154.186 98.9132 154.232 98.9317C154.954 99.2553 155.296 100.115 154.991 100.864C154.686 101.613 153.862 101.955 153.14 101.641C153.085 101.613 153.038 101.585 152.983 101.548C152.853 102.103 152.77 102.685 152.742 103.268C152.798 103.249 152.853 103.231 152.918 103.231C153.695 103.129 154.408 103.711 154.501 104.516C154.593 105.32 154.047 106.06 153.27 106.152C153.205 106.152 153.131 106.152 153.066 106.152C153.223 106.725 153.436 107.271 153.695 107.788C153.742 107.742 153.788 107.687 153.843 107.65C154.463 107.16 155.352 107.289 155.833 107.946C156.305 108.593 156.185 109.517 155.565 110.007C155.509 110.054 155.444 110.091 155.38 110.128C155.787 110.544 156.24 110.913 156.722 111.228C156.74 111.154 156.759 111.08 156.786 111.015C157.092 110.266 157.915 109.924 158.637 110.238C159.359 110.562 159.701 111.422 159.396 112.171C159.368 112.245 159.322 112.319 159.285 112.383C159.831 112.522 160.405 112.614 160.979 112.642C160.96 112.568 160.942 112.494 160.932 112.411C160.83 111.607 161.386 110.867 162.163 110.775C162.94 110.673 163.653 111.255 163.746 112.06C163.755 112.143 163.746 112.226 163.746 112.3C164.301 112.134 164.838 111.912 165.337 111.644C165.282 111.588 165.226 111.533 165.18 111.468C164.708 110.821 164.828 109.896 165.448 109.406C166.068 108.916 166.957 109.046 167.438 109.702C167.484 109.767 167.521 109.832 167.558 109.906C167.947 109.48 168.299 109.009 168.604 108.51C168.539 108.491 168.465 108.473 168.4 108.445C167.679 108.121 167.336 107.262 167.642 106.513C167.947 105.764 168.771 105.422 169.493 105.736C169.557 105.764 169.613 105.801 169.678 105.838C169.807 105.274 169.881 104.691 169.9 104.1C169.835 104.118 169.779 104.137 169.715 104.146C168.937 104.248 168.225 103.665 168.132 102.861C168.03 102.057 168.586 101.317 169.363 101.224C169.428 101.224 169.493 101.224 169.548 101.224C169.381 100.661 169.169 100.115 168.909 99.6066C168.872 99.6436 168.826 99.6898 168.78 99.7268C168.16 100.217 167.271 100.087 166.79 99.4309C166.318 98.7838 166.439 97.8593 167.059 97.3693C167.105 97.3323 167.151 97.3046 167.207 97.2768C166.799 96.8793 166.365 96.5187 165.893 96.2044C165.874 96.2599 165.865 96.3061 165.846 96.3616C165.541 97.1104 164.717 97.4525 163.995 97.1381C163.274 96.8146 162.931 95.9548 163.237 95.2059C163.255 95.1505 163.283 95.1135 163.311 95.0672C162.774 94.9286 162.228 94.8454 161.673 94.8176C161.682 94.8639 161.7 94.9101 161.71 94.9656C161.811 95.7699 161.256 96.5095 160.479 96.6019C159.701 96.7036 158.989 96.1212 158.896 95.3169C158.896 95.2614 158.896 95.2059 158.896 95.1597L158.887 95.1689ZM160.59 97.7853C163.755 97.3878 166.642 99.736 167.049 103.027C167.447 106.319 165.208 109.305 162.043 109.702C158.878 110.1 155.99 107.752 155.583 104.46C155.185 101.169 157.425 98.1828 160.59 97.7853Z" fill="#F15A29" stroke="#231F20" stroke-width="0.5" stroke-miterlimit="10"/>
<path d="M160.654 110.063C164.014 110.46 167.04 107.955 167.41 104.47C167.78 100.984 165.337 97.8223 161.987 97.4248C158.628 97.0272 155.602 99.5327 155.231 103.018C154.861 106.503 157.304 109.665 160.654 110.072V110.063ZM156.999 103.277C157.267 100.938 159.433 99.2461 161.811 99.5049C164.19 99.7638 165.911 101.872 165.633 104.211C165.365 106.55 163.199 108.242 160.821 107.983C158.443 107.724 156.721 105.616 156.99 103.277H156.999Z" fill="#F15A29"/>
<path d="M183.883 77.8714C182.717 78.2134 181.607 78.6572 180.561 79.2027C180.635 79.2766 180.709 79.3506 180.783 79.443C181.801 80.7928 181.533 82.725 180.182 83.742C178.83 84.7682 176.915 84.4908 175.897 83.1411C175.823 83.0486 175.777 82.9377 175.712 82.8452C174.879 83.7143 174.139 84.6665 173.481 85.6742C173.593 85.7112 173.704 85.7297 173.805 85.7759C175.36 86.4416 176.091 88.2351 175.425 89.7975C174.768 91.36 172.972 92.0903 171.418 91.4247C171.297 91.3692 171.186 91.3045 171.075 91.2398C170.788 92.4047 170.613 93.6065 170.548 94.8361C170.668 94.8084 170.788 94.7714 170.918 94.7529C172.593 94.5403 174.12 95.7421 174.324 97.4247C174.527 99.1073 173.343 100.642 171.668 100.845C171.52 100.864 171.381 100.855 171.233 100.855C171.575 102.047 172.029 103.194 172.575 104.266C172.676 104.164 172.778 104.063 172.889 103.97C174.24 102.944 176.156 103.221 177.174 104.571C178.192 105.921 177.924 107.853 176.572 108.87C176.443 108.972 176.304 109.046 176.165 109.12C177.054 109.98 178.016 110.747 179.053 111.413C179.09 111.265 179.127 111.117 179.191 110.969C179.848 109.406 181.644 108.676 183.199 109.342C184.753 110.007 185.484 111.801 184.818 113.363C184.753 113.52 184.67 113.668 184.577 113.807C185.762 114.103 186.984 114.279 188.233 114.334C188.187 114.177 188.15 114.029 188.122 113.863C187.918 112.18 189.103 110.645 190.778 110.442C192.453 110.229 193.98 111.431 194.183 113.114C194.202 113.289 194.202 113.456 194.193 113.622C195.396 113.271 196.543 112.809 197.626 112.235C197.515 112.124 197.395 112.013 197.302 111.884C196.284 110.534 196.553 108.602 197.904 107.585C199.255 106.559 201.17 106.836 202.188 108.186C202.29 108.315 202.364 108.463 202.438 108.602C203.29 107.705 204.049 106.735 204.706 105.69C204.557 105.653 204.419 105.616 204.271 105.551C202.716 104.886 201.985 103.092 202.651 101.53C203.308 99.9671 205.103 99.2368 206.658 99.9024C206.797 99.9671 206.927 100.041 207.056 100.124C207.343 98.9502 207.51 97.7298 207.556 96.491C207.426 96.528 207.297 96.5649 207.149 96.5834C205.474 96.7961 203.947 95.5942 203.743 93.9116C203.54 92.229 204.724 90.6943 206.399 90.4909C206.538 90.4724 206.667 90.4817 206.806 90.4817C206.464 89.2983 206.001 88.1704 205.446 87.1165C205.353 87.1997 205.279 87.2921 205.178 87.3661C203.826 88.3923 201.911 88.1149 200.893 86.7651C199.875 85.4154 200.143 83.4831 201.494 82.4662C201.596 82.3922 201.698 82.3367 201.809 82.272C200.939 81.44 199.986 80.7004 198.977 80.0532C198.949 80.1641 198.922 80.2658 198.875 80.3675C198.218 81.93 196.423 82.6603 194.868 81.9947C193.313 81.3383 192.582 79.5355 193.249 77.9731C193.295 77.8621 193.36 77.7697 193.415 77.6772C192.268 77.3999 191.083 77.2242 189.871 77.178C189.899 77.2797 189.926 77.3814 189.936 77.4831C190.139 79.1657 188.955 80.7004 187.28 80.9038C185.605 81.1164 184.078 79.9145 183.874 78.2319C183.856 78.121 183.874 78.01 183.874 77.8991L183.883 77.8714ZM187.641 84.1858C193.998 83.3999 199.782 87.93 200.569 94.3091C201.355 100.688 196.839 106.503 190.491 107.289C184.142 108.075 178.349 103.545 177.563 97.1659C176.776 90.7868 181.292 84.9716 187.641 84.1858Z" fill="#F15A29" stroke="#231F20" stroke-width="0.5" stroke-miterlimit="10"/>
<path d="M179.617 94.6697C180.2 89.437 184.92 85.6557 190.13 86.2382C195.34 86.8206 199.107 91.5633 198.524 96.7961C197.941 102.029 193.221 105.81 188.011 105.228C182.801 104.645 179.034 99.9024 179.617 94.6697Z" stroke="#292929" stroke-linecap="round" stroke-linejoin="round"/>
<path d="M234.476 30.9527C234.393 25.4056 239.168 21.1159 244.406 21.3655C246.229 21.4487 247.895 22.0589 249.293 23.0204C251.477 20.515 254.725 18.9988 258.288 19.1744C263.183 19.4056 267.912 22.7338 268.31 27.2824C273.095 28.6506 276.704 33.116 276.463 38.321C276.306 41.5383 274.797 44.3673 272.502 46.2811C273.085 47.9359 273.03 49.8774 271.975 51.8096C271.41 52.8451 270.513 53.6864 269.448 54.1949C267.496 55.1194 265.654 55.0731 264.099 54.463L263.979 63.4584C263.979 63.9947 263.276 64.2073 262.97 63.7635L258.288 56.9684C253.92 58.7619 250.005 56.0716 249.709 52.087C248.552 52.6694 247.238 52.9745 245.85 52.9098C241.843 52.7156 238.687 49.5538 238.382 45.6431C236.198 46.9559 233.338 47.2333 230.506 45.8003C228.933 45.0145 227.702 43.6369 227.082 41.9913C224.889 36.1669 229.146 30.8602 234.486 30.9434L234.476 30.9527Z" fill="#F15A29" stroke="#231F20" stroke-width="0.5" stroke-miterlimit="10"/>
<path d="M266.728 41.9636C269.309 42.0838 271.466 43.7202 272.391 45.9668" stroke="black" stroke-linecap="round" stroke-linejoin="round"/>
<path d="M238.438 44.9867C238.641 40.623 242.334 37.2578 246.683 37.4611" stroke="black" stroke-linecap="round" stroke-linejoin="round"/>
<path d="M233.801 30.9619C235.457 30.851 237.012 31.2485 238.317 32.0159" stroke="black" stroke-linecap="round" stroke-linejoin="round"/>
<path d="M242.75 24.8972C246.239 25.0636 248.932 28.0405 248.765 31.5444" stroke="black" stroke-linecap="round" stroke-linejoin="round"/>
<path d="M248.284 49.0453C245.202 49.3412 242.472 47.0669 242.186 43.979" stroke="black" stroke-linecap="round" stroke-linejoin="round"/>
<path d="M230.673 40.8172C229.766 38.1731 231.154 35.2978 233.782 34.3826" stroke="black" stroke-linecap="round" stroke-linejoin="round"/>
<path d="M269.143 48.2317C268.495 50.2471 266.339 51.3565 264.331 50.7001" stroke="black" stroke-linecap="round" stroke-linejoin="round"/>
<path d="M259.944 28.8355C262.267 27.2268 265.182 26.6444 268.162 27.2546" stroke="black" stroke-linecap="round" stroke-linejoin="round"/>
<path d="M269.957 32.1267C271.512 33.2823 272.539 35.1314 272.567 37.23" stroke="black" stroke-linecap="round" stroke-linejoin="round"/>
<path d="M253.059 34.5489C255.002 34.1606 257.14 35.0851 258.185 36.777C259.231 38.4688 259.111 40.8079 257.899 42.3795" stroke="black" stroke-linecap="round" stroke-linejoin="round"/>
<path d="M252.402 44.1638C251.726 44.7832 251.375 45.7447 251.513 46.66C251.643 47.566 252.254 48.3981 253.077 48.7956" stroke="black" stroke-linecap="round" stroke-linejoin="round"/>
<path d="M202.846 1.45142L203.142 29.9448L197.191 29.9818L196.904 1.4884L202.846 1.45142Z" fill="#F15A29" stroke="#231F20" stroke-width="0.5" stroke-miterlimit="10"/>
<path d="M189.631 6.1665L189.881 30.0189L183.93 30.0466L183.689 6.19424L189.631 6.1665Z" fill="#BCBEC0" stroke="#231F20" stroke-width="0.5" stroke-miterlimit="10"/>
<path d="M170.465 9.78125L170.668 30.1205L176.619 30.0927L176.406 9.78125H170.465Z" fill="#F15A29" stroke="#231F20" stroke-width="0.5" stroke-miterlimit="10"/>
<path d="M164.19 19.2205L164.301 30.1574L158.36 30.1851L158.249 19.2574L164.19 19.2205Z" fill="#BCBEC0" stroke="#231F20" stroke-width="0.5" stroke-miterlimit="10"/>
<path d="M155.871 30.7398C155.621 30.7398 155.408 30.5364 155.408 30.2775C155.408 30.0187 155.612 29.8153 155.871 29.8153L208.102 29.4917C208.398 29.4917 208.565 29.6951 208.565 29.954C208.565 30.2128 208.361 30.4162 208.102 30.4162L155.871 30.7398Z" fill="#101C59"/>
<path d="M165.652 68.386H218.947C219.068 68.386 219.188 68.3398 219.271 68.2473L231.2 56.2657C231.515 56.4321 231.867 56.5338 232.246 56.5338C233.505 56.5338 234.532 55.5076 234.532 54.241C234.532 52.9744 233.505 51.9482 232.246 51.9482C230.987 51.9482 229.96 52.9744 229.96 54.241C229.96 54.7865 230.164 55.2857 230.478 55.6833L218.744 67.4615H165.439C165.319 67.4615 165.198 67.5077 165.106 67.6002L150.891 82.115C150.503 81.8007 150.012 81.6065 149.475 81.6065C148.217 81.6065 147.189 82.6327 147.189 83.8993C147.189 85.1659 148.217 86.1921 149.475 86.1921C150.734 86.1921 151.761 85.1659 151.761 83.8993C151.761 83.511 151.659 83.1504 151.483 82.8269L165.633 68.3768L165.652 68.386Z" fill="#6D6E71"/>
<path d="M151.836 48.1393H215.32C215.533 49.184 216.459 49.9698 217.56 49.9698C218.818 49.9698 219.846 48.9436 219.846 47.6771C219.846 46.4105 218.818 45.3843 217.56 45.3843C216.459 45.3843 215.533 46.1701 215.32 47.2148H151.641C151.521 47.2148 151.401 47.261 151.317 47.3535L139.787 58.9376C139.472 58.7712 139.111 58.6602 138.722 58.6602C137.464 58.6602 136.437 59.6864 136.437 60.953C136.437 62.2196 137.464 63.2458 138.722 63.2458C139.981 63.2458 141.008 62.2196 141.008 60.953C141.008 60.4076 140.814 59.9176 140.499 59.5293L151.836 48.1393Z" fill="#6D6E71"/>
<path d="M153.279 63.5509H186.549C186.669 63.5509 186.789 63.5047 186.873 63.4122L192.61 57.6433C192.712 57.6525 192.805 57.671 192.906 57.671C194.165 57.671 195.192 56.6448 195.192 55.3782C195.192 54.1117 194.165 53.0854 192.906 53.0854C191.648 53.0854 190.621 54.1117 190.621 55.3782C190.621 56.1826 191.028 56.8852 191.648 57.292L186.345 62.6171H153.076C152.955 62.6171 152.835 62.6634 152.752 62.7558L146.116 69.4215C145.709 69.0517 145.182 68.8206 144.59 68.8206C143.331 68.8206 142.304 69.8468 142.304 71.1134C142.304 72.38 143.331 73.4062 144.59 73.4062C145.848 73.4062 146.875 72.38 146.875 71.1134C146.875 70.7806 146.801 70.457 146.672 70.1704L153.27 63.5417L153.279 63.5509Z" fill="#6D6E71"/>
<path d="M140.036 35.3533H217.819C218.087 36.3148 218.966 37.0175 220.003 37.0175C221.261 37.0175 222.289 35.9912 222.289 34.7247C222.289 33.4581 221.261 32.4319 220.003 32.4319C218.846 32.4319 217.893 33.3009 217.745 34.4288H140.092C139.944 33.3009 139 32.4319 137.834 32.4319C136.575 32.4319 135.548 33.4581 135.548 34.7247C135.548 35.9912 136.575 37.0175 137.834 37.0175C138.879 37.0175 139.749 36.3056 140.018 35.3533H140.036Z" fill="#6D6E71"/>
<path d="M181.533 54.9253H160.257C160.183 53.7235 159.202 52.762 157.99 52.762C156.778 52.762 155.704 53.7882 155.704 55.0547C155.704 56.3213 156.731 57.3475 157.99 57.3475C158.971 57.3475 159.804 56.7189 160.128 55.8406H181.542C181.755 56.8853 182.68 57.6711 183.782 57.6711C185.04 57.6711 186.068 56.6449 186.068 55.3783C186.068 54.1117 185.04 53.0855 183.782 53.0855C182.68 53.0855 181.755 53.8714 181.542 54.9161L181.533 54.9253Z" fill="#6D6E71"/>
<path d="M201.735 61.2858C202.948 61.2858 203.938 60.3335 204.002 59.1224H214.145C214.219 60.3243 215.2 61.2858 216.413 61.2858C217.625 61.2858 218.698 60.2596 218.698 58.993C218.698 57.7264 217.671 56.7002 216.413 56.7002C215.432 56.7002 214.599 57.3289 214.275 58.2071H203.864C203.54 57.3289 202.707 56.7002 201.726 56.7002C200.745 56.7002 199.884 57.3473 199.579 58.2534C199.422 58.3273 199.311 58.4845 199.311 58.6694C199.311 58.7988 199.366 58.9098 199.449 58.993C199.449 60.2596 200.477 61.2858 201.735 61.2858Z" fill="#6D6E71"/>
<path d="M232.839 57.9299C231.58 57.9299 230.553 58.9561 230.553 60.2227C230.553 60.6849 230.692 61.1195 230.932 61.48L220.651 71.8068H173.556C173.435 71.8068 173.315 71.853 173.232 71.9455L156.602 88.6514C156.25 88.4295 155.834 88.2908 155.389 88.2908C154.131 88.2908 153.104 89.317 153.104 90.5836C153.104 91.8502 154.131 92.8764 155.389 92.8764C156.648 92.8764 157.675 91.8502 157.675 90.5836C157.675 90.1028 157.527 89.6498 157.268 89.28L173.75 72.7221H220.845C220.965 72.7221 221.086 72.6758 221.169 72.5834L231.58 62.1272C231.941 62.3675 232.367 62.5062 232.839 62.5062C234.097 62.5062 235.125 61.48 235.125 60.2134C235.125 58.9469 234.097 57.9207 232.839 57.9207V57.9299Z" fill="#6D6E71"/>
<path d="M207 40.4936H164.144C163.931 39.4489 163.005 38.6631 161.904 38.6631C160.645 38.6631 159.618 39.6893 159.618 40.9559C159.618 42.2224 160.645 43.2487 161.904 43.2487C163.005 43.2487 163.931 42.4628 164.144 41.4181H207C207.213 42.4628 208.139 43.2487 209.24 43.2487C210.498 43.2487 211.526 42.2224 211.526 40.9559C211.526 39.6893 210.498 38.6631 209.24 38.6631C208.139 38.6631 207.213 39.4489 207 40.4936Z" fill="#6D6E71"/>
<path d="M31.918 35.5845C31.918 36.2779 32.4825 36.8418 33.1766 36.8418H57.3488C58.0429 36.8418 58.6074 36.2779 58.6074 35.5845C58.6074 34.8911 58.0429 34.3271 57.3488 34.3271H33.1766C32.4825 34.3271 31.918 34.8911 31.918 35.5845Z" fill="#F15A29"/>
<path d="M70.444 34.3179H62.7166C62.0225 34.3179 61.458 34.8818 61.458 35.5752C61.458 36.2686 62.0225 36.8325 62.7166 36.8325H70.444C71.138 36.8325 71.7025 36.2686 71.7025 35.5752C71.7025 34.8818 71.138 34.3179 70.444 34.3179Z" fill="#F15A29"/>
<path d="M62.7254 40.5308H40.7371C40.043 40.5308 39.4785 41.0947 39.4785 41.7881C39.4785 42.4815 40.043 43.0454 40.7371 43.0454H62.7254C63.4194 43.0454 63.984 42.4815 63.984 41.7881C63.984 41.0947 63.4194 40.5308 62.7254 40.5308Z" fill="#F15A29"/>
<path d="M66.1035 41.7881C66.1035 42.4815 66.668 43.0454 67.3621 43.0454H72.0448C72.7389 43.0454 73.3034 42.4815 73.3034 41.7881C73.3034 41.0947 72.7389 40.5308 72.0448 40.5308H67.3621C66.668 40.5308 66.1035 41.0947 66.1035 41.7881Z" fill="#F15A29"/>
<path d="M35.9436 40.5308H33.1766C32.4825 40.5308 31.918 41.0947 31.918 41.7881C31.918 42.4815 32.4825 43.0454 33.1766 43.0454H35.9436C36.6377 43.0454 37.2022 42.4815 37.2022 41.7881C37.2022 41.0947 36.6377 40.5308 35.9436 40.5308Z" fill="#F15A29"/>
<path d="M27.7071 40.5307H16.6297C15.9356 40.5307 15.3711 41.0947 15.3711 41.7881C15.3711 42.4814 15.9356 43.0454 16.6297 43.0454H27.7071C28.1235 43.0454 28.466 42.7033 28.466 42.2873V41.2796C28.466 40.8636 28.1235 40.5215 27.7071 40.5215V40.5307Z" fill="#F15A29"/>
<path d="M42.958 47.5847C42.958 48.2781 43.5225 48.8421 44.2166 48.8421H71.5816C72.2757 48.8421 72.8402 48.2781 72.8402 47.5847C72.8402 46.8913 72.2757 46.3274 71.5816 46.3274H44.2166C43.5225 46.3274 42.958 46.8913 42.958 47.5847Z" fill="#F15A29"/>
<path d="M23.4873 47.5847C23.4873 48.2781 24.0518 48.8421 24.7459 48.8421H37.5076C38.2017 48.8421 38.7662 48.2781 38.7662 47.5847C38.7662 46.8913 38.2017 46.3274 37.5076 46.3274H24.7459C24.0518 46.3274 23.4873 46.8913 23.4873 47.5847Z" fill="#F15A29"/>
<path d="M14.085 53.7974C14.085 54.4908 14.6495 55.0547 15.3435 55.0547H17.0278C17.7219 55.0547 18.2864 54.4908 18.2864 53.7974C18.2864 53.104 17.7219 52.54 17.0278 52.54H15.3435C14.6495 52.54 14.085 53.104 14.085 53.7974Z" fill="#F15A29"/>
<path d="M19.9619 53.7974C19.9619 54.4908 20.5264 55.0547 21.2205 55.0547H37.6747C38.3688 55.0547 38.9333 54.4908 38.9333 53.7974C38.9333 53.104 38.3688 52.54 37.6747 52.54H21.2205C20.5264 52.54 19.9619 53.104 19.9619 53.7974Z" fill="#F15A29"/>
<path d="M41.6162 53.7974C41.6162 54.4908 42.1807 55.0547 42.8748 55.0547H48.9179C49.6119 55.0547 50.1765 54.4908 50.1765 53.7974C50.1765 53.104 49.6119 52.54 48.9179 52.54H42.8748C42.1807 52.54 41.6162 53.104 41.6162 53.7974Z" fill="#F15A29"/>
<path d="M53.8604 53.7974C53.8604 54.4908 54.4249 55.0547 55.1189 55.0547H61.3378C62.0319 55.0547 62.5964 54.4908 62.5964 53.7974C62.5964 53.104 62.0319 52.54 61.3378 52.54H55.1189C54.4249 52.54 53.8604 53.104 53.8604 53.7974Z" fill="#F15A29"/>
<path d="M66.9551 53.7974C66.9551 54.4908 67.5196 55.0547 68.2137 55.0547H71.573C72.2671 55.0547 72.8316 54.4908 72.8316 53.7974C72.8316 53.104 72.2671 52.54 71.573 52.54H68.2137C67.5196 52.54 66.9551 53.104 66.9551 53.7974Z" fill="#F15A29"/>
<path d="M28.0215 60.01C28.0215 60.7034 28.586 61.2673 29.2801 61.2673H31.6307C32.3247 61.2673 32.8893 60.7034 32.8893 60.01C32.8893 59.3166 32.3247 58.7527 31.6307 58.7527H29.2801C28.586 58.7527 28.0215 59.3166 28.0215 60.01Z" fill="#F15A29"/>
<path d="M37.8594 60.01C37.8594 60.7034 38.4239 61.2673 39.118 61.2673H50.9357C51.6298 61.2673 52.1943 60.7034 52.1943 60.01C52.1943 59.3166 51.6298 58.7527 50.9357 58.7527H39.118C38.4239 58.7527 37.8594 59.3166 37.8594 60.01Z" fill="#F15A29"/>
<path d="M54.7393 60.01C54.7393 60.7034 55.3038 61.2673 55.9978 61.2673H65.2337C65.9277 61.2673 66.4922 60.7034 66.4922 60.01C66.4922 59.3166 65.9277 58.7527 65.2337 58.7527H55.9978C55.3038 58.7527 54.7393 59.3166 54.7393 60.01Z" fill="#F15A29"/>
<path d="M43.2734 17.6582C43.2734 18.3516 43.838 18.9155 44.532 18.9155H71.8971C72.5911 18.9155 73.1556 18.3516 73.1556 17.6582C73.1556 16.9648 72.5911 16.4009 71.8971 16.4009H44.532C43.838 16.4009 43.2734 16.9648 43.2734 17.6582Z" fill="#F15A29"/>
<path d="M53.2674 11.0388H49.9266C49.2315 11.0388 48.668 11.6017 48.668 12.2962V12.3054C48.668 12.9998 49.2315 13.5627 49.9266 13.5627H53.2674C53.9625 13.5627 54.526 12.9998 54.526 12.3054V12.2962C54.526 11.6017 53.9625 11.0388 53.2674 11.0388Z" fill="#F15A29"/>
<path d="M44.8461 11.0388H33.491C32.7959 11.0388 32.2324 11.6017 32.2324 12.2962V12.3054C32.2324 12.9998 32.7959 13.5627 33.491 13.5627H44.8461C45.5412 13.5627 46.1046 12.9998 46.1046 12.3054V12.2962C46.1046 11.6017 45.5412 11.0388 44.8461 11.0388Z" fill="#F15A29"/>
<path d="M56.4795 12.2962C56.4795 12.9895 57.044 13.5535 57.7381 13.5535H71.8879C72.582 13.5535 73.1465 12.9895 73.1465 12.2962C73.1465 11.6028 72.582 11.0388 71.8879 11.0388H57.7381C57.044 11.0388 56.4795 11.6028 56.4795 12.2962Z" fill="#F15A29"/>
<path d="M41.9316 23.8711C41.9316 24.5645 42.4962 25.1284 43.1902 25.1284H49.2333C49.9274 25.1284 50.4919 24.5645 50.4919 23.8711C50.4919 23.1777 49.9274 22.6138 49.2333 22.6138H43.1902C42.4962 22.6138 41.9316 23.1777 41.9316 23.8711Z" fill="#F15A29"/>
<path d="M54.1836 23.8711C54.1836 24.5645 54.7481 25.1284 55.4422 25.1284H61.6611C62.3552 25.1284 62.9197 24.5645 62.9197 23.8711C62.9197 23.1777 62.3552 22.6138 61.6611 22.6138H55.4422C54.7481 22.6138 54.1836 23.1777 54.1836 23.8711Z" fill="#F15A29"/>
<path d="M66.5479 23.8711C66.5479 24.5645 67.1124 25.1284 67.8064 25.1284H72.3873C73.0814 25.1284 73.6459 24.5645 73.6459 23.8711C73.6459 23.1777 73.0814 22.6138 72.3873 22.6138H67.8064C67.1124 22.6138 66.5479 23.1777 66.5479 23.8711Z" fill="#F15A29"/>
<path d="M47.6875 30.0837C47.6875 30.7771 48.252 31.3411 48.9461 31.3411H55.9979C56.692 31.3411 57.2565 30.7771 57.2565 30.0837C57.2565 29.3904 56.692 28.8264 55.9979 28.8264H48.9461C48.252 28.8264 47.6875 29.3904 47.6875 30.0837Z" fill="#F15A29"/>
<path d="M28.3369 30.0837C28.3369 30.7771 28.9014 31.3411 29.5955 31.3411H31.9461C32.6402 31.3411 33.2047 30.7771 33.2047 30.0837C33.2047 29.3904 32.6402 28.8264 31.9461 28.8264H29.5955C28.9014 28.8264 28.3369 29.3904 28.3369 30.0837Z" fill="#F15A29"/>
<path d="M35.5547 30.0837C35.5547 30.7771 36.1192 31.3411 36.8133 31.3411H42.0235C42.7175 31.3411 43.282 30.7771 43.282 30.0837C43.282 29.3904 42.7175 28.8264 42.0235 28.8264H36.8133C36.1192 28.8264 35.5547 29.3904 35.5547 30.0837Z" fill="#F15A29"/>
<path d="M61.9023 30.0837C61.9023 30.7771 62.4669 31.3411 63.1609 31.3411H72.3967C73.0908 31.3411 73.6553 30.7771 73.6553 30.0837C73.6553 29.3904 73.0908 28.8264 72.3967 28.8264H63.1609C62.4669 28.8264 61.9023 29.3904 61.9023 30.0837Z" fill="#F15A29"/>
<path d="M27.8182 15.1805C27.6701 15.1805 27.5313 15.1251 27.411 15.0234L24.4219 12.2498L27.3925 9.18048C27.6239 8.9401 28.0033 8.9401 28.2347 9.17123C28.466 9.40236 28.4753 9.78141 28.2439 10.0125L26.1247 12.2036L28.2161 14.1451C28.4568 14.367 28.4753 14.746 28.2532 14.9864C28.1329 15.1158 27.9755 15.1805 27.8182 15.1805Z" fill="#F15A29"/>
<path d="M31.4178 15.1805C31.2698 15.1805 31.1309 15.1251 31.0106 15.0234L28.0215 12.2498L30.9921 9.18048C31.2235 8.9401 31.6029 8.9401 31.8343 9.17123C32.0656 9.40236 32.0749 9.78141 31.8435 10.0125L29.7243 12.2036L31.8158 14.1451C32.0564 14.367 32.0749 14.746 31.8528 14.9864C31.7325 15.1158 31.5751 15.1805 31.4178 15.1805Z" fill="#F15A29"/>
<path d="M71.9804 63.2736C71.8231 63.2736 71.6565 63.2089 71.5454 63.0794C71.3233 62.839 71.3326 62.46 71.5825 62.2381L73.6739 60.2966L71.5547 58.1056C71.3233 57.8652 71.3326 57.4861 71.564 57.2643C71.7953 57.0331 72.1747 57.0424 72.4061 57.2735L75.3767 60.3429L72.3876 63.1164C72.2765 63.2181 72.1285 63.2736 71.9804 63.2736Z" fill="#F15A29"/>
<path d="M68.3798 63.2736C68.2225 63.2736 68.0559 63.2089 67.9449 63.0794C67.7228 62.839 67.732 62.46 67.9819 62.2381L70.0734 60.2966L67.9541 58.1056C67.7228 57.8652 67.732 57.4861 67.9634 57.2643C68.1947 57.0331 68.5742 57.0424 68.8055 57.2735L71.7761 60.3429L68.787 63.1164C68.676 63.2181 68.5279 63.2736 68.3798 63.2736Z" fill="#F15A29"/>
<path d="M118.502 34.697H119.242C121.269 34.697 122.916 36.3426 122.916 38.3673V65.2243C122.916 67.249 121.269 68.8946 119.242 68.8946H118.502C116.475 68.8946 114.828 67.249 114.828 65.2243V38.3673C114.828 36.3426 116.475 34.697 118.502 34.697Z" fill="#A7A9AC"/>
<path d="M132.309 93.6068L131.587 93.9951C130.023 94.8457 128.071 94.2632 127.219 92.6915L116.836 73.4248C115.994 71.8531 116.568 69.8931 118.132 69.0426L118.853 68.6543C120.417 67.8037 122.37 68.3862 123.221 69.9579L133.605 89.2246C134.447 90.7963 133.873 92.7563 132.309 93.6068Z" fill="#A7A9AC"/>
<path d="M129.967 105.81C129.801 105.81 129.634 105.718 129.551 105.551C127.191 100.873 128.357 95.502 132.142 93.5697C133.715 92.7654 135.594 92.6545 137.426 93.2554C139.86 94.0505 141.998 95.9827 143.294 98.5528C143.405 98.784 143.321 99.0613 143.09 99.1723C142.868 99.2832 142.581 99.2 142.47 98.9689C141.286 96.6206 139.342 94.8548 137.14 94.1337C135.52 93.6067 133.938 93.6899 132.559 94.3925C129.227 96.0936 128.246 100.91 130.375 105.135C130.486 105.366 130.402 105.644 130.171 105.755C130.106 105.792 130.032 105.801 129.967 105.801V105.81Z" fill="#231F20" stroke="#231F20" stroke-width="4" stroke-miterlimit="10"/>
<path d="M119.15 66.7775C119.866 66.7775 120.446 66.1939 120.446 65.474C120.446 64.754 119.866 64.1704 119.15 64.1704C118.435 64.1704 117.854 64.754 117.854 65.474C117.854 66.1939 118.435 66.7775 119.15 66.7775Z" fill="#1D1D1B"/>
<path d="M121.565 71.6312C121.565 72.3523 120.982 72.9348 120.269 72.9348C119.557 72.9348 118.974 72.3523 118.974 71.6312C118.974 70.9101 119.557 70.3276 120.269 70.3276C120.982 70.3276 121.565 70.9101 121.565 71.6312Z" fill="#1D1D1B"/>
<path d="M119.335 44.8574C114.624 44.8574 110.793 41.0114 110.793 36.2779C110.793 31.5444 114.624 27.6985 119.335 27.6985C124.045 27.6985 127.876 31.5444 127.876 36.2779C127.876 41.0114 124.045 44.8574 119.335 44.8574ZM119.335 28.6322C115.133 28.6322 111.718 32.0622 111.718 36.2872C111.718 40.5122 115.133 43.9421 119.335 43.9421C123.536 43.9421 126.951 40.5122 126.951 36.2872C126.951 32.0622 123.536 28.6322 119.335 28.6322Z" fill="black"/>
<path d="M119.335 41.7972C122.371 41.7972 124.832 39.3261 124.832 36.2779C124.832 33.2296 122.371 30.7585 119.335 30.7585C116.299 30.7585 113.838 33.2296 113.838 36.2779C113.838 39.3261 116.299 41.7972 119.335 41.7972Z" fill="black"/>
<path d="M119.492 35.1591C119.233 35.1591 119.029 34.9557 119.029 34.6969V24.2407C119.029 20.3392 115.874 17.1682 111.987 17.1682H75.3397C75.0805 17.1682 74.877 16.9648 74.877 16.7059C74.877 16.447 75.0805 16.2437 75.3397 16.2437H111.987C116.383 16.2437 119.955 19.8307 119.955 24.2407V34.6969C119.955 34.9557 119.751 35.1591 119.492 35.1591Z" fill="#939598"/>
<path d="M116.447 52.8175C116.327 52.8175 116.206 52.7712 116.123 52.6788L100.557 37.0453C98.2066 34.6878 95.0972 33.3935 91.7749 33.3935H75.3485C75.0893 33.3935 74.8857 33.1901 74.8857 32.9312C74.8857 32.6724 75.0893 32.469 75.3485 32.469H91.7749C95.3378 32.469 98.6879 33.865 101.214 36.3982L116.78 52.0316C116.956 52.2165 116.956 52.5031 116.78 52.688C116.688 52.7805 116.576 52.8267 116.456 52.8267L116.447 52.8175Z" fill="#939598"/>
<path d="M116.197 61.4245C116.077 61.4245 115.956 61.3782 115.873 61.2858L97.1239 42.4535C94.7733 40.096 91.6546 38.8017 88.3415 38.8017H75.3485C75.0893 38.8017 74.8857 38.5983 74.8857 38.3395C74.8857 38.0806 75.0893 37.8772 75.3485 37.8772H88.3415C91.9044 37.8772 95.2545 39.2732 97.7809 41.8064L116.53 60.6386C116.706 60.8235 116.706 61.1101 116.53 61.295C116.438 61.3875 116.327 61.4337 116.206 61.4337L116.197 61.4245Z" fill="#939598"/>
<path d="M260.972 191.105H178.729V266.943H260.972V191.105Z" fill="#BCBEC0" stroke="#1A2E35" stroke-width="0.5" stroke-miterlimit="10"/>
<path d="M260.972 206.055H178.729" stroke="#1D1D1B" stroke-width="0.25" stroke-linecap="round" stroke-linejoin="round"/>
<path d="M260.972 221.013H178.729" stroke="#1D1D1B" stroke-width="0.25" stroke-linecap="round" stroke-linejoin="round"/>
<path d="M260.972 235.972H178.729" stroke="#1D1D1B" stroke-width="0.25" stroke-linecap="round" stroke-linejoin="round"/>
<path d="M260.972 250.921H178.729" stroke="#1D1D1B" stroke-width="0.25" stroke-linecap="round" stroke-linejoin="round"/>
<path d="M200.05 256.357H184.484V260.777H200.05V256.357Z" fill="#939598" stroke="#1A2E35" stroke-width="0.5" stroke-miterlimit="10"/>
<path d="M253.864 256.357H207.833V260.777H253.864V256.357Z" fill="#939598" stroke="#1A2E35" stroke-width="0.5" stroke-miterlimit="10"/>
<path d="M200.05 241.741H184.484V246.16H200.05V241.741Z" fill="#939598" stroke="#1A2E35" stroke-width="0.5" stroke-miterlimit="10"/>
<path d="M253.864 241.741H207.833V246.16H253.864V241.741Z" fill="#939598" stroke="#1A2E35" stroke-width="0.5" stroke-miterlimit="10"/>
<path d="M200.05 227.134H184.484V231.553H200.05V227.134Z" fill="#939598" stroke="#1A2E35" stroke-width="0.5" stroke-miterlimit="10"/>
<path d="M253.864 227.134H207.833V231.553H253.864V227.134Z" fill="#939598" stroke="#1A2E35" stroke-width="0.5" stroke-miterlimit="10"/>
<path d="M200.05 212.517H184.484V216.936H200.05V212.517Z" fill="#939598" stroke="#1A2E35" stroke-width="0.5" stroke-miterlimit="10"/>
<path d="M253.864 212.517H207.833V216.936H253.864V212.517Z" fill="#939598" stroke="#1A2E35" stroke-width="0.5" stroke-miterlimit="10"/>
<path d="M200.05 197.901H184.484V202.32H200.05V197.901Z" fill="#939598" stroke="#1A2E35" stroke-width="0.5" stroke-miterlimit="10"/>
<path d="M253.864 197.901H207.833V202.32H253.864V197.901Z" fill="#939598" stroke="#1A2E35" stroke-width="0.5" stroke-miterlimit="10"/>
<path d="M244.119 54.5276C242.861 54.5276 241.833 55.5538 241.833 56.8204C241.833 57.9575 242.666 58.9005 243.749 59.0762V167.965L226.221 185.568C225.814 185.189 225.268 184.948 224.667 184.948C223.408 184.948 222.381 185.974 222.381 187.241C222.381 188.508 223.408 189.534 224.667 189.534C225.925 189.534 226.952 188.508 226.952 187.241C226.952 186.917 226.888 186.612 226.767 186.326L244.545 168.473C244.628 168.39 244.684 168.27 244.684 168.15V59.0392C245.674 58.7896 246.414 57.8928 246.414 56.8204C246.414 55.5538 245.387 54.5276 244.129 54.5276H244.119Z" fill="#231F20"/>
<path d="M277.074 197.152L255.123 175.111L254.633 67.0084C255.632 66.7588 256.372 65.862 256.372 64.7896C256.372 63.523 255.345 62.4968 254.087 62.4968C252.828 62.4968 251.801 63.523 251.801 64.7896C251.801 65.9268 252.624 66.8605 253.707 67.0454L254.198 175.305C254.198 175.426 254.244 175.546 254.336 175.629L276.288 197.669V231.192L264.137 243.396C263.804 243.201 263.415 243.081 263.008 243.081C261.749 243.081 260.722 244.108 260.722 245.374C260.722 246.641 261.749 247.667 263.008 247.667C264.266 247.667 265.294 246.641 265.294 245.374C265.294 244.856 265.118 244.394 264.831 244.006L277.074 231.71C277.158 231.627 277.213 231.506 277.213 231.386V197.484C277.213 197.364 277.167 197.244 277.074 197.161V197.152Z" fill="#231F20"/>
<path d="M237.438 165.432C237.521 165.348 237.577 165.228 237.577 165.108V71.0022C238.613 70.7896 239.4 69.8651 239.4 68.7557C239.4 67.4891 238.373 66.4629 237.114 66.4629C235.856 66.4629 234.828 67.4891 234.828 68.7557C234.828 69.8651 235.615 70.7896 236.651 71.0022V164.914L216.292 185.355C215.922 185.105 215.478 184.957 215.006 184.957C213.747 184.957 212.72 185.984 212.72 187.25C212.72 188.517 213.747 189.543 215.006 189.543C216.264 189.543 217.291 188.517 217.291 187.25C217.291 186.797 217.153 186.381 216.93 186.03L237.438 165.432Z" fill="#231F20"/>
<path d="M249.432 184.634V63.9299C250.403 63.671 251.125 62.7835 251.125 61.7203C251.125 60.4537 250.098 59.4275 248.84 59.4275C247.581 59.4275 246.554 60.4537 246.554 61.7203C246.554 62.8759 247.405 63.8189 248.497 63.9853V184.745C247.599 185.05 246.942 185.9 246.942 186.908C246.942 188.175 247.97 189.201 249.228 189.201C250.487 189.201 251.514 188.175 251.514 186.908C251.514 185.706 250.589 184.736 249.423 184.634H249.432Z" fill="#231F20"/>
<path d="M14.8996 153.247L30.2988 205.167C30.9836 207.469 33.1029 209.05 35.509 209.05L97.9849 209.226C101.298 209.226 103.945 206.462 103.769 203.152C103.602 200.092 101.076 197.688 98.0034 197.688H74.1088L54.9801 144.436H21.4887C16.8986 144.436 13.5948 148.846 14.8996 153.247Z" fill="#455A64" stroke="#1A2E35" stroke-width="0.5" stroke-miterlimit="10"/>
<path d="M67.7603 201.959C67.7603 202.079 61.3933 202.181 53.5364 202.181C45.6795 202.181 39.3125 202.079 39.3125 201.959C39.3125 201.839 45.6795 201.737 53.5364 201.737C61.3933 201.737 67.7603 201.839 67.7603 201.959Z" fill="#263238" stroke="#1A2E35" stroke-width="0.5" stroke-miterlimit="10"/>
<path d="M19.499 146.082C19.6101 146.045 23.8671 158.48 29.0032 173.845C34.1394 189.219 38.202 201.71 38.091 201.747C37.9799 201.784 33.7229 189.358 28.5868 173.984C23.4599 158.609 19.388 146.119 19.5083 146.082H19.499Z" fill="#263238" stroke="#1A2E35" stroke-width="0.5" stroke-miterlimit="10"/>
<path d="M65.1595 255.193L61.3467 255.1V209.06H65.1595V255.193Z" fill="#455A64" stroke="#1A2E35" stroke-width="0.5" stroke-miterlimit="10"/>
<path d="M45.5312 254.98H80.9753L64.9191 249.405H61.1155L45.5312 254.98Z" fill="#455A64" stroke="#1A2E35" stroke-width="0.5" stroke-miterlimit="10"/>
<path d="M79.0139 160.791C78.8936 160.791 78.9491 153.866 79.1342 145.324C79.3193 136.781 79.5692 129.866 79.6987 129.866C79.8191 129.866 79.7635 136.791 79.5784 145.333C79.3933 153.875 79.1435 160.791 79.0139 160.791Z" fill="#263238" stroke="#1A2E35" stroke-width="0.5" stroke-miterlimit="10"/>
<path d="M96.4212 146.276C94.6351 143.049 92.849 139.814 91.063 136.587C88.6383 132.205 86.5006 127.666 83.8816 123.385C81.531 119.548 77.8385 117.034 73.6186 115.508C71.8973 114.889 70.0741 114.519 67.9734 114.427C63.4295 115.832 58.8764 115.832 54.3325 114.427C53.7773 114.5 53.0092 114.565 52.0375 114.685C52.0375 114.685 35.8424 114.806 33.8342 131.9L33.6306 141.089H33.5658V144.427L33.5381 160.818C33.7787 165.265 37.8043 168.473 42.1446 167.817L41.3858 183.719L80.7999 177.173L79.2544 157.962L79.2267 142.069L88.8882 160.781L96.412 146.257L96.4212 146.276Z" fill="#F15A29" stroke="#1A2E35" stroke-width="0.5" stroke-linecap="round" stroke-linejoin="round"/>
<path d="M68.0662 149.133C60.2556 150.621 52.9724 152.008 46.8368 153.173L46.6055 153.219V152.988C46.8183 147.117 46.9849 142.226 47.1052 138.76C47.1792 137.077 47.2348 135.736 47.2718 134.784C47.2995 134.35 47.3181 134.008 47.3273 133.739C47.3458 133.499 47.3551 133.379 47.3643 133.379C47.3736 133.379 47.3828 133.499 47.3828 133.739C47.3828 134.008 47.3828 134.35 47.3828 134.784C47.3643 135.736 47.3458 137.077 47.3181 138.76C47.2348 142.226 47.1237 147.117 46.9849 152.988L46.7628 152.803C52.8892 151.619 60.1723 150.214 67.9737 148.698C69.8338 148.347 71.6662 147.995 73.406 147.663L73.6651 147.616V147.884C73.6651 152.516 73.6466 156.908 73.6466 160.883V161.049L73.4893 161.077C66.8909 162.362 61.3291 163.435 57.3775 164.202C55.4433 164.563 53.9071 164.849 52.8151 165.053C52.3154 165.136 51.9082 165.21 51.6028 165.265C51.3252 165.311 51.1864 165.33 51.1864 165.321C51.1864 165.311 51.3252 165.274 51.5935 165.21C51.8989 165.145 52.2969 165.053 52.7874 164.942C53.8701 164.711 55.4063 164.387 57.3312 163.98C61.2736 163.176 66.8262 162.039 73.406 160.698L73.2487 160.892C73.2487 156.917 73.2302 152.535 73.2302 147.894L73.4893 148.106" fill="#263238"/>
<path d="M68.9079 114.695C68.9079 114.695 68.9635 114.787 69.0375 114.981C69.1115 115.175 69.1948 115.471 69.2781 115.85C69.4354 116.618 69.5187 117.792 69.13 119.169C68.7599 120.538 67.8622 122.054 66.4463 123.302C65.0581 124.578 63.0129 125.447 60.8197 125.419C58.6356 125.437 56.5627 124.55 55.2578 123.163C53.9344 121.786 53.3607 120.094 53.1941 118.698C53.0368 117.283 53.2959 116.128 53.5828 115.397C53.7309 115.027 53.8604 114.759 53.9807 114.584C54.0918 114.408 54.1473 114.316 54.1658 114.325C54.2121 114.353 53.9807 114.722 53.7494 115.453C53.518 116.183 53.3237 117.302 53.5087 118.661C53.7031 120.001 54.2954 121.601 55.5632 122.886C56.8033 124.171 58.756 125.003 60.8289 124.984C62.9111 125.003 64.8453 124.199 66.1872 122.997C67.5568 121.813 68.4452 120.38 68.8339 119.077C69.2411 117.773 69.2041 116.627 69.1115 115.869C69.0097 115.101 68.8709 114.695 68.9172 114.676L68.9079 114.695Z" fill="#263238"/>
<path d="M89.3047 249.137L92.0717 257.06C92.0717 257.06 107.129 272.952 111.145 271.695C113.773 270.872 110.016 266.702 103.612 254.12L102.002 248.813L89.3047 249.137Z" fill="#F15A29" stroke="#1A2E35" stroke-width="0.5" stroke-miterlimit="10"/>
<path opacity="0.4" d="M90.7202 253.149L91.7752 256.708C91.7752 256.708 100.567 265.399 103.121 267.35C105.666 269.3 108.803 272.074 111.126 271.593C113.449 271.112 111.404 268.986 111.404 268.986C111.404 268.986 110.784 270.539 109.664 270.197C108.544 269.855 106.453 268.977 101.64 264.659C96.828 260.342 96.0507 259.325 96.0507 259.325C96.0507 259.325 96.282 257.125 95.3474 255.913C94.4127 254.702 92.6358 252.964 90.7109 253.149H90.7202Z" fill="white" stroke="#1A2E35" stroke-width="0.5" stroke-miterlimit="10"/>
<path d="M111.422 269.097C111.422 269.097 111.33 269.495 110.784 269.846C110.256 270.216 109.22 270.345 108.202 269.753C106.24 268.505 103.677 266.471 100.947 264.169C98.2165 261.84 95.9029 259.565 94.2556 257.892C93.5246 257.125 92.886 256.459 92.3307 255.877C92.1457 255.682 91.9698 255.498 91.8125 255.331C91.6922 255.211 91.6274 255.146 91.6182 255.146C91.6182 255.146 91.6644 255.229 91.7755 255.359C91.9328 255.544 92.0901 255.729 92.266 255.941C92.6917 256.441 93.3302 257.152 94.1353 258.012C95.7456 259.723 98.0592 262.025 100.789 264.354C103.538 266.675 106.101 268.672 108.128 269.911C108.655 270.179 109.201 270.336 109.683 270.308C110.164 270.28 110.562 270.123 110.839 269.929C111.117 269.735 111.265 269.513 111.348 269.356C111.422 269.199 111.432 269.106 111.432 269.106L111.422 269.097Z" fill="#263238" stroke="#1A2E35" stroke-width="0.5" stroke-miterlimit="10"/>
<path d="M108.97 263.744C108.97 263.744 108.545 263.615 107.869 263.744C107.193 263.855 106.287 264.225 105.454 264.872C104.612 265.501 104.038 266.323 103.825 266.98C103.603 267.636 103.621 268.071 103.649 268.071C103.695 268.071 103.732 267.655 103.982 267.045C104.232 266.425 104.778 265.676 105.592 265.066C106.398 264.447 107.249 264.068 107.897 263.92C108.545 263.763 108.961 263.809 108.97 263.763V263.744Z" fill="#263238" stroke="#1A2E35" stroke-width="0.5" stroke-miterlimit="10"/>
<path d="M95.9772 260.98C95.9772 260.98 96.042 260.841 96.0975 260.573C96.153 260.305 96.2178 259.917 96.2456 259.436C96.3196 258.465 96.079 257.06 95.2461 255.803C94.4317 254.527 93.2194 253.759 92.294 253.464C91.8313 253.306 91.4333 253.251 91.165 253.242C90.8966 253.232 90.7393 253.242 90.7393 253.26C90.7393 253.306 91.35 253.288 92.2385 253.63C93.1176 253.954 94.2652 254.712 95.0518 255.932C95.8476 257.152 96.1068 258.484 96.079 259.427C96.0697 260.379 95.9402 260.971 95.9772 260.971V260.98Z" fill="#263238" stroke="#1A2E35" stroke-width="0.5" stroke-miterlimit="10"/>
<path d="M90.295 250.431C90.2395 250.459 90.656 251.559 91.0539 252.974C91.4426 254.388 91.9331 255.488 92.0071 255.46C92.0534 255.433 91.6739 254.323 91.2853 252.909C90.8873 251.494 90.3598 250.403 90.295 250.44V250.431Z" fill="#263238" stroke="#1A2E35" stroke-width="0.5" stroke-miterlimit="10"/>
<path d="M103.963 255.239C103.963 255.174 103.177 255.118 102.261 255.433C101.344 255.738 100.752 256.274 100.798 256.32C100.845 256.376 101.474 255.96 102.344 255.664C103.214 255.359 103.973 255.313 103.973 255.239H103.963Z" fill="#263238" stroke="#1A2E35" stroke-width="0.5" stroke-miterlimit="10"/>
<path d="M104.38 256.607C104.389 256.542 103.714 256.431 102.936 256.699C102.159 256.967 101.696 257.485 101.742 257.522C101.789 257.577 102.288 257.18 103.01 256.93C103.732 256.671 104.371 256.681 104.371 256.607H104.38Z" fill="#263238" stroke="#1A2E35" stroke-width="0.5" stroke-miterlimit="10"/>
<path d="M105.62 258.243C105.657 258.188 104.945 257.92 104.112 258.206C103.27 258.484 102.872 259.131 102.936 259.149C102.992 259.196 103.427 258.678 104.186 258.437C104.945 258.179 105.602 258.317 105.62 258.253V258.243Z" fill="#263238" stroke="#1A2E35" stroke-width="0.5" stroke-miterlimit="10"/>
<path d="M102.992 254.749C102.992 254.749 102.363 254.647 101.373 254.379C100.882 254.24 100.308 254.046 99.6883 253.769C99.3829 253.63 99.059 253.473 98.7444 253.297C98.4575 253.121 98.1244 252.863 98.1058 252.548C98.0781 252.225 98.4575 252.021 98.7722 252.067C99.0961 252.114 99.3829 252.326 99.6513 252.53C100.188 252.936 100.651 253.334 101.03 253.685C101.789 254.379 102.215 254.841 102.243 254.823C102.252 254.813 102.159 254.684 101.974 254.462C101.789 254.24 101.511 253.926 101.141 253.565C100.771 253.205 100.318 252.789 99.7809 252.363C99.5125 252.16 99.2164 251.901 98.7999 251.846C98.4112 251.772 97.8375 252.04 97.8652 252.576C97.9208 253.075 98.3187 253.325 98.6241 253.519C98.9572 253.704 99.2811 253.861 99.5958 253.99C100.225 254.259 100.817 254.443 101.326 254.554C101.835 254.675 102.252 254.73 102.539 254.758C102.826 254.786 102.983 254.776 102.992 254.758V254.749Z" fill="#263238" stroke="#1A2E35" stroke-width="0.5" stroke-miterlimit="10"/>
<path d="M102.28 254.656C102.28 254.656 102.317 254.074 102.372 253.149C102.409 252.687 102.474 252.141 102.668 251.568C102.77 251.291 102.9 250.986 103.085 250.736C103.261 250.487 103.557 250.255 103.816 250.376C104.075 250.487 104.149 250.856 104.149 251.161C104.131 251.476 104.075 251.79 103.982 252.077C103.807 252.65 103.52 253.131 103.251 253.5C102.705 254.249 102.261 254.619 102.289 254.656C102.298 254.665 102.418 254.582 102.622 254.416C102.816 254.24 103.094 253.981 103.39 253.602C103.677 253.232 103.992 252.752 104.195 252.141C104.297 251.836 104.371 251.513 104.39 251.161C104.39 250.829 104.353 250.366 103.918 250.154C103.464 249.969 103.085 250.329 102.9 250.597C102.696 250.893 102.567 251.198 102.465 251.504C102.27 252.104 102.224 252.678 102.206 253.149C102.196 253.621 102.206 254 102.233 254.259C102.252 254.517 102.27 254.665 102.289 254.665L102.28 254.656Z" fill="#263238" stroke="#1A2E35" stroke-width="0.5" stroke-miterlimit="10"/>
<path d="M127.035 251.226L126.461 245.698L111.312 245.975L111.358 254.887L112.32 254.952C116.605 255.211 134.142 255.978 137.011 255.146C140.213 254.212 127.025 251.226 127.025 251.226H127.035Z" fill="#F15A29" stroke="#1A2E35" stroke-width="0.5" stroke-miterlimit="10"/>
<g opacity="0.5">
<path d="M116.994 254.804C116.781 253.528 116.17 252.253 115.134 251.448C114.097 250.653 113.144 250.191 111.33 250.403L111.367 254.675L116.984 254.804H116.994Z" fill="white" stroke="#1A2E35" stroke-width="0.5" stroke-miterlimit="10"/>
</g>
<g opacity="0.5">
<path d="M133.475 252.918C133.475 252.918 138.093 254.259 137.51 254.998C136.927 255.738 119.177 255.618 111.357 254.897L111.385 254.555L132.087 254.869C132.087 254.869 132.568 252.946 133.475 252.918Z" fill="white"/>
</g>
<path d="M111.413 254.573C111.644 254.592 111.894 254.601 112.181 254.619C112.949 254.656 113.893 254.702 115.004 254.758C117.391 254.86 120.686 254.952 124.332 254.98C127.978 255.008 131.273 254.961 133.66 254.897C134.771 254.86 135.715 254.832 136.483 254.804C136.77 254.786 137.02 254.776 137.251 254.767C137.427 254.758 137.519 254.749 137.519 254.739C137.519 254.739 137.427 254.73 137.251 254.73C137.02 254.73 136.77 254.73 136.483 254.73C135.715 254.739 134.771 254.749 133.66 254.767C131.273 254.795 127.978 254.823 124.332 254.795C120.686 254.767 117.391 254.693 115.004 254.619C113.893 254.592 112.949 254.564 112.181 254.536C111.894 254.536 111.644 254.527 111.413 254.518C111.237 254.518 111.145 254.518 111.145 254.518" fill="#263238"/>
<path d="M132.078 255.1C132.133 255.1 132.18 254.444 132.614 253.787C133.031 253.112 133.614 252.78 133.586 252.733C133.577 252.687 132.911 252.974 132.457 253.686C131.994 254.397 132.031 255.109 132.078 255.1Z" fill="#263238" stroke="#1A2E35" stroke-width="0.5" stroke-miterlimit="10"/>
<path d="M127.515 252.789C127.515 252.789 127.784 252.557 128.006 252.206C128.237 251.855 128.385 251.55 128.339 251.522C128.293 251.494 128.071 251.753 127.848 252.105C127.617 252.456 127.469 252.761 127.515 252.789Z" fill="#263238" stroke="#1A2E35" stroke-width="0.5" stroke-miterlimit="10"/>
<path d="M126.256 252.132C126.256 252.132 126.534 252.012 126.802 251.781C127.071 251.55 127.265 251.328 127.228 251.291C127.191 251.254 126.951 251.411 126.682 251.642C126.414 251.873 126.219 252.095 126.256 252.132Z" fill="#263238" stroke="#1A2E35" stroke-width="0.5" stroke-miterlimit="10"/>
<path d="M125.471 250.69C125.471 250.746 125.832 250.792 126.285 250.801C126.729 250.801 127.099 250.773 127.099 250.727C127.099 250.672 126.739 250.625 126.285 250.616C125.841 250.616 125.471 250.644 125.471 250.69Z" fill="#263238" stroke="#1A2E35" stroke-width="0.5" stroke-miterlimit="10"/>
<path d="M125.202 249.673C125.202 249.673 125.582 249.895 126.109 249.941C126.637 249.987 127.053 249.876 127.044 249.83C127.044 249.775 126.627 249.803 126.128 249.766C125.628 249.729 125.23 249.636 125.211 249.682L125.202 249.673Z" fill="#263238" stroke="#1A2E35" stroke-width="0.5" stroke-miterlimit="10"/>
<path d="M128.052 251.467C128.052 251.467 128.431 251.531 129.051 251.467C129.357 251.43 129.727 251.365 130.115 251.245C130.31 251.18 130.513 251.125 130.726 251.004C130.828 250.94 130.939 250.847 130.976 250.699C131.022 250.551 130.939 250.385 130.828 250.311C129.875 249.821 128.912 250.339 128.561 250.82C128.366 251.069 128.274 251.3 128.228 251.467C128.191 251.633 128.191 251.726 128.2 251.735C128.237 251.744 128.274 251.347 128.663 250.903C128.857 250.681 129.144 250.468 129.523 250.367C129.875 250.265 130.375 250.246 130.717 250.45C130.874 250.57 130.81 250.746 130.634 250.847C130.467 250.949 130.254 251.014 130.069 251.078C129.69 251.199 129.338 251.282 129.042 251.337C128.44 251.439 128.061 251.439 128.061 251.467H128.052Z" fill="#263238" stroke="#1A2E35" stroke-width="0.5" stroke-miterlimit="10"/>
<path d="M128.302 251.522C128.302 251.522 128.469 251.282 128.423 250.847C128.404 250.635 128.321 250.376 128.154 250.135C127.978 249.914 127.756 249.618 127.331 249.627C127.099 249.655 126.988 249.914 127.016 250.08C127.034 250.256 127.108 250.394 127.182 250.514C127.331 250.764 127.497 250.958 127.654 251.106C127.969 251.411 128.21 251.522 128.219 251.504C128.237 251.476 128.025 251.328 127.747 251.014C127.608 250.857 127.46 250.662 127.331 250.422C127.192 250.219 127.099 249.84 127.358 249.803C127.608 249.784 127.858 250.024 128.015 250.219C128.173 250.431 128.256 250.662 128.293 250.857C128.367 251.254 128.274 251.504 128.302 251.513V251.522Z" fill="#263238" stroke="#1A2E35" stroke-width="0.5" stroke-miterlimit="10"/>
<path d="M111.487 250.376C111.487 250.376 111.932 250.339 112.635 250.422C113.329 250.505 114.301 250.792 115.134 251.448C115.966 252.114 116.457 252.974 116.688 253.621C116.92 254.277 116.938 254.712 116.975 254.712C116.984 254.712 116.994 254.601 116.975 254.407C116.957 254.212 116.91 253.926 116.809 253.584C116.605 252.909 116.124 251.994 115.254 251.3C114.384 250.607 113.366 250.339 112.653 250.283C112.292 250.256 111.996 250.274 111.802 250.302C111.598 250.329 111.497 250.357 111.497 250.366L111.487 250.376Z" fill="#263238" stroke="#1A2E35" stroke-width="0.5" stroke-miterlimit="10"/>
<path d="M118.965 253.334C118.965 253.38 119.974 253.556 121.232 253.574C122.491 253.593 123.509 253.464 123.509 253.408C123.509 253.353 122.491 253.408 121.241 253.39C119.992 253.371 118.974 253.288 118.974 253.334H118.965Z" fill="#263238" stroke="#1A2E35" stroke-width="0.5" stroke-miterlimit="10"/>
<path d="M115.92 253.306C115.92 253.306 116.003 253.519 116.105 253.75C116.207 253.981 116.262 254.185 116.318 254.175C116.364 254.175 116.401 253.935 116.281 253.676C116.161 253.408 115.957 253.279 115.929 253.316L115.92 253.306Z" fill="#263238"/>
<path d="M114.781 251.901C114.781 251.901 114.846 252.095 115.003 252.253C115.161 252.41 115.327 252.511 115.364 252.484C115.401 252.447 115.299 252.29 115.142 252.132C114.985 251.975 114.828 251.874 114.781 251.901Z" fill="#263238"/>
<path d="M113.144 251.254C113.153 251.309 113.357 251.309 113.588 251.383C113.819 251.457 113.977 251.587 114.023 251.55C114.069 251.522 113.94 251.3 113.653 251.208C113.366 251.106 113.135 251.208 113.144 251.254Z" fill="#263238"/>
<path d="M111.977 250.94C111.958 250.986 112.051 251.069 112.171 251.115C112.301 251.162 112.421 251.171 112.44 251.115C112.458 251.069 112.366 250.986 112.245 250.94C112.116 250.894 111.995 250.884 111.977 250.94Z" fill="#263238"/>
<path opacity="0.3" d="M111.33 248.943L126.803 248.989L126.461 245.698L111.312 245.975L111.33 248.943Z" fill="black" stroke="#1A2E35" stroke-width="0.5" stroke-miterlimit="10"/>
<path d="M111.737 174.381C96.7538 175.934 76.8848 177.968 76.8848 177.968L79.5963 202.338C79.5963 202.338 108.784 194.628 108.581 195.256C108.368 195.885 109.932 247.112 109.932 247.112H127.506L127.839 189.099C127.959 180.372 120.436 173.493 111.746 174.39L111.737 174.381Z" fill="#263238" stroke="#1A2E35" stroke-width="0.5" stroke-miterlimit="10"/>
<path d="M41.0244 184.218V191.771C41.0244 196.911 46.8917 202.366 52.0371 202.366H56.0164C59.1536 202.366 64.0677 200.082 66.6034 198.233L68.1211 197.124L86.4261 253.769C86.4261 253.769 107.369 250.015 107.369 249.359C107.369 248.702 93.1818 202.958 86.639 181.731C83.9645 173.059 74.6731 168.02 66.0851 170.97C65.789 171.071 65.5021 171.182 65.206 171.293C55.8221 175.047 41.0244 184.209 41.0244 184.209V184.218Z" fill="#263238" stroke="#1A2E35" stroke-width="0.5" stroke-miterlimit="10"/>
<path d="M107.378 249.368C107.378 249.368 107.341 249.303 107.286 249.165C107.221 249.008 107.147 248.804 107.054 248.555C106.851 248.018 106.564 247.232 106.221 246.206C105.518 244.154 104.556 241.177 103.39 237.488C101.057 230.111 97.9202 219.885 94.5147 208.569C92.8211 202.912 91.2016 197.522 89.7394 192.622C89.0083 190.172 88.3143 187.842 87.6665 185.66C87.3426 184.569 87.0279 183.515 86.7225 182.508C86.4171 181.491 86.1395 180.529 85.7693 179.642C85.0567 177.857 83.9277 176.498 82.8172 175.463C81.6882 174.427 80.6147 173.651 79.717 173.05C78.8193 172.449 78.1067 172.005 77.6163 171.709C77.3942 171.571 77.2091 171.46 77.0703 171.367C76.95 171.284 76.8852 171.247 76.8944 171.238C76.8944 171.238 76.9685 171.266 77.098 171.33C77.2461 171.413 77.4404 171.515 77.6718 171.635C78.1715 171.903 78.9026 172.329 79.8188 172.911C80.735 173.494 81.827 174.252 82.993 175.287C84.1406 176.323 85.3159 177.709 86.0655 179.531C86.4541 180.427 86.7503 181.407 87.0557 182.415C87.3611 183.423 87.685 184.477 88.0181 185.568C88.6844 187.75 89.3878 190.07 90.1281 192.52C91.6088 197.42 93.2376 202.81 94.9404 208.459C98.3552 219.747 101.437 229.972 103.686 237.405C104.815 241.075 105.74 244.061 106.388 246.16C106.703 247.168 106.962 247.963 107.138 248.536C107.212 248.786 107.276 248.989 107.332 249.155C107.369 249.294 107.387 249.368 107.378 249.368Z" fill="#455A64" stroke="#1A2E35" stroke-width="0.5" stroke-miterlimit="10"/>
<path d="M111.792 187.944C111.904 188.018 110.904 189.515 110.071 191.54C109.22 193.565 108.868 195.321 108.739 195.303C108.627 195.294 108.794 193.454 109.664 191.374C110.525 189.284 111.709 187.87 111.792 187.944Z" fill="#455A64" stroke="#1A2E35" stroke-width="0.5" stroke-miterlimit="10"/>
<path d="M115.151 190.301C115.207 190.421 113.689 191.087 112.116 192.335C110.533 193.565 109.534 194.877 109.423 194.804C109.33 194.748 110.2 193.278 111.847 191.993C113.485 190.699 115.123 190.199 115.151 190.31V190.301Z" fill="#455A64" stroke="#1A2E35" stroke-width="0.5" stroke-miterlimit="10"/>
<path d="M86.6295 253.778C86.5092 253.815 81.5674 238.653 75.5891 219.923C69.6015 201.183 64.8448 185.965 64.9651 185.928C65.0854 185.891 70.0272 201.044 76.0055 219.784C81.9838 238.514 86.7498 253.732 86.6295 253.769V253.778Z" fill="#455A64" stroke="#1A2E35" stroke-width="0.5" stroke-miterlimit="10"/>
<path d="M53.6661 93.6898C53.0924 92.3401 51.8708 90.075 51.5654 88.642C51.2693 87.209 51.2693 85.6836 51.8245 84.3246C52.3798 82.9748 53.5551 81.8284 54.9895 81.5418C55.8779 81.3661 56.8218 81.5141 57.6732 81.1997C58.6542 80.8392 59.3113 79.9331 60.0794 79.2213C61.2732 78.1026 62.8372 77.3907 64.4659 77.2243C65.3173 77.1319 66.215 77.1966 66.9738 77.5849C67.7419 77.9732 68.3527 78.722 68.4175 79.5726C69.417 79.2398 70.435 78.8977 71.4899 78.833C72.5449 78.7683 73.6555 79.0086 74.4513 79.7113C75.2379 80.4139 75.6081 81.6342 75.1361 82.568C75.9968 82.0688 77.2091 82.4571 77.7366 83.2984C78.2641 84.1397 78.1438 85.2953 77.57 86.1089C76.9963 86.9224 75.6544 87.6435 74.6642 87.7822C73.674 87.9209 72.5264 88.0134 71.5825 87.699" fill="#263238"/>
<path d="M53.6661 93.6898C53.0924 92.3401 51.8708 90.075 51.5654 88.642C51.2693 87.209 51.2693 85.6836 51.8245 84.3246C52.3798 82.9748 53.5551 81.8284 54.9895 81.5418C55.8779 81.3661 56.8218 81.5141 57.6732 81.1997C58.6542 80.8392 59.3113 79.9331 60.0794 79.2213C61.2732 78.1026 62.8372 77.3907 64.4659 77.2243C65.3173 77.1319 66.215 77.1966 66.9738 77.5849C67.7419 77.9732 68.3527 78.722 68.4175 79.5726C69.417 79.2398 70.435 78.8977 71.4899 78.833C72.5449 78.7683 73.6555 79.0086 74.4513 79.7113C75.2379 80.4139 75.6081 81.6342 75.1361 82.568C75.9968 82.0688 77.2091 82.4571 77.7366 83.2984C78.2641 84.1397 78.1438 85.2953 77.57 86.1089C76.9963 86.9224 75.6544 87.6435 74.6642 87.7822C73.674 87.9209 72.5264 88.0134 71.5825 87.699" stroke="#1A2E35" stroke-width="0.5" stroke-miterlimit="10"/>
<path d="M74.0352 90.8515C73.9334 85.4432 69.5191 81.1165 64.1145 81.1165C58.5897 81.1165 54.1291 85.6188 54.1847 91.1381L54.2032 93.1351C53.1482 92.9872 51.3806 93.1351 51.3528 95.696C51.3251 98.3031 53.213 98.6544 54.268 98.6174L54.4715 117.45C54.5178 120.926 57.544 123.653 61.2642 123.57C65.0215 123.487 68.0754 120.584 68.0847 117.071C68.0939 113.391 68.1772 109.508 68.1772 109.508C68.1772 109.508 72.9247 108.722 73.9149 102.528C74.1555 101.003 74.1277 95.7607 74.0259 90.8423L74.0352 90.8515Z" fill="#FFBF9D" stroke="#1A2E35" stroke-width="0.5" stroke-miterlimit="10"/>
<path d="M53.8696 97.129C53.8696 97.129 53.8048 97.1752 53.703 97.2214C53.6012 97.2676 53.4161 97.2954 53.231 97.2214C52.8516 97.0735 52.5369 96.4726 52.5277 95.8162C52.5277 95.4833 52.5925 95.1782 52.7128 94.9194C52.8238 94.6605 52.9996 94.4756 53.194 94.4386C53.3883 94.3924 53.5179 94.5126 53.5642 94.6143C53.6104 94.716 53.5919 94.79 53.6104 94.79C53.6197 94.79 53.6845 94.7345 53.6567 94.5773C53.6382 94.5034 53.6012 94.4202 53.5179 94.3462C53.4346 94.2722 53.305 94.2352 53.1662 94.2537C52.8886 94.2722 52.6295 94.5218 52.4999 94.8084C52.3518 95.095 52.2686 95.4464 52.2686 95.8162C52.2871 96.5465 52.648 97.2307 53.1755 97.3878C53.4253 97.4525 53.6382 97.3878 53.7492 97.2954C53.8603 97.2029 53.8788 97.129 53.8696 97.1197V97.129Z" fill="#AA6550" stroke="#1A2E35" stroke-width="0.5" stroke-miterlimit="10"/>
<path d="M72.7311 93.4955C72.7496 93.9115 72.4072 94.2721 71.963 94.2998C71.5281 94.3276 71.1579 94.004 71.1394 93.588C71.1209 93.1719 71.4633 92.8114 71.9075 92.7836C72.3424 92.7559 72.7126 93.0795 72.7311 93.4955Z" fill="#263238" stroke="#1A2E35" stroke-width="0.5" stroke-miterlimit="10"/>
<path d="M72.8975 92.9131C72.7957 93.0148 72.1942 92.571 71.3428 92.571C70.4914 92.5618 69.8621 92.9963 69.7696 92.8946C69.7233 92.8484 69.8251 92.6635 70.0935 92.4601C70.3618 92.2659 70.8246 92.0718 71.3521 92.0718C71.8888 92.0718 72.333 92.2752 72.5921 92.4693C72.8513 92.6727 72.9438 92.8576 72.8975 92.9038V92.9131Z" fill="#263238" stroke="#1A2E35" stroke-width="0.5" stroke-miterlimit="10"/>
<path d="M64.1706 93.6435C64.1891 94.0595 63.8467 94.4201 63.4025 94.4478C62.9675 94.4755 62.5973 94.1519 62.5788 93.7359C62.5603 93.3199 62.9027 92.9593 63.3469 92.9316C63.7819 92.9039 64.1521 93.2274 64.1706 93.6435Z" fill="#263238" stroke="#1A2E35" stroke-width="0.5" stroke-miterlimit="10"/>
<path d="M64.4942 93.0703C64.3924 93.172 63.7909 92.7282 62.9395 92.7282C62.0881 92.719 61.4588 93.1535 61.3662 93.0518C61.32 93.0056 61.4218 92.8207 61.6902 92.6173C61.9585 92.4231 62.4212 92.229 62.9487 92.229C63.4855 92.229 63.9297 92.4324 64.1888 92.6265C64.4479 92.8299 64.5405 93.0148 64.4942 93.0611V93.0703Z" fill="#263238" stroke="#1A2E35" stroke-width="0.5" stroke-miterlimit="10"/>
<path d="M67.5942 99.4125C67.5942 99.3662 68.1217 99.2738 68.9824 99.1629C69.2045 99.1444 69.4081 99.0981 69.4451 98.9502C69.5006 98.793 69.4081 98.5619 69.297 98.3031C69.0934 97.7761 68.8806 97.2214 68.6492 96.6389C67.7516 94.2722 67.1038 92.3307 67.1963 92.2937C67.2888 92.2568 68.094 94.1428 68.9916 96.5095C69.2045 97.092 69.4173 97.6467 69.6117 98.1829C69.695 98.4325 69.8338 98.7098 69.7227 99.0427C69.6672 99.2091 69.5006 99.32 69.3618 99.3662C69.223 99.4125 69.1027 99.4125 68.9916 99.4217C68.1217 99.4679 67.585 99.4679 67.585 99.4217L67.5942 99.4125Z" fill="#263238" stroke="#1A2E35" stroke-width="0.5" stroke-miterlimit="10"/>
<path d="M67.9554 109.314C67.9554 109.314 63.7817 109.582 59.6543 107.104C59.6543 107.104 61.6717 111.357 67.8721 110.775L67.9554 109.314Z" fill="#AA6550"/>
<path d="M65.0769 100.004C65.2157 100.004 65.2157 100.919 66.0116 101.585C66.8075 102.241 67.7977 102.14 67.7977 102.269C67.8069 102.325 67.5756 102.445 67.1591 102.463C66.7519 102.482 66.1504 102.343 65.6692 101.946C65.1879 101.539 64.9751 101.003 64.9473 100.624C64.9103 100.235 65.0121 100.004 65.0769 100.013V100.004Z" fill="#263238" stroke="#1A2E35" stroke-width="0.5" stroke-miterlimit="10"/>
<path d="M64.7166 89.7236C64.6333 89.9547 63.7819 89.8438 62.7732 89.964C61.7645 90.0657 60.9593 90.3615 60.8205 90.1489C60.765 90.0472 60.9038 89.8346 61.2277 89.6034C61.5516 89.3815 62.0699 89.1689 62.6714 89.095C63.2729 89.0302 63.8282 89.1227 64.1891 89.2706C64.5593 89.4185 64.7443 89.6034 64.7073 89.7144L64.7166 89.7236Z" fill="#263238" stroke="#1A2E35" stroke-width="0.5" stroke-miterlimit="10"/>
<path d="M72.5821 90.4448C72.434 90.6389 71.8418 90.4448 71.1384 90.4263C70.4258 90.3893 69.8336 90.5557 69.6947 90.3523C69.63 90.2506 69.7318 90.0565 69.9909 89.8716C70.25 89.6867 70.685 89.5387 71.1662 89.5572C71.6567 89.5757 72.0731 89.7514 72.323 89.9455C72.5728 90.1489 72.6561 90.3431 72.5914 90.4355L72.5821 90.4448Z" fill="#263238" stroke="#1A2E35" stroke-width="0.5" stroke-miterlimit="10"/>
<path d="M74.572 86.5988C74.572 86.5988 70.824 87.8562 66.4097 86.1828C63.5131 85.0827 60.2278 84.7406 59.5707 85.36C58.9137 85.9887 59.0525 88.8454 56.4057 89.9456C56.4057 89.9456 57.1461 95.3447 54.9621 95.3724C52.778 95.4002 53.2778 86.867 53.2778 86.867L57.7013 82.5495L63.3742 80.571L69.3896 81.5325L74.5812 82.568V86.5896L74.572 86.5988Z" fill="#263238" stroke="#1A2E35" stroke-width="0.5" stroke-miterlimit="10"/>
<path d="M77.7278 83.3169C77.2003 82.4756 75.988 82.0873 75.1274 82.5865C75.5993 81.6435 75.2292 80.4232 74.4425 79.7298C73.6559 79.0272 72.5361 78.7868 71.4812 78.8515C70.4262 78.9162 69.4082 79.2583 68.4087 79.5911C68.3439 78.7406 67.7332 77.9825 66.965 77.6034C66.1969 77.2151 65.3085 77.1504 64.4571 77.2429C62.8284 77.4093 61.2644 78.1212 60.0706 79.2398C59.3025 79.9517 58.6454 80.8577 57.6645 81.2183C56.8131 81.5326 55.8691 81.3847 54.9807 81.5603C53.5463 81.8469 52.371 82.9933 51.8157 84.3431C51.2605 85.6929 51.2605 87.2276 51.5566 88.6606C51.8527 90.0936 53.0836 92.3586 53.6573 93.7084C53.6573 93.7084 53.6573 93.7084 53.6573 93.6992C53.9165 94.6976 54.3144 95.4095 54.9437 95.4003C57.1277 95.3725 56.3874 89.9734 56.3874 89.9734C59.0341 88.864 58.9045 86.0072 59.5523 85.3878C60.2094 84.7591 63.4947 85.1105 66.3913 86.2106C68.0663 86.8485 69.6395 87.0612 70.9629 87.0797C71.1758 87.2923 71.3794 87.5049 71.5644 87.7361C72.5084 88.0504 73.6559 87.9579 74.6461 87.8193C75.6363 87.6806 76.969 86.9595 77.552 86.1459C78.1258 85.3323 78.2461 84.1767 77.7186 83.3354L77.7278 83.3169Z" fill="#263238" stroke="#1A2E35" stroke-width="0.5" stroke-miterlimit="10"/>
<path d="M73.4791 149.567C73.4791 149.567 81.1417 150.113 82.5206 152.137C83.8995 154.162 86.0002 159.931 85.2044 159.977C84.4085 160.023 83.8255 159.543 83.8255 159.543L81.7247 155.826C81.7247 155.826 82.0579 159.413 80.8085 159.487C79.55 159.561 73.3311 160.8 73.3311 160.8L73.4791 149.567Z" fill="#FFBF9D" stroke="#1A2E35" stroke-width="0.5" stroke-miterlimit="10"/>
<path d="M64.1699 165.404L124.082 165.977L135.252 134.433L91.6738 134.729L81.5588 163.093L64.1699 163.352V165.404Z" fill="#E0E0E0" stroke="#1A2E35" stroke-width="0.5" stroke-miterlimit="10"/>
<path d="M109.59 152.923C108.267 152.738 107.341 151.509 107.526 150.187C107.712 148.865 108.942 147.94 110.266 148.125C111.589 148.31 112.515 149.54 112.329 150.862C112.144 152.184 110.914 153.108 109.59 152.923Z" fill="white" stroke="#1A2E35" stroke-width="0.5" stroke-miterlimit="10"/>
<path d="M0.231445 165.598V169.047H14.6127V255.1H17.4815V169.047H147.801V255.1H150.614V169.047H166.171V165.598H0.231445Z" fill="#263238" stroke="#1A2E35" stroke-width="0.5" stroke-miterlimit="10"/>
</g>
<defs>
<clipPath id="clip0_2125_5589">
<rect width="295" height="272" fill="white"/>
</clipPath>
</defs>
</svg>
